<svg width="194" height="60" viewBox="0 0 194 60" fill="none" xmlns="http://www.w3.org/2000/svg">
<path d="M0 0H194V60H0V0Z" fill="#091242"/>
<mask id="mask0_1_3783" style="mask-type:alpha" maskUnits="userSpaceOnUse" x="0" y="0" width="194" height="60">
<path d="M0 0H194V60H0V0Z" fill="#FFB629"/>
</mask>
<g mask="url(#mask0_1_3783)">
<circle cx="185" cy="62" r="26" fill="#1F2A69"/>
</g>
<path d="M62.5031 36C62.4817 34.0693 62.4177 32.4267 62.3111 31.072C62.2044 29.7067 62.0337 28.368 61.7991 27.056C61.3831 28.1547 61.0257 29.1893 60.7271 30.16C60.4284 31.1307 60.0284 32.56 59.5271 34.448H57.9431C57.5057 32.72 57.1324 31.3493 56.8231 30.336C56.5244 29.312 56.1564 28.2187 55.7191 27.056C55.4951 28.368 55.3244 29.7067 55.2071 31.072C55.1004 32.4373 55.0257 34.08 54.9831 36H52.9831C53.0257 33.7387 53.1537 31.7227 53.3671 29.952C53.5911 28.1707 53.9324 26.4533 54.3911 24.8H56.6471C57.2124 26.176 57.6337 27.2907 57.9111 28.144C58.1991 28.9867 58.4711 29.936 58.7271 30.992C58.9937 29.9573 59.2711 29.024 59.5591 28.192C59.8577 27.3493 60.2951 26.2187 60.8711 24.8H63.1271C63.6071 26.464 63.9591 28.1867 64.1831 29.968C64.4071 31.7493 64.5297 33.76 64.5511 36H62.5031ZM69.9726 36.16C68.6926 36.16 67.7112 35.7653 67.0286 34.976C66.3459 34.1867 66.0046 33.056 66.0046 31.584C66.0046 30.112 66.3459 28.9867 67.0286 28.208C67.7112 27.4293 68.6926 27.04 69.9726 27.04C71.2526 27.04 72.2286 27.4293 72.9006 28.208C73.5832 28.9867 73.9246 30.112 73.9246 31.584C73.9246 33.0667 73.5832 34.2027 72.9006 34.992C72.2179 35.7707 71.2419 36.16 69.9726 36.16ZM69.9726 34.832C70.6659 34.832 71.1672 34.576 71.4766 34.064C71.7966 33.5413 71.9566 32.7147 71.9566 31.584C71.9566 30.464 71.7966 29.648 71.4766 29.136C71.1672 28.624 70.6659 28.368 69.9726 28.368C69.2792 28.368 68.7726 28.624 68.4526 29.136C68.1432 29.6373 67.9886 30.4533 67.9886 31.584C67.9886 32.7253 68.1432 33.552 68.4526 34.064C68.7726 34.576 69.2792 34.832 69.9726 34.832ZM79.6613 27.088C80.1306 27.088 80.472 27.184 80.6853 27.376C80.9093 27.568 81.0213 27.8613 81.0213 28.256C81.0213 28.4053 81 28.5547 80.9573 28.704C80.9146 28.8427 80.856 28.9547 80.7813 29.04C80.664 28.9653 80.52 28.912 80.3493 28.88C80.1893 28.848 79.9706 28.832 79.6933 28.832C79 28.832 78.4666 29.072 78.0933 29.552C77.72 30.0213 77.5333 30.6987 77.5333 31.584V36H75.5973V27.2H77.5333V28.512C77.7573 28.064 78.056 27.7173 78.4293 27.472C78.8026 27.216 79.2133 27.088 79.6613 27.088ZM89.9134 31.008C89.9134 31.1893 89.8921 31.4933 89.8494 31.92H83.9614C84.0148 32.8373 84.2281 33.5467 84.6014 34.048C84.9748 34.5493 85.4814 34.8 86.1214 34.8C86.5588 34.8 86.9161 34.7147 87.1934 34.544C87.4814 34.3627 87.8068 34.016 88.1694 33.504C88.2334 33.408 88.3454 33.36 88.5054 33.36C88.8041 33.36 89.2148 33.5467 89.7374 33.92C89.4388 34.6453 88.9748 35.2 88.3454 35.584C87.7268 35.968 86.9854 36.16 86.1214 36.16C84.8308 36.16 83.8121 35.7547 83.0654 34.944C82.3294 34.1227 81.9614 33.0027 81.9614 31.584C81.9614 30.176 82.3348 29.0667 83.0814 28.256C83.8281 27.4453 84.8521 27.04 86.1534 27.04C87.3481 27.04 88.2708 27.3867 88.9214 28.08C89.5828 28.7733 89.9134 29.7493 89.9134 31.008ZM87.9454 30.736C87.9454 29.1467 87.3321 28.352 86.1054 28.352C85.4974 28.352 85.0121 28.5547 84.6494 28.96C84.2974 29.3547 84.0788 29.9467 83.9934 30.736H87.9454ZM108.458 24.8C108.213 26.9013 107.893 28.8053 107.498 30.512C107.104 32.208 106.56 34.0373 105.866 36H103.706C103.12 34.1547 102.688 32.7253 102.41 31.712C102.133 30.6987 101.898 29.6587 101.706 28.592C101.493 29.776 101.242 30.9013 100.954 31.968C100.666 33.0347 100.256 34.3787 99.7223 36H97.5623C96.8476 34.08 96.277 32.2667 95.8503 30.56C95.4343 28.8533 95.0876 26.9333 94.8103 24.8H96.8103C97.0236 26.6987 97.253 28.272 97.4983 29.52C97.7543 30.7573 98.133 32.192 98.6343 33.824C99.0716 32.5013 99.4343 31.2587 99.7223 30.096C100.021 28.9333 100.421 27.168 100.922 24.8H102.442C103.082 27.5307 103.536 29.4293 103.802 30.496C104.08 31.552 104.405 32.656 104.778 33.808C105.258 32.2187 105.616 30.8053 105.85 29.568C106.085 28.3307 106.304 26.7413 106.506 24.8H108.458ZM113.191 36.16C111.911 36.16 110.93 35.7653 110.247 34.976C109.565 34.1867 109.223 33.056 109.223 31.584C109.223 30.112 109.565 28.9867 110.247 28.208C110.93 27.4293 111.911 27.04 113.191 27.04C114.471 27.04 115.447 27.4293 116.119 28.208C116.802 28.9867 117.143 30.112 117.143 31.584C117.143 33.0667 116.802 34.2027 116.119 34.992C115.437 35.7707 114.461 36.16 113.191 36.16ZM113.191 34.832C113.885 34.832 114.386 34.576 114.695 34.064C115.015 33.5413 115.175 32.7147 115.175 31.584C115.175 30.464 115.015 29.648 114.695 29.136C114.386 28.624 113.885 28.368 113.191 28.368C112.498 28.368 111.991 28.624 111.671 29.136C111.362 29.6373 111.207 30.4533 111.207 31.584C111.207 32.7253 111.362 33.552 111.671 34.064C111.991 34.576 112.498 34.832 113.191 34.832ZM122.88 27.088C123.349 27.088 123.691 27.184 123.904 27.376C124.128 27.568 124.24 27.8613 124.24 28.256C124.24 28.4053 124.219 28.5547 124.176 28.704C124.133 28.8427 124.075 28.9547 124 29.04C123.883 28.9653 123.739 28.912 123.568 28.88C123.408 28.848 123.189 28.832 122.912 28.832C122.219 28.832 121.685 29.072 121.312 29.552C120.939 30.0213 120.752 30.6987 120.752 31.584V36H118.816V27.2H120.752V28.512C120.976 28.064 121.275 27.7173 121.648 27.472C122.021 27.216 122.432 27.088 122.88 27.088ZM133.804 36C133.687 36 133.356 36.016 132.812 36.048C132.535 36.0693 132.364 36.08 132.3 36.08C132.076 36.08 131.895 36.0373 131.756 35.952C131.618 35.8667 131.495 35.7387 131.388 35.568L129.868 32.944C129.708 32.6667 129.506 32.4693 129.26 32.352C129.015 32.224 128.663 32.176 128.204 32.208L127.676 32.24V36H125.74V23.344H127.676V30.816L128.124 30.8C128.466 30.7787 128.722 30.7147 128.892 30.608C129.074 30.4907 129.25 30.2827 129.42 29.984L131.068 27.2H133.26L131.148 30.464C131.01 30.6987 130.882 30.8853 130.764 31.024C130.658 31.152 130.514 31.264 130.332 31.36C130.62 31.4347 130.855 31.5467 131.036 31.696C131.228 31.8453 131.399 32.0427 131.548 32.288L133.804 36ZM137.912 36.16C137.283 36.16 136.712 36.0853 136.2 35.936C135.699 35.7867 135.299 35.584 135 35.328C134.712 35.0613 134.568 34.768 134.568 34.448C134.568 34.2027 134.654 33.9947 134.824 33.824C134.995 33.6427 135.235 33.536 135.544 33.504C135.811 33.952 136.136 34.288 136.52 34.512C136.915 34.7253 137.4 34.832 137.976 34.832C138.531 34.832 138.936 34.72 139.192 34.496C139.459 34.2613 139.592 33.952 139.592 33.568C139.592 33.216 139.432 32.9493 139.112 32.768C138.803 32.5867 138.318 32.4 137.656 32.208C137.048 32.0267 136.547 31.8507 136.152 31.68C135.758 31.4987 135.422 31.232 135.144 30.88C134.867 30.528 134.728 30.0747 134.728 29.52C134.728 29.008 134.878 28.5653 135.176 28.192C135.486 27.808 135.886 27.52 136.376 27.328C136.878 27.136 137.411 27.04 137.976 27.04C138.723 27.04 139.379 27.184 139.944 27.472C140.52 27.76 140.974 28.1547 141.304 28.656C141.166 28.88 140.995 29.072 140.792 29.232C140.6 29.3813 140.424 29.456 140.264 29.456C140.083 29.456 139.928 29.376 139.8 29.216C139.31 28.6293 138.712 28.336 138.008 28.336C137.56 28.336 137.208 28.432 136.952 28.624C136.696 28.8053 136.568 29.088 136.568 29.472C136.568 29.728 136.654 29.9413 136.824 30.112C136.995 30.272 137.203 30.4 137.448 30.496C137.704 30.592 138.062 30.704 138.52 30.832C139.128 31.0027 139.624 31.1733 140.008 31.344C140.403 31.504 140.739 31.7547 141.016 32.096C141.294 32.4373 141.432 32.8907 141.432 33.456C141.432 34.3093 141.123 34.976 140.504 35.456C139.886 35.9253 139.022 36.16 137.912 36.16Z" fill="white"/>
</svg>
