<svg width="216" height="78" viewBox="0 0 216 78" fill="none" xmlns="http://www.w3.org/2000/svg">
                    <rect width="216" height="78" transform="translate(-0.00585938)" fill="white" />
                    <path
                        d="M61.7132 44.84C61.6065 44.9253 61.4465 44.9947 61.2332 45.048C61.0199 45.1013 60.7959 45.128 60.5612 45.128C60.2519 45.128 60.0119 45.0853 59.8412 45C59.6705 44.904 59.5372 44.7493 59.4412 44.536L58.0332 41.72C57.8305 41.3147 57.6012 41.0373 57.3452 40.888C57.0892 40.728 56.7212 40.648 56.2412 40.648H55.3292V45H53.2972V33.8H57.0572C58.4332 33.8 59.4999 34.0987 60.2572 34.696C61.0145 35.2933 61.3932 36.136 61.3932 37.224C61.3932 37.9493 61.1959 38.5733 60.8012 39.096C60.4172 39.608 59.8679 39.9867 59.1532 40.232C59.4199 40.4987 59.6652 40.8453 59.8892 41.272L61.7132 44.84ZM56.9132 39.16C57.7345 39.16 58.3425 39.0053 58.7372 38.696C59.1319 38.376 59.3292 37.8853 59.3292 37.224C59.3292 36.5627 59.1372 36.0773 58.7532 35.768C58.3692 35.448 57.7665 35.288 56.9452 35.288H55.3292V39.16H56.9132ZM70.8451 40.008C70.8451 40.1893 70.8237 40.4933 70.7811 40.92H64.8931C64.9464 41.8373 65.1597 42.5467 65.5331 43.048C65.9064 43.5493 66.4131 43.8 67.0531 43.8C67.4904 43.8 67.8477 43.7147 68.1251 43.544C68.4131 43.3627 68.7384 43.016 69.1011 42.504C69.1651 42.408 69.2771 42.36 69.4371 42.36C69.7357 42.36 70.1464 42.5467 70.6691 42.92C70.3704 43.6453 69.9064 44.2 69.2771 44.584C68.6584 44.968 67.9171 45.16 67.0531 45.16C65.7624 45.16 64.7437 44.7547 63.9971 43.944C63.2611 43.1227 62.8931 42.0027 62.8931 40.584C62.8931 39.176 63.2664 38.0667 64.0131 37.256C64.7597 36.4453 65.7837 36.04 67.0851 36.04C68.2797 36.04 69.2024 36.3867 69.8531 37.08C70.5144 37.7733 70.8451 38.7493 70.8451 40.008ZM68.8771 39.736C68.8771 38.1467 68.2637 37.352 67.0371 37.352C66.4291 37.352 65.9437 37.5547 65.5811 37.96C65.2291 38.3547 65.0104 38.9467 64.9251 39.736H68.8771ZM78.753 36.136C79.2543 36.136 79.7556 36.2853 80.257 36.584C80.097 36.8293 79.9796 37.1813 79.905 37.64C79.841 38.088 79.809 38.6907 79.809 39.448V48.6H77.873V44.344C77.233 44.888 76.4543 45.16 75.537 45.16C74.3956 45.16 73.505 44.76 72.865 43.96C72.225 43.16 71.905 42.04 71.905 40.6C71.905 39.6827 72.049 38.8827 72.337 38.2C72.6356 37.5067 73.057 36.9733 73.601 36.6C74.1556 36.2267 74.801 36.04 75.537 36.04C76.1023 36.04 76.5823 36.12 76.977 36.28C77.3823 36.4293 77.7236 36.664 78.001 36.984C78.129 36.4187 78.3796 36.136 78.753 36.136ZM75.905 43.864C76.6836 43.864 77.3396 43.5547 77.873 42.936V38.424V38.328C77.3823 37.656 76.7423 37.32 75.953 37.32C75.2703 37.32 74.753 37.5973 74.401 38.152C74.0596 38.7067 73.889 39.5227 73.889 40.6C73.889 41.7093 74.0543 42.5307 74.385 43.064C74.7156 43.5973 75.2223 43.864 75.905 43.864ZM89.8153 42.984C89.8153 43.4213 89.8313 43.7787 89.8633 44.056C89.906 44.3333 89.97 44.5733 90.0553 44.776C89.65 44.9787 89.2127 45.08 88.7433 45.08C88.466 45.08 88.258 45 88.1193 44.84C87.9913 44.68 87.906 44.4027 87.8633 44.008C87.554 44.3707 87.1593 44.6533 86.6793 44.856C86.21 45.0587 85.698 45.16 85.1433 45.16C84.226 45.16 83.5273 44.9093 83.0473 44.408C82.578 43.9067 82.3433 43.1707 82.3433 42.2V36.2H84.2793V42.088C84.2793 42.728 84.386 43.1867 84.5993 43.464C84.8127 43.7307 85.1647 43.864 85.6553 43.864C86.0927 43.864 86.498 43.752 86.8713 43.528C87.2447 43.304 87.57 42.9787 87.8473 42.552V36.2H89.8153V42.984ZM99.7201 40.008C99.7201 40.1893 99.6987 40.4933 99.6561 40.92H93.7681C93.8214 41.8373 94.0347 42.5467 94.4081 43.048C94.7814 43.5493 95.2881 43.8 95.9281 43.8C96.3654 43.8 96.7227 43.7147 97.0001 43.544C97.2881 43.3627 97.6134 43.016 97.9761 42.504C98.0401 42.408 98.1521 42.36 98.3121 42.36C98.6107 42.36 99.0214 42.5467 99.5441 42.92C99.2454 43.6453 98.7814 44.2 98.1521 44.584C97.5334 44.968 96.7921 45.16 95.9281 45.16C94.6374 45.16 93.6187 44.7547 92.8721 43.944C92.1361 43.1227 91.7681 42.0027 91.7681 40.584C91.7681 39.176 92.1414 38.0667 92.8881 37.256C93.6347 36.4453 94.6587 36.04 95.9601 36.04C97.1547 36.04 98.0774 36.3867 98.7281 37.08C99.3894 37.7733 99.7201 38.7493 99.7201 40.008ZM97.7521 39.736C97.7521 38.1467 97.1387 37.352 95.9121 37.352C95.3041 37.352 94.8187 37.5547 94.4561 37.96C94.1041 38.3547 93.8854 38.9467 93.8001 39.736H97.7521ZM104.172 45.16C103.543 45.16 102.972 45.0853 102.46 44.936C101.959 44.7867 101.559 44.584 101.26 44.328C100.972 44.0613 100.828 43.768 100.828 43.448C100.828 43.2027 100.913 42.9947 101.084 42.824C101.255 42.6427 101.495 42.536 101.804 42.504C102.071 42.952 102.396 43.288 102.78 43.512C103.175 43.7253 103.66 43.832 104.236 43.832C104.791 43.832 105.196 43.72 105.452 43.496C105.719 43.2613 105.852 42.952 105.852 42.568C105.852 42.216 105.692 41.9493 105.372 41.768C105.063 41.5867 104.577 41.4 103.916 41.208C103.308 41.0267 102.807 40.8507 102.412 40.68C102.017 40.4987 101.681 40.232 101.404 39.88C101.127 39.528 100.988 39.0747 100.988 38.52C100.988 38.008 101.137 37.5653 101.436 37.192C101.745 36.808 102.145 36.52 102.636 36.328C103.137 36.136 103.671 36.04 104.236 36.04C104.983 36.04 105.639 36.184 106.204 36.472C106.78 36.76 107.233 37.1547 107.564 37.656C107.425 37.88 107.255 38.072 107.052 38.232C106.86 38.3813 106.684 38.456 106.524 38.456C106.343 38.456 106.188 38.376 106.06 38.216C105.569 37.6293 104.972 37.336 104.268 37.336C103.82 37.336 103.468 37.432 103.212 37.624C102.956 37.8053 102.828 38.088 102.828 38.472C102.828 38.728 102.913 38.9413 103.084 39.112C103.255 39.272 103.463 39.4 103.708 39.496C103.964 39.592 104.321 39.704 104.78 39.832C105.388 40.0027 105.884 40.1733 106.268 40.344C106.663 40.504 106.999 40.7547 107.276 41.096C107.553 41.4373 107.692 41.8907 107.692 42.456C107.692 43.3093 107.383 43.976 106.764 44.456C106.145 44.9253 105.281 45.16 104.172 45.16ZM114.013 43.608C114.109 43.6507 114.189 43.7253 114.253 43.832C114.317 43.928 114.349 44.0453 114.349 44.184C114.349 44.3973 114.274 44.568 114.125 44.696C113.954 44.8347 113.698 44.9467 113.357 45.032C113.026 45.1173 112.658 45.16 112.253 45.16C111.527 45.16 110.946 44.9627 110.509 44.568C110.082 44.1627 109.869 43.624 109.869 42.952V37.496H108.413V36.2H109.869V33.8H111.805V36.2H113.677V37.496H111.805V42.744C111.805 43.1493 111.879 43.4427 112.029 43.624C112.178 43.7947 112.418 43.88 112.749 43.88C113.154 43.88 113.575 43.7893 114.013 43.608ZM128.882 39.336C128.882 40.5947 128.685 41.6667 128.29 42.552C127.896 43.4373 127.325 44.0987 126.578 44.536C126.834 44.8453 127.229 45.2827 127.762 45.848C127.517 46.232 127.122 46.424 126.578 46.424C126.312 46.424 126.082 46.376 125.89 46.28C125.698 46.184 125.528 46.04 125.378 45.848C125.304 45.7627 125.133 45.5173 124.866 45.112C124.632 45.144 124.376 45.16 124.098 45.16C122.584 45.16 121.405 44.6533 120.562 43.64C119.73 42.616 119.314 41.1813 119.314 39.336C119.314 37.5227 119.73 36.12 120.562 35.128C121.405 34.136 122.584 33.64 124.098 33.64C125.613 33.64 126.786 34.136 127.618 35.128C128.461 36.12 128.882 37.5227 128.882 39.336ZM121.394 39.336C121.394 40.7867 121.608 41.864 122.034 42.568C122.461 43.2613 123.117 43.6187 124.002 43.64L123.25 42.296H124.946C125.085 42.5627 125.282 42.8773 125.538 43.24C126.381 42.632 126.802 41.3307 126.802 39.336C126.802 37.896 126.584 36.84 126.146 36.168C125.709 35.496 125.026 35.16 124.098 35.16C123.17 35.16 122.488 35.496 122.05 36.168C121.613 36.84 121.394 37.896 121.394 39.336ZM138.237 42.984C138.237 43.4213 138.253 43.7787 138.285 44.056C138.328 44.3333 138.392 44.5733 138.477 44.776C138.072 44.9787 137.635 45.08 137.165 45.08C136.888 45.08 136.68 45 136.541 44.84C136.413 44.68 136.328 44.4027 136.285 44.008C135.976 44.3707 135.581 44.6533 135.101 44.856C134.632 45.0587 134.12 45.16 133.565 45.16C132.648 45.16 131.949 44.9093 131.469 44.408C131 43.9067 130.765 43.1707 130.765 42.2V36.2H132.701V42.088C132.701 42.728 132.808 43.1867 133.021 43.464C133.235 43.7307 133.587 43.864 134.077 43.864C134.515 43.864 134.92 43.752 135.293 43.528C135.667 43.304 135.992 42.9787 136.269 42.552V36.2H138.237V42.984ZM143.998 45.16C142.718 45.16 141.737 44.7653 141.054 43.976C140.371 43.1867 140.03 42.056 140.03 40.584C140.03 39.112 140.371 37.9867 141.054 37.208C141.737 36.4293 142.718 36.04 143.998 36.04C145.278 36.04 146.254 36.4293 146.926 37.208C147.609 37.9867 147.95 39.112 147.95 40.584C147.95 42.0667 147.609 43.2027 146.926 43.992C146.243 44.7707 145.267 45.16 143.998 45.16ZM143.998 43.832C144.691 43.832 145.193 43.576 145.502 43.064C145.822 42.5413 145.982 41.7147 145.982 40.584C145.982 39.464 145.822 38.648 145.502 38.136C145.193 37.624 144.691 37.368 143.998 37.368C143.305 37.368 142.798 37.624 142.478 38.136C142.169 38.6373 142.014 39.4533 142.014 40.584C142.014 41.7253 142.169 42.552 142.478 43.064C142.798 43.576 143.305 43.832 143.998 43.832ZM154.263 43.608C154.359 43.6507 154.439 43.7253 154.503 43.832C154.567 43.928 154.599 44.0453 154.599 44.184C154.599 44.3973 154.524 44.568 154.375 44.696C154.204 44.8347 153.948 44.9467 153.607 45.032C153.276 45.1173 152.908 45.16 152.503 45.16C151.777 45.16 151.196 44.9627 150.759 44.568C150.332 44.1627 150.119 43.624 150.119 42.952V37.496H148.663V36.2H150.119V33.8H152.055V36.2H153.927V37.496H152.055V42.744C152.055 43.1493 152.129 43.4427 152.279 43.624C152.428 43.7947 152.668 43.88 152.999 43.88C153.404 43.88 153.825 43.7893 154.263 43.608ZM163.423 40.008C163.423 40.1893 163.402 40.4933 163.359 40.92H157.471C157.525 41.8373 157.738 42.5467 158.111 43.048C158.485 43.5493 158.991 43.8 159.631 43.8C160.069 43.8 160.426 43.7147 160.703 43.544C160.991 43.3627 161.317 43.016 161.679 42.504C161.743 42.408 161.855 42.36 162.015 42.36C162.314 42.36 162.725 42.5467 163.247 42.92C162.949 43.6453 162.485 44.2 161.855 44.584C161.237 44.968 160.495 45.16 159.631 45.16C158.341 45.16 157.322 44.7547 156.575 43.944C155.839 43.1227 155.471 42.0027 155.471 40.584C155.471 39.176 155.845 38.0667 156.591 37.256C157.338 36.4453 158.362 36.04 159.663 36.04C160.858 36.04 161.781 36.3867 162.431 37.08C163.093 37.7733 163.423 38.7493 163.423 40.008ZM161.455 39.736C161.455 38.1467 160.842 37.352 159.615 37.352C159.007 37.352 158.522 37.5547 158.159 37.96C157.807 38.3547 157.589 38.9467 157.503 39.736H161.455Z"
                        fill="#23212A" />
                </svg>