<svg width="194" height="60" viewBox="0 0 194 60" fill="none" xmlns="http://www.w3.org/2000/svg">
<path d="M0 0H194V60H0V0Z" fill="#091242"/>
<mask id="mask0_1_3486" style="mask-type:alpha" maskUnits="userSpaceOnUse" x="0" y="0" width="194" height="60">
<path d="M0 0H194V60H0V0Z" fill="url(#paint0_linear_1_3486)"/>
</mask>
<g mask="url(#mask0_1_3486)">
<circle cx="185" cy="62" r="26" fill="#1F2A69"/>
</g>
<path d="M56.952 36.16C55.3093 36.16 54.0453 35.664 53.16 34.672C52.2747 33.6693 51.832 32.2507 51.832 30.416C51.832 28.592 52.28 27.1733 53.176 26.16C54.072 25.1467 55.3307 24.64 56.952 24.64C57.6027 24.64 58.2213 24.752 58.808 24.976C59.4053 25.2 59.8907 25.504 60.264 25.888C60.2107 26.1867 60.0933 26.4533 59.912 26.688C59.7307 26.9227 59.5547 27.04 59.384 27.04C59.2347 27.04 59.096 26.992 58.968 26.896C58.6267 26.64 58.296 26.4533 57.976 26.336C57.656 26.2187 57.304 26.16 56.92 26.16C55.928 26.16 55.176 26.5173 54.664 27.232C54.1627 27.9467 53.912 29.008 53.912 30.416C53.912 31.8133 54.1627 32.8693 54.664 33.584C55.176 34.288 55.928 34.64 56.92 34.64C57.912 34.64 58.76 34.288 59.464 33.584C59.6773 33.6693 59.848 33.7973 59.976 33.968C60.104 34.1387 60.168 34.3253 60.168 34.528C60.168 34.816 60.0187 35.088 59.72 35.344C59.4213 35.5893 59.0267 35.7867 58.536 35.936C58.0453 36.0853 57.5173 36.16 56.952 36.16ZM67.0488 27.04C67.8594 27.04 68.5048 27.2853 68.9848 27.776C69.4648 28.2667 69.7048 28.9333 69.7048 29.776V36H67.7528V29.984C67.7528 29.472 67.6408 29.0933 67.4168 28.848C67.2034 28.592 66.8674 28.464 66.4088 28.464C66.0141 28.464 65.6034 28.5493 65.1768 28.72C64.7608 28.8907 64.3501 29.1413 63.9448 29.472V36H61.9928V23.344H63.9448V28.224C64.3608 27.8507 64.8408 27.5627 65.3848 27.36C65.9394 27.1467 66.4941 27.04 67.0488 27.04ZM75.5429 36.16C74.2629 36.16 73.2815 35.7653 72.5989 34.976C71.9162 34.1867 71.5749 33.056 71.5749 31.584C71.5749 30.112 71.9162 28.9867 72.5989 28.208C73.2815 27.4293 74.2629 27.04 75.5429 27.04C76.8229 27.04 77.7989 27.4293 78.4709 28.208C79.1535 28.9867 79.4949 30.112 79.4949 31.584C79.4949 33.0667 79.1535 34.2027 78.4709 34.992C77.7882 35.7707 76.8122 36.16 75.5429 36.16ZM75.5429 34.832C76.2362 34.832 76.7375 34.576 77.0469 34.064C77.3669 33.5413 77.5269 32.7147 77.5269 31.584C77.5269 30.464 77.3669 29.648 77.0469 29.136C76.7375 28.624 76.2362 28.368 75.5429 28.368C74.8495 28.368 74.3429 28.624 74.0229 29.136C73.7135 29.6373 73.5589 30.4533 73.5589 31.584C73.5589 32.7253 73.7135 33.552 74.0229 34.064C74.3429 34.576 74.8495 34.832 75.5429 34.832ZM84.5116 36.16C83.2316 36.16 82.2503 35.7653 81.5676 34.976C80.885 34.1867 80.5436 33.056 80.5436 31.584C80.5436 30.112 80.885 28.9867 81.5676 28.208C82.2503 27.4293 83.2316 27.04 84.5116 27.04C85.7916 27.04 86.7676 27.4293 87.4396 28.208C88.1223 28.9867 88.4636 30.112 88.4636 31.584C88.4636 33.0667 88.1223 34.2027 87.4396 34.992C86.757 35.7707 85.781 36.16 84.5116 36.16ZM84.5116 34.832C85.205 34.832 85.7063 34.576 86.0156 34.064C86.3356 33.5413 86.4956 32.7147 86.4956 31.584C86.4956 30.464 86.3356 29.648 86.0156 29.136C85.7063 28.624 85.205 28.368 84.5116 28.368C83.8183 28.368 83.3116 28.624 82.9916 29.136C82.6823 29.6373 82.5276 30.4533 82.5276 31.584C82.5276 32.7253 82.6823 33.552 82.9916 34.064C83.3116 34.576 83.8183 34.832 84.5116 34.832ZM92.9044 36.16C92.275 36.16 91.7044 36.0853 91.1924 35.936C90.691 35.7867 90.291 35.584 89.9924 35.328C89.7044 35.0613 89.5604 34.768 89.5604 34.448C89.5604 34.2027 89.6457 33.9947 89.8164 33.824C89.987 33.6427 90.227 33.536 90.5364 33.504C90.803 33.952 91.1284 34.288 91.5124 34.512C91.907 34.7253 92.3924 34.832 92.9684 34.832C93.523 34.832 93.9284 34.72 94.1844 34.496C94.451 34.2613 94.5844 33.952 94.5844 33.568C94.5844 33.216 94.4244 32.9493 94.1044 32.768C93.795 32.5867 93.3097 32.4 92.6484 32.208C92.0404 32.0267 91.539 31.8507 91.1444 31.68C90.7497 31.4987 90.4137 31.232 90.1364 30.88C89.859 30.528 89.7204 30.0747 89.7204 29.52C89.7204 29.008 89.8697 28.5653 90.1684 28.192C90.4777 27.808 90.8777 27.52 91.3684 27.328C91.8697 27.136 92.403 27.04 92.9684 27.04C93.715 27.04 94.371 27.184 94.9364 27.472C95.5124 27.76 95.9657 28.1547 96.2964 28.656C96.1577 28.88 95.987 29.072 95.7844 29.232C95.5924 29.3813 95.4164 29.456 95.2564 29.456C95.075 29.456 94.9204 29.376 94.7924 29.216C94.3017 28.6293 93.7044 28.336 93.0004 28.336C92.5524 28.336 92.2004 28.432 91.9444 28.624C91.6884 28.8053 91.5604 29.088 91.5604 29.472C91.5604 29.728 91.6457 29.9413 91.8164 30.112C91.987 30.272 92.195 30.4 92.4404 30.496C92.6964 30.592 93.0537 30.704 93.5124 30.832C94.1204 31.0027 94.6164 31.1733 95.0004 31.344C95.395 31.504 95.731 31.7547 96.0084 32.096C96.2857 32.4373 96.4244 32.8907 96.4244 33.456C96.4244 34.3093 96.115 34.976 95.4964 35.456C94.8777 35.9253 94.0137 36.16 92.9044 36.16ZM105.593 31.008C105.593 31.1893 105.572 31.4933 105.529 31.92H99.6411C99.6945 32.8373 99.9078 33.5467 100.281 34.048C100.654 34.5493 101.161 34.8 101.801 34.8C102.238 34.8 102.596 34.7147 102.873 34.544C103.161 34.3627 103.486 34.016 103.849 33.504C103.913 33.408 104.025 33.36 104.185 33.36C104.484 33.36 104.894 33.5467 105.417 33.92C105.118 34.6453 104.654 35.2 104.025 35.584C103.406 35.968 102.665 36.16 101.801 36.16C100.51 36.16 99.4918 35.7547 98.7451 34.944C98.0091 34.1227 97.6411 33.0027 97.6411 31.584C97.6411 30.176 98.0145 29.0667 98.7611 28.256C99.5078 27.4453 100.532 27.04 101.833 27.04C103.028 27.04 103.95 27.3867 104.601 28.08C105.262 28.7733 105.593 29.7493 105.593 31.008ZM103.625 30.736C103.625 29.1467 103.012 28.352 101.785 28.352C101.177 28.352 100.692 28.5547 100.329 28.96C99.9771 29.3547 99.7585 29.9467 99.6731 30.736H103.625ZM114.954 24.8C116.415 24.8 117.519 25.1093 118.266 25.728C119.023 26.336 119.402 27.232 119.402 28.416C119.402 29.6427 119.018 30.5813 118.25 31.232C117.482 31.872 116.383 32.192 114.954 32.192H113.546V36H111.514V24.8H114.954ZM114.842 30.656C115.717 30.656 116.351 30.48 116.746 30.128C117.151 29.776 117.354 29.2053 117.354 28.416C117.354 27.648 117.157 27.0933 116.762 26.752C116.367 26.4107 115.727 26.24 114.842 26.24H113.546V30.656H114.842ZM121.262 23.344H123.214V36H121.262V23.344ZM132.311 33.056C132.311 33.8027 132.348 34.352 132.423 34.704C132.498 35.056 132.636 35.36 132.839 35.616C132.658 35.7547 132.423 35.872 132.135 35.968C131.858 36.0533 131.602 36.096 131.367 36.096C130.855 36.096 130.546 35.6747 130.439 34.832C129.852 35.7173 128.94 36.16 127.703 36.16C126.914 36.16 126.274 35.952 125.783 35.536C125.303 35.1093 125.063 34.5547 125.063 33.872C125.063 32.9013 125.495 32.1653 126.359 31.664C127.223 31.152 128.562 30.848 130.375 30.752V30.032C130.375 28.9867 129.826 28.464 128.727 28.464C128.332 28.464 127.959 28.544 127.607 28.704C127.255 28.8533 126.839 29.1147 126.359 29.488C126.284 29.5413 126.21 29.568 126.135 29.568C125.964 29.568 125.783 29.472 125.591 29.28C125.399 29.0773 125.228 28.8053 125.079 28.464C125.516 28.0373 126.087 27.696 126.791 27.44C127.495 27.1733 128.21 27.04 128.935 27.04C130.012 27.04 130.844 27.3013 131.431 27.824C132.018 28.3467 132.311 29.0827 132.311 30.032V33.056ZM128.279 34.832C129.1 34.832 129.799 34.32 130.375 33.296V31.856C128.156 31.952 127.047 32.5653 127.047 33.696C127.047 34.0587 127.154 34.3413 127.367 34.544C127.58 34.736 127.884 34.832 128.279 34.832ZM141.95 33.84C141.95 34.416 141.966 34.832 141.998 35.088C142.03 35.344 142.099 35.5733 142.206 35.776C141.705 35.9787 141.177 36.08 140.622 36.08C140.398 36.08 140.238 35.9573 140.142 35.712C140.057 35.456 140.014 35.008 140.014 34.368V30.144C140.014 29.5253 139.913 29.088 139.71 28.832C139.507 28.5653 139.166 28.432 138.686 28.432C137.993 28.432 137.257 28.7733 136.478 29.456V36H134.542V30.112C134.542 28.7253 134.478 27.84 134.35 27.456C134.969 27.2427 135.491 27.136 135.918 27.136C136.121 27.136 136.265 27.2107 136.35 27.36C136.435 27.5093 136.478 27.744 136.478 28.064V28.256C137.011 27.808 137.486 27.4933 137.902 27.312C138.318 27.1307 138.755 27.04 139.214 27.04C140.131 27.04 140.814 27.2907 141.262 27.792C141.721 28.2827 141.95 29.0347 141.95 30.048V33.84Z" fill="white"/>
<defs>
<linearGradient id="paint0_linear_1_3486" x1="-5.5" y1="13" x2="227.5" y2="66.5" gradientUnits="userSpaceOnUse">
<stop stop-color="#FFB629"/>
<stop offset="0.507189" stop-color="#FFDA56"/>
<stop offset="1" stop-color="#FFD7A6"/>
</linearGradient>
</defs>
</svg>
