<svg width="194" height="60" viewBox="0 0 194 60" fill="none" xmlns="http://www.w3.org/2000/svg">
<path d="M0 0H194V60H0V0Z" fill="url(#paint0_linear_1_1326)"/>
<mask id="mask0_1_1326" style="mask-type:alpha" maskUnits="userSpaceOnUse" x="0" y="0" width="194" height="60">
<path d="M0 0H194V60H0V0Z" fill="url(#paint1_linear_1_1326)"/>
</mask>
<g mask="url(#mask0_1_1326)">
<circle cx="190" cy="62" r="26" fill="white"/>
</g>
<path d="M39.264 36.16C38.432 36.16 37.7013 36.0587 37.072 35.856C36.4427 35.6427 35.9573 35.344 35.616 34.96C35.2747 34.576 35.104 34.1333 35.104 33.632C35.104 33.3013 35.232 33.0453 35.488 32.864C35.7547 32.6827 36.1227 32.5867 36.592 32.576C36.688 33.2373 36.9707 33.7493 37.44 34.112C37.9093 34.4747 38.528 34.656 39.296 34.656C40.032 34.656 40.5973 34.5067 40.992 34.208C41.3973 33.9093 41.6 33.4827 41.6 32.928C41.6 32.48 41.4027 32.1173 41.008 31.84C40.624 31.552 39.9413 31.2747 38.96 31.008C37.6587 30.6453 36.7253 30.208 36.16 29.696C35.5947 29.184 35.312 28.5173 35.312 27.696C35.312 26.7467 35.6693 26 36.384 25.456C37.1093 24.912 38.1013 24.64 39.36 24.64C40.4053 24.64 41.2853 24.8853 42 25.376C42.7253 25.8667 43.2213 26.5493 43.488 27.424C43.3493 27.5627 43.152 27.6853 42.896 27.792C42.64 27.8987 42.4107 27.952 42.208 27.952C42.0267 27.952 41.8827 27.9147 41.776 27.84C41.6693 27.7547 41.5627 27.616 41.456 27.424C41.0293 26.56 40.3307 26.128 39.36 26.128C38.0267 26.128 37.36 26.5973 37.36 27.536C37.36 27.8453 37.424 28.1013 37.552 28.304C37.68 28.496 37.904 28.672 38.224 28.832C38.544 28.992 39.0133 29.168 39.632 29.36C40.7307 29.7013 41.5627 30.0213 42.128 30.32C42.6933 30.608 43.0933 30.928 43.328 31.28C43.5627 31.6213 43.68 32.0587 43.68 32.592C43.68 33.296 43.4987 33.92 43.136 34.464C42.7733 34.9973 42.256 35.4133 41.584 35.712C40.9227 36.0107 40.1493 36.16 39.264 36.16ZM52.9696 33.984C52.9696 34.4213 52.9856 34.7787 53.0176 35.056C53.0603 35.3333 53.1243 35.5733 53.2096 35.776C52.8043 35.9787 52.367 36.08 51.8976 36.08C51.6203 36.08 51.4123 36 51.2736 35.84C51.1456 35.68 51.0603 35.4027 51.0176 35.008C50.7083 35.3707 50.3136 35.6533 49.8336 35.856C49.3643 36.0587 48.8523 36.16 48.2976 36.16C47.3803 36.16 46.6816 35.9093 46.2016 35.408C45.7323 34.9067 45.4976 34.1707 45.4976 33.2V27.2H47.4336V33.088C47.4336 33.728 47.5403 34.1867 47.7536 34.464C47.967 34.7307 48.319 34.864 48.8096 34.864C49.247 34.864 49.6523 34.752 50.0256 34.528C50.399 34.304 50.7243 33.9787 51.0016 33.552V27.2H52.9696V33.984ZM59.7544 27.04C60.4904 27.04 61.1304 27.2213 61.6744 27.584C62.2184 27.9467 62.6344 28.4693 62.9224 29.152C63.2104 29.8347 63.3544 30.64 63.3544 31.568C63.3544 32.496 63.205 33.3067 62.9064 34C62.6077 34.6933 62.181 35.2267 61.6264 35.6C61.0824 35.9733 60.4424 36.16 59.7064 36.16C59.2264 36.16 58.7784 36.064 58.3624 35.872C57.957 35.68 57.6104 35.408 57.3224 35.056C57.1944 35.7387 56.9277 36.08 56.5224 36.08C56.277 36.08 56.0157 36.0427 55.7384 35.968C55.4717 35.8933 55.221 35.7867 54.9864 35.648C55.1677 35.392 55.2904 35.0827 55.3544 34.72C55.4184 34.3467 55.4504 33.8027 55.4504 33.088V23.344H57.4024V27.888C57.7437 27.6 58.1064 27.3867 58.4904 27.248C58.8744 27.1093 59.2957 27.04 59.7544 27.04ZM59.4504 34.832C60.741 34.832 61.3864 33.744 61.3864 31.568C61.3864 30.512 61.2157 29.712 60.8744 29.168C60.533 28.6133 60.0317 28.336 59.3704 28.336C59.0077 28.336 58.6504 28.416 58.2984 28.576C57.9464 28.736 57.6477 28.944 57.4024 29.2V33.632C57.9144 34.432 58.597 34.832 59.4504 34.832ZM74.688 27.04C75.5093 27.04 76.1547 27.2907 76.624 27.792C77.104 28.2827 77.344 28.9493 77.344 29.792V36H75.392V29.84C75.392 29.2853 75.296 28.896 75.104 28.672C74.9227 28.448 74.6027 28.336 74.144 28.336C73.44 28.336 72.816 28.6507 72.272 29.28C72.2827 29.3333 72.288 29.4187 72.288 29.536V36H70.336V29.68C70.336 29.2107 70.2453 28.8693 70.064 28.656C69.8827 28.4427 69.6 28.336 69.216 28.336C68.864 28.336 68.5227 28.4267 68.192 28.608C67.872 28.7787 67.5413 29.056 67.2 29.44V36H65.264V30.304C65.264 28.7573 65.2 27.8187 65.072 27.488C65.2533 27.3813 65.472 27.296 65.728 27.232C65.984 27.168 66.2133 27.136 66.416 27.136C66.6613 27.136 66.848 27.2213 66.976 27.392C67.104 27.5627 67.1733 27.8293 67.184 28.192C67.5893 27.7867 68 27.4933 68.416 27.312C68.8427 27.1307 69.312 27.04 69.824 27.04C70.3253 27.04 70.7627 27.1467 71.136 27.36C71.5093 27.5627 71.7973 27.856 72 28.24C72.6613 27.44 73.5573 27.04 74.688 27.04ZM79.9218 27.2H81.8738V36H79.9218V27.2ZM80.8018 25.584C80.0871 25.584 79.7298 25.2267 79.7298 24.512V24.304C79.7298 23.5893 80.0871 23.232 80.8018 23.232H80.9938C81.7084 23.232 82.0658 23.5893 82.0658 24.304V24.512C82.0658 25.2267 81.7084 25.584 80.9938 25.584H80.8018ZM88.9951 34.608C89.0911 34.6507 89.1711 34.7253 89.2351 34.832C89.2991 34.928 89.3311 35.0453 89.3311 35.184C89.3311 35.3973 89.2565 35.568 89.1071 35.696C88.9365 35.8347 88.6805 35.9467 88.3391 36.032C88.0085 36.1173 87.6405 36.16 87.2351 36.16C86.5098 36.16 85.9285 35.9627 85.4911 35.568C85.0645 35.1627 84.8511 34.624 84.8511 33.952V28.496H83.3951V27.2H84.8511V24.8H86.7871V27.2H88.6591V28.496H86.7871V33.744C86.7871 34.1493 86.8618 34.4427 87.0111 34.624C87.1605 34.7947 87.4005 34.88 87.7311 34.88C88.1365 34.88 88.5578 34.7893 88.9951 34.608ZM104.105 36C104.083 34.0693 104.019 32.4267 103.913 31.072C103.806 29.7067 103.635 28.368 103.401 27.056C102.985 28.1547 102.627 29.1893 102.329 30.16C102.03 31.1307 101.63 32.56 101.129 34.448H99.5446C99.1073 32.72 98.734 31.3493 98.4246 30.336C98.126 29.312 97.758 28.2187 97.3206 27.056C97.0966 28.368 96.926 29.7067 96.8086 31.072C96.702 32.4373 96.6273 34.08 96.5846 36H94.5846C94.6273 33.7387 94.7553 31.7227 94.9686 29.952C95.1926 28.1707 95.534 26.4533 95.9926 24.8H98.2486C98.814 26.176 99.2353 27.2907 99.5126 28.144C99.8006 28.9867 100.073 29.936 100.329 30.992C100.595 29.9573 100.873 29.024 101.161 28.192C101.459 27.3493 101.897 26.2187 102.473 24.8H104.729C105.209 26.464 105.561 28.1867 105.785 29.968C106.009 31.7493 106.131 33.76 106.153 36H104.105ZM115.718 31.008C115.718 31.1893 115.697 31.4933 115.654 31.92H109.766C109.819 32.8373 110.033 33.5467 110.406 34.048C110.779 34.5493 111.286 34.8 111.926 34.8C112.363 34.8 112.721 34.7147 112.998 34.544C113.286 34.3627 113.611 34.016 113.974 33.504C114.038 33.408 114.15 33.36 114.31 33.36C114.609 33.36 115.019 33.5467 115.542 33.92C115.243 34.6453 114.779 35.2 114.15 35.584C113.531 35.968 112.79 36.16 111.926 36.16C110.635 36.16 109.617 35.7547 108.87 34.944C108.134 34.1227 107.766 33.0027 107.766 31.584C107.766 30.176 108.139 29.0667 108.886 28.256C109.633 27.4453 110.657 27.04 111.958 27.04C113.153 27.04 114.075 27.3867 114.726 28.08C115.387 28.7733 115.718 29.7493 115.718 31.008ZM113.75 30.736C113.75 29.1467 113.137 28.352 111.91 28.352C111.302 28.352 110.817 28.5547 110.454 28.96C110.102 29.3547 109.883 29.9467 109.798 30.736H113.75ZM120.17 36.16C119.541 36.16 118.97 36.0853 118.458 35.936C117.957 35.7867 117.557 35.584 117.258 35.328C116.97 35.0613 116.826 34.768 116.826 34.448C116.826 34.2027 116.911 33.9947 117.082 33.824C117.253 33.6427 117.493 33.536 117.802 33.504C118.069 33.952 118.394 34.288 118.778 34.512C119.173 34.7253 119.658 34.832 120.234 34.832C120.789 34.832 121.194 34.72 121.45 34.496C121.717 34.2613 121.85 33.952 121.85 33.568C121.85 33.216 121.69 32.9493 121.37 32.768C121.061 32.5867 120.575 32.4 119.914 32.208C119.306 32.0267 118.805 31.8507 118.41 31.68C118.015 31.4987 117.679 31.232 117.402 30.88C117.125 30.528 116.986 30.0747 116.986 29.52C116.986 29.008 117.135 28.5653 117.434 28.192C117.743 27.808 118.143 27.52 118.634 27.328C119.135 27.136 119.669 27.04 120.234 27.04C120.981 27.04 121.637 27.184 122.202 27.472C122.778 27.76 123.231 28.1547 123.562 28.656C123.423 28.88 123.253 29.072 123.05 29.232C122.858 29.3813 122.682 29.456 122.522 29.456C122.341 29.456 122.186 29.376 122.058 29.216C121.567 28.6293 120.97 28.336 120.266 28.336C119.818 28.336 119.466 28.432 119.21 28.624C118.954 28.8053 118.826 29.088 118.826 29.472C118.826 29.728 118.911 29.9413 119.082 30.112C119.253 30.272 119.461 30.4 119.706 30.496C119.962 30.592 120.319 30.704 120.778 30.832C121.386 31.0027 121.882 31.1733 122.266 31.344C122.661 31.504 122.997 31.7547 123.274 32.096C123.551 32.4373 123.69 32.8907 123.69 33.456C123.69 34.3093 123.381 34.976 122.762 35.456C122.143 35.9253 121.279 36.16 120.17 36.16ZM128.139 36.16C127.509 36.16 126.939 36.0853 126.427 35.936C125.925 35.7867 125.525 35.584 125.227 35.328C124.939 35.0613 124.795 34.768 124.795 34.448C124.795 34.2027 124.88 33.9947 125.051 33.824C125.221 33.6427 125.461 33.536 125.771 33.504C126.037 33.952 126.363 34.288 126.747 34.512C127.141 34.7253 127.627 34.832 128.203 34.832C128.757 34.832 129.163 34.72 129.419 34.496C129.685 34.2613 129.819 33.952 129.819 33.568C129.819 33.216 129.659 32.9493 129.339 32.768C129.029 32.5867 128.544 32.4 127.883 32.208C127.275 32.0267 126.773 31.8507 126.379 31.68C125.984 31.4987 125.648 31.232 125.371 30.88C125.093 30.528 124.955 30.0747 124.955 29.52C124.955 29.008 125.104 28.5653 125.403 28.192C125.712 27.808 126.112 27.52 126.603 27.328C127.104 27.136 127.637 27.04 128.203 27.04C128.949 27.04 129.605 27.184 130.171 27.472C130.747 27.76 131.2 28.1547 131.531 28.656C131.392 28.88 131.221 29.072 131.019 29.232C130.827 29.3813 130.651 29.456 130.491 29.456C130.309 29.456 130.155 29.376 130.027 29.216C129.536 28.6293 128.939 28.336 128.235 28.336C127.787 28.336 127.435 28.432 127.179 28.624C126.923 28.8053 126.795 29.088 126.795 29.472C126.795 29.728 126.88 29.9413 127.051 30.112C127.221 30.272 127.429 30.4 127.675 30.496C127.931 30.592 128.288 30.704 128.747 30.832C129.355 31.0027 129.851 31.1733 130.235 31.344C130.629 31.504 130.965 31.7547 131.243 32.096C131.52 32.4373 131.659 32.8907 131.659 33.456C131.659 34.3093 131.349 34.976 130.731 35.456C130.112 35.9253 129.248 36.16 128.139 36.16ZM140.124 33.056C140.124 33.8027 140.161 34.352 140.236 34.704C140.31 35.056 140.449 35.36 140.652 35.616C140.47 35.7547 140.236 35.872 139.948 35.968C139.67 36.0533 139.414 36.096 139.18 36.096C138.668 36.096 138.358 35.6747 138.252 34.832C137.665 35.7173 136.753 36.16 135.516 36.16C134.726 36.16 134.086 35.952 133.596 35.536C133.116 35.1093 132.876 34.5547 132.876 33.872C132.876 32.9013 133.308 32.1653 134.172 31.664C135.036 31.152 136.374 30.848 138.188 30.752V30.032C138.188 28.9867 137.638 28.464 136.54 28.464C136.145 28.464 135.772 28.544 135.42 28.704C135.068 28.8533 134.652 29.1147 134.172 29.488C134.097 29.5413 134.022 29.568 133.948 29.568C133.777 29.568 133.596 29.472 133.404 29.28C133.212 29.0773 133.041 28.8053 132.892 28.464C133.329 28.0373 133.9 27.696 134.604 27.44C135.308 27.1733 136.022 27.04 136.748 27.04C137.825 27.04 138.657 27.3013 139.244 27.824C139.83 28.3467 140.124 29.0827 140.124 30.032V33.056ZM136.092 34.832C136.913 34.832 137.612 34.32 138.188 33.296V31.856C135.969 31.952 134.86 32.5653 134.86 33.696C134.86 34.0587 134.966 34.3413 135.18 34.544C135.393 34.736 135.697 34.832 136.092 34.832ZM149.602 26.416C149.944 26.416 150.178 26.5333 150.306 26.768C150.434 27.0027 150.493 27.4027 150.482 27.968C149.725 27.968 149.186 28.0587 148.866 28.24C149.25 28.7413 149.442 29.3227 149.442 29.984C149.442 30.9867 149.122 31.7493 148.482 32.272C147.853 32.7947 146.925 33.056 145.698 33.056C145.122 33.056 144.717 33.0987 144.482 33.184C144.248 33.2587 144.13 33.3973 144.13 33.6C144.13 33.8027 144.269 33.9413 144.546 34.016C144.834 34.0907 145.378 34.128 146.178 34.128C147.426 34.128 148.386 34.3413 149.058 34.768C149.741 35.1947 150.082 35.7973 150.082 36.576C150.082 37.4187 149.704 38.08 148.946 38.56C148.2 39.04 147.17 39.28 145.858 39.28C144.557 39.28 143.56 39.072 142.866 38.656C142.173 38.2507 141.826 37.6693 141.826 36.912C141.826 36.432 141.992 36.0427 142.322 35.744C142.664 35.4453 143.16 35.2427 143.81 35.136V35.088C143.405 35.0027 143.09 34.8533 142.866 34.64C142.642 34.416 142.53 34.144 142.53 33.824C142.53 33.5467 142.642 33.3013 142.866 33.088C143.101 32.8747 143.41 32.72 143.794 32.624C143.293 32.3573 142.898 32.0107 142.61 31.584C142.322 31.1573 142.178 30.688 142.178 30.176C142.178 29.1627 142.504 28.3893 143.154 27.856C143.816 27.312 144.765 27.04 146.002 27.04C146.674 27.04 147.272 27.1627 147.794 27.408C148.05 27.1093 148.344 26.8693 148.674 26.688C149.005 26.5067 149.314 26.416 149.602 26.416ZM145.794 31.728C146.37 31.728 146.792 31.5947 147.058 31.328C147.325 31.0613 147.458 30.6347 147.458 30.048C147.458 29.4507 147.325 29.0187 147.058 28.752C146.792 28.4747 146.37 28.336 145.794 28.336C145.229 28.336 144.813 28.4747 144.546 28.752C144.28 29.0293 144.146 29.4613 144.146 30.048C144.146 30.6133 144.28 31.0347 144.546 31.312C144.824 31.5893 145.24 31.728 145.794 31.728ZM145.922 35.44C144.514 35.44 143.81 35.8507 143.81 36.672C143.81 37.1093 143.976 37.4347 144.306 37.648C144.648 37.8613 145.165 37.968 145.858 37.968C146.616 37.968 147.192 37.856 147.586 37.632C147.992 37.4187 148.194 37.0987 148.194 36.672C148.194 36.2453 148.008 35.936 147.634 35.744C147.272 35.5413 146.701 35.44 145.922 35.44ZM159.234 31.008C159.234 31.1893 159.212 31.4933 159.17 31.92H153.282C153.335 32.8373 153.548 33.5467 153.922 34.048C154.295 34.5493 154.802 34.8 155.442 34.8C155.879 34.8 156.236 34.7147 156.514 34.544C156.802 34.3627 157.127 34.016 157.49 33.504C157.554 33.408 157.666 33.36 157.826 33.36C158.124 33.36 158.535 33.5467 159.058 33.92C158.759 34.6453 158.295 35.2 157.666 35.584C157.047 35.968 156.306 36.16 155.442 36.16C154.151 36.16 153.132 35.7547 152.386 34.944C151.65 34.1227 151.282 33.0027 151.282 31.584C151.282 30.176 151.655 29.0667 152.402 28.256C153.148 27.4453 154.172 27.04 155.474 27.04C156.668 27.04 157.591 27.3867 158.242 28.08C158.903 28.7733 159.234 29.7493 159.234 31.008ZM157.266 30.736C157.266 29.1467 156.652 28.352 155.426 28.352C154.818 28.352 154.332 28.5547 153.97 28.96C153.618 29.3547 153.399 29.9467 153.314 30.736H157.266Z" fill="#23212A"/>
<defs>
<linearGradient id="paint0_linear_1_1326" x1="-5.5" y1="13" x2="227.5" y2="66.5" gradientUnits="userSpaceOnUse">
<stop stop-color="#FFB629"/>
<stop offset="0.507189" stop-color="#FFDA56"/>
<stop offset="1" stop-color="#FFD7A6"/>
</linearGradient>
<linearGradient id="paint1_linear_1_1326" x1="-5.5" y1="13" x2="227.5" y2="66.5" gradientUnits="userSpaceOnUse">
<stop stop-color="#FFB629"/>
<stop offset="0.507189" stop-color="#FFDA56"/>
<stop offset="1" stop-color="#FFD7A6"/>
</linearGradient>
</defs>
</svg>
