<svg width="56" height="58" viewBox="0 0 56 58" fill="none" xmlns="http://www.w3.org/2000/svg">
<path d="M24.8271 28.2459C32.3508 28.2459 38.45 22.1467 38.45 14.623C38.45 7.09921 32.3508 1 24.8271 1C17.3033 1 11.2041 7.09921 11.2041 14.623C11.2041 22.1467 17.3033 28.2459 24.8271 28.2459Z" fill="#FFD550" stroke="#1C1F35" stroke-width="2" stroke-linecap="round" stroke-linejoin="round"/>
<path d="M5.34668 37.328C7.73355 34.4832 10.7145 32.1956 14.08 30.6262C17.4456 29.0567 21.114 28.2434 24.8275 28.2434C28.541 28.2434 32.2094 29.0567 35.575 30.6262C38.9405 32.1956 41.9215 34.4832 44.3084 37.328" stroke="#1C1F35" stroke-width="2" stroke-linecap="round" stroke-linejoin="round"/>
<path d="M51.8916 38.4629L41.6744 38.4629L41.6744 20.2989L51.8916 20.2989L51.8916 38.4629Z" fill="white" stroke="#141414" stroke-linecap="round" stroke-linejoin="round"/>
<path d="M51.8916 27.1106L41.6744 27.1106L41.6744 20.2991L51.8916 20.2991L51.8916 27.1106Z" fill="#FFD550" stroke="black" stroke-linecap="round" stroke-linejoin="round"/>
<path d="M48.4863 24.8401L45.0806 24.8401" stroke="#141414" stroke-linecap="round" stroke-linejoin="round"/>
<path d="M48.4863 30.5159L45.0806 30.5159" stroke="#141414" stroke-linecap="round" stroke-linejoin="round"/>
<path d="M55.2979 28.2458L55.2979 37.9031" stroke="#1C1F35" stroke-linecap="round" stroke-linejoin="round"/>
<path d="M6.71985 21.98C5.84412 20.8258 3.68546 16.9854 5.35547 9.77051" stroke="#1C1F35" stroke-width="1.5" stroke-linecap="round" stroke-linejoin="round"/>
<path d="M35.2446 16.0356C35.1963 17.196 34.555 20.6797 29.708 24.363" stroke="#1C1F35" stroke-linecap="round" stroke-linejoin="round"/>
</svg>
