<svg width="142" height="60" viewBox="0 0 142 60" fill="none" xmlns="http://www.w3.org/2000/svg">
<path d="M0 0H142V60H0V0Z" fill="url(#paint0_linear_1_3451)"/>
<mask id="mask0_1_3451" style="mask-type:alpha" maskUnits="userSpaceOnUse" x="0" y="0" width="142" height="60">
<path d="M0 0H142V60H0V0Z" fill="url(#paint1_linear_1_3451)"/>
</mask>
<g mask="url(#mask0_1_3451)">
<circle cx="142" cy="62" r="26" fill="white"/>
</g>
<path d="M35.952 36.16C34.3093 36.16 33.0453 35.664 32.16 34.672C31.2747 33.6693 30.832 32.2507 30.832 30.416C30.832 28.592 31.28 27.1733 32.176 26.16C33.072 25.1467 34.3307 24.64 35.952 24.64C36.6027 24.64 37.2213 24.752 37.808 24.976C38.4053 25.2 38.8907 25.504 39.264 25.888C39.2107 26.1867 39.0933 26.4533 38.912 26.688C38.7307 26.9227 38.5547 27.04 38.384 27.04C38.2347 27.04 38.096 26.992 37.968 26.896C37.6267 26.64 37.296 26.4533 36.976 26.336C36.656 26.2187 36.304 26.16 35.92 26.16C34.928 26.16 34.176 26.5173 33.664 27.232C33.1627 27.9467 32.912 29.008 32.912 30.416C32.912 31.8133 33.1627 32.8693 33.664 33.584C34.176 34.288 34.928 34.64 35.92 34.64C36.912 34.64 37.76 34.288 38.464 33.584C38.6773 33.6693 38.848 33.7973 38.976 33.968C39.104 34.1387 39.168 34.3253 39.168 34.528C39.168 34.816 39.0187 35.088 38.72 35.344C38.4213 35.5893 38.0267 35.7867 37.536 35.936C37.0453 36.0853 36.5173 36.16 35.952 36.16ZM44.4648 36.16C43.1848 36.16 42.2034 35.7653 41.5208 34.976C40.8381 34.1867 40.4967 33.056 40.4967 31.584C40.4967 30.112 40.8381 28.9867 41.5208 28.208C42.2034 27.4293 43.1848 27.04 44.4648 27.04C45.7448 27.04 46.7208 27.4293 47.3928 28.208C48.0754 28.9867 48.4167 30.112 48.4167 31.584C48.4167 33.0667 48.0754 34.2027 47.3928 34.992C46.7101 35.7707 45.7341 36.16 44.4648 36.16ZM44.4648 34.832C45.1581 34.832 45.6594 34.576 45.9688 34.064C46.2888 33.5413 46.4488 32.7147 46.4488 31.584C46.4488 30.464 46.2888 29.648 45.9688 29.136C45.6594 28.624 45.1581 28.368 44.4648 28.368C43.7714 28.368 43.2648 28.624 42.9448 29.136C42.6354 29.6373 42.4808 30.4533 42.4808 31.584C42.4808 32.7253 42.6354 33.552 42.9448 34.064C43.2648 34.576 43.7714 34.832 44.4648 34.832ZM57.4655 33.84C57.4655 34.416 57.4815 34.832 57.5135 35.088C57.5455 35.344 57.6148 35.5733 57.7215 35.776C57.2202 35.9787 56.6922 36.08 56.1375 36.08C55.9135 36.08 55.7535 35.9573 55.6575 35.712C55.5722 35.456 55.5295 35.008 55.5295 34.368V30.144C55.5295 29.5253 55.4282 29.088 55.2255 28.832C55.0228 28.5653 54.6815 28.432 54.2015 28.432C53.5082 28.432 52.7722 28.7733 51.9935 29.456V36H50.0575V30.112C50.0575 28.7253 49.9935 27.84 49.8655 27.456C50.4842 27.2427 51.0068 27.136 51.4335 27.136C51.6362 27.136 51.7802 27.2107 51.8655 27.36C51.9508 27.5093 51.9935 27.744 51.9935 28.064V28.256C52.5268 27.808 53.0015 27.4933 53.4175 27.312C53.8335 27.1307 54.2708 27.04 54.7295 27.04C55.6468 27.04 56.3295 27.2907 56.7775 27.792C57.2362 28.2827 57.4655 29.0347 57.4655 30.048V33.84ZM64.4951 34.608C64.5911 34.6507 64.6711 34.7253 64.7351 34.832C64.7991 34.928 64.8311 35.0453 64.8311 35.184C64.8311 35.3973 64.7565 35.568 64.6071 35.696C64.4365 35.8347 64.1805 35.9467 63.8391 36.032C63.5085 36.1173 63.1405 36.16 62.7351 36.16C62.0098 36.16 61.4285 35.9627 60.9911 35.568C60.5645 35.1627 60.3511 34.624 60.3511 33.952V28.496H58.8951V27.2H60.3511V24.8H62.2871V27.2H64.1591V28.496H62.2871V33.744C62.2871 34.1493 62.3618 34.4427 62.5111 34.624C62.6605 34.7947 62.9005 34.88 63.2311 34.88C63.6365 34.88 64.0578 34.7893 64.4951 34.608ZM72.9516 33.056C72.9516 33.8027 72.989 34.352 73.0636 34.704C73.1383 35.056 73.277 35.36 73.4796 35.616C73.2983 35.7547 73.0636 35.872 72.7756 35.968C72.4983 36.0533 72.2423 36.096 72.0076 36.096C71.4956 36.096 71.1863 35.6747 71.0796 34.832C70.493 35.7173 69.581 36.16 68.3436 36.16C67.5543 36.16 66.9143 35.952 66.4236 35.536C65.9436 35.1093 65.7036 34.5547 65.7036 33.872C65.7036 32.9013 66.1356 32.1653 66.9996 31.664C67.8636 31.152 69.2023 30.848 71.0156 30.752V30.032C71.0156 28.9867 70.4663 28.464 69.3676 28.464C68.973 28.464 68.5996 28.544 68.2476 28.704C67.8956 28.8533 67.4796 29.1147 66.9996 29.488C66.925 29.5413 66.8503 29.568 66.7756 29.568C66.605 29.568 66.4236 29.472 66.2316 29.28C66.0396 29.0773 65.869 28.8053 65.7196 28.464C66.157 28.0373 66.7276 27.696 67.4316 27.44C68.1356 27.1733 68.8503 27.04 69.5756 27.04C70.653 27.04 71.485 27.3013 72.0716 27.824C72.6583 28.3467 72.9516 29.0827 72.9516 30.032V33.056ZM68.9196 34.832C69.741 34.832 70.4396 34.32 71.0156 33.296V31.856C68.797 31.952 67.6876 32.5653 67.6876 33.696C67.6876 34.0587 67.7943 34.3413 68.0076 34.544C68.221 34.736 68.525 34.832 68.9196 34.832ZM78.9105 36.16C77.4918 36.16 76.4145 35.7707 75.6785 34.992C74.9532 34.2027 74.5905 33.056 74.5905 31.552C74.5905 30.1547 74.9638 29.056 75.7105 28.256C76.4572 27.4453 77.4812 27.04 78.7825 27.04C79.8172 27.04 80.6598 27.296 81.3105 27.808C81.9718 28.3093 82.3612 29.0027 82.4785 29.888C81.9878 30.176 81.5612 30.32 81.1985 30.32C81.0492 30.32 80.9265 30.2773 80.8305 30.192C80.7452 30.096 80.6652 29.936 80.5905 29.712C80.4518 29.2533 80.2332 28.9173 79.9345 28.704C79.6465 28.48 79.2625 28.368 78.7825 28.368C78.0892 28.368 77.5452 28.6507 77.1505 29.216C76.7665 29.7707 76.5745 30.5493 76.5745 31.552C76.5745 32.6187 76.7718 33.4293 77.1665 33.984C77.5718 34.528 78.1532 34.8 78.9105 34.8C79.4652 34.8 79.9132 34.64 80.2545 34.32C80.6065 33.9893 80.8678 33.4773 81.0385 32.784C81.4758 32.784 81.7958 32.88 81.9985 33.072C82.2118 33.2533 82.3185 33.5307 82.3185 33.904C82.3185 34.2987 82.1585 34.672 81.8385 35.024C81.5292 35.3653 81.1132 35.6427 80.5905 35.856C80.0678 36.0587 79.5078 36.16 78.9105 36.16ZM88.9483 34.608C89.0443 34.6507 89.1243 34.7253 89.1883 34.832C89.2523 34.928 89.2843 35.0453 89.2843 35.184C89.2843 35.3973 89.2096 35.568 89.0603 35.696C88.8896 35.8347 88.6336 35.9467 88.2923 36.032C87.9616 36.1173 87.5936 36.16 87.1883 36.16C86.4629 36.16 85.8816 35.9627 85.4443 35.568C85.0176 35.1627 84.8043 34.624 84.8043 33.952V28.496H83.3483V27.2H84.8043V24.8H86.7403V27.2H88.6123V28.496H86.7403V33.744C86.7403 34.1493 86.8149 34.4427 86.9643 34.624C87.1136 34.7947 87.3536 34.88 87.6843 34.88C88.0896 34.88 88.5109 34.7893 88.9483 34.608ZM99.2898 36.16C96.3351 36.16 94.8578 34.768 94.8578 31.984V24.8H96.8898V32.272C96.8898 33.0613 97.0924 33.6587 97.4978 34.064C97.9031 34.4587 98.5004 34.656 99.2898 34.656C100.1 34.656 100.698 34.4587 101.082 34.064C101.476 33.6693 101.674 33.072 101.674 32.272V24.8H103.706V31.984C103.706 33.4027 103.343 34.4533 102.618 35.136C101.892 35.8187 100.783 36.16 99.2898 36.16ZM108.873 36.16C108.244 36.16 107.673 36.0853 107.161 35.936C106.66 35.7867 106.26 35.584 105.961 35.328C105.673 35.0613 105.529 34.768 105.529 34.448C105.529 34.2027 105.614 33.9947 105.785 33.824C105.956 33.6427 106.196 33.536 106.505 33.504C106.772 33.952 107.097 34.288 107.481 34.512C107.876 34.7253 108.361 34.832 108.937 34.832C109.492 34.832 109.897 34.72 110.153 34.496C110.42 34.2613 110.553 33.952 110.553 33.568C110.553 33.216 110.393 32.9493 110.073 32.768C109.764 32.5867 109.278 32.4 108.617 32.208C108.009 32.0267 107.508 31.8507 107.113 31.68C106.718 31.4987 106.382 31.232 106.105 30.88C105.828 30.528 105.689 30.0747 105.689 29.52C105.689 29.008 105.838 28.5653 106.137 28.192C106.446 27.808 106.846 27.52 107.337 27.328C107.838 27.136 108.372 27.04 108.937 27.04C109.684 27.04 110.34 27.184 110.905 27.472C111.481 27.76 111.934 28.1547 112.265 28.656C112.126 28.88 111.956 29.072 111.753 29.232C111.561 29.3813 111.385 29.456 111.225 29.456C111.044 29.456 110.889 29.376 110.761 29.216C110.27 28.6293 109.673 28.336 108.969 28.336C108.521 28.336 108.169 28.432 107.913 28.624C107.657 28.8053 107.529 29.088 107.529 29.472C107.529 29.728 107.614 29.9413 107.785 30.112C107.956 30.272 108.164 30.4 108.409 30.496C108.665 30.592 109.022 30.704 109.481 30.832C110.089 31.0027 110.585 31.1733 110.969 31.344C111.364 31.504 111.7 31.7547 111.977 32.096C112.254 32.4373 112.393 32.8907 112.393 33.456C112.393 34.3093 112.084 34.976 111.465 35.456C110.846 35.9253 109.982 36.16 108.873 36.16Z" fill="#23212A"/>
<defs>
<linearGradient id="paint0_linear_1_3451" x1="-4.02577" y1="13" x2="170.58" y2="42.3456" gradientUnits="userSpaceOnUse">
<stop stop-color="#FFB629"/>
<stop offset="0.507189" stop-color="#FFDA56"/>
<stop offset="1" stop-color="#FFD7A6"/>
</linearGradient>
<linearGradient id="paint1_linear_1_3451" x1="-4.02577" y1="13" x2="170.58" y2="42.3456" gradientUnits="userSpaceOnUse">
<stop stop-color="#FFB629"/>
<stop offset="0.507189" stop-color="#FFDA56"/>
<stop offset="1" stop-color="#FFD7A6"/>
</linearGradient>
</defs>
</svg>
