<svg width="230" height="63" viewBox="0 0 230 63" fill="none" xmlns="http://www.w3.org/2000/svg">
<circle cx="31.5" cy="31.5" r="31" fill="#111C55" stroke="#2D3A7B"/>
<path d="M23.9741 22.1408C23.8394 22.1449 23.7071 22.1743 23.5848 22.2272C23.4625 22.28 23.3528 22.3554 23.2622 22.4487C23.1715 22.542 23.1018 22.6514 23.0571 22.7704C23.0124 22.8894 22.9936 23.0156 23.0019 23.1416C23.1364 25.3015 23.7704 30.5716 26.8059 33.8583C30.4409 37.8181 35.1748 39.1824 40.0317 38.9808C40.292 38.9662 40.5368 38.8596 40.7165 38.6826C40.8962 38.5055 40.9975 38.2712 41 38.0268V34.5674C40.997 34.2446 40.8783 33.9322 40.663 33.6802C40.4476 33.4282 40.1482 33.2513 39.8127 33.1779L37.3804 32.6739C37.0796 32.6138 36.7664 32.6397 36.4815 32.7481C36.1965 32.8566 35.9528 33.0427 35.7819 33.2823L35.244 34.0454C35.1946 34.1153 35.1208 34.1668 35.0352 34.1911C34.9496 34.2154 34.8577 34.211 34.7752 34.1786C33.5379 33.6783 28.6081 31.5184 28.0663 27.8753C28.0557 27.805 28.0675 27.7333 28.1003 27.6692C28.1332 27.6051 28.1855 27.5516 28.2507 27.5154L29.2267 26.9574C29.4944 26.802 29.7047 26.5732 29.8291 26.3022C29.9535 26.0311 29.986 25.7308 29.9222 25.4419L29.3881 23.1236C29.31 22.7988 29.1142 22.5093 28.8339 22.3045C28.5537 22.0998 28.2064 21.9923 27.8511 22.0004L23.9741 22.1408Z" stroke="white"/>
<path d="M86.712 15.3V26.5H85.128V21.38H79.864V26.5H78.264V15.3H79.864V20.148H85.128V15.3H86.712ZM95.7604 23.94C95.7604 24.5587 95.7977 25.028 95.8724 25.348C95.9577 25.668 96.1017 25.9453 96.3044 26.18C96.155 26.2973 95.9737 26.3987 95.7604 26.484C95.547 26.5587 95.3497 26.596 95.1684 26.596C94.6777 26.596 94.3844 26.1587 94.2884 25.284C93.9684 25.7213 93.5577 26.0627 93.0564 26.308C92.5657 26.5427 92.011 26.66 91.3924 26.66C90.5924 26.66 89.947 26.452 89.4564 26.036C88.9764 25.62 88.7364 25.0653 88.7364 24.372C88.7364 22.4093 90.571 21.3373 94.2404 21.156V20.532C94.2404 19.9133 94.0857 19.4547 93.7764 19.156C93.467 18.8573 92.987 18.708 92.3364 18.708C91.9097 18.708 91.5097 18.7933 91.1364 18.964C90.763 19.1347 90.3364 19.4333 89.8564 19.86C89.7817 19.9133 89.7124 19.94 89.6484 19.94C89.5097 19.94 89.3604 19.8707 89.2004 19.732C89.0404 19.5827 88.891 19.38 88.7524 19.124C89.2004 18.6227 89.755 18.2333 90.4164 17.956C91.0777 17.6787 91.7657 17.54 92.4804 17.54C93.5044 17.54 94.3044 17.8067 94.8804 18.34C95.467 18.8627 95.7604 19.5933 95.7604 20.532V23.94ZM91.7284 25.556C92.219 25.556 92.6777 25.412 93.1044 25.124C93.531 24.8253 93.9097 24.404 94.2404 23.86V22.148C91.595 22.2653 90.2724 22.9747 90.2724 24.276C90.2724 24.692 90.395 25.012 90.6404 25.236C90.8964 25.4493 91.259 25.556 91.7284 25.556ZM104.937 17.7C104.809 19.364 104.494 20.916 103.993 22.356C103.492 23.7853 102.772 25.1667 101.833 26.5H100.393C99.4331 25.1667 98.6971 23.7853 98.1851 22.356C97.6838 20.916 97.3691 19.364 97.2411 17.7H98.7931C98.8998 19.14 99.1345 20.4467 99.4971 21.62C99.8598 22.7827 100.398 23.9187 101.113 25.028C101.817 23.9187 102.345 22.7827 102.697 21.62C103.06 20.4573 103.289 19.1507 103.385 17.7H104.937ZM113.699 21.492C113.699 21.7053 113.683 21.9827 113.651 22.324H107.507C107.549 23.3373 107.784 24.1267 108.211 24.692C108.637 25.2467 109.224 25.524 109.971 25.524C110.472 25.524 110.888 25.4227 111.219 25.22C111.56 25.0173 111.891 24.6653 112.211 24.164C112.296 24.0467 112.413 23.988 112.563 23.988C112.808 23.988 113.128 24.132 113.523 24.42C113.245 25.124 112.797 25.6733 112.179 26.068C111.56 26.4627 110.824 26.66 109.971 26.66C109.149 26.66 108.435 26.4787 107.827 26.116C107.229 25.7427 106.771 25.2147 106.451 24.532C106.131 23.8387 105.971 23.0227 105.971 22.084C105.971 20.6653 106.328 19.556 107.043 18.756C107.768 17.9453 108.765 17.54 110.035 17.54C111.197 17.54 112.099 17.8867 112.739 18.58C113.379 19.2733 113.699 20.244 113.699 21.492ZM112.147 21.3C112.147 19.54 111.427 18.66 109.987 18.66C109.272 18.66 108.707 18.884 108.291 19.332C107.875 19.78 107.624 20.436 107.539 21.3H112.147ZM126.726 26.5C126.513 25.3373 126.283 24.308 126.038 23.412H120.934C120.689 24.308 120.459 25.3373 120.246 26.5H118.662C119.099 24.3453 119.638 22.3667 120.278 20.564C120.929 18.7507 121.729 16.996 122.678 15.3H124.31C125.259 16.9853 126.054 18.7293 126.694 20.532C127.345 22.3347 127.883 24.324 128.31 26.5H126.726ZM125.702 22.18C125.126 20.2173 124.39 18.3827 123.494 16.676C122.587 18.3613 121.846 20.196 121.27 22.18H125.702ZM136.979 24.404C136.979 25.0013 136.99 25.4227 137.011 25.668C137.043 25.9133 137.096 26.1373 137.171 26.34C136.787 26.5 136.387 26.58 135.971 26.58C135.768 26.58 135.63 26.4627 135.555 26.228C135.491 25.9827 135.459 25.5293 135.459 24.868V20.58C135.459 19.8973 135.336 19.412 135.091 19.124C134.856 18.8253 134.462 18.676 133.907 18.676C133.086 18.676 132.232 19.076 131.347 19.876V26.5H129.827V20.66C129.827 19.188 129.763 18.276 129.635 17.924C130.136 17.732 130.531 17.636 130.819 17.636C131.171 17.636 131.347 17.9453 131.347 18.564V18.724C131.859 18.308 132.339 18.0093 132.787 17.828C133.246 17.636 133.731 17.54 134.243 17.54C135.16 17.54 135.843 17.7907 136.291 18.292C136.75 18.7827 136.979 19.5347 136.979 20.548V24.404ZM146.249 17.7L142.841 27.172C142.51 28.0787 142.11 28.7293 141.641 29.124C141.182 29.5187 140.579 29.716 139.833 29.716C139.385 29.716 139.027 29.636 138.761 29.476C138.494 29.3267 138.361 29.1293 138.361 28.884C138.361 28.6387 138.467 28.4147 138.681 28.212C138.798 28.2973 138.958 28.3613 139.161 28.404C139.363 28.4573 139.566 28.484 139.769 28.484C140.195 28.484 140.547 28.3133 140.825 27.972C141.113 27.6413 141.369 27.1027 141.593 26.356L138.457 17.7H140.041L142.361 24.404L144.665 17.7H146.249ZM160.629 20.836C160.629 22.1373 160.426 23.236 160.021 24.132C159.615 25.028 159.029 25.6893 158.261 26.116C158.666 26.6067 159.029 27.028 159.349 27.38C159.103 27.7 158.757 27.86 158.309 27.86C157.925 27.86 157.605 27.6893 157.349 27.348C157.146 27.0493 156.975 26.7933 156.837 26.58C156.517 26.6333 156.207 26.66 155.909 26.66C154.394 26.66 153.226 26.1587 152.405 25.156C151.594 24.1427 151.189 22.7027 151.189 20.836C151.189 19.012 151.594 17.6093 152.405 16.628C153.226 15.636 154.394 15.14 155.909 15.14C157.423 15.14 158.586 15.636 159.397 16.628C160.218 17.6093 160.629 19.012 160.629 20.836ZM156.117 25.396C155.999 25.172 155.887 24.98 155.781 24.82C155.685 24.6493 155.605 24.5053 155.541 24.388L155.285 23.956H156.725C156.927 24.308 157.162 24.6653 157.429 25.028C158.474 24.3987 158.997 23.0013 158.997 20.836C158.997 19.3427 158.741 18.2333 158.229 17.508C157.727 16.772 156.954 16.404 155.909 16.404C154.863 16.404 154.085 16.772 153.573 17.508C153.071 18.2333 152.821 19.3427 152.821 20.836C152.821 23.876 153.85 25.396 155.909 25.396H156.117ZM169.824 24.58C169.824 25.2733 169.904 25.86 170.064 26.34C169.765 26.5 169.434 26.58 169.072 26.58C168.816 26.58 168.629 26.4947 168.512 26.324C168.405 26.1533 168.341 25.8387 168.32 25.38C168.01 25.7747 167.6 26.0893 167.088 26.324C166.586 26.548 166.037 26.66 165.44 26.66C164.522 26.66 163.829 26.4147 163.36 25.924C162.901 25.4227 162.672 24.6813 162.672 23.7V17.7H164.192V23.588C164.192 24.292 164.314 24.804 164.56 25.124C164.816 25.4333 165.226 25.588 165.792 25.588C166.293 25.588 166.762 25.46 167.2 25.204C167.637 24.9373 168.005 24.564 168.304 24.084V17.7H169.824V24.58ZM179.699 21.492C179.699 21.7053 179.683 21.9827 179.651 22.324H173.507C173.549 23.3373 173.784 24.1267 174.211 24.692C174.637 25.2467 175.224 25.524 175.971 25.524C176.472 25.524 176.888 25.4227 177.219 25.22C177.56 25.0173 177.891 24.6653 178.211 24.164C178.296 24.0467 178.413 23.988 178.563 23.988C178.808 23.988 179.128 24.132 179.523 24.42C179.245 25.124 178.797 25.6733 178.179 26.068C177.56 26.4627 176.824 26.66 175.971 26.66C175.149 26.66 174.435 26.4787 173.827 26.116C173.229 25.7427 172.771 25.2147 172.451 24.532C172.131 23.8387 171.971 23.0227 171.971 22.084C171.971 20.6653 172.328 19.556 173.043 18.756C173.768 17.9453 174.765 17.54 176.035 17.54C177.197 17.54 178.099 17.8867 178.739 18.58C179.379 19.2733 179.699 20.244 179.699 21.492ZM178.147 21.3C178.147 19.54 177.427 18.66 175.987 18.66C175.272 18.66 174.707 18.884 174.291 19.332C173.875 19.78 173.624 20.436 173.539 21.3H178.147ZM184.217 26.66C183.662 26.66 183.129 26.58 182.617 26.42C182.105 26.26 181.689 26.052 181.369 25.796C181.06 25.5293 180.905 25.2413 180.905 24.932C180.905 24.74 180.969 24.5747 181.097 24.436C181.236 24.2867 181.412 24.196 181.625 24.164C181.956 24.644 182.329 24.996 182.745 25.22C183.161 25.444 183.673 25.556 184.281 25.556C184.889 25.556 185.348 25.4227 185.657 25.156C185.966 24.8787 186.121 24.516 186.121 24.068C186.121 23.78 186.025 23.5453 185.833 23.364C185.652 23.172 185.417 23.0227 185.129 22.916C184.852 22.7987 184.473 22.676 183.993 22.548C183.364 22.3773 182.857 22.212 182.473 22.052C182.1 21.8813 181.774 21.636 181.497 21.316C181.23 20.9853 181.097 20.5533 181.097 20.02C181.097 19.4867 181.246 19.0333 181.545 18.66C181.844 18.2867 182.228 18.0093 182.697 17.828C183.166 17.636 183.657 17.54 184.169 17.54C184.884 17.54 185.518 17.684 186.073 17.972C186.638 18.2493 187.076 18.6387 187.385 19.14C187.257 19.3213 187.118 19.4653 186.969 19.572C186.82 19.6787 186.681 19.732 186.553 19.732C186.393 19.732 186.249 19.6573 186.121 19.508C185.609 18.9107 184.953 18.612 184.153 18.612C183.662 18.612 183.273 18.724 182.985 18.948C182.697 19.172 182.553 19.5133 182.553 19.972C182.553 20.26 182.644 20.4947 182.825 20.676C183.006 20.8467 183.236 20.9853 183.513 21.092C183.79 21.188 184.164 21.2947 184.633 21.412C185.273 21.5827 185.785 21.748 186.169 21.908C186.553 22.068 186.884 22.3187 187.161 22.66C187.438 23.0013 187.577 23.4547 187.577 24.02C187.577 24.8413 187.273 25.4867 186.665 25.956C186.068 26.4253 185.252 26.66 184.217 26.66ZM193.804 25.268C193.889 25.3107 193.959 25.3853 194.012 25.492C194.065 25.588 194.092 25.7 194.092 25.828C194.092 26.0413 194.012 26.196 193.852 26.292C193.692 26.4093 193.468 26.5 193.18 26.564C192.903 26.628 192.599 26.66 192.268 26.66C191.553 26.66 190.983 26.468 190.556 26.084C190.129 25.6893 189.916 25.1667 189.916 24.516V18.772H188.364V17.7H189.916V15.3H191.436V17.7H193.532V18.772H191.436V24.308C191.436 24.7347 191.521 25.0493 191.692 25.252C191.863 25.444 192.124 25.54 192.476 25.54C192.903 25.54 193.345 25.4493 193.804 25.268ZM195.865 17.7H197.369V26.5H195.865V17.7ZM196.537 16.084C195.939 16.084 195.641 15.7853 195.641 15.188V15.012C195.641 14.4147 195.939 14.116 196.537 14.116H196.697C197.294 14.116 197.593 14.4147 197.593 15.012V15.188C197.593 15.7853 197.294 16.084 196.697 16.084H196.537ZM203.354 26.66C202.095 26.66 201.141 26.2707 200.49 25.492C199.839 24.7133 199.514 23.5773 199.514 22.084C199.514 20.5907 199.839 19.46 200.49 18.692C201.141 17.924 202.095 17.54 203.354 17.54C204.613 17.54 205.567 17.924 206.218 18.692C206.879 19.46 207.21 20.5907 207.21 22.084C207.21 23.5773 206.879 24.7133 206.218 25.492C205.567 26.2707 204.613 26.66 203.354 26.66ZM203.354 25.556C204.154 25.556 204.735 25.2787 205.098 24.724C205.471 24.1693 205.658 23.2893 205.658 22.084C205.658 20.8893 205.471 20.02 205.098 19.476C204.735 18.9213 204.154 18.644 203.354 18.644C202.554 18.644 201.967 18.9213 201.594 19.476C201.231 20.02 201.05 20.8893 201.05 22.084C201.05 23.2893 201.237 24.1693 201.61 24.724C201.983 25.2787 202.565 25.556 203.354 25.556ZM216.229 24.404C216.229 25.0013 216.24 25.4227 216.261 25.668C216.293 25.9133 216.346 26.1373 216.421 26.34C216.037 26.5 215.637 26.58 215.221 26.58C215.018 26.58 214.88 26.4627 214.805 26.228C214.741 25.9827 214.709 25.5293 214.709 24.868V20.58C214.709 19.8973 214.586 19.412 214.341 19.124C214.106 18.8253 213.712 18.676 213.157 18.676C212.336 18.676 211.482 19.076 210.597 19.876V26.5H209.077V20.66C209.077 19.188 209.013 18.276 208.885 17.924C209.386 17.732 209.781 17.636 210.069 17.636C210.421 17.636 210.597 17.9453 210.597 18.564V18.724C211.109 18.308 211.589 18.0093 212.037 17.828C212.496 17.636 212.981 17.54 213.493 17.54C214.41 17.54 215.093 17.7907 215.541 18.292C216 18.7827 216.229 19.5347 216.229 20.548V24.404ZM221.483 26.66C220.928 26.66 220.395 26.58 219.883 26.42C219.371 26.26 218.955 26.052 218.635 25.796C218.325 25.5293 218.171 25.2413 218.171 24.932C218.171 24.74 218.235 24.5747 218.363 24.436C218.501 24.2867 218.677 24.196 218.891 24.164C219.221 24.644 219.595 24.996 220.011 25.22C220.427 25.444 220.939 25.556 221.547 25.556C222.155 25.556 222.613 25.4227 222.923 25.156C223.232 24.8787 223.387 24.516 223.387 24.068C223.387 23.78 223.291 23.5453 223.099 23.364C222.917 23.172 222.683 23.0227 222.395 22.916C222.117 22.7987 221.739 22.676 221.259 22.548C220.629 22.3773 220.123 22.212 219.739 22.052C219.365 21.8813 219.04 21.636 218.763 21.316C218.496 20.9853 218.363 20.5533 218.363 20.02C218.363 19.4867 218.512 19.0333 218.811 18.66C219.109 18.2867 219.493 18.0093 219.963 17.828C220.432 17.636 220.923 17.54 221.435 17.54C222.149 17.54 222.784 17.684 223.339 17.972C223.904 18.2493 224.341 18.6387 224.651 19.14C224.523 19.3213 224.384 19.4653 224.235 19.572C224.085 19.6787 223.947 19.732 223.819 19.732C223.659 19.732 223.515 19.6573 223.387 19.508C222.875 18.9107 222.219 18.612 221.419 18.612C220.928 18.612 220.539 18.724 220.251 18.948C219.963 19.172 219.819 19.5133 219.819 19.972C219.819 20.26 219.909 20.4947 220.091 20.676C220.272 20.8467 220.501 20.9853 220.779 21.092C221.056 21.188 221.429 21.2947 221.899 21.412C222.539 21.5827 223.051 21.748 223.435 21.908C223.819 22.068 224.149 22.3187 224.427 22.66C224.704 23.0013 224.843 23.4547 224.843 24.02C224.843 24.8413 224.539 25.4867 223.931 25.956C223.333 26.4253 222.517 26.66 221.483 26.66ZM80.744 50.084C79.912 48.9853 79.2827 47.764 78.856 46.42C78.44 45.076 78.232 43.7427 78.232 42.42C78.232 41.108 78.44 39.7853 78.856 38.452C79.2827 37.108 79.912 35.8867 80.744 34.788H82.088C81.3093 35.9507 80.728 37.1773 80.344 38.468C79.9707 39.7587 79.784 41.076 79.784 42.42C79.784 45.2467 80.552 47.8013 82.088 50.084H80.744ZM88.1944 48.692C86.7864 48.692 85.7197 48.2067 84.9944 47.236C84.2797 46.2547 83.9224 44.8733 83.9224 43.092C83.9224 41.1933 84.2797 39.7267 84.9944 38.692C85.7197 37.6573 86.7864 37.14 88.1944 37.14C89.6024 37.14 90.6637 37.6573 91.3784 38.692C92.1037 39.7267 92.4664 41.1933 92.4664 43.092C92.4664 44.8733 92.1037 46.2547 91.3784 47.236C90.6637 48.2067 89.6024 48.692 88.1944 48.692ZM88.1944 47.492C89.133 47.492 89.8264 47.108 90.2744 46.34C90.7224 45.572 90.9464 44.4893 90.9464 43.092C90.9464 41.5667 90.7224 40.3933 90.2744 39.572C89.8264 38.7507 89.133 38.34 88.1944 38.34C86.3597 38.34 85.4424 39.924 85.4424 43.092C85.4424 46.0253 86.3597 47.492 88.1944 47.492ZM98.1163 48.692C96.7083 48.692 95.6416 48.2067 94.9163 47.236C94.2016 46.2547 93.8443 44.8733 93.8443 43.092C93.8443 41.1933 94.2016 39.7267 94.9163 38.692C95.6416 37.6573 96.7083 37.14 98.1163 37.14C99.5243 37.14 100.586 37.6573 101.3 38.692C102.026 39.7267 102.388 41.1933 102.388 43.092C102.388 44.8733 102.026 46.2547 101.3 47.236C100.586 48.2067 99.5243 48.692 98.1163 48.692ZM98.1163 47.492C99.0549 47.492 99.7483 47.108 100.196 46.34C100.644 45.572 100.868 44.4893 100.868 43.092C100.868 41.5667 100.644 40.3933 100.196 39.572C99.7483 38.7507 99.0549 38.34 98.1163 38.34C96.2816 38.34 95.3643 39.924 95.3643 43.092C95.3643 46.0253 96.2816 47.492 98.1163 47.492ZM104.23 50.084C105.766 47.8013 106.534 45.2467 106.534 42.42C106.534 41.076 106.342 39.7587 105.958 38.468C105.585 37.1773 105.009 35.9507 104.23 34.788H105.574C106.406 35.8867 107.03 37.108 107.446 38.452C107.873 39.7853 108.086 41.108 108.086 42.42C108.086 43.7427 107.873 45.076 107.446 46.42C107.03 47.764 106.406 48.9853 105.574 50.084H104.23ZM119.758 47.412V48.5H114.478V47.412H116.43V39.092C116.163 39.2947 115.875 39.4707 115.566 39.62C115.256 39.7587 114.974 39.828 114.718 39.828C114.483 39.828 114.296 39.764 114.158 39.636C114.019 39.508 113.95 39.332 113.95 39.108C113.95 38.948 113.976 38.8147 114.03 38.708C114.478 38.6653 114.974 38.5213 115.518 38.276C116.062 38.0307 116.542 37.7053 116.958 37.3H117.886V47.412H119.758ZM127.101 47.412V48.5H121.821V47.412H123.773V39.092C123.507 39.2947 123.219 39.4707 122.909 39.62C122.6 39.7587 122.317 39.828 122.061 39.828C121.827 39.828 121.64 39.764 121.501 39.636C121.363 39.508 121.293 39.332 121.293 39.108C121.293 38.948 121.32 38.8147 121.373 38.708C121.821 38.6653 122.317 38.5213 122.861 38.276C123.405 38.0307 123.885 37.7053 124.301 37.3H125.229V47.412H127.101ZM135.949 40.692C135.949 41.7587 135.544 42.82 134.733 43.876C133.922 44.9213 132.722 46.0787 131.133 47.348H135.821V48.5H128.957V47.716C130.344 46.5853 131.426 45.6253 132.205 44.836C132.994 44.0467 133.57 43.316 133.933 42.644C134.306 41.9613 134.493 41.268 134.493 40.564C134.493 39.892 134.317 39.3693 133.965 38.996C133.613 38.6227 133.112 38.436 132.461 38.436C131.085 38.436 130.317 39.268 130.157 40.932C129.72 40.932 129.41 40.8627 129.229 40.724C129.058 40.5853 128.973 40.356 128.973 40.036C128.973 39.556 129.112 39.108 129.389 38.692C129.677 38.2653 130.082 37.9293 130.605 37.684C131.138 37.428 131.757 37.3 132.461 37.3C133.538 37.3 134.386 37.588 135.005 38.164C135.634 38.7293 135.949 39.572 135.949 40.692ZM146.812 42.724C147.366 42.8627 147.83 43.1347 148.204 43.54C148.577 43.9347 148.764 44.5213 148.764 45.3C148.764 46.3347 148.406 47.1507 147.692 47.748C146.988 48.3453 146.038 48.644 144.844 48.644C144.118 48.644 143.478 48.5587 142.924 48.388C142.38 48.2173 141.958 47.9933 141.66 47.716C141.361 47.428 141.212 47.1187 141.212 46.788C141.212 46.532 141.297 46.3293 141.468 46.18C141.638 46.02 141.836 45.94 142.06 45.94C142.369 46.4413 142.732 46.8253 143.148 47.092C143.574 47.3587 144.156 47.492 144.892 47.492C145.66 47.492 146.252 47.3 146.668 46.916C147.084 46.5213 147.292 45.988 147.292 45.316C147.292 44.644 147.105 44.1427 146.732 43.812C146.358 43.4707 145.857 43.3 145.228 43.3L144.716 43.316C144.481 43.3373 144.294 43.348 144.156 43.348C143.974 43.348 143.814 43.252 143.676 43.06C143.548 42.8573 143.484 42.6653 143.484 42.484C143.484 42.3133 143.542 42.228 143.66 42.228H144.972C145.622 42.228 146.118 42.0573 146.46 41.716C146.812 41.3747 146.988 40.8573 146.988 40.164C146.988 39.62 146.812 39.1987 146.46 38.9C146.108 38.5907 145.59 38.436 144.908 38.436C144.31 38.436 143.825 38.5853 143.452 38.884C143.089 39.172 142.769 39.5987 142.492 40.164C142.182 40.164 141.937 40.0947 141.756 39.956C141.585 39.8067 141.5 39.604 141.5 39.348C141.5 39.06 141.644 38.756 141.932 38.436C142.22 38.116 142.625 37.8493 143.148 37.636C143.681 37.412 144.278 37.3 144.94 37.3C146.017 37.3 146.87 37.5507 147.5 38.052C148.14 38.5427 148.46 39.2467 148.46 40.164C148.46 40.8253 148.305 41.3693 147.996 41.796C147.686 42.2227 147.292 42.532 146.812 42.724ZM154.425 41.316C155.097 41.316 155.699 41.46 156.233 41.748C156.777 42.036 157.198 42.4627 157.497 43.028C157.806 43.5827 157.961 44.2547 157.961 45.044C157.961 45.748 157.806 46.372 157.497 46.916C157.198 47.4493 156.766 47.8653 156.201 48.164C155.646 48.4627 155.001 48.612 154.265 48.612C153.433 48.612 152.718 48.4147 152.121 48.02C151.534 47.6147 151.086 47.0707 150.777 46.388C150.478 45.6947 150.329 44.916 150.329 44.052C150.329 42.8147 150.558 41.6733 151.017 40.628C151.486 39.5827 152.115 38.756 152.905 38.148C153.705 37.5293 154.569 37.22 155.497 37.22C155.859 37.22 156.115 37.316 156.265 37.508C156.425 37.6893 156.505 37.9613 156.505 38.324C155.353 38.324 154.387 38.6707 153.609 39.364C152.83 40.0467 152.297 40.9747 152.009 42.148C152.329 41.9027 152.702 41.7053 153.129 41.556C153.555 41.396 153.987 41.316 154.425 41.316ZM154.297 47.46C155.001 47.46 155.539 47.236 155.913 46.788C156.297 46.3293 156.489 45.732 156.489 44.996C156.489 44.132 156.291 43.4973 155.897 43.092C155.513 42.676 154.969 42.468 154.265 42.468C153.795 42.468 153.347 42.5693 152.921 42.772C152.505 42.964 152.137 43.2253 151.817 43.556C151.806 43.6627 151.801 43.828 151.801 44.052C151.801 45.076 152.003 45.9027 152.409 46.532C152.814 47.1507 153.443 47.46 154.297 47.46ZM163.499 41.14C164.203 41.14 164.827 41.2893 165.371 41.588C165.915 41.876 166.336 42.2973 166.635 42.852C166.944 43.396 167.099 44.0413 167.099 44.788C167.099 45.972 166.758 46.9107 166.075 47.604C165.392 48.2973 164.475 48.644 163.323 48.644C162.63 48.644 162.027 48.548 161.515 48.356C161.003 48.1533 160.608 47.8973 160.331 47.588C160.064 47.2787 159.931 46.964 159.931 46.644C159.931 46.132 160.203 45.8387 160.747 45.764C161.195 46.9267 162.038 47.508 163.275 47.508C164.043 47.508 164.624 47.268 165.019 46.788C165.424 46.2973 165.627 45.652 165.627 44.852C165.627 43.988 165.424 43.348 165.019 42.932C164.624 42.516 164.059 42.308 163.323 42.308C162.832 42.308 162.411 42.404 162.059 42.596C161.707 42.788 161.387 43.0867 161.099 43.492L160.059 43.316L160.443 37.3H166.331V38.436H161.707L161.483 41.732C162.027 41.3373 162.699 41.14 163.499 41.14ZM177.075 45.94H172.211V45.204C173.235 43.7853 174.003 42.4733 174.515 41.268C175.027 40.0627 175.336 38.74 175.443 37.3C175.539 37.2787 175.677 37.268 175.859 37.268C176.552 37.268 176.899 37.636 176.899 38.372C176.899 39.2787 176.579 40.34 175.939 41.556C175.309 42.772 174.6 43.8493 173.811 44.788H177.075V41.7H178.531V44.788H179.939V45.94H178.531V48.5H177.075V45.94ZM186.458 42.74C187.247 43.0707 187.797 43.476 188.106 43.956C188.415 44.436 188.57 45.012 188.57 45.684C188.57 46.644 188.229 47.38 187.546 47.892C186.874 48.3933 185.946 48.644 184.762 48.644C183.589 48.644 182.661 48.3933 181.978 47.892C181.306 47.38 180.97 46.644 180.97 45.684C180.97 45.012 181.13 44.436 181.45 43.956C181.77 43.4653 182.319 43.06 183.098 42.74C182.479 42.42 182.015 42.0573 181.706 41.652C181.407 41.236 181.258 40.7293 181.258 40.132C181.258 39.2467 181.578 38.5427 182.218 38.02C182.858 37.4867 183.706 37.22 184.762 37.22C185.829 37.22 186.677 37.4867 187.306 38.02C187.935 38.5427 188.25 39.2467 188.25 40.132C188.25 40.74 188.101 41.252 187.802 41.668C187.514 42.084 187.066 42.4413 186.458 42.74ZM184.762 38.34C184.143 38.34 183.647 38.5 183.274 38.82C182.901 39.1293 182.714 39.5507 182.714 40.084C182.714 40.564 182.89 40.9853 183.242 41.348C183.605 41.7 184.111 41.988 184.762 42.212C185.53 41.9667 186.058 41.6787 186.346 41.348C186.645 41.0173 186.794 40.596 186.794 40.084C186.794 39.5507 186.607 39.1293 186.234 38.82C185.871 38.5 185.381 38.34 184.762 38.34ZM184.762 47.508C185.477 47.508 186.042 47.348 186.458 47.028C186.885 46.6973 187.098 46.2493 187.098 45.684C187.098 45.3213 187.029 45.0173 186.89 44.772C186.762 44.516 186.533 44.2813 186.202 44.068C185.871 43.8547 185.391 43.6307 184.762 43.396C183.941 43.7053 183.349 44.0307 182.986 44.372C182.623 44.7133 182.442 45.1507 182.442 45.684C182.442 46.2493 182.65 46.6973 183.066 47.028C183.482 47.348 184.047 47.508 184.762 47.508ZM193.713 37.268C195.047 37.268 196.028 37.6787 196.657 38.5C197.287 39.3213 197.601 40.4147 197.601 41.78C197.601 43.028 197.361 44.1747 196.881 45.22C196.412 46.2547 195.767 47.0813 194.945 47.7C194.124 48.308 193.217 48.612 192.225 48.612C191.863 48.612 191.601 48.5213 191.441 48.34C191.281 48.148 191.201 47.8707 191.201 47.508C192.417 47.508 193.425 47.1773 194.225 46.516C195.025 45.8547 195.58 44.9533 195.889 43.812C195.58 44.0253 195.223 44.2013 194.817 44.34C194.423 44.4787 194.012 44.548 193.585 44.548C192.508 44.548 191.633 44.2333 190.961 43.604C190.3 42.9747 189.969 42.0893 189.969 40.948C189.969 40.2333 190.135 39.5987 190.465 39.044C190.796 38.4787 191.244 38.0413 191.809 37.732C192.375 37.4227 193.009 37.268 193.713 37.268ZM193.745 43.396C194.663 43.396 195.452 43.0653 196.113 42.404C196.124 42.2653 196.129 42.0573 196.129 41.78C196.129 40.724 195.948 39.9027 195.585 39.316C195.223 38.7293 194.588 38.436 193.681 38.436C192.967 38.436 192.412 38.676 192.017 39.156C191.633 39.6253 191.441 40.244 191.441 41.012C191.441 41.812 191.639 42.4093 192.033 42.804C192.439 43.1987 193.009 43.396 193.745 43.396Z" fill="white"/>
</svg>
