<svg width="121" height="22" viewBox="0 0 121 22" fill="none" xmlns="http://www.w3.org/2000/svg">
<path d="M20.0104 0L1.85845 0C0.866599 0 9.5072e-07 0.713669 9.5072e-07 1.69387L9.5072e-07 19.8861C9.5072e-07 20.8717 0.866599 21.7499 1.85845 21.7499L20.0051 21.7499C21.0023 21.7499 21.7499 20.8658 21.7499 19.8861L21.7499 1.69387C21.7558 0.713669 21.0023 0 20.0104 0ZM6.74199 18.1296L3.62612 18.1296L3.62612 8.44169L6.74199 8.44169L6.74199 18.1296ZM5.29184 6.96871H5.2695C4.27231 6.96871 3.62661 6.2264 3.62661 5.29717C3.62661 4.35096 4.2893 3.62612 5.30883 3.62612C6.32836 3.62612 6.95221 4.34562 6.97454 5.29717C6.97406 6.2264 6.32835 6.96871 5.29184 6.96871ZM18.1296 18.1296L15.0138 18.1296L15.0138 12.8325C15.0138 11.5634 14.5603 10.6963 13.433 10.6963C12.5717 10.6963 12.062 11.2789 11.8353 11.8464C11.7503 12.0503 11.7275 12.328 11.7275 12.6116L11.7275 18.1296L8.61161 18.1296L8.61161 8.44169L11.7275 8.44169L11.7275 9.78989C12.1809 9.14419 12.8893 8.21497 14.5375 8.21497C16.5829 8.21497 18.1301 9.56317 18.1301 12.4698L18.1296 18.1296Z" fill="white"/>
<path d="M70.2211 6.61928C69.4156 6.96899 68.5635 7.19938 67.6915 7.30318C68.6079 6.76696 69.297 5.91507 69.6297 4.90729C68.7633 5.41355 67.817 5.76877 66.8313 5.95773C66.4162 5.52304 65.9171 5.17723 65.3641 4.94133C64.8111 4.70542 64.2159 4.58435 63.6147 4.58546C61.1804 4.58546 59.2104 6.52541 59.2104 8.91683C59.2087 9.24946 59.2468 9.58111 59.324 9.90468C57.5785 9.82291 55.8692 9.37794 54.3056 8.59824C52.742 7.81853 51.3585 6.72126 50.2436 5.37664C49.8524 6.03556 49.6456 6.78737 49.6446 7.5535C49.6446 9.0554 50.4288 10.383 51.6128 11.1607C50.9113 11.1441 50.2242 10.9586 49.6097 10.6199L49.6097 10.6735C49.6097 12.7744 51.1306 14.5221 53.1435 14.92C52.765 15.0208 52.3749 15.0719 51.9832 15.0719C51.7052 15.0724 51.4279 15.0455 51.1552 14.9915C51.7148 16.7124 53.3435 17.964 55.2727 17.9997C53.7051 19.207 51.7804 19.8596 49.8012 19.8548C49.4499 19.8542 49.0989 19.8334 48.75 19.7922C50.7634 21.0769 53.1039 21.7565 55.4928 21.75C63.6053 21.75 68.0373 15.1479 68.0373 9.42193C68.0373 9.23419 68.0323 9.04646 68.0234 8.86319C68.8836 8.25173 69.6278 7.49186 70.2211 6.61928Z" fill="white"/>
<path fill-rule="evenodd" clip-rule="evenodd" d="M120.221 11.108C120.221 5.15959 115.071 0.336426 108.721 0.336426C102.37 0.336426 97.2207 5.15959 97.2207 11.108C97.2207 16.4842 101.425 20.9404 106.924 21.7493L106.924 14.2226L104.003 14.2226V11.108L106.924 11.108V8.73488C106.924 6.03574 108.641 4.54359 111.268 4.54359C112.526 4.54359 113.842 4.75421 113.842 4.75421V7.40527L112.391 7.40527C110.964 7.40527 110.517 8.23526 110.517 9.08833V11.108L113.706 11.108L113.197 14.2226L110.518 14.2226L110.518 21.7502C116.016 20.9419 120.221 16.4856 120.221 11.108Z" fill="white"/>
</svg>
