<svg width="148" height="60" viewBox="0 0 148 60" fill="none" xmlns="http://www.w3.org/2000/svg">
<rect width="148" height="60" fill="url(#paint0_linear_1_1944)"/>
<path d="M49.952 36.16C48.3093 36.16 47.0453 35.664 46.16 34.672C45.2747 33.6693 44.832 32.2507 44.832 30.416C44.832 28.592 45.28 27.1733 46.176 26.16C47.072 25.1467 48.3307 24.64 49.952 24.64C50.6027 24.64 51.2213 24.752 51.808 24.976C52.4053 25.2 52.8907 25.504 53.264 25.888C53.2107 26.1867 53.0933 26.4533 52.912 26.688C52.7307 26.9227 52.5547 27.04 52.384 27.04C52.2347 27.04 52.096 26.992 51.968 26.896C51.6267 26.64 51.296 26.4533 50.976 26.336C50.656 26.2187 50.304 26.16 49.92 26.16C48.928 26.16 48.176 26.5173 47.664 27.232C47.1627 27.9467 46.912 29.008 46.912 30.416C46.912 31.8133 47.1627 32.8693 47.664 33.584C48.176 34.288 48.928 34.64 49.92 34.64C50.912 34.64 51.76 34.288 52.464 33.584C52.6773 33.6693 52.848 33.7973 52.976 33.968C53.104 34.1387 53.168 34.3253 53.168 34.528C53.168 34.816 53.0187 35.088 52.72 35.344C52.4213 35.5893 52.0267 35.7867 51.536 35.936C51.0453 36.0853 50.5173 36.16 49.952 36.16ZM58.4648 36.16C57.1848 36.16 56.2034 35.7653 55.5208 34.976C54.8381 34.1867 54.4967 33.056 54.4967 31.584C54.4967 30.112 54.8381 28.9867 55.5208 28.208C56.2034 27.4293 57.1848 27.04 58.4648 27.04C59.7448 27.04 60.7208 27.4293 61.3928 28.208C62.0754 28.9867 62.4167 30.112 62.4167 31.584C62.4167 33.0667 62.0754 34.2027 61.3928 34.992C60.7101 35.7707 59.7341 36.16 58.4648 36.16ZM58.4648 34.832C59.1581 34.832 59.6594 34.576 59.9688 34.064C60.2888 33.5413 60.4488 32.7147 60.4488 31.584C60.4488 30.464 60.2888 29.648 59.9688 29.136C59.6594 28.624 59.1581 28.368 58.4648 28.368C57.7714 28.368 57.2648 28.624 56.9448 29.136C56.6354 29.6373 56.4808 30.4533 56.4808 31.584C56.4808 32.7253 56.6354 33.552 56.9448 34.064C57.2648 34.576 57.7714 34.832 58.4648 34.832ZM71.4655 33.84C71.4655 34.416 71.4815 34.832 71.5135 35.088C71.5455 35.344 71.6148 35.5733 71.7215 35.776C71.2202 35.9787 70.6922 36.08 70.1375 36.08C69.9135 36.08 69.7535 35.9573 69.6575 35.712C69.5722 35.456 69.5295 35.008 69.5295 34.368V30.144C69.5295 29.5253 69.4282 29.088 69.2255 28.832C69.0228 28.5653 68.6815 28.432 68.2015 28.432C67.5082 28.432 66.7722 28.7733 65.9935 29.456V36H64.0575V30.112C64.0575 28.7253 63.9935 27.84 63.8655 27.456C64.4842 27.2427 65.0068 27.136 65.4335 27.136C65.6362 27.136 65.7802 27.2107 65.8655 27.36C65.9508 27.5093 65.9935 27.744 65.9935 28.064V28.256C66.5268 27.808 67.0015 27.4933 67.4175 27.312C67.8335 27.1307 68.2708 27.04 68.7295 27.04C69.6468 27.04 70.3295 27.2907 70.7775 27.792C71.2362 28.2827 71.4655 29.0347 71.4655 30.048V33.84ZM78.4951 34.608C78.5911 34.6507 78.6711 34.7253 78.7351 34.832C78.7991 34.928 78.8311 35.0453 78.8311 35.184C78.8311 35.3973 78.7565 35.568 78.6071 35.696C78.4365 35.8347 78.1805 35.9467 77.8391 36.032C77.5085 36.1173 77.1405 36.16 76.7351 36.16C76.0098 36.16 75.4285 35.9627 74.9911 35.568C74.5645 35.1627 74.3511 34.624 74.3511 33.952V28.496H72.8951V27.2H74.3511V24.8H76.2871V27.2H78.1591V28.496H76.2871V33.744C76.2871 34.1493 76.3618 34.4427 76.5111 34.624C76.6605 34.7947 76.9005 34.88 77.2311 34.88C77.6365 34.88 78.0578 34.7893 78.4951 34.608ZM86.9516 33.056C86.9516 33.8027 86.989 34.352 87.0636 34.704C87.1383 35.056 87.277 35.36 87.4796 35.616C87.2983 35.7547 87.0636 35.872 86.7756 35.968C86.4983 36.0533 86.2423 36.096 86.0076 36.096C85.4956 36.096 85.1863 35.6747 85.0796 34.832C84.493 35.7173 83.581 36.16 82.3436 36.16C81.5543 36.16 80.9143 35.952 80.4236 35.536C79.9436 35.1093 79.7036 34.5547 79.7036 33.872C79.7036 32.9013 80.1356 32.1653 80.9996 31.664C81.8636 31.152 83.2023 30.848 85.0156 30.752V30.032C85.0156 28.9867 84.4663 28.464 83.3676 28.464C82.973 28.464 82.5996 28.544 82.2476 28.704C81.8956 28.8533 81.4796 29.1147 80.9996 29.488C80.925 29.5413 80.8503 29.568 80.7756 29.568C80.605 29.568 80.4236 29.472 80.2316 29.28C80.0396 29.0773 79.869 28.8053 79.7196 28.464C80.157 28.0373 80.7276 27.696 81.4316 27.44C82.1356 27.1733 82.8503 27.04 83.5756 27.04C84.653 27.04 85.485 27.3013 86.0716 27.824C86.6583 28.3467 86.9516 29.0827 86.9516 30.032V33.056ZM82.9196 34.832C83.741 34.832 84.4396 34.32 85.0156 33.296V31.856C82.797 31.952 81.6876 32.5653 81.6876 33.696C81.6876 34.0587 81.7943 34.3413 82.0076 34.544C82.221 34.736 82.525 34.832 82.9196 34.832ZM92.9105 36.16C91.4918 36.16 90.4145 35.7707 89.6785 34.992C88.9532 34.2027 88.5905 33.056 88.5905 31.552C88.5905 30.1547 88.9638 29.056 89.7105 28.256C90.4572 27.4453 91.4812 27.04 92.7825 27.04C93.8172 27.04 94.6598 27.296 95.3105 27.808C95.9718 28.3093 96.3612 29.0027 96.4785 29.888C95.9878 30.176 95.5612 30.32 95.1985 30.32C95.0492 30.32 94.9265 30.2773 94.8305 30.192C94.7452 30.096 94.6652 29.936 94.5905 29.712C94.4518 29.2533 94.2332 28.9173 93.9345 28.704C93.6465 28.48 93.2625 28.368 92.7825 28.368C92.0892 28.368 91.5452 28.6507 91.1505 29.216C90.7665 29.7707 90.5745 30.5493 90.5745 31.552C90.5745 32.6187 90.7718 33.4293 91.1665 33.984C91.5718 34.528 92.1532 34.8 92.9105 34.8C93.4652 34.8 93.9132 34.64 94.2545 34.32C94.6065 33.9893 94.8678 33.4773 95.0385 32.784C95.4758 32.784 95.7958 32.88 95.9985 33.072C96.2118 33.2533 96.3185 33.5307 96.3185 33.904C96.3185 34.2987 96.1585 34.672 95.8385 35.024C95.5292 35.3653 95.1132 35.6427 94.5905 35.856C94.0678 36.0587 93.5078 36.16 92.9105 36.16ZM102.948 34.608C103.044 34.6507 103.124 34.7253 103.188 34.832C103.252 34.928 103.284 35.0453 103.284 35.184C103.284 35.3973 103.21 35.568 103.06 35.696C102.89 35.8347 102.634 35.9467 102.292 36.032C101.962 36.1173 101.594 36.16 101.188 36.16C100.463 36.16 99.8816 35.9627 99.4443 35.568C99.0176 35.1627 98.8043 34.624 98.8043 33.952V28.496H97.3483V27.2H98.8043V24.8H100.74V27.2H102.612V28.496H100.74V33.744C100.74 34.1493 100.815 34.4427 100.964 34.624C101.114 34.7947 101.354 34.88 101.684 34.88C102.09 34.88 102.511 34.7893 102.948 34.608Z" fill="#23212A"/>
<defs>
<linearGradient id="paint0_linear_1_1944" x1="-4.19587" y1="13" x2="177.357" y2="44.8025" gradientUnits="userSpaceOnUse">
<stop stop-color="#FFB629"/>
<stop offset="0.507189" stop-color="#FFDA56"/>
<stop offset="1" stop-color="#FFD7A6"/>
</linearGradient>
</defs>
</svg>
