<svg width="194" height="60" viewBox="0 0 194 60" fill="none" xmlns="http://www.w3.org/2000/svg">
<path d="M0 0H194V60H0V0Z" fill="#091242"/>
<mask id="mask0_1_3818" style="mask-type:alpha" maskUnits="userSpaceOnUse" x="0" y="0" width="194" height="60">
<path d="M0 0H194V60H0V0Z" fill="#FFB629"/>
</mask>
<g mask="url(#mask0_1_3818)">
<circle cx="185" cy="62" r="26" fill="#1F2A69"/>
</g>
<path d="M62.1946 34.544V36H55.6026V24.8H57.6346V34.544H62.1946ZM71.0697 31.008C71.0697 31.1893 71.0484 31.4933 71.0057 31.92H65.1177C65.171 32.8373 65.3844 33.5467 65.7577 34.048C66.131 34.5493 66.6377 34.8 67.2777 34.8C67.715 34.8 68.0724 34.7147 68.3497 34.544C68.6377 34.3627 68.963 34.016 69.3257 33.504C69.3897 33.408 69.5017 33.36 69.6617 33.36C69.9604 33.36 70.371 33.5467 70.8937 33.92C70.595 34.6453 70.131 35.2 69.5017 35.584C68.883 35.968 68.1417 36.16 67.2777 36.16C65.987 36.16 64.9684 35.7547 64.2217 34.944C63.4857 34.1227 63.1177 33.0027 63.1177 31.584C63.1177 30.176 63.491 29.0667 64.2377 28.256C64.9844 27.4453 66.0084 27.04 67.3097 27.04C68.5044 27.04 69.427 27.3867 70.0777 28.08C70.739 28.7733 71.0697 29.7493 71.0697 31.008ZM69.1017 30.736C69.1017 29.1467 68.4884 28.352 67.2617 28.352C66.6537 28.352 66.1684 28.5547 65.8057 28.96C65.4537 29.3547 65.235 29.9467 65.1497 30.736H69.1017ZM79.5376 33.056C79.5376 33.8027 79.5749 34.352 79.6496 34.704C79.7242 35.056 79.8629 35.36 80.0656 35.616C79.8842 35.7547 79.6496 35.872 79.3616 35.968C79.0842 36.0533 78.8282 36.096 78.5936 36.096C78.0816 36.096 77.7722 35.6747 77.6656 34.832C77.0789 35.7173 76.1669 36.16 74.9296 36.16C74.1402 36.16 73.5002 35.952 73.0096 35.536C72.5296 35.1093 72.2896 34.5547 72.2896 33.872C72.2896 32.9013 72.7216 32.1653 73.5856 31.664C74.4496 31.152 75.7882 30.848 77.6016 30.752V30.032C77.6016 28.9867 77.0522 28.464 75.9536 28.464C75.5589 28.464 75.1856 28.544 74.8336 28.704C74.4816 28.8533 74.0656 29.1147 73.5856 29.488C73.5109 29.5413 73.4362 29.568 73.3616 29.568C73.1909 29.568 73.0096 29.472 72.8176 29.28C72.6256 29.0773 72.4549 28.8053 72.3056 28.464C72.7429 28.0373 73.3136 27.696 74.0176 27.44C74.7216 27.1733 75.4362 27.04 76.1616 27.04C77.2389 27.04 78.0709 27.3013 78.6576 27.824C79.2442 28.3467 79.5376 29.0827 79.5376 30.032V33.056ZM75.5056 34.832C76.3269 34.832 77.0256 34.32 77.6016 33.296V31.856C75.3829 31.952 74.2736 32.5653 74.2736 33.696C74.2736 34.0587 74.3802 34.3413 74.5936 34.544C74.8069 34.736 75.1109 34.832 75.5056 34.832ZM85.8644 27.088C86.3338 27.088 86.6751 27.184 86.8884 27.376C87.1124 27.568 87.2244 27.8613 87.2244 28.256C87.2244 28.4053 87.2031 28.5547 87.1604 28.704C87.1178 28.8427 87.0591 28.9547 86.9844 29.04C86.8671 28.9653 86.7231 28.912 86.5524 28.88C86.3924 28.848 86.1738 28.832 85.8964 28.832C85.2031 28.832 84.6698 29.072 84.2964 29.552C83.9231 30.0213 83.7364 30.6987 83.7364 31.584V36H81.8004V27.2H83.7364V28.512C83.9604 28.064 84.2591 27.7173 84.6324 27.472C85.0058 27.216 85.4164 27.088 85.8644 27.088ZM96.0046 33.84C96.0046 34.416 96.0206 34.832 96.0526 35.088C96.0846 35.344 96.1539 35.5733 96.2606 35.776C95.7592 35.9787 95.2312 36.08 94.6766 36.08C94.4526 36.08 94.2926 35.9573 94.1966 35.712C94.1112 35.456 94.0686 35.008 94.0686 34.368V30.144C94.0686 29.5253 93.9672 29.088 93.7646 28.832C93.5619 28.5653 93.2206 28.432 92.7406 28.432C92.0472 28.432 91.3112 28.7733 90.5326 29.456V36H88.5966V30.112C88.5966 28.7253 88.5326 27.84 88.4046 27.456C89.0232 27.2427 89.5459 27.136 89.9726 27.136C90.1752 27.136 90.3192 27.2107 90.4046 27.36C90.4899 27.5093 90.5326 27.744 90.5326 28.064V28.256C91.0659 27.808 91.5406 27.4933 91.9566 27.312C92.3726 27.1307 92.8099 27.04 93.2686 27.04C94.1859 27.04 94.8686 27.2907 95.3166 27.792C95.7752 28.2827 96.0046 29.0347 96.0046 30.048V33.84ZM111.831 36C111.81 34.0693 111.746 32.4267 111.639 31.072C111.533 29.7067 111.362 28.368 111.127 27.056C110.711 28.1547 110.354 29.1893 110.055 30.16C109.757 31.1307 109.357 32.56 108.855 34.448H107.271C106.834 32.72 106.461 31.3493 106.151 30.336C105.853 29.312 105.485 28.2187 105.047 27.056C104.823 28.368 104.653 29.7067 104.535 31.072C104.429 32.4373 104.354 34.08 104.311 36H102.311C102.354 33.7387 102.482 31.7227 102.695 29.952C102.919 28.1707 103.261 26.4533 103.719 24.8H105.975C106.541 26.176 106.962 27.2907 107.239 28.144C107.527 28.9867 107.799 29.936 108.055 30.992C108.322 29.9573 108.599 29.024 108.887 28.192C109.186 27.3493 109.623 26.2187 110.199 24.8H112.455C112.935 26.464 113.287 28.1867 113.511 29.968C113.735 31.7493 113.858 33.76 113.879 36H111.831ZM119.301 36.16C118.021 36.16 117.039 35.7653 116.357 34.976C115.674 34.1867 115.333 33.056 115.333 31.584C115.333 30.112 115.674 28.9867 116.357 28.208C117.039 27.4293 118.021 27.04 119.301 27.04C120.581 27.04 121.557 27.4293 122.229 28.208C122.911 28.9867 123.253 30.112 123.253 31.584C123.253 33.0667 122.911 34.2027 122.229 34.992C121.546 35.7707 120.57 36.16 119.301 36.16ZM119.301 34.832C119.994 34.832 120.495 34.576 120.805 34.064C121.125 33.5413 121.285 32.7147 121.285 31.584C121.285 30.464 121.125 29.648 120.805 29.136C120.495 28.624 119.994 28.368 119.301 28.368C118.607 28.368 118.101 28.624 117.781 29.136C117.471 29.6373 117.317 30.4533 117.317 31.584C117.317 32.7253 117.471 33.552 117.781 34.064C118.101 34.576 118.607 34.832 119.301 34.832ZM128.989 27.088C129.459 27.088 129.8 27.184 130.013 27.376C130.237 27.568 130.349 27.8613 130.349 28.256C130.349 28.4053 130.328 28.5547 130.285 28.704C130.243 28.8427 130.184 28.9547 130.109 29.04C129.992 28.9653 129.848 28.912 129.677 28.88C129.517 28.848 129.299 28.832 129.021 28.832C128.328 28.832 127.795 29.072 127.421 29.552C127.048 30.0213 126.861 30.6987 126.861 31.584V36H124.925V27.2H126.861V28.512C127.085 28.064 127.384 27.7173 127.757 27.472C128.131 27.216 128.541 27.088 128.989 27.088ZM139.242 31.008C139.242 31.1893 139.22 31.4933 139.178 31.92H133.29C133.343 32.8373 133.556 33.5467 133.93 34.048C134.303 34.5493 134.81 34.8 135.45 34.8C135.887 34.8 136.244 34.7147 136.522 34.544C136.81 34.3627 137.135 34.016 137.498 33.504C137.562 33.408 137.674 33.36 137.834 33.36C138.132 33.36 138.543 33.5467 139.066 33.92C138.767 34.6453 138.303 35.2 137.674 35.584C137.055 35.968 136.314 36.16 135.45 36.16C134.159 36.16 133.14 35.7547 132.394 34.944C131.658 34.1227 131.29 33.0027 131.29 31.584C131.29 30.176 131.663 29.0667 132.41 28.256C133.156 27.4453 134.18 27.04 135.482 27.04C136.676 27.04 137.599 27.3867 138.25 28.08C138.911 28.7733 139.242 29.7493 139.242 31.008ZM137.274 30.736C137.274 29.1467 136.66 28.352 135.434 28.352C134.826 28.352 134.34 28.5547 133.978 28.96C133.626 29.3547 133.407 29.9467 133.322 30.736H137.274Z" fill="white"/>
</svg>
