<svg width="199" height="62" viewBox="0 0 199 62" fill="none" xmlns="http://www.w3.org/2000/svg">
<rect width="61.6392" height="198.111" transform="translate(2.69433e-06 61.6392) rotate(-90)" fill="url(#paint0_linear_1_4152)"/>
<path d="M37.0719 20.0718L18.92 20.0718C17.9281 20.0718 17.0615 20.7855 17.0615 21.7657L17.0615 39.9579C17.0615 40.9435 17.9281 41.8217 18.92 41.8217L37.0666 41.8217C38.0638 41.8217 38.8115 40.9376 38.8115 39.9579L38.8115 21.7657C38.8173 20.7855 38.0638 20.0718 37.0719 20.0718ZM23.8035 38.2014L20.6876 38.2014L20.6876 28.5135L23.8035 28.5135L23.8035 38.2014ZM22.3534 27.0405H22.331C21.3338 27.0405 20.6881 26.2982 20.6881 25.369C20.6881 24.4227 21.3508 23.6979 22.3704 23.6979C23.3899 23.6979 24.0137 24.4174 24.0361 25.369C24.0356 26.2982 23.3899 27.0405 22.3534 27.0405ZM35.1912 38.2014L32.0753 38.2014L32.0753 32.9043C32.0753 31.6352 31.6218 30.7681 30.4945 30.7681C29.6333 30.7681 29.1235 31.3507 28.8968 31.9182C28.8118 32.1221 28.789 32.3998 28.789 32.6834L28.789 38.2014H25.6731L25.6731 28.5135L28.789 28.5135L28.789 29.8617C29.2425 29.216 29.9508 28.2868 31.599 28.2868C33.6444 28.2868 35.1916 29.635 35.1916 32.5416L35.1912 38.2014Z" fill="#1C1F35"/>
<path d="M85.4496 22.1129C84.6413 22.4639 83.786 22.6951 82.9109 22.7993C83.8306 22.2611 84.5222 21.4062 84.8561 20.3948C83.9866 20.9029 83.0369 21.2594 82.0477 21.449C81.6311 21.0128 81.1301 20.6657 80.5752 20.429C80.0202 20.1922 79.4229 20.0707 78.8195 20.0718C76.3764 20.0718 74.3994 22.0187 74.3994 24.4187C74.3977 24.7526 74.4359 25.0854 74.5134 25.4101C72.7616 25.3281 71.0462 24.8815 69.477 24.099C67.9077 23.3165 66.5192 22.2153 65.4003 20.8658C65.0078 21.5271 64.8002 22.2816 64.7992 23.0505C64.7992 24.5578 65.5862 25.8901 66.7745 26.6707C66.0704 26.654 65.3808 26.4678 64.7642 26.1279V26.1817C64.7642 28.2902 66.2905 30.0442 68.3107 30.4434C67.9308 30.5446 67.5393 30.5959 67.1462 30.596C66.8672 30.5964 66.5889 30.5694 66.3152 30.5152C66.8768 32.2423 68.5113 33.4984 70.4475 33.5343C68.8742 34.7459 66.9426 35.4008 64.9563 35.396C64.6038 35.3955 64.2515 35.3745 63.9014 35.3332C65.922 36.6226 68.2709 37.3046 70.6684 37.298C78.81 37.298 83.2579 30.6722 83.2579 24.9257C83.2579 24.7372 83.253 24.5488 83.244 24.3649C84.1073 23.7512 84.8542 22.9886 85.4496 22.1129Z" fill="#1C1F35"/>
<path fill-rule="evenodd" clip-rule="evenodd" d="M133.622 30.8821C133.622 24.9123 128.454 20.0718 122.08 20.0718C115.707 20.0718 110.539 24.9123 110.539 30.8821C110.539 36.2776 114.759 40.7498 120.277 41.5616L120.277 34.0079L117.346 34.0079V30.8821L120.277 30.8821V28.5004C120.277 25.7916 122.001 24.2941 124.636 24.2941C125.899 24.2941 127.22 24.5055 127.22 24.5055V27.166L125.764 27.166C124.331 27.166 123.883 27.999 123.883 28.8551V30.8821L127.084 30.8821L126.573 34.0079L123.884 34.0079L123.884 41.5625C129.402 40.7513 133.622 36.279 133.622 30.8821Z" fill="#1C1F35"/>
<path d="M174.535 21.8629C175.768 21.8665 176.949 22.3394 177.821 23.1786C178.693 24.0177 179.185 25.1548 179.189 26.3415L179.189 35.2976C179.185 36.4843 178.693 37.6213 177.821 38.4605C176.949 39.2996 175.768 39.7726 174.535 39.7761L165.227 39.7761C163.994 39.7726 162.813 39.2996 161.94 38.4605C161.068 37.6213 160.577 36.4843 160.573 35.2976V26.3415C160.577 25.1548 161.068 24.0177 161.94 23.1786C162.813 22.3394 163.994 21.8665 165.227 21.8629L174.535 21.8629ZM174.535 20.0718L165.227 20.0718C161.644 20.0718 158.712 22.8931 158.712 26.3415L158.712 35.2976C158.712 38.746 161.644 41.5672 165.227 41.5672L174.535 41.5672C178.118 41.5672 181.05 38.746 181.05 35.2976L181.05 26.3415C181.05 22.8931 178.118 20.0718 174.535 20.0718Z" fill="#1C1F35"/>
<path d="M175.931 26.3419C175.655 26.3419 175.385 26.2631 175.156 26.1154C174.926 25.9678 174.747 25.758 174.641 25.5125C174.536 25.267 174.508 24.9969 174.562 24.7363C174.616 24.4757 174.749 24.2363 174.944 24.0484C175.139 23.8605 175.388 23.7326 175.659 23.6807C175.93 23.6289 176.21 23.6555 176.465 23.7572C176.721 23.8589 176.939 24.0311 177.092 24.252C177.245 24.4729 177.327 24.7327 177.327 24.9984C177.328 25.1749 177.292 25.3498 177.222 25.513C177.152 25.6761 177.049 25.8244 176.919 25.9492C176.79 26.074 176.635 26.173 176.466 26.2404C176.296 26.3077 176.115 26.3422 175.931 26.3419ZM169.881 27.2372C170.618 27.2372 171.338 27.4473 171.95 27.841C172.562 28.2347 173.039 28.7942 173.321 29.4489C173.603 30.1035 173.677 30.8239 173.533 31.5189C173.389 32.2138 173.035 32.8522 172.514 33.3533C171.993 33.8543 171.33 34.1956 170.608 34.3338C169.886 34.472 169.137 34.4011 168.457 34.1299C167.776 33.8588 167.195 33.3995 166.786 32.8104C166.377 32.2212 166.158 31.5285 166.158 30.8199C166.159 29.87 166.552 28.9593 167.25 28.2877C167.948 27.616 168.894 27.2382 169.881 27.2372ZM169.881 25.4461C168.777 25.4461 167.697 25.7612 166.779 26.3517C165.86 26.9422 165.145 27.7815 164.722 28.7634C164.299 29.7454 164.189 30.8259 164.404 31.8683C164.62 32.9107 165.152 33.8683 165.933 34.6198C166.714 35.3713 167.709 35.8832 168.792 36.0905C169.875 36.2979 170.998 36.1914 172.019 35.7847C173.039 35.378 173.911 34.6892 174.525 33.8055C175.138 32.9217 175.466 31.8828 175.466 30.8199C175.466 29.3947 174.878 28.0278 173.83 27.02C172.783 26.0122 171.363 25.4461 169.881 25.4461Z" fill="#1C1F35"/>
<defs>
<linearGradient id="paint0_linear_1_4152" x1="-1.7475" y1="42.9239" x2="76.1481" y2="44.645" gradientUnits="userSpaceOnUse">
<stop stop-color="#FFB629"/>
<stop offset="0.507189" stop-color="#FFDA56"/>
<stop offset="1" stop-color="#FFD7A6"/>
</linearGradient>
</defs>
</svg>
