<svg width="152" height="62" viewBox="0 0 152 62" fill="none" xmlns="http://www.w3.org/2000/svg">
<rect width="61.6392" height="151.271" transform="translate(2.69433e-06 61.6392) rotate(-90)" fill="url(#paint0_linear_1_4131)"/>
<path d="M38.6097 22.1129C37.8014 22.4639 36.9462 22.6951 36.0711 22.7993C36.9908 22.2611 37.6824 21.4062 38.0163 20.3948C37.1467 20.9029 36.197 21.2594 35.2078 21.449C34.7913 21.0128 34.2903 20.6657 33.7353 20.4289C33.1804 20.1922 32.583 20.0707 31.9796 20.0718C29.5366 20.0718 27.5595 22.0187 27.5595 24.4187C27.5578 24.7526 27.5961 25.0854 27.6736 25.4101C25.9217 25.3281 24.2063 24.8815 22.6371 24.099C21.0679 23.3165 19.6794 22.2153 18.5605 20.8658C18.1679 21.5271 17.9603 22.2816 17.9594 23.0505C17.9594 24.5578 18.7463 25.8901 19.9346 26.6707C19.2306 26.654 18.541 26.4678 17.9244 26.1279V26.1817C17.9244 28.2902 19.4507 30.0442 21.4708 30.4434C21.0909 30.5446 20.6995 30.5959 20.3063 30.596C20.0274 30.5964 19.749 30.5694 19.4754 30.5152C20.037 32.2423 21.6715 33.4984 23.6077 33.5343C22.0344 34.7459 20.1028 35.4008 18.1165 35.396C17.7639 35.3955 17.4117 35.3745 17.0615 35.3332C19.0822 36.6226 21.4311 37.3046 23.8286 37.298C31.9702 37.298 36.4181 30.6722 36.4181 24.9257C36.4181 24.7372 36.4132 24.5488 36.4042 24.3649C37.2675 23.7512 38.0144 22.9886 38.6097 22.1129Z" fill="#1C1F35"/>
<path fill-rule="evenodd" clip-rule="evenodd" d="M86.7819 30.8821C86.7819 24.9123 81.614 20.0718 75.2405 20.0718C68.8671 20.0718 63.6992 24.9123 63.6992 30.8821C63.6992 36.2776 67.919 40.7498 73.4372 41.5616L73.4372 34.0079L70.506 34.0079V30.8821L73.4372 30.8821V28.5004C73.4372 25.7916 75.1607 24.2941 77.7966 24.2941C79.0595 24.2941 80.3806 24.5055 80.3806 24.5055V27.166L78.9245 27.166C77.4916 27.166 77.0434 27.999 77.0434 28.8551V30.8821L80.244 30.8821L79.7329 34.0079L77.0439 34.0079L77.0439 41.5625C82.5621 40.7513 86.7819 36.279 86.7819 30.8821Z" fill="#1C1F35"/>
<path d="M127.695 21.8629C128.928 21.8665 130.11 22.3394 130.982 23.1786C131.854 24.0177 132.345 25.1548 132.349 26.3415L132.349 35.2976C132.345 36.4843 131.854 37.6213 130.982 38.4605C130.11 39.2996 128.928 39.7726 127.695 39.7761L118.388 39.7761C117.154 39.7726 115.973 39.2996 115.101 38.4605C114.229 37.6213 113.737 36.4843 113.733 35.2976V26.3415C113.737 25.1548 114.229 24.0177 115.101 23.1786C115.973 22.3394 117.154 21.8665 118.388 21.8629L127.695 21.8629ZM127.695 20.0718L118.388 20.0718C114.804 20.0718 111.872 22.8931 111.872 26.3415V35.2976C111.872 38.7459 114.804 41.5672 118.388 41.5672L127.695 41.5672C131.278 41.5672 134.21 38.7459 134.21 35.2976L134.21 26.3415C134.21 22.8931 131.278 20.0718 127.695 20.0718Z" fill="#1C1F35"/>
<path d="M129.091 26.3419C128.815 26.3419 128.545 26.2631 128.316 26.1154C128.086 25.9678 127.907 25.758 127.801 25.5125C127.696 25.267 127.668 24.9969 127.722 24.7363C127.776 24.4757 127.909 24.2363 128.104 24.0484C128.299 23.8605 128.548 23.7326 128.819 23.6807C129.09 23.6289 129.37 23.6555 129.626 23.7572C129.881 23.8589 130.099 24.0311 130.252 24.252C130.406 24.4729 130.487 24.7327 130.487 24.9984C130.488 25.1749 130.452 25.3498 130.382 25.513C130.312 25.6761 130.209 25.8244 130.079 25.9492C129.95 26.074 129.796 26.173 129.626 26.2404C129.456 26.3077 129.275 26.3422 129.091 26.3419ZM123.042 27.2372C123.778 27.2372 124.498 27.4473 125.11 27.841C125.722 28.2346 126.2 28.7942 126.481 29.4489C126.763 30.1035 126.837 30.8239 126.693 31.5189C126.55 32.2138 126.195 32.8522 125.674 33.3533C125.154 33.8543 124.49 34.1956 123.768 34.3338C123.046 34.472 122.297 34.4011 121.617 34.1299C120.936 33.8588 120.355 33.3995 119.946 32.8104C119.537 32.2212 119.318 31.5285 119.318 30.8199C119.319 29.87 119.712 28.9593 120.41 28.2877C121.108 27.616 122.054 27.2382 123.042 27.2372ZM123.042 25.446C121.937 25.446 120.857 25.7612 119.939 26.3517C119.021 26.9422 118.305 27.7815 117.882 28.7634C117.459 29.7454 117.349 30.8259 117.564 31.8683C117.78 32.9107 118.312 33.8682 119.093 34.6198C119.874 35.3713 120.869 35.8832 121.952 36.0905C123.035 36.2979 124.158 36.1914 125.179 35.7847C126.199 35.378 127.071 34.6892 127.685 33.8055C128.299 32.9217 128.626 31.8828 128.626 30.8199C128.626 29.3947 128.038 28.0278 126.99 27.02C125.943 26.0122 124.523 25.446 123.042 25.446Z" fill="#1C1F35"/>
<defs>
<linearGradient id="paint0_linear_1_4131" x1="-1.7475" y1="32.7753" x2="76.1209" y2="35.0286" gradientUnits="userSpaceOnUse">
<stop stop-color="#FFB629"/>
<stop offset="0.507189" stop-color="#FFDA56"/>
<stop offset="1" stop-color="#FFD7A6"/>
</linearGradient>
</defs>
</svg>
