<svg width="105" height="62" viewBox="0 0 105 62" fill="none" xmlns="http://www.w3.org/2000/svg">
<rect width="61.6392" height="104.633" transform="translate(2.69433e-06 61.6392) rotate(-90)" fill="url(#paint0_linear_1_4175)"/>
<path fill-rule="evenodd" clip-rule="evenodd" d="M40.1442 30.8821C40.1442 24.9123 34.9763 20.0718 28.6028 20.0718C22.2294 20.0718 17.0615 24.9123 17.0615 30.8821C17.0615 36.2776 21.2813 40.7498 26.7995 41.5616L26.7995 34.0079L23.8683 34.0079L23.8683 30.8821L26.7995 30.8821L26.7995 28.5004C26.7995 25.7916 28.523 24.2941 31.1589 24.2941C32.4218 24.2941 33.7429 24.5055 33.7429 24.5055L33.7429 27.166L32.2868 27.166C30.8539 27.166 30.4057 27.999 30.4057 28.8551L30.4057 30.8821L33.6063 30.8821L33.0952 34.0079L30.4062 34.0079L30.4062 41.5625C35.9244 40.7513 40.1442 36.279 40.1442 30.8821Z" fill="#1C1F35"/>
<path d="M81.0571 21.8629C82.2903 21.8665 83.4719 22.3394 84.3439 23.1786C85.216 24.0177 85.7075 25.1548 85.7112 26.3415L85.7112 35.2976C85.7075 36.4843 85.216 37.6213 84.3439 38.4605C83.4719 39.2996 82.2903 39.7726 81.0571 39.7761L71.7498 39.7761C70.5166 39.7726 69.335 39.2996 68.4629 38.4605C67.5909 37.6213 67.0994 36.4843 67.0957 35.2976V26.3415C67.0994 25.1548 67.5909 24.0177 68.4629 23.1786C69.335 22.3394 70.5166 21.8665 71.7498 21.8629L81.0571 21.8629ZM81.0571 20.0718L71.7498 20.0718C68.1663 20.0718 65.2344 22.8931 65.2344 26.3415V35.2976C65.2344 38.7459 68.1663 41.5672 71.7498 41.5672L81.0571 41.5672C84.6406 41.5672 87.5725 38.7459 87.5725 35.2976L87.5725 26.3415C87.5725 22.8931 84.6406 20.0718 81.0571 20.0718Z" fill="#1C1F35"/>
<path d="M82.4536 26.3418C82.1775 26.3418 81.9076 26.2631 81.678 26.1154C81.4484 25.9678 81.2694 25.758 81.1638 25.5125C81.0581 25.267 81.0304 24.9969 81.0843 24.7363C81.1382 24.4757 81.2712 24.2363 81.4664 24.0484C81.6617 23.8605 81.9104 23.7326 82.1812 23.6807C82.4521 23.6289 82.7328 23.6555 82.9879 23.7572C83.243 23.8589 83.4611 24.0311 83.6145 24.252C83.7679 24.4729 83.8498 24.7327 83.8498 24.9984C83.8501 25.1749 83.8143 25.3498 83.7443 25.513C83.6743 25.6761 83.5714 25.8244 83.4417 25.9492C83.312 26.074 83.1579 26.173 82.9884 26.2404C82.8188 26.3077 82.6371 26.3422 82.4536 26.3418ZM76.4039 27.2372C77.1403 27.2372 77.8601 27.4473 78.4724 27.841C79.0846 28.2346 79.5619 28.7942 79.8437 29.4489C80.1255 30.1035 80.1992 30.8239 80.0555 31.5189C79.9119 32.2138 79.5573 32.8522 79.0366 33.3533C78.5159 33.8543 77.8525 34.1956 77.1302 34.3338C76.408 34.472 75.6594 34.4011 74.9791 34.1299C74.2987 33.8587 73.7173 33.3995 73.3082 32.8104C72.899 32.2212 72.6807 31.5285 72.6807 30.8199C72.6817 29.87 73.0743 28.9593 73.7723 28.2877C74.4704 27.616 75.4167 27.2382 76.4039 27.2372ZM76.4039 25.446C75.2994 25.446 74.2196 25.7612 73.3013 26.3517C72.3829 26.9422 71.6671 27.7815 71.2444 28.7634C70.8218 29.7454 70.7112 30.8259 70.9266 31.8683C71.1421 32.9107 71.674 33.8682 72.455 34.6198C73.236 35.3713 74.2311 35.8832 75.3144 36.0905C76.3977 36.2979 77.5205 36.1914 78.541 35.7847C79.5614 35.378 80.4336 34.6892 81.0472 33.8055C81.6609 32.9217 81.9884 31.8828 81.9884 30.8199C81.9884 29.3947 81.4 28.0278 80.3527 27.02C79.3054 26.0122 77.885 25.446 76.4039 25.446Z" fill="#1C1F35"/>
<defs>
<linearGradient id="paint0_linear_1_4175" x1="-1.7475" y1="22.6704" x2="76.05" y2="25.925" gradientUnits="userSpaceOnUse">
<stop stop-color="#FFB629"/>
<stop offset="0.507189" stop-color="#FFDA56"/>
<stop offset="1" stop-color="#FFD7A6"/>
</linearGradient>
</defs>
</svg>
