<svg width="209" height="52" viewBox="0 0 209 52" fill="none" xmlns="http://www.w3.org/2000/svg">
<path d="M6.42 19.2C5.18 19.2 4.14 19.02 3.3 18.66C2.47333 18.2867 1.84 17.8067 1.4 17.22C0.973333 16.62 0.746667 15.9933 0.72 15.34C0.72 15.22 0.76 15.12 0.84 15.04C0.92 14.96 1.02 14.92 1.14 14.92H2.92C3.09333 14.92 3.22 14.96 3.3 15.04C3.39333 15.1067 3.47333 15.1933 3.54 15.3C3.62 15.5533 3.77333 15.8067 4 16.06C4.22667 16.3 4.53333 16.5 4.92 16.66C5.32 16.82 5.82 16.9 6.42 16.9C7.38 16.9 8.09333 16.74 8.56 16.42C9.04 16.1 9.28 15.6667 9.28 15.12C9.28 14.7333 9.15333 14.4267 8.9 14.2C8.64667 13.96 8.25333 13.7467 7.72 13.56C7.2 13.36 6.50667 13.1533 5.64 12.94C4.64 12.7 3.8 12.4133 3.12 12.08C2.45333 11.7333 1.94667 11.3 1.6 10.78C1.26667 10.26 1.1 9.6 1.1 8.8C1.1 8.02667 1.30667 7.34 1.72 6.74C2.14667 6.14 2.74667 5.66667 3.52 5.32C4.30667 4.97333 5.24 4.8 6.32 4.8C7.18667 4.8 7.95333 4.92 8.62 5.16C9.28667 5.38667 9.84 5.69333 10.28 6.08C10.72 6.45333 11.0533 6.86 11.28 7.3C11.52 7.72667 11.6467 8.14667 11.66 8.56C11.66 8.66667 11.62 8.76667 11.54 8.86C11.4733 8.94 11.3733 8.98 11.24 8.98H9.38C9.27333 8.98 9.16667 8.95333 9.06 8.9C8.95333 8.84667 8.86667 8.74667 8.8 8.6C8.72 8.18667 8.46 7.83333 8.02 7.54C7.58 7.24667 7.01333 7.1 6.32 7.1C5.6 7.1 5.02 7.23333 4.58 7.5C4.14 7.76667 3.92 8.18 3.92 8.74C3.92 9.11333 4.02667 9.42667 4.24 9.68C4.46667 9.92 4.82 10.1333 5.3 10.32C5.79333 10.5067 6.44 10.7067 7.24 10.92C8.37333 11.1733 9.3 11.4667 10.02 11.8C10.74 12.1333 11.2667 12.56 11.6 13.08C11.9333 13.5867 12.1 14.2333 12.1 15.02C12.1 15.9 11.86 16.6533 11.38 17.28C10.9133 17.8933 10.2533 18.3667 9.4 18.7C8.54667 19.0333 7.55333 19.2 6.42 19.2ZM14.652 22.8C14.5187 22.8 14.4054 22.7533 14.312 22.66C14.2187 22.5667 14.172 22.4533 14.172 22.32V9.08C14.172 8.94667 14.2187 8.83333 14.312 8.74C14.4054 8.64667 14.5187 8.6 14.652 8.6H16.232C16.3787 8.6 16.492 8.64667 16.572 8.74C16.6654 8.83333 16.712 8.94667 16.712 9.08V9.88C17.032 9.45333 17.452 9.1 17.972 8.82C18.492 8.54 19.1387 8.4 19.912 8.4C20.6187 8.4 21.232 8.51333 21.752 8.74C22.272 8.96667 22.7054 9.29333 23.052 9.72C23.3987 10.1333 23.6654 10.6267 23.852 11.2C24.0387 11.7733 24.1454 12.4067 24.172 13.1C24.1854 13.3267 24.192 13.56 24.192 13.8C24.192 14.04 24.1854 14.28 24.172 14.52C24.1587 15.1867 24.0587 15.8067 23.872 16.38C23.6854 16.94 23.412 17.4333 23.052 17.86C22.7054 18.2733 22.272 18.6 21.752 18.84C21.232 19.08 20.6187 19.2 19.912 19.2C19.192 19.2 18.5787 19.0733 18.072 18.82C17.5654 18.5533 17.152 18.2067 16.832 17.78V22.32C16.832 22.4533 16.7854 22.5667 16.692 22.66C16.612 22.7533 16.4987 22.8 16.352 22.8H14.652ZM19.172 17.06C19.7454 17.06 20.192 16.94 20.512 16.7C20.832 16.4467 21.0587 16.12 21.192 15.72C21.3387 15.32 21.4254 14.88 21.452 14.4C21.4787 14 21.4787 13.6 21.452 13.2C21.4254 12.72 21.3387 12.28 21.192 11.88C21.0587 11.48 20.832 11.16 20.512 10.92C20.192 10.6667 19.7454 10.54 19.172 10.54C18.6254 10.54 18.1787 10.6667 17.832 10.92C17.4987 11.1733 17.252 11.5 17.092 11.9C16.9454 12.2867 16.8587 12.6867 16.832 13.1C16.8187 13.34 16.812 13.5933 16.812 13.86C16.812 14.1267 16.8187 14.3867 16.832 14.64C16.8454 15.04 16.9387 15.4267 17.112 15.8C17.2854 16.16 17.5387 16.46 17.872 16.7C18.2054 16.94 18.6387 17.06 19.172 17.06ZM30.9172 19.2C29.4372 19.2 28.2639 18.7733 27.3972 17.92C26.5305 17.0667 26.0639 15.8533 25.9972 14.28C25.9839 14.1467 25.9772 13.98 25.9772 13.78C25.9772 13.5667 25.9839 13.4 25.9972 13.28C26.0505 12.28 26.2772 11.4133 26.6772 10.68C27.0905 9.94667 27.6572 9.38667 28.3772 9C29.0972 8.6 29.9439 8.4 30.9172 8.4C31.9972 8.4 32.9039 8.62667 33.6372 9.08C34.3705 9.52 34.9239 10.14 35.2972 10.94C35.6705 11.7267 35.8572 12.64 35.8572 13.68V14.1C35.8572 14.2333 35.8105 14.3467 35.7172 14.44C35.6239 14.5333 35.5039 14.58 35.3572 14.58H28.7172C28.7172 14.58 28.7172 14.6 28.7172 14.64C28.7172 14.68 28.7172 14.7133 28.7172 14.74C28.7305 15.2067 28.8172 15.64 28.9772 16.04C29.1505 16.4267 29.3972 16.74 29.7172 16.98C30.0505 17.22 30.4439 17.34 30.8972 17.34C31.2705 17.34 31.5839 17.2867 31.8372 17.18C32.0905 17.06 32.2972 16.9267 32.4572 16.78C32.6172 16.6333 32.7305 16.5133 32.7972 16.42C32.9172 16.26 33.0105 16.1667 33.0772 16.14C33.1572 16.1 33.2705 16.08 33.4172 16.08H35.1372C35.2705 16.08 35.3772 16.12 35.4572 16.2C35.5505 16.28 35.5905 16.38 35.5772 16.5C35.5639 16.7133 35.4505 16.9733 35.2372 17.28C35.0372 17.5867 34.7439 17.8867 34.3572 18.18C33.9705 18.4733 33.4839 18.72 32.8972 18.92C32.3239 19.1067 31.6639 19.2 30.9172 19.2ZM28.7172 12.9H33.1372V12.84C33.1372 12.32 33.0505 11.8667 32.8772 11.48C32.7039 11.0933 32.4505 10.7867 32.1172 10.56C31.7839 10.3333 31.3839 10.22 30.9172 10.22C30.4505 10.22 30.0505 10.3333 29.7172 10.56C29.3839 10.7867 29.1305 11.0933 28.9572 11.48C28.7972 11.8667 28.7172 12.32 28.7172 12.84V12.9ZM42.4802 19.2C41.5202 19.2 40.6735 19.02 39.9402 18.66C39.2202 18.3 38.6535 17.78 38.2402 17.1C37.8402 16.4067 37.6202 15.5733 37.5802 14.6C37.5668 14.4 37.5602 14.14 37.5602 13.82C37.5602 13.4867 37.5668 13.2133 37.5802 13C37.6202 12.0267 37.8402 11.2 38.2402 10.52C38.6535 9.82667 39.2202 9.3 39.9402 8.94C40.6735 8.58 41.5202 8.4 42.4802 8.4C43.3335 8.4 44.0602 8.52 44.6602 8.76C45.2602 9 45.7535 9.3 46.1402 9.66C46.5268 10.02 46.8135 10.4 47.0002 10.8C47.2002 11.1867 47.3068 11.54 47.3202 11.86C47.3335 12.0067 47.2868 12.1267 47.1802 12.22C47.0868 12.3 46.9735 12.34 46.8402 12.34H45.0802C44.9468 12.34 44.8402 12.3067 44.7602 12.24C44.6935 12.1733 44.6268 12.0733 44.5602 11.94C44.3602 11.4067 44.0935 11.0333 43.7602 10.82C43.4402 10.5933 43.0268 10.48 42.5202 10.48C41.8535 10.48 41.3202 10.6933 40.9202 11.12C40.5335 11.5333 40.3268 12.1933 40.3002 13.1C40.2735 13.6067 40.2735 14.0733 40.3002 14.5C40.3268 15.42 40.5335 16.0867 40.9202 16.5C41.3202 16.9133 41.8535 17.12 42.5202 17.12C43.0402 17.12 43.4602 17.0133 43.7802 16.8C44.1002 16.5733 44.3602 16.1933 44.5602 15.66C44.6268 15.5267 44.6935 15.4267 44.7602 15.36C44.8402 15.2933 44.9468 15.26 45.0802 15.26H46.8402C46.9735 15.26 47.0868 15.3067 47.1802 15.4C47.2868 15.48 47.3335 15.5933 47.3202 15.74C47.3068 15.98 47.2402 16.2533 47.1202 16.56C47.0135 16.8533 46.8335 17.16 46.5802 17.48C46.3402 17.7867 46.0335 18.0733 45.6602 18.34C45.2868 18.5933 44.8335 18.8 44.3002 18.96C43.7802 19.12 43.1735 19.2 42.4802 19.2ZM49.8859 19C49.7526 19 49.6393 18.9533 49.5459 18.86C49.4526 18.7667 49.4059 18.6533 49.4059 18.52V9.08C49.4059 8.94667 49.4526 8.83333 49.5459 8.74C49.6393 8.64667 49.7526 8.6 49.8859 8.6H51.5459C51.6926 8.6 51.8059 8.64667 51.8859 8.74C51.9793 8.83333 52.0259 8.94667 52.0259 9.08V18.52C52.0259 18.6533 51.9793 18.7667 51.8859 18.86C51.8059 18.9533 51.6926 19 51.5459 19H49.8859ZM49.8059 6.88C49.6593 6.88 49.5393 6.84 49.4459 6.76C49.3659 6.66667 49.3259 6.54667 49.3259 6.4V4.96C49.3259 4.82667 49.3659 4.71333 49.4459 4.62C49.5393 4.52667 49.6593 4.48 49.8059 4.48H51.6259C51.7726 4.48 51.8926 4.52667 51.9859 4.62C52.0793 4.71333 52.1259 4.82667 52.1259 4.96V6.4C52.1259 6.54667 52.0793 6.66667 51.9859 6.76C51.8926 6.84 51.7726 6.88 51.6259 6.88H49.8059ZM57.6994 19.2C57.006 19.2 56.3794 19.0667 55.8194 18.8C55.2594 18.52 54.8127 18.1533 54.4794 17.7C54.1594 17.2333 53.9994 16.7133 53.9994 16.14C53.9994 15.2067 54.3727 14.4667 55.1194 13.92C55.8794 13.36 56.8794 12.9867 58.1194 12.8L60.8594 12.4V11.98C60.8594 11.42 60.7194 10.9867 60.4394 10.68C60.1594 10.3733 59.6794 10.22 58.9994 10.22C58.5194 10.22 58.126 10.32 57.8194 10.52C57.526 10.7067 57.306 10.96 57.1594 11.28C57.0527 11.4533 56.8994 11.54 56.6994 11.54H55.1194C54.9727 11.54 54.8594 11.5 54.7794 11.42C54.7127 11.34 54.6794 11.2333 54.6794 11.1C54.6927 10.8867 54.7794 10.6267 54.9394 10.32C55.0994 10.0133 55.3527 9.72 55.6994 9.44C56.046 9.14667 56.4927 8.9 57.0394 8.7C57.586 8.5 58.246 8.4 59.0194 8.4C59.8594 8.4 60.566 8.50667 61.1394 8.72C61.726 8.92 62.1927 9.19333 62.5394 9.54C62.886 9.88667 63.1394 10.2933 63.2994 10.76C63.4594 11.2267 63.5394 11.72 63.5394 12.24V18.52C63.5394 18.6533 63.4927 18.7667 63.3994 18.86C63.306 18.9533 63.1927 19 63.0594 19H61.4394C61.2927 19 61.1727 18.9533 61.0794 18.86C60.9994 18.7667 60.9594 18.6533 60.9594 18.52V17.74C60.786 17.9933 60.5527 18.2333 60.2594 18.46C59.966 18.6733 59.606 18.8533 59.1794 19C58.766 19.1333 58.2727 19.2 57.6994 19.2ZM58.3794 17.3C58.846 17.3 59.266 17.2 59.6394 17C60.026 16.8 60.326 16.4933 60.5394 16.08C60.766 15.6533 60.8794 15.12 60.8794 14.48V14.06L58.8794 14.38C58.0927 14.5 57.506 14.6933 57.1194 14.96C56.7327 15.2267 56.5394 15.5533 56.5394 15.94C56.5394 16.2333 56.626 16.4867 56.7994 16.7C56.986 16.9 57.2194 17.0533 57.4994 17.16C57.7794 17.2533 58.0727 17.3 58.3794 17.3ZM66.6052 19C66.4718 19 66.3585 18.9533 66.2652 18.86C66.1718 18.7667 66.1252 18.6533 66.1252 18.52V5.28C66.1252 5.14667 66.1718 5.03333 66.2652 4.94C66.3585 4.84667 66.4718 4.8 66.6052 4.8H68.2652C68.3985 4.8 68.5118 4.84667 68.6052 4.94C68.6985 5.03333 68.7452 5.14667 68.7452 5.28V18.52C68.7452 18.6533 68.6985 18.7667 68.6052 18.86C68.5118 18.9533 68.3985 19 68.2652 19H66.6052ZM72.3078 19C72.1745 19 72.0611 18.9533 71.9678 18.86C71.8745 18.7667 71.8278 18.6533 71.8278 18.52V9.08C71.8278 8.94667 71.8745 8.83333 71.9678 8.74C72.0611 8.64667 72.1745 8.6 72.3078 8.6H73.9678C74.1145 8.6 74.2278 8.64667 74.3078 8.74C74.4011 8.83333 74.4478 8.94667 74.4478 9.08V18.52C74.4478 18.6533 74.4011 18.7667 74.3078 18.86C74.2278 18.9533 74.1145 19 73.9678 19H72.3078ZM72.2278 6.88C72.0811 6.88 71.9611 6.84 71.8678 6.76C71.7878 6.66667 71.7478 6.54667 71.7478 6.4V4.96C71.7478 4.82667 71.7878 4.71333 71.8678 4.62C71.9611 4.52667 72.0811 4.48 72.2278 4.48H74.0478C74.1945 4.48 74.3145 4.52667 74.4078 4.62C74.5011 4.71333 74.5478 4.82667 74.5478 4.96V6.4C74.5478 6.54667 74.5011 6.66667 74.4078 6.76C74.3145 6.84 74.1945 6.88 74.0478 6.88H72.2278ZM77.2761 19C77.1294 19 77.0094 18.9533 76.9161 18.86C76.8361 18.7667 76.7961 18.6533 76.7961 18.52V17.38C76.7961 17.26 76.8228 17.1467 76.8761 17.04C76.9428 16.92 77.0094 16.82 77.0761 16.74L82.1961 10.68H77.4361C77.3028 10.68 77.1894 10.64 77.0961 10.56C77.0028 10.4667 76.9561 10.3467 76.9561 10.2V9.08C76.9561 8.94667 77.0028 8.83333 77.0961 8.74C77.1894 8.64667 77.3028 8.6 77.4361 8.6H85.0161C85.1628 8.6 85.2761 8.64667 85.3561 8.74C85.4494 8.83333 85.4961 8.94667 85.4961 9.08V10.3C85.4961 10.42 85.4694 10.5267 85.4161 10.62C85.3628 10.7133 85.2961 10.8133 85.2161 10.92L80.2161 16.92H85.4361C85.5694 16.92 85.6828 16.9667 85.7761 17.06C85.8694 17.14 85.9161 17.2533 85.9161 17.4V18.52C85.9161 18.6533 85.8694 18.7667 85.7761 18.86C85.6828 18.9533 85.5694 19 85.4361 19H77.2761ZM92.3039 19.2C90.8239 19.2 89.6506 18.7733 88.7839 17.92C87.9172 17.0667 87.4506 15.8533 87.3839 14.28C87.3706 14.1467 87.3639 13.98 87.3639 13.78C87.3639 13.5667 87.3706 13.4 87.3839 13.28C87.4372 12.28 87.6639 11.4133 88.0639 10.68C88.4772 9.94667 89.0439 9.38667 89.7639 9C90.4839 8.6 91.3306 8.4 92.3039 8.4C93.3839 8.4 94.2906 8.62667 95.0239 9.08C95.7572 9.52 96.3106 10.14 96.6839 10.94C97.0572 11.7267 97.2439 12.64 97.2439 13.68V14.1C97.2439 14.2333 97.1972 14.3467 97.1039 14.44C97.0106 14.5333 96.8906 14.58 96.7439 14.58H90.1039C90.1039 14.58 90.1039 14.6 90.1039 14.64C90.1039 14.68 90.1039 14.7133 90.1039 14.74C90.1172 15.2067 90.2039 15.64 90.3639 16.04C90.5372 16.4267 90.7839 16.74 91.1039 16.98C91.4372 17.22 91.8306 17.34 92.2839 17.34C92.6572 17.34 92.9706 17.2867 93.2239 17.18C93.4772 17.06 93.6839 16.9267 93.8439 16.78C94.0039 16.6333 94.1172 16.5133 94.1839 16.42C94.3039 16.26 94.3972 16.1667 94.4639 16.14C94.5439 16.1 94.6572 16.08 94.8039 16.08H96.5239C96.6572 16.08 96.7639 16.12 96.8439 16.2C96.9372 16.28 96.9772 16.38 96.9639 16.5C96.9506 16.7133 96.8372 16.9733 96.6239 17.28C96.4239 17.5867 96.1306 17.8867 95.7439 18.18C95.3572 18.4733 94.8706 18.72 94.2839 18.92C93.7106 19.1067 93.0506 19.2 92.3039 19.2ZM90.1039 12.9H94.5239V12.84C94.5239 12.32 94.4372 11.8667 94.2639 11.48C94.0906 11.0933 93.8372 10.7867 93.5039 10.56C93.1706 10.3333 92.7706 10.22 92.3039 10.22C91.8372 10.22 91.4372 10.3333 91.1039 10.56C90.7706 10.7867 90.5172 11.0933 90.3439 11.48C90.1839 11.8667 90.1039 12.32 90.1039 12.84V12.9ZM103.227 19.2C102.534 19.2 101.92 19.0867 101.387 18.86C100.867 18.62 100.434 18.2867 100.087 17.86C99.7402 17.4333 99.4735 16.9333 99.2869 16.36C99.1002 15.7733 98.9935 15.1333 98.9669 14.44C98.9535 14.2 98.9469 13.9867 98.9469 13.8C98.9469 13.6 98.9535 13.38 98.9669 13.14C98.9935 12.4733 99.0935 11.8533 99.2669 11.28C99.4535 10.7067 99.7202 10.2067 100.067 9.78C100.427 9.34 100.867 9 101.387 8.76C101.92 8.52 102.534 8.4 103.227 8.4C103.947 8.4 104.554 8.52667 105.047 8.78C105.554 9.02 105.974 9.33333 106.307 9.72V5.28C106.307 5.14667 106.347 5.03333 106.427 4.94C106.52 4.84667 106.64 4.8 106.787 4.8H108.487C108.62 4.8 108.734 4.84667 108.827 4.94C108.92 5.03333 108.967 5.14667 108.967 5.28V18.52C108.967 18.6533 108.92 18.7667 108.827 18.86C108.734 18.9533 108.62 19 108.487 19H106.907C106.76 19 106.64 18.9533 106.547 18.86C106.467 18.7667 106.427 18.6533 106.427 18.52V17.78C106.094 18.1933 105.667 18.5333 105.147 18.8C104.64 19.0667 104 19.2 103.227 19.2ZM103.967 17.06C104.527 17.06 104.974 16.9333 105.307 16.68C105.64 16.4267 105.887 16.1067 106.047 15.72C106.207 15.32 106.294 14.9133 106.307 14.5C106.32 14.26 106.327 14.0067 106.327 13.74C106.327 13.46 106.32 13.2 106.307 12.96C106.294 12.56 106.2 12.18 106.027 11.82C105.854 11.4467 105.6 11.14 105.267 10.9C104.934 10.66 104.5 10.54 103.967 10.54C103.407 10.54 102.96 10.6667 102.627 10.92C102.307 11.16 102.074 11.48 101.927 11.88C101.78 12.28 101.694 12.72 101.667 13.2C101.654 13.6 101.654 14 101.667 14.4C101.694 14.88 101.78 15.32 101.927 15.72C102.074 16.12 102.307 16.4467 102.627 16.7C102.96 16.94 103.407 17.06 103.967 17.06ZM119.515 19C119.381 19 119.268 18.9533 119.175 18.86C119.081 18.7667 119.035 18.6533 119.035 18.52V7.46H115.335C115.201 7.46 115.088 7.41333 114.995 7.32C114.901 7.22667 114.855 7.11333 114.855 6.98V5.5C114.855 5.35333 114.901 5.23333 114.995 5.14C115.088 5.04667 115.201 5 115.335 5H125.535C125.681 5 125.801 5.04667 125.895 5.14C125.988 5.23333 126.035 5.35333 126.035 5.5V6.98C126.035 7.11333 125.988 7.22667 125.895 7.32C125.801 7.41333 125.681 7.46 125.535 7.46H121.855V18.52C121.855 18.6533 121.808 18.7667 121.715 18.86C121.621 18.9533 121.501 19 121.355 19H119.515ZM126.976 19C126.842 19 126.729 18.9533 126.636 18.86C126.542 18.7667 126.496 18.6533 126.496 18.52V9.1C126.496 8.95333 126.542 8.83333 126.636 8.74C126.729 8.64667 126.842 8.6 126.976 8.6H128.596C128.729 8.6 128.842 8.64667 128.936 8.74C129.042 8.83333 129.096 8.95333 129.096 9.1V9.92C129.402 9.49333 129.796 9.16667 130.276 8.94C130.769 8.71333 131.336 8.6 131.976 8.6H132.796C132.942 8.6 133.056 8.64667 133.136 8.74C133.229 8.83333 133.276 8.94667 133.276 9.08V10.52C133.276 10.6533 133.229 10.7667 133.136 10.86C133.056 10.9533 132.942 11 132.796 11H131.236C130.596 11 130.096 11.18 129.736 11.54C129.389 11.9 129.216 12.3933 129.216 13.02V18.52C129.216 18.6533 129.169 18.7667 129.076 18.86C128.982 18.9533 128.862 19 128.716 19H126.976ZM137.699 19.2C137.006 19.2 136.379 19.0667 135.819 18.8C135.259 18.52 134.813 18.1533 134.479 17.7C134.159 17.2333 133.999 16.7133 133.999 16.14C133.999 15.2067 134.373 14.4667 135.119 13.92C135.879 13.36 136.879 12.9867 138.119 12.8L140.859 12.4V11.98C140.859 11.42 140.719 10.9867 140.439 10.68C140.159 10.3733 139.679 10.22 138.999 10.22C138.519 10.22 138.126 10.32 137.819 10.52C137.526 10.7067 137.306 10.96 137.159 11.28C137.053 11.4533 136.899 11.54 136.699 11.54H135.119C134.973 11.54 134.859 11.5 134.779 11.42C134.713 11.34 134.679 11.2333 134.679 11.1C134.693 10.8867 134.779 10.6267 134.939 10.32C135.099 10.0133 135.353 9.72 135.699 9.44C136.046 9.14667 136.493 8.9 137.039 8.7C137.586 8.5 138.246 8.4 139.019 8.4C139.859 8.4 140.566 8.50667 141.139 8.72C141.726 8.92 142.193 9.19333 142.539 9.54C142.886 9.88667 143.139 10.2933 143.299 10.76C143.459 11.2267 143.539 11.72 143.539 12.24V18.52C143.539 18.6533 143.493 18.7667 143.399 18.86C143.306 18.9533 143.193 19 143.059 19H141.439C141.293 19 141.173 18.9533 141.079 18.86C140.999 18.7667 140.959 18.6533 140.959 18.52V17.74C140.786 17.9933 140.553 18.2333 140.259 18.46C139.966 18.6733 139.606 18.8533 139.179 19C138.766 19.1333 138.273 19.2 137.699 19.2ZM138.379 17.3C138.846 17.3 139.266 17.2 139.639 17C140.026 16.8 140.326 16.4933 140.539 16.08C140.766 15.6533 140.879 15.12 140.879 14.48V14.06L138.879 14.38C138.093 14.5 137.506 14.6933 137.119 14.96C136.733 15.2267 136.539 15.5533 136.539 15.94C136.539 16.2333 136.626 16.4867 136.799 16.7C136.986 16.9 137.219 17.0533 137.499 17.16C137.779 17.2533 138.073 17.3 138.379 17.3ZM146.585 19C146.452 19 146.338 18.9533 146.245 18.86C146.152 18.7667 146.105 18.6533 146.105 18.52V9.08C146.105 8.94667 146.152 8.83333 146.245 8.74C146.338 8.64667 146.452 8.6 146.585 8.6H148.225C148.358 8.6 148.472 8.64667 148.565 8.74C148.658 8.83333 148.705 8.94667 148.705 9.08V9.9C149.052 9.47333 149.492 9.12 150.025 8.84C150.572 8.54667 151.245 8.4 152.045 8.4C152.858 8.4 153.565 8.58667 154.165 8.96C154.765 9.32 155.225 9.83333 155.545 10.5C155.878 11.1667 156.045 11.9667 156.045 12.9V18.52C156.045 18.6533 155.998 18.7667 155.905 18.86C155.812 18.9533 155.698 19 155.565 19H153.805C153.672 19 153.558 18.9533 153.465 18.86C153.372 18.7667 153.325 18.6533 153.325 18.52V13.02C153.325 12.2467 153.132 11.64 152.745 11.2C152.372 10.76 151.825 10.54 151.105 10.54C150.412 10.54 149.858 10.76 149.445 11.2C149.032 11.64 148.825 12.2467 148.825 13.02V18.52C148.825 18.6533 148.778 18.7667 148.685 18.86C148.592 18.9533 148.478 19 148.345 19H146.585ZM162.526 19.2C161.726 19.2 161.039 19.1067 160.466 18.92C159.906 18.7333 159.446 18.5 159.086 18.22C158.726 17.94 158.459 17.66 158.286 17.38C158.112 17.1 158.019 16.8667 158.006 16.68C157.992 16.5333 158.032 16.42 158.126 16.34C158.232 16.2467 158.346 16.2 158.466 16.2H160.046C160.099 16.2 160.146 16.2067 160.186 16.22C160.226 16.2333 160.279 16.2733 160.346 16.34C160.519 16.4867 160.699 16.64 160.886 16.8C161.086 16.96 161.319 17.1 161.586 17.22C161.852 17.3267 162.186 17.38 162.586 17.38C163.106 17.38 163.539 17.28 163.886 17.08C164.246 16.8667 164.426 16.5667 164.426 16.18C164.426 15.9 164.346 15.6733 164.186 15.5C164.039 15.3267 163.759 15.1733 163.346 15.04C162.932 14.8933 162.346 14.74 161.586 14.58C160.839 14.4067 160.219 14.1867 159.726 13.92C159.232 13.6533 158.866 13.32 158.626 12.92C158.386 12.52 158.266 12.0533 158.266 11.52C158.266 11 158.419 10.5067 158.726 10.04C159.046 9.56 159.512 9.16667 160.126 8.86C160.752 8.55333 161.526 8.4 162.446 8.4C163.166 8.4 163.792 8.49333 164.326 8.68C164.859 8.85333 165.299 9.07333 165.646 9.34C166.006 9.60667 166.279 9.88 166.466 10.16C166.652 10.4267 166.752 10.66 166.766 10.86C166.779 11.0067 166.739 11.1267 166.646 11.22C166.552 11.3 166.446 11.34 166.326 11.34H164.846C164.779 11.34 164.719 11.3267 164.666 11.3C164.612 11.2733 164.559 11.24 164.506 11.2C164.359 11.0667 164.199 10.9267 164.026 10.78C163.852 10.6333 163.639 10.5067 163.386 10.4C163.146 10.28 162.826 10.22 162.426 10.22C161.919 10.22 161.532 10.3333 161.266 10.56C160.999 10.7733 160.866 11.0467 160.866 11.38C160.866 11.6067 160.926 11.8067 161.046 11.98C161.179 12.14 161.439 12.2933 161.826 12.44C162.212 12.5867 162.799 12.74 163.586 12.9C164.479 13.06 165.186 13.3 165.706 13.62C166.239 13.9267 166.612 14.2867 166.826 14.7C167.052 15.1 167.166 15.5467 167.166 16.04C167.166 16.64 166.986 17.18 166.626 17.66C166.279 18.14 165.759 18.52 165.066 18.8C164.386 19.0667 163.539 19.2 162.526 19.2ZM169.73 22.8C169.597 22.8 169.483 22.7533 169.39 22.66C169.297 22.5667 169.25 22.4533 169.25 22.32V9.08C169.25 8.94667 169.297 8.83333 169.39 8.74C169.483 8.64667 169.597 8.6 169.73 8.6H171.31C171.457 8.6 171.57 8.64667 171.65 8.74C171.743 8.83333 171.79 8.94667 171.79 9.08V9.88C172.11 9.45333 172.53 9.1 173.05 8.82C173.57 8.54 174.217 8.4 174.99 8.4C175.697 8.4 176.31 8.51333 176.83 8.74C177.35 8.96667 177.783 9.29333 178.13 9.72C178.477 10.1333 178.743 10.6267 178.93 11.2C179.117 11.7733 179.223 12.4067 179.25 13.1C179.263 13.3267 179.27 13.56 179.27 13.8C179.27 14.04 179.263 14.28 179.25 14.52C179.237 15.1867 179.137 15.8067 178.95 16.38C178.763 16.94 178.49 17.4333 178.13 17.86C177.783 18.2733 177.35 18.6 176.83 18.84C176.31 19.08 175.697 19.2 174.99 19.2C174.27 19.2 173.657 19.0733 173.15 18.82C172.643 18.5533 172.23 18.2067 171.91 17.78V22.32C171.91 22.4533 171.863 22.5667 171.77 22.66C171.69 22.7533 171.577 22.8 171.43 22.8H169.73ZM174.25 17.06C174.823 17.06 175.27 16.94 175.59 16.7C175.91 16.4467 176.137 16.12 176.27 15.72C176.417 15.32 176.503 14.88 176.53 14.4C176.557 14 176.557 13.6 176.53 13.2C176.503 12.72 176.417 12.28 176.27 11.88C176.137 11.48 175.91 11.16 175.59 10.92C175.27 10.6667 174.823 10.54 174.25 10.54C173.703 10.54 173.257 10.6667 172.91 10.92C172.577 11.1733 172.33 11.5 172.17 11.9C172.023 12.2867 171.937 12.6867 171.91 13.1C171.897 13.34 171.89 13.5933 171.89 13.86C171.89 14.1267 171.897 14.3867 171.91 14.64C171.923 15.04 172.017 15.4267 172.19 15.8C172.363 16.16 172.617 16.46 172.95 16.7C173.283 16.94 173.717 17.06 174.25 17.06ZM186.115 19.2C185.049 19.2 184.149 19.0133 183.415 18.64C182.695 18.2667 182.142 17.74 181.755 17.06C181.382 16.38 181.169 15.5867 181.115 14.68C181.102 14.44 181.095 14.1467 181.095 13.8C181.095 13.4533 181.102 13.16 181.115 12.92C181.169 12 181.389 11.2067 181.775 10.54C182.175 9.86 182.735 9.33333 183.455 8.96C184.189 8.58667 185.075 8.4 186.115 8.4C187.155 8.4 188.035 8.58667 188.755 8.96C189.489 9.33333 190.049 9.86 190.435 10.54C190.835 11.2067 191.062 12 191.115 12.92C191.129 13.16 191.135 13.4533 191.135 13.8C191.135 14.1467 191.129 14.44 191.115 14.68C191.062 15.5867 190.842 16.38 190.455 17.06C190.082 17.74 189.529 18.2667 188.795 18.64C188.075 19.0133 187.182 19.2 186.115 19.2ZM186.115 17.22C186.822 17.22 187.369 17 187.755 16.56C188.142 16.1067 188.355 15.4467 188.395 14.58C188.409 14.38 188.415 14.12 188.415 13.8C188.415 13.48 188.409 13.22 188.395 13.02C188.355 12.1667 188.142 11.5133 187.755 11.06C187.369 10.6067 186.822 10.38 186.115 10.38C185.409 10.38 184.862 10.6067 184.475 11.06C184.089 11.5133 183.875 12.1667 183.835 13.02C183.822 13.22 183.815 13.48 183.815 13.8C183.815 14.12 183.822 14.38 183.835 14.58C183.875 15.4467 184.089 16.1067 184.475 16.56C184.862 17 185.409 17.22 186.115 17.22ZM193.831 19C193.698 19 193.585 18.9533 193.491 18.86C193.398 18.7667 193.351 18.6533 193.351 18.52V9.1C193.351 8.95333 193.398 8.83333 193.491 8.74C193.585 8.64667 193.698 8.6 193.831 8.6H195.451C195.585 8.6 195.698 8.64667 195.791 8.74C195.898 8.83333 195.951 8.95333 195.951 9.1V9.92C196.258 9.49333 196.651 9.16667 197.131 8.94C197.625 8.71333 198.191 8.6 198.831 8.6H199.651C199.798 8.6 199.911 8.64667 199.991 8.74C200.085 8.83333 200.131 8.94667 200.131 9.08V10.52C200.131 10.6533 200.085 10.7667 199.991 10.86C199.911 10.9533 199.798 11 199.651 11H198.091C197.451 11 196.951 11.18 196.591 11.54C196.245 11.9 196.071 12.3933 196.071 13.02V18.52C196.071 18.6533 196.025 18.7667 195.931 18.86C195.838 18.9533 195.718 19 195.571 19H193.831ZM206.391 19C205.591 19 204.918 18.86 204.371 18.58C203.824 18.3 203.418 17.8867 203.151 17.34C202.884 16.78 202.751 16.0867 202.751 15.26V10.72H201.171C201.038 10.72 200.924 10.6733 200.831 10.58C200.738 10.4867 200.691 10.3733 200.691 10.24V9.08C200.691 8.94667 200.738 8.83333 200.831 8.74C200.924 8.64667 201.038 8.6 201.171 8.6H202.751V5.28C202.751 5.14667 202.791 5.03333 202.871 4.94C202.964 4.84667 203.084 4.8 203.231 4.8H204.851C204.984 4.8 205.098 4.84667 205.191 4.94C205.284 5.03333 205.331 5.14667 205.331 5.28V8.6H207.831C207.964 8.6 208.078 8.64667 208.171 8.74C208.264 8.83333 208.311 8.94667 208.311 9.08V10.24C208.311 10.3733 208.264 10.4867 208.171 10.58C208.078 10.6733 207.964 10.72 207.831 10.72H205.331V15.06C205.331 15.6067 205.424 16.0333 205.611 16.34C205.811 16.6467 206.151 16.8 206.631 16.8H208.011C208.144 16.8 208.258 16.8467 208.351 16.94C208.444 17.0333 208.491 17.1467 208.491 17.28V18.52C208.491 18.6533 208.444 18.7667 208.351 18.86C208.258 18.9533 208.144 19 208.011 19H206.391Z" fill="white"/>
<path d="M5.44 46.16C3.92533 46.16 2.75733 45.6587 1.936 44.656C1.12533 43.6427 0.72 42.2027 0.72 40.336C0.72 38.512 1.12533 37.1093 1.936 36.128C2.75733 35.136 3.92533 34.64 5.44 34.64C6.95467 34.64 8.11733 35.136 8.928 36.128C9.74933 37.1093 10.16 38.512 10.16 40.336C10.16 42.2027 9.74933 43.6427 8.928 44.656C8.11733 45.6587 6.95467 46.16 5.44 46.16ZM5.44 44.896C7.49867 44.896 8.528 43.376 8.528 40.336C8.528 38.8427 8.272 37.7333 7.76 37.008C7.25867 36.272 6.48533 35.904 5.44 35.904C4.39467 35.904 3.616 36.272 3.104 37.008C2.60267 37.7333 2.352 38.8427 2.352 40.336C2.352 43.376 3.38133 44.896 5.44 44.896ZM15.659 46.16C14.315 46.16 13.2803 45.7653 12.555 44.976C11.8297 44.176 11.467 43.0347 11.467 41.552C11.467 40.6347 11.6323 39.8347 11.963 39.152C12.2937 38.4693 12.7683 37.9467 13.387 37.584C14.0057 37.2213 14.7363 37.04 15.579 37.04C16.5817 37.04 17.403 37.296 18.043 37.808C18.6937 38.3093 19.0777 38.9867 19.195 39.84C19.0243 39.936 18.843 40.016 18.651 40.08C18.459 40.1333 18.2883 40.16 18.139 40.16C18.011 40.16 17.9097 40.1227 17.835 40.048C17.771 39.9733 17.7123 39.8347 17.659 39.632C17.5203 39.1413 17.275 38.7733 16.923 38.528C16.571 38.272 16.123 38.144 15.579 38.144C14.7897 38.144 14.1603 38.4533 13.691 39.072C13.2323 39.68 13.003 40.5067 13.003 41.552C13.003 42.6507 13.2377 43.504 13.707 44.112C14.1763 44.72 14.827 45.024 15.659 45.024C16.9177 45.024 17.755 44.3733 18.171 43.072C18.459 43.072 18.6777 43.152 18.827 43.312C18.987 43.4613 19.067 43.6747 19.067 43.952C19.067 44.336 18.907 44.6987 18.587 45.04C18.2777 45.3813 17.8617 45.6533 17.339 45.856C16.8163 46.0587 16.2563 46.16 15.659 46.16ZM28.3081 40.992C28.3081 41.2053 28.2921 41.4827 28.2601 41.824H22.1161C22.1588 42.8373 22.3935 43.6267 22.8201 44.192C23.2468 44.7467 23.8335 45.024 24.5801 45.024C25.0815 45.024 25.4975 44.9227 25.8281 44.72C26.1695 44.5173 26.5001 44.1653 26.8201 43.664C26.9055 43.5467 27.0228 43.488 27.1721 43.488C27.4175 43.488 27.7375 43.632 28.1321 43.92C27.8548 44.624 27.4068 45.1733 26.7881 45.568C26.1695 45.9627 25.4335 46.16 24.5801 46.16C23.7588 46.16 23.0441 45.9787 22.4361 45.616C21.8388 45.2427 21.3801 44.7147 21.0601 44.032C20.7401 43.3387 20.5801 42.5227 20.5801 41.584C20.5801 40.1653 20.9375 39.056 21.6521 38.256C22.3775 37.4453 23.3748 37.04 24.6441 37.04C25.8068 37.04 26.7081 37.3867 27.3481 38.08C27.9881 38.7733 28.3081 39.744 28.3081 40.992ZM26.7561 40.8C26.7561 39.04 26.0361 38.16 24.5961 38.16C23.8815 38.16 23.3161 38.384 22.9001 38.832C22.4841 39.28 22.2335 39.936 22.1481 40.8H26.7561ZM36.6823 43.44C36.6823 44.0587 36.7196 44.528 36.7943 44.848C36.8796 45.168 37.0236 45.4453 37.2263 45.68C37.0769 45.7973 36.8956 45.8987 36.6823 45.984C36.4689 46.0587 36.2716 46.096 36.0903 46.096C35.5996 46.096 35.3063 45.6587 35.2103 44.784C34.8903 45.2213 34.4796 45.5627 33.9783 45.808C33.4876 46.0427 32.9329 46.16 32.3143 46.16C31.5143 46.16 30.8689 45.952 30.3783 45.536C29.8983 45.12 29.6583 44.5653 29.6583 43.872C29.6583 41.9093 31.4929 40.8373 35.1623 40.656V40.032C35.1623 39.4133 35.0076 38.9547 34.6983 38.656C34.3889 38.3573 33.9089 38.208 33.2583 38.208C32.8316 38.208 32.4316 38.2933 32.0583 38.464C31.6849 38.6347 31.2583 38.9333 30.7783 39.36C30.7036 39.4133 30.6343 39.44 30.5703 39.44C30.4316 39.44 30.2823 39.3707 30.1223 39.232C29.9623 39.0827 29.8129 38.88 29.6743 38.624C30.1223 38.1227 30.6769 37.7333 31.3383 37.456C31.9996 37.1787 32.6876 37.04 33.4023 37.04C34.4263 37.04 35.2263 37.3067 35.8023 37.84C36.3889 38.3627 36.6823 39.0933 36.6823 40.032V43.44ZM32.6503 45.056C33.1409 45.056 33.5996 44.912 34.0263 44.624C34.4529 44.3253 34.8316 43.904 35.1623 43.36V41.648C32.5169 41.7653 31.1943 42.4747 31.1943 43.776C31.1943 44.192 31.3169 44.512 31.5623 44.736C31.8183 44.9493 32.1809 45.056 32.6503 45.056ZM46.307 43.904C46.307 44.5013 46.3177 44.9227 46.339 45.168C46.371 45.4133 46.4243 45.6373 46.499 45.84C46.115 46 45.715 46.08 45.299 46.08C45.0963 46.08 44.9577 45.9627 44.883 45.728C44.819 45.4827 44.787 45.0293 44.787 44.368V40.08C44.787 39.3973 44.6643 38.912 44.419 38.624C44.1843 38.3253 43.7897 38.176 43.235 38.176C42.4137 38.176 41.5603 38.576 40.675 39.376V46H39.155V40.16C39.155 38.688 39.091 37.776 38.963 37.424C39.4643 37.232 39.859 37.136 40.147 37.136C40.499 37.136 40.675 37.4453 40.675 38.064V38.224C41.187 37.808 41.667 37.5093 42.115 37.328C42.5737 37.136 43.059 37.04 43.571 37.04C44.4883 37.04 45.171 37.2907 45.619 37.792C46.0777 38.2827 46.307 39.0347 46.307 40.048V43.904ZM60.0696 34.8C60.1123 35.0133 60.1336 35.1787 60.1336 35.296C60.1336 35.5307 60.0803 35.712 59.9736 35.84C59.867 35.968 59.7123 36.032 59.5096 36.032H56.8216V46H55.2536V36.032H52.0056V34.8H60.0696ZM65.3685 37.088C66.2112 37.088 66.6325 37.4027 66.6325 38.032C66.6325 38.288 66.5632 38.496 66.4245 38.656C66.1472 38.5173 65.7845 38.448 65.3365 38.448C64.6325 38.448 64.0778 38.7093 63.6725 39.232C63.2778 39.744 63.0805 40.4533 63.0805 41.36V46H61.5605V37.2H63.0805V38.672C63.3152 38.192 63.6352 37.808 64.0405 37.52C64.4565 37.232 64.8992 37.088 65.3685 37.088ZM74.6979 43.44C74.6979 44.0587 74.7352 44.528 74.8099 44.848C74.8952 45.168 75.0392 45.4453 75.2419 45.68C75.0925 45.7973 74.9112 45.8987 74.6979 45.984C74.4845 46.0587 74.2872 46.096 74.1059 46.096C73.6152 46.096 73.3219 45.6587 73.2259 44.784C72.9059 45.2213 72.4952 45.5627 71.9939 45.808C71.5032 46.0427 70.9485 46.16 70.3299 46.16C69.5299 46.16 68.8845 45.952 68.3939 45.536C67.9139 45.12 67.6739 44.5653 67.6739 43.872C67.6739 41.9093 69.5085 40.8373 73.1779 40.656V40.032C73.1779 39.4133 73.0232 38.9547 72.7139 38.656C72.4045 38.3573 71.9245 38.208 71.2739 38.208C70.8472 38.208 70.4472 38.2933 70.0739 38.464C69.7005 38.6347 69.2739 38.9333 68.7939 39.36C68.7192 39.4133 68.6499 39.44 68.5859 39.44C68.4472 39.44 68.2979 39.3707 68.1379 39.232C67.9779 39.0827 67.8285 38.88 67.6899 38.624C68.1379 38.1227 68.6925 37.7333 69.3539 37.456C70.0152 37.1787 70.7032 37.04 71.4179 37.04C72.4419 37.04 73.2419 37.3067 73.8179 37.84C74.4045 38.3627 74.6979 39.0933 74.6979 40.032V43.44ZM70.6659 45.056C71.1565 45.056 71.6152 44.912 72.0419 44.624C72.4685 44.3253 72.8472 43.904 73.1779 43.36V41.648C70.5325 41.7653 69.2099 42.4747 69.2099 43.776C69.2099 44.192 69.3325 44.512 69.5779 44.736C69.8339 44.9493 70.1965 45.056 70.6659 45.056ZM84.3226 43.904C84.3226 44.5013 84.3333 44.9227 84.3546 45.168C84.3866 45.4133 84.44 45.6373 84.5146 45.84C84.1306 46 83.7306 46.08 83.3146 46.08C83.112 46.08 82.9733 45.9627 82.8986 45.728C82.8346 45.4827 82.8026 45.0293 82.8026 44.368V40.08C82.8026 39.3973 82.68 38.912 82.4346 38.624C82.2 38.3253 81.8053 38.176 81.2506 38.176C80.4293 38.176 79.576 38.576 78.6906 39.376V46H77.1706V40.16C77.1706 38.688 77.1066 37.776 76.9786 37.424C77.48 37.232 77.8746 37.136 78.1626 37.136C78.5146 37.136 78.6906 37.4453 78.6906 38.064V38.224C79.2026 37.808 79.6826 37.5093 80.1306 37.328C80.5893 37.136 81.0746 37.04 81.5866 37.04C82.504 37.04 83.1866 37.2907 83.6346 37.792C84.0933 38.2827 84.3226 39.0347 84.3226 40.048V43.904ZM89.5763 46.16C89.0216 46.16 88.4883 46.08 87.9763 45.92C87.4643 45.76 87.0483 45.552 86.7283 45.296C86.4189 45.0293 86.2643 44.7413 86.2643 44.432C86.2643 44.24 86.3283 44.0747 86.4563 43.936C86.5949 43.7867 86.7709 43.696 86.9843 43.664C87.3149 44.144 87.6883 44.496 88.1043 44.72C88.5203 44.944 89.0323 45.056 89.6403 45.056C90.2483 45.056 90.7069 44.9227 91.0163 44.656C91.3256 44.3787 91.4803 44.016 91.4803 43.568C91.4803 43.28 91.3843 43.0453 91.1923 42.864C91.0109 42.672 90.7763 42.5227 90.4883 42.416C90.2109 42.2987 89.8323 42.176 89.3523 42.048C88.7229 41.8773 88.2163 41.712 87.8323 41.552C87.4589 41.3813 87.1336 41.136 86.8563 40.816C86.5896 40.4853 86.4563 40.0533 86.4563 39.52C86.4563 38.9867 86.6056 38.5333 86.9043 38.16C87.2029 37.7867 87.5869 37.5093 88.0563 37.328C88.5256 37.136 89.0163 37.04 89.5283 37.04C90.2429 37.04 90.8776 37.184 91.4323 37.472C91.9976 37.7493 92.4349 38.1387 92.7443 38.64C92.6163 38.8213 92.4776 38.9653 92.3283 39.072C92.1789 39.1787 92.0403 39.232 91.9123 39.232C91.7523 39.232 91.6083 39.1573 91.4803 39.008C90.9683 38.4107 90.3123 38.112 89.5123 38.112C89.0216 38.112 88.6323 38.224 88.3443 38.448C88.0563 38.672 87.9123 39.0133 87.9123 39.472C87.9123 39.76 88.0029 39.9947 88.1843 40.176C88.3656 40.3467 88.5949 40.4853 88.8723 40.592C89.1496 40.688 89.5229 40.7947 89.9923 40.912C90.6323 41.0827 91.1443 41.248 91.5283 41.408C91.9123 41.568 92.2429 41.8187 92.5203 42.16C92.7976 42.5013 92.9363 42.9547 92.9363 43.52C92.9363 44.3413 92.6323 44.9867 92.0243 45.456C91.4269 45.9253 90.6109 46.16 89.5763 46.16ZM98.9073 37.04C100.081 37.04 100.977 37.424 101.595 38.192C102.214 38.96 102.523 40.0747 102.523 41.536C102.523 42.464 102.358 43.28 102.027 43.984C101.697 44.6773 101.222 45.216 100.603 45.6C99.9953 45.9733 99.2806 46.16 98.4593 46.16C97.7233 46.16 97.0246 46.032 96.3633 45.776V49.568H94.8433V40.32C94.8433 38.7733 94.7419 37.824 94.5393 37.472C94.7419 37.3653 94.9499 37.2853 95.1633 37.232C95.3766 37.168 95.5633 37.136 95.7233 37.136C96.0753 37.136 96.2833 37.4507 96.3473 38.08C97.0619 37.3867 97.9153 37.04 98.9073 37.04ZM98.3473 45.056C99.1793 45.056 99.8193 44.752 100.267 44.144C100.726 43.536 100.955 42.6667 100.955 41.536C100.955 40.3947 100.769 39.5467 100.395 38.992C100.033 38.4267 99.4779 38.144 98.7313 38.144C98.2939 38.144 97.8673 38.2453 97.4513 38.448C97.0353 38.6507 96.6726 38.928 96.3633 39.28V44.64C96.6406 44.768 96.9499 44.8693 97.2913 44.944C97.6433 45.0187 97.9953 45.056 98.3473 45.056ZM107.526 46.16C106.267 46.16 105.312 45.7707 104.662 44.992C104.011 44.2133 103.686 43.0773 103.686 41.584C103.686 40.0907 104.011 38.96 104.662 38.192C105.312 37.424 106.267 37.04 107.526 37.04C108.784 37.04 109.739 37.424 110.39 38.192C111.051 38.96 111.382 40.0907 111.382 41.584C111.382 43.0773 111.051 44.2133 110.39 44.992C109.739 45.7707 108.784 46.16 107.526 46.16ZM107.526 45.056C108.326 45.056 108.907 44.7787 109.27 44.224C109.643 43.6693 109.83 42.7893 109.83 41.584C109.83 40.3893 109.643 39.52 109.27 38.976C108.907 38.4213 108.326 38.144 107.526 38.144C106.726 38.144 106.139 38.4213 105.766 38.976C105.403 39.52 105.222 40.3893 105.222 41.584C105.222 42.7893 105.408 43.6693 105.782 44.224C106.155 44.7787 106.736 45.056 107.526 45.056ZM117.025 37.088C117.867 37.088 118.289 37.4027 118.289 38.032C118.289 38.288 118.219 38.496 118.081 38.656C117.803 38.5173 117.441 38.448 116.993 38.448C116.289 38.448 115.734 38.7093 115.329 39.232C114.934 39.744 114.737 40.4533 114.737 41.36V46H113.217V37.2H114.737V38.672C114.971 38.192 115.291 37.808 115.697 37.52C116.113 37.232 116.555 37.088 117.025 37.088ZM124.21 44.768C124.295 44.8107 124.365 44.8853 124.418 44.992C124.471 45.088 124.498 45.2 124.498 45.328C124.498 45.5413 124.418 45.696 124.258 45.792C124.098 45.9093 123.874 46 123.586 46.064C123.309 46.128 123.005 46.16 122.674 46.16C121.959 46.16 121.389 45.968 120.962 45.584C120.535 45.1893 120.322 44.6667 120.322 44.016V38.272H118.77V37.2H120.322V34.8H121.842V37.2H123.938V38.272H121.842V43.808C121.842 44.2347 121.927 44.5493 122.098 44.752C122.269 44.944 122.53 45.04 122.882 45.04C123.309 45.04 123.751 44.9493 124.21 44.768ZM128.639 46.16C128.084 46.16 127.551 46.08 127.039 45.92C126.527 45.76 126.111 45.552 125.791 45.296C125.481 45.0293 125.327 44.7413 125.327 44.432C125.327 44.24 125.391 44.0747 125.519 43.936C125.657 43.7867 125.833 43.696 126.047 43.664C126.377 44.144 126.751 44.496 127.167 44.72C127.583 44.944 128.095 45.056 128.703 45.056C129.311 45.056 129.769 44.9227 130.079 44.656C130.388 44.3787 130.543 44.016 130.543 43.568C130.543 43.28 130.447 43.0453 130.255 42.864C130.073 42.672 129.839 42.5227 129.551 42.416C129.273 42.2987 128.895 42.176 128.415 42.048C127.785 41.8773 127.279 41.712 126.895 41.552C126.521 41.3813 126.196 41.136 125.919 40.816C125.652 40.4853 125.519 40.0533 125.519 39.52C125.519 38.9867 125.668 38.5333 125.967 38.16C126.265 37.7867 126.649 37.5093 127.119 37.328C127.588 37.136 128.079 37.04 128.591 37.04C129.305 37.04 129.94 37.184 130.495 37.472C131.06 37.7493 131.497 38.1387 131.807 38.64C131.679 38.8213 131.54 38.9653 131.391 39.072C131.241 39.1787 131.103 39.232 130.975 39.232C130.815 39.232 130.671 39.1573 130.543 39.008C130.031 38.4107 129.375 38.112 128.575 38.112C128.084 38.112 127.695 38.224 127.407 38.448C127.119 38.672 126.975 39.0133 126.975 39.472C126.975 39.76 127.065 39.9947 127.247 40.176C127.428 40.3467 127.657 40.4853 127.935 40.592C128.212 40.688 128.585 40.7947 129.055 40.912C129.695 41.0827 130.207 41.248 130.591 41.408C130.975 41.568 131.305 41.8187 131.583 42.16C131.86 42.5013 131.999 42.9547 131.999 43.52C131.999 44.3413 131.695 44.9867 131.087 45.456C130.489 45.9253 129.673 46.16 128.639 46.16Z" fill="#FFB629"/>
</svg>
