<svg width="208" height="52" viewBox="0 0 208 52" fill="none" xmlns="http://www.w3.org/2000/svg">
<path d="M2.04 19C1.90667 19 1.79333 18.9533 1.7 18.86C1.60667 18.7667 1.56 18.6533 1.56 18.52V5.5C1.56 5.35333 1.60667 5.23333 1.7 5.14C1.79333 5.04667 1.90667 5 2.04 5H7.4C8.44 5 9.34667 5.16667 10.12 5.5C10.8933 5.82 11.4933 6.31333 11.92 6.98C12.3467 7.63333 12.56 8.45333 12.56 9.44C12.56 10.44 12.3467 11.2667 11.92 11.92C11.4933 12.56 10.8933 13.04 10.12 13.36C9.34667 13.68 8.44 13.84 7.4 13.84H4.42V18.52C4.42 18.6533 4.37333 18.7667 4.28 18.86C4.2 18.9533 4.08667 19 3.94 19H2.04ZM4.38 11.62H7.3C8.07333 11.62 8.66667 11.44 9.08 11.08C9.49333 10.7067 9.7 10.16 9.7 9.44C9.7 8.77333 9.50667 8.24 9.12 7.84C8.73333 7.42667 8.12667 7.22 7.3 7.22H4.38V11.62ZM17.3088 19.2C16.6154 19.2 15.9888 19.0667 15.4288 18.8C14.8688 18.52 14.4221 18.1533 14.0888 17.7C13.7688 17.2333 13.6088 16.7133 13.6088 16.14C13.6088 15.2067 13.9821 14.4667 14.7288 13.92C15.4888 13.36 16.4888 12.9867 17.7288 12.8L20.4688 12.4V11.98C20.4688 11.42 20.3288 10.9867 20.0488 10.68C19.7688 10.3733 19.2888 10.22 18.6088 10.22C18.1288 10.22 17.7354 10.32 17.4288 10.52C17.1354 10.7067 16.9154 10.96 16.7688 11.28C16.6621 11.4533 16.5088 11.54 16.3088 11.54H14.7288C14.5821 11.54 14.4688 11.5 14.3888 11.42C14.3221 11.34 14.2887 11.2333 14.2887 11.1C14.3021 10.8867 14.3888 10.6267 14.5488 10.32C14.7088 10.0133 14.9621 9.72 15.3088 9.44C15.6554 9.14667 16.1021 8.9 16.6488 8.7C17.1954 8.5 17.8554 8.4 18.6288 8.4C19.4688 8.4 20.1754 8.50667 20.7488 8.72C21.3354 8.92 21.8021 9.19333 22.1488 9.54C22.4954 9.88667 22.7488 10.2933 22.9088 10.76C23.0688 11.2267 23.1488 11.72 23.1488 12.24V18.52C23.1488 18.6533 23.1021 18.7667 23.0088 18.86C22.9154 18.9533 22.8021 19 22.6688 19H21.0488C20.9021 19 20.7821 18.9533 20.6888 18.86C20.6088 18.7667 20.5688 18.6533 20.5688 18.52V17.74C20.3954 17.9933 20.1621 18.2333 19.8688 18.46C19.5754 18.6733 19.2154 18.8533 18.7888 19C18.3754 19.1333 17.8821 19.2 17.3088 19.2ZM17.9888 17.3C18.4554 17.3 18.8754 17.2 19.2488 17C19.6354 16.8 19.9354 16.4933 20.1488 16.08C20.3754 15.6533 20.4888 15.12 20.4888 14.48V14.06L18.4888 14.38C17.7021 14.5 17.1154 14.6933 16.7288 14.96C16.3421 15.2267 16.1488 15.5533 16.1488 15.94C16.1488 16.2333 16.2354 16.4867 16.4088 16.7C16.5954 16.9 16.8288 17.0533 17.1088 17.16C17.3888 17.2533 17.6821 17.3 17.9888 17.3ZM30.2145 19.2C29.2545 19.2 28.4079 19.02 27.6745 18.66C26.9545 18.3 26.3879 17.78 25.9745 17.1C25.5745 16.4067 25.3545 15.5733 25.3145 14.6C25.3012 14.4 25.2945 14.14 25.2945 13.82C25.2945 13.4867 25.3012 13.2133 25.3145 13C25.3545 12.0267 25.5745 11.2 25.9745 10.52C26.3879 9.82667 26.9545 9.3 27.6745 8.94C28.4079 8.58 29.2545 8.4 30.2145 8.4C31.0679 8.4 31.7945 8.52 32.3945 8.76C32.9945 9 33.4879 9.3 33.8745 9.66C34.2612 10.02 34.5479 10.4 34.7345 10.8C34.9345 11.1867 35.0412 11.54 35.0545 11.86C35.0679 12.0067 35.0212 12.1267 34.9145 12.22C34.8212 12.3 34.7079 12.34 34.5745 12.34H32.8145C32.6812 12.34 32.5745 12.3067 32.4945 12.24C32.4279 12.1733 32.3612 12.0733 32.2945 11.94C32.0945 11.4067 31.8279 11.0333 31.4945 10.82C31.1745 10.5933 30.7612 10.48 30.2545 10.48C29.5879 10.48 29.0545 10.6933 28.6545 11.12C28.2679 11.5333 28.0612 12.1933 28.0345 13.1C28.0079 13.6067 28.0079 14.0733 28.0345 14.5C28.0612 15.42 28.2679 16.0867 28.6545 16.5C29.0545 16.9133 29.5879 17.12 30.2545 17.12C30.7745 17.12 31.1945 17.0133 31.5145 16.8C31.8345 16.5733 32.0945 16.1933 32.2945 15.66C32.3612 15.5267 32.4279 15.4267 32.4945 15.36C32.5745 15.2933 32.6812 15.26 32.8145 15.26H34.5745C34.7079 15.26 34.8212 15.3067 34.9145 15.4C35.0212 15.48 35.0679 15.5933 35.0545 15.74C35.0412 15.98 34.9745 16.2533 34.8545 16.56C34.7479 16.8533 34.5679 17.16 34.3145 17.48C34.0745 17.7867 33.7679 18.0733 33.3945 18.34C33.0212 18.5933 32.5679 18.8 32.0345 18.96C31.5145 19.12 30.9079 19.2 30.2145 19.2ZM37.6403 19C37.507 19 37.3936 18.9533 37.3003 18.86C37.207 18.7667 37.1603 18.6533 37.1603 18.52V5.28C37.1603 5.14667 37.207 5.03333 37.3003 4.94C37.3936 4.84667 37.507 4.8 37.6403 4.8H39.2603C39.407 4.8 39.5203 4.84667 39.6003 4.94C39.6936 5.03333 39.7403 5.14667 39.7403 5.28V12.12L43.1003 8.94C43.2203 8.83333 43.327 8.75333 43.4203 8.7C43.5136 8.63333 43.6536 8.6 43.8403 8.6H45.7003C45.8336 8.6 45.9403 8.64 46.0203 8.72C46.1003 8.8 46.1403 8.90667 46.1403 9.04C46.1403 9.09333 46.127 9.15333 46.1003 9.22C46.0736 9.28667 46.0203 9.34667 45.9403 9.4L41.8203 13.26L46.4403 18.22C46.5736 18.3533 46.6403 18.4667 46.6403 18.56C46.6403 18.6933 46.5936 18.8 46.5003 18.88C46.4203 18.96 46.3203 19 46.2003 19H44.3003C44.1003 19 43.9536 18.9733 43.8603 18.92C43.7803 18.8533 43.6803 18.7667 43.5603 18.66L39.7403 14.64V18.52C39.7403 18.6533 39.6936 18.7667 39.6003 18.86C39.5203 18.9533 39.407 19 39.2603 19H37.6403ZM50.9611 19.2C50.2678 19.2 49.6411 19.0667 49.0811 18.8C48.5211 18.52 48.0744 18.1533 47.7411 17.7C47.4211 17.2333 47.2611 16.7133 47.2611 16.14C47.2611 15.2067 47.6344 14.4667 48.3811 13.92C49.1411 13.36 50.1411 12.9867 51.3811 12.8L54.1211 12.4V11.98C54.1211 11.42 53.9811 10.9867 53.7011 10.68C53.4211 10.3733 52.9411 10.22 52.2611 10.22C51.7811 10.22 51.3878 10.32 51.0811 10.52C50.7878 10.7067 50.5678 10.96 50.4211 11.28C50.3144 11.4533 50.1611 11.54 49.9611 11.54H48.3811C48.2344 11.54 48.1211 11.5 48.0411 11.42C47.9744 11.34 47.9411 11.2333 47.9411 11.1C47.9544 10.8867 48.0411 10.6267 48.2011 10.32C48.3611 10.0133 48.6144 9.72 48.9611 9.44C49.3078 9.14667 49.7544 8.9 50.3011 8.7C50.8478 8.5 51.5078 8.4 52.2811 8.4C53.1211 8.4 53.8278 8.50667 54.4011 8.72C54.9878 8.92 55.4544 9.19333 55.8011 9.54C56.1478 9.88667 56.4011 10.2933 56.5611 10.76C56.7211 11.2267 56.8011 11.72 56.8011 12.24V18.52C56.8011 18.6533 56.7544 18.7667 56.6611 18.86C56.5678 18.9533 56.4544 19 56.3211 19H54.7011C54.5544 19 54.4344 18.9533 54.3411 18.86C54.2611 18.7667 54.2211 18.6533 54.2211 18.52V17.74C54.0478 17.9933 53.8144 18.2333 53.5211 18.46C53.2278 18.6733 52.8678 18.8533 52.4411 19C52.0278 19.1333 51.5344 19.2 50.9611 19.2ZM51.6411 17.3C52.1078 17.3 52.5278 17.2 52.9011 17C53.2878 16.8 53.5878 16.4933 53.8011 16.08C54.0278 15.6533 54.1411 15.12 54.1411 14.48V14.06L52.1411 14.38C51.3544 14.5 50.7678 14.6933 50.3811 14.96C49.9944 15.2267 49.8011 15.5533 49.8011 15.94C49.8011 16.2333 49.8878 16.4867 50.0611 16.7C50.2478 16.9 50.4811 17.0533 50.7611 17.16C51.0411 17.2533 51.3344 17.3 51.6411 17.3ZM64.0669 23.4C63.0935 23.4 62.2935 23.2733 61.6669 23.02C61.0402 22.7667 60.5469 22.46 60.1869 22.1C59.8269 21.74 59.5669 21.38 59.4069 21.02C59.2602 20.6733 59.1802 20.4 59.1669 20.2C59.1535 20.0667 59.1935 19.9467 59.2869 19.84C59.3935 19.7467 59.5135 19.7 59.6469 19.7H61.3869C61.5202 19.7 61.6269 19.7267 61.7069 19.78C61.7869 19.8467 61.8535 19.96 61.9069 20.12C61.9869 20.2933 62.0935 20.48 62.2269 20.68C62.3602 20.88 62.5602 21.0467 62.8269 21.18C63.1069 21.3267 63.4869 21.4 63.9669 21.4C64.4735 21.4 64.9002 21.3267 65.2469 21.18C65.5935 21.0333 65.8535 20.7867 66.0269 20.44C66.2135 20.0933 66.3069 19.6133 66.3069 19V17.64C65.9869 18.0267 65.5735 18.34 65.0669 18.58C64.5735 18.82 63.9602 18.94 63.2269 18.94C62.5069 18.94 61.8869 18.8267 61.3669 18.6C60.8469 18.36 60.4135 18.0333 60.0669 17.62C59.7202 17.1933 59.4535 16.6933 59.2669 16.12C59.0935 15.5467 58.9935 14.9133 58.9669 14.22C58.9535 13.86 58.9535 13.5 58.9669 13.14C58.9935 12.4733 59.0935 11.8533 59.2669 11.28C59.4402 10.7067 59.7002 10.2067 60.0469 9.78C60.4069 9.34 60.8469 9 61.3669 8.76C61.8869 8.52 62.5069 8.4 63.2269 8.4C63.9869 8.4 64.6269 8.54667 65.1469 8.84C65.6669 9.12 66.0935 9.47333 66.4269 9.9V9.1C66.4269 8.95333 66.4735 8.83333 66.5669 8.74C66.6602 8.64667 66.7735 8.6 66.9069 8.6H68.5269C68.6602 8.6 68.7735 8.64667 68.8669 8.74C68.9602 8.83333 69.0069 8.95333 69.0069 9.1L69.0269 18.74C69.0269 19.7 68.8469 20.5267 68.4869 21.22C68.1269 21.9133 67.5802 22.4467 66.8469 22.82C66.1269 23.2067 65.2002 23.4 64.0669 23.4ZM63.9669 16.82C64.5135 16.82 64.9535 16.7 65.2869 16.46C65.6202 16.22 65.8669 15.9067 66.0269 15.52C66.1869 15.1333 66.2802 14.74 66.3069 14.34C66.3202 14.1667 66.3269 13.9467 66.3269 13.68C66.3269 13.4133 66.3202 13.2 66.3069 13.04C66.2802 12.6267 66.1869 12.2333 66.0269 11.86C65.8669 11.4733 65.6202 11.16 65.2869 10.92C64.9535 10.6667 64.5135 10.54 63.9669 10.54C63.4202 10.54 62.9802 10.6667 62.6469 10.92C62.3135 11.16 62.0735 11.48 61.9269 11.88C61.7935 12.28 61.7135 12.72 61.6869 13.2C61.6602 13.52 61.6602 13.8467 61.6869 14.18C61.7135 14.6467 61.7935 15.0867 61.9269 15.5C62.0735 15.9 62.3135 16.22 62.6469 16.46C62.9802 16.7 63.4202 16.82 63.9669 16.82ZM72.1711 19C72.0378 19 71.9244 18.9533 71.8311 18.86C71.7378 18.7667 71.6911 18.6533 71.6911 18.52V9.08C71.6911 8.94667 71.7378 8.83333 71.8311 8.74C71.9244 8.64667 72.0378 8.6 72.1711 8.6H73.8311C73.9778 8.6 74.0911 8.64667 74.1711 8.74C74.2644 8.83333 74.3111 8.94667 74.3111 9.08V18.52C74.3111 18.6533 74.2644 18.7667 74.1711 18.86C74.0911 18.9533 73.9778 19 73.8311 19H72.1711ZM72.0911 6.88C71.9444 6.88 71.8244 6.84 71.7311 6.76C71.6511 6.66667 71.6111 6.54667 71.6111 6.4V4.96C71.6111 4.82667 71.6511 4.71333 71.7311 4.62C71.8244 4.52667 71.9444 4.48 72.0911 4.48H73.9111C74.0578 4.48 74.1778 4.52667 74.2711 4.62C74.3644 4.71333 74.4111 4.82667 74.4111 4.96V6.4C74.4111 6.54667 74.3644 6.66667 74.2711 6.76C74.1778 6.84 74.0578 6.88 73.9111 6.88H72.0911ZM77.8547 19C77.7214 19 77.608 18.9533 77.5147 18.86C77.4214 18.7667 77.3747 18.6533 77.3747 18.52V9.08C77.3747 8.94667 77.4214 8.83333 77.5147 8.74C77.608 8.64667 77.7214 8.6 77.8547 8.6H79.4947C79.628 8.6 79.7414 8.64667 79.8347 8.74C79.928 8.83333 79.9747 8.94667 79.9747 9.08V9.9C80.3214 9.47333 80.7614 9.12 81.2947 8.84C81.8414 8.54667 82.5147 8.4 83.3147 8.4C84.128 8.4 84.8347 8.58667 85.4347 8.96C86.0347 9.32 86.4947 9.83333 86.8147 10.5C87.148 11.1667 87.3147 11.9667 87.3147 12.9V18.52C87.3147 18.6533 87.268 18.7667 87.1747 18.86C87.0814 18.9533 86.968 19 86.8347 19H85.0747C84.9414 19 84.828 18.9533 84.7347 18.86C84.6414 18.7667 84.5947 18.6533 84.5947 18.52V13.02C84.5947 12.2467 84.4014 11.64 84.0147 11.2C83.6414 10.76 83.0947 10.54 82.3747 10.54C81.6814 10.54 81.128 10.76 80.7147 11.2C80.3014 11.64 80.0947 12.2467 80.0947 13.02V18.52C80.0947 18.6533 80.048 18.7667 79.9547 18.86C79.8614 18.9533 79.748 19 79.6147 19H77.8547ZM94.5552 23.4C93.5818 23.4 92.7818 23.2733 92.1552 23.02C91.5285 22.7667 91.0352 22.46 90.6752 22.1C90.3152 21.74 90.0552 21.38 89.8952 21.02C89.7485 20.6733 89.6685 20.4 89.6552 20.2C89.6418 20.0667 89.6818 19.9467 89.7752 19.84C89.8818 19.7467 90.0018 19.7 90.1352 19.7H91.8752C92.0085 19.7 92.1152 19.7267 92.1952 19.78C92.2752 19.8467 92.3418 19.96 92.3952 20.12C92.4752 20.2933 92.5818 20.48 92.7152 20.68C92.8485 20.88 93.0485 21.0467 93.3152 21.18C93.5952 21.3267 93.9752 21.4 94.4552 21.4C94.9618 21.4 95.3885 21.3267 95.7352 21.18C96.0818 21.0333 96.3418 20.7867 96.5152 20.44C96.7018 20.0933 96.7952 19.6133 96.7952 19V17.64C96.4752 18.0267 96.0618 18.34 95.5552 18.58C95.0618 18.82 94.4485 18.94 93.7152 18.94C92.9952 18.94 92.3752 18.8267 91.8552 18.6C91.3352 18.36 90.9018 18.0333 90.5552 17.62C90.2085 17.1933 89.9418 16.6933 89.7552 16.12C89.5818 15.5467 89.4818 14.9133 89.4552 14.22C89.4418 13.86 89.4418 13.5 89.4552 13.14C89.4818 12.4733 89.5818 11.8533 89.7552 11.28C89.9285 10.7067 90.1885 10.2067 90.5352 9.78C90.8952 9.34 91.3352 9 91.8552 8.76C92.3752 8.52 92.9952 8.4 93.7152 8.4C94.4752 8.4 95.1152 8.54667 95.6352 8.84C96.1552 9.12 96.5818 9.47333 96.9152 9.9V9.1C96.9152 8.95333 96.9618 8.83333 97.0552 8.74C97.1485 8.64667 97.2618 8.6 97.3952 8.6H99.0152C99.1485 8.6 99.2618 8.64667 99.3552 8.74C99.4485 8.83333 99.4952 8.95333 99.4952 9.1L99.5152 18.74C99.5152 19.7 99.3352 20.5267 98.9752 21.22C98.6152 21.9133 98.0685 22.4467 97.3352 22.82C96.6152 23.2067 95.6885 23.4 94.5552 23.4ZM94.4552 16.82C95.0018 16.82 95.4418 16.7 95.7752 16.46C96.1085 16.22 96.3552 15.9067 96.5152 15.52C96.6752 15.1333 96.7685 14.74 96.7952 14.34C96.8085 14.1667 96.8152 13.9467 96.8152 13.68C96.8152 13.4133 96.8085 13.2 96.7952 13.04C96.7685 12.6267 96.6752 12.2333 96.5152 11.86C96.3552 11.4733 96.1085 11.16 95.7752 10.92C95.4418 10.6667 95.0018 10.54 94.4552 10.54C93.9085 10.54 93.4685 10.6667 93.1352 10.92C92.8018 11.16 92.5618 11.48 92.4152 11.88C92.2818 12.28 92.2018 12.72 92.1752 13.2C92.1485 13.52 92.1485 13.8467 92.1752 14.18C92.2018 14.6467 92.2818 15.0867 92.4152 15.5C92.5618 15.9 92.8018 16.22 93.1352 16.46C93.4685 16.7 93.9085 16.82 94.4552 16.82ZM111.85 19.2C110.61 19.2 109.57 19.02 108.73 18.66C107.903 18.2867 107.27 17.8067 106.83 17.22C106.403 16.62 106.176 15.9933 106.15 15.34C106.15 15.22 106.19 15.12 106.27 15.04C106.35 14.96 106.45 14.92 106.57 14.92H108.35C108.523 14.92 108.65 14.96 108.73 15.04C108.823 15.1067 108.903 15.1933 108.97 15.3C109.05 15.5533 109.203 15.8067 109.43 16.06C109.656 16.3 109.963 16.5 110.35 16.66C110.75 16.82 111.25 16.9 111.85 16.9C112.81 16.9 113.523 16.74 113.99 16.42C114.47 16.1 114.71 15.6667 114.71 15.12C114.71 14.7333 114.583 14.4267 114.33 14.2C114.076 13.96 113.683 13.7467 113.15 13.56C112.63 13.36 111.936 13.1533 111.07 12.94C110.07 12.7 109.23 12.4133 108.55 12.08C107.883 11.7333 107.376 11.3 107.03 10.78C106.696 10.26 106.53 9.6 106.53 8.8C106.53 8.02667 106.736 7.34 107.15 6.74C107.576 6.14 108.176 5.66667 108.95 5.32C109.736 4.97333 110.67 4.8 111.75 4.8C112.616 4.8 113.383 4.92 114.05 5.16C114.716 5.38667 115.27 5.69333 115.71 6.08C116.15 6.45333 116.483 6.86 116.71 7.3C116.95 7.72667 117.076 8.14667 117.09 8.56C117.09 8.66667 117.05 8.76667 116.97 8.86C116.903 8.94 116.803 8.98 116.67 8.98H114.81C114.703 8.98 114.596 8.95333 114.49 8.9C114.383 8.84667 114.296 8.74667 114.23 8.6C114.15 8.18667 113.89 7.83333 113.45 7.54C113.01 7.24667 112.443 7.1 111.75 7.1C111.03 7.1 110.45 7.23333 110.01 7.5C109.57 7.76667 109.35 8.18 109.35 8.74C109.35 9.11333 109.456 9.42667 109.67 9.68C109.896 9.92 110.25 10.1333 110.73 10.32C111.223 10.5067 111.87 10.7067 112.67 10.92C113.803 11.1733 114.73 11.4667 115.45 11.8C116.17 12.1333 116.696 12.56 117.03 13.08C117.363 13.5867 117.53 14.2333 117.53 15.02C117.53 15.9 117.29 16.6533 116.81 17.28C116.343 17.8933 115.683 18.3667 114.83 18.7C113.976 19.0333 112.983 19.2 111.85 19.2ZM124.182 19.2C123.115 19.2 122.215 19.0133 121.482 18.64C120.762 18.2667 120.208 17.74 119.822 17.06C119.448 16.38 119.235 15.5867 119.182 14.68C119.168 14.44 119.162 14.1467 119.162 13.8C119.162 13.4533 119.168 13.16 119.182 12.92C119.235 12 119.455 11.2067 119.842 10.54C120.242 9.86 120.802 9.33333 121.522 8.96C122.255 8.58667 123.142 8.4 124.182 8.4C125.222 8.4 126.102 8.58667 126.822 8.96C127.555 9.33333 128.115 9.86 128.502 10.54C128.902 11.2067 129.128 12 129.182 12.92C129.195 13.16 129.202 13.4533 129.202 13.8C129.202 14.1467 129.195 14.44 129.182 14.68C129.128 15.5867 128.908 16.38 128.522 17.06C128.148 17.74 127.595 18.2667 126.862 18.64C126.142 19.0133 125.248 19.2 124.182 19.2ZM124.182 17.22C124.888 17.22 125.435 17 125.822 16.56C126.208 16.1067 126.422 15.4467 126.462 14.58C126.475 14.38 126.482 14.12 126.482 13.8C126.482 13.48 126.475 13.22 126.462 13.02C126.422 12.1667 126.208 11.5133 125.822 11.06C125.435 10.6067 124.888 10.38 124.182 10.38C123.475 10.38 122.928 10.6067 122.542 11.06C122.155 11.5133 121.942 12.1667 121.902 13.02C121.888 13.22 121.882 13.48 121.882 13.8C121.882 14.12 121.888 14.38 121.902 14.58C121.942 15.4467 122.155 16.1067 122.542 16.56C122.928 17 123.475 17.22 124.182 17.22ZM131.918 19C131.784 19 131.671 18.9533 131.578 18.86C131.484 18.7667 131.438 18.6533 131.438 18.52V5.28C131.438 5.14667 131.484 5.03333 131.578 4.94C131.671 4.84667 131.784 4.8 131.918 4.8H133.578C133.711 4.8 133.824 4.84667 133.918 4.94C134.011 5.03333 134.058 5.14667 134.058 5.28V18.52C134.058 18.6533 134.011 18.7667 133.918 18.86C133.824 18.9533 133.711 19 133.578 19H131.918ZM140.571 19.2C139.757 19.2 139.051 19.02 138.451 18.66C137.864 18.2867 137.411 17.7667 137.091 17.1C136.771 16.42 136.611 15.62 136.611 14.7V9.08C136.611 8.94667 136.657 8.83333 136.751 8.74C136.844 8.64667 136.957 8.6 137.091 8.6H138.851C138.997 8.6 139.111 8.64667 139.191 8.74C139.284 8.83333 139.331 8.94667 139.331 9.08V14.58C139.331 16.2333 140.057 17.06 141.511 17.06C142.204 17.06 142.751 16.84 143.151 16.4C143.564 15.96 143.771 15.3533 143.771 14.58V9.08C143.771 8.94667 143.817 8.83333 143.911 8.74C144.004 8.64667 144.117 8.6 144.251 8.6H146.011C146.144 8.6 146.257 8.64667 146.351 8.74C146.444 8.83333 146.491 8.94667 146.491 9.08V18.52C146.491 18.6533 146.444 18.7667 146.351 18.86C146.257 18.9533 146.144 19 146.011 19H144.391C144.244 19 144.124 18.9533 144.031 18.86C143.951 18.7667 143.911 18.6533 143.911 18.52V17.7C143.551 18.1667 143.104 18.5333 142.571 18.8C142.037 19.0667 141.371 19.2 140.571 19.2ZM153.833 19C153.033 19 152.359 18.86 151.813 18.58C151.266 18.3 150.859 17.8867 150.593 17.34C150.326 16.78 150.193 16.0867 150.193 15.26V10.72H148.613C148.479 10.72 148.366 10.6733 148.273 10.58C148.179 10.4867 148.133 10.3733 148.133 10.24V9.08C148.133 8.94667 148.179 8.83333 148.273 8.74C148.366 8.64667 148.479 8.6 148.613 8.6H150.193V5.28C150.193 5.14667 150.233 5.03333 150.312 4.94C150.406 4.84667 150.526 4.8 150.673 4.8H152.293C152.426 4.8 152.539 4.84667 152.633 4.94C152.726 5.03333 152.773 5.14667 152.773 5.28V8.6H155.273C155.406 8.6 155.519 8.64667 155.613 8.74C155.706 8.83333 155.753 8.94667 155.753 9.08V10.24C155.753 10.3733 155.706 10.4867 155.613 10.58C155.519 10.6733 155.406 10.72 155.273 10.72H152.773V15.06C152.773 15.6067 152.866 16.0333 153.053 16.34C153.253 16.6467 153.593 16.8 154.073 16.8H155.453C155.586 16.8 155.699 16.8467 155.793 16.94C155.886 17.0333 155.933 17.1467 155.933 17.28V18.52C155.933 18.6533 155.886 18.7667 155.793 18.86C155.699 18.9533 155.586 19 155.453 19H153.833ZM158.187 19C158.053 19 157.94 18.9533 157.847 18.86C157.753 18.7667 157.707 18.6533 157.707 18.52V9.08C157.707 8.94667 157.753 8.83333 157.847 8.74C157.94 8.64667 158.053 8.6 158.187 8.6H159.847C159.993 8.6 160.107 8.64667 160.187 8.74C160.28 8.83333 160.327 8.94667 160.327 9.08V18.52C160.327 18.6533 160.28 18.7667 160.187 18.86C160.107 18.9533 159.993 19 159.847 19H158.187ZM158.107 6.88C157.96 6.88 157.84 6.84 157.747 6.76C157.667 6.66667 157.627 6.54667 157.627 6.4V4.96C157.627 4.82667 157.667 4.71333 157.747 4.62C157.84 4.52667 157.96 4.48 158.107 4.48H159.927C160.073 4.48 160.193 4.52667 160.287 4.62C160.38 4.71333 160.427 4.82667 160.427 4.96V6.4C160.427 6.54667 160.38 6.66667 160.287 6.76C160.193 6.84 160.073 6.88 159.927 6.88H158.107ZM167.639 19.2C166.572 19.2 165.672 19.0133 164.939 18.64C164.219 18.2667 163.665 17.74 163.279 17.06C162.905 16.38 162.692 15.5867 162.639 14.68C162.625 14.44 162.619 14.1467 162.619 13.8C162.619 13.4533 162.625 13.16 162.639 12.92C162.692 12 162.912 11.2067 163.299 10.54C163.699 9.86 164.259 9.33333 164.979 8.96C165.712 8.58667 166.599 8.4 167.639 8.4C168.679 8.4 169.559 8.58667 170.279 8.96C171.012 9.33333 171.572 9.86 171.959 10.54C172.359 11.2067 172.585 12 172.639 12.92C172.652 13.16 172.659 13.4533 172.659 13.8C172.659 14.1467 172.652 14.44 172.639 14.68C172.585 15.5867 172.365 16.38 171.979 17.06C171.605 17.74 171.052 18.2667 170.319 18.64C169.599 19.0133 168.705 19.2 167.639 19.2ZM167.639 17.22C168.345 17.22 168.892 17 169.279 16.56C169.665 16.1067 169.879 15.4467 169.919 14.58C169.932 14.38 169.939 14.12 169.939 13.8C169.939 13.48 169.932 13.22 169.919 13.02C169.879 12.1667 169.665 11.5133 169.279 11.06C168.892 10.6067 168.345 10.38 167.639 10.38C166.932 10.38 166.385 10.6067 165.999 11.06C165.612 11.5133 165.399 12.1667 165.359 13.02C165.345 13.22 165.339 13.48 165.339 13.8C165.339 14.12 165.345 14.38 165.359 14.58C165.399 15.4467 165.612 16.1067 165.999 16.56C166.385 17 166.932 17.22 167.639 17.22ZM175.355 19C175.221 19 175.108 18.9533 175.015 18.86C174.921 18.7667 174.875 18.6533 174.875 18.52V9.08C174.875 8.94667 174.921 8.83333 175.015 8.74C175.108 8.64667 175.221 8.6 175.355 8.6H176.995C177.128 8.6 177.241 8.64667 177.335 8.74C177.428 8.83333 177.475 8.94667 177.475 9.08V9.9C177.821 9.47333 178.261 9.12 178.795 8.84C179.341 8.54667 180.015 8.4 180.815 8.4C181.628 8.4 182.335 8.58667 182.935 8.96C183.535 9.32 183.995 9.83333 184.315 10.5C184.648 11.1667 184.815 11.9667 184.815 12.9V18.52C184.815 18.6533 184.768 18.7667 184.675 18.86C184.581 18.9533 184.468 19 184.335 19H182.575C182.441 19 182.328 18.9533 182.235 18.86C182.141 18.7667 182.095 18.6533 182.095 18.52V13.02C182.095 12.2467 181.901 11.64 181.515 11.2C181.141 10.76 180.595 10.54 179.875 10.54C179.181 10.54 178.628 10.76 178.215 11.2C177.801 11.64 177.595 12.2467 177.595 13.02V18.52C177.595 18.6533 177.548 18.7667 177.455 18.86C177.361 18.9533 177.248 19 177.115 19H175.355ZM191.295 19.2C190.495 19.2 189.808 19.1067 189.235 18.92C188.675 18.7333 188.215 18.5 187.855 18.22C187.495 17.94 187.228 17.66 187.055 17.38C186.882 17.1 186.788 16.8667 186.775 16.68C186.762 16.5333 186.802 16.42 186.895 16.34C187.002 16.2467 187.115 16.2 187.235 16.2H188.815C188.868 16.2 188.915 16.2067 188.955 16.22C188.995 16.2333 189.048 16.2733 189.115 16.34C189.288 16.4867 189.468 16.64 189.655 16.8C189.855 16.96 190.088 17.1 190.355 17.22C190.622 17.3267 190.955 17.38 191.355 17.38C191.875 17.38 192.308 17.28 192.655 17.08C193.015 16.8667 193.195 16.5667 193.195 16.18C193.195 15.9 193.115 15.6733 192.955 15.5C192.808 15.3267 192.528 15.1733 192.115 15.04C191.702 14.8933 191.115 14.74 190.355 14.58C189.608 14.4067 188.988 14.1867 188.495 13.92C188.002 13.6533 187.635 13.32 187.395 12.92C187.155 12.52 187.035 12.0533 187.035 11.52C187.035 11 187.188 10.5067 187.495 10.04C187.815 9.56 188.282 9.16667 188.895 8.86C189.522 8.55333 190.295 8.4 191.215 8.4C191.935 8.4 192.562 8.49333 193.095 8.68C193.628 8.85333 194.068 9.07333 194.415 9.34C194.775 9.60667 195.048 9.88 195.235 10.16C195.422 10.4267 195.522 10.66 195.535 10.86C195.548 11.0067 195.508 11.1267 195.415 11.22C195.322 11.3 195.215 11.34 195.095 11.34H193.615C193.548 11.34 193.488 11.3267 193.435 11.3C193.382 11.2733 193.328 11.24 193.275 11.2C193.128 11.0667 192.968 10.9267 192.795 10.78C192.622 10.6333 192.408 10.5067 192.155 10.4C191.915 10.28 191.595 10.22 191.195 10.22C190.688 10.22 190.302 10.3333 190.035 10.56C189.768 10.7733 189.635 11.0467 189.635 11.38C189.635 11.6067 189.695 11.8067 189.815 11.98C189.948 12.14 190.208 12.2933 190.595 12.44C190.982 12.5867 191.568 12.74 192.355 12.9C193.248 13.06 193.955 13.3 194.475 13.62C195.008 13.9267 195.382 14.2867 195.595 14.7C195.822 15.1 195.935 15.5467 195.935 16.04C195.935 16.64 195.755 17.18 195.395 17.66C195.048 18.14 194.528 18.52 193.835 18.8C193.155 19.0667 192.308 19.2 191.295 19.2Z" fill="white"/>
<path d="M13.664 34.8C13.4293 36.592 13.1147 38.3147 12.72 39.968C12.3253 41.6213 11.744 43.632 10.976 46H9.232C8.58133 43.888 8.10133 42.272 7.792 41.152C7.49333 40.032 7.24267 38.944 7.04 37.888C6.79467 39.0613 6.512 40.2347 6.192 41.408C5.872 42.5813 5.41867 44.112 4.832 46H3.088C2.32 43.7813 1.72267 41.824 1.296 40.128C0.869333 38.432 0.517333 36.656 0.24 34.8H1.824C2.02667 36.4107 2.28267 37.8827 2.592 39.216C2.90133 40.5493 3.36 42.1973 3.968 44.16C4.39467 42.8267 4.77333 41.5307 5.104 40.272C5.44533 39.0133 5.89333 37.1893 6.448 34.8H7.552C8.36267 37.9573 8.90667 40.048 9.184 41.072C9.472 42.0853 9.78133 43.1093 10.112 44.144C10.6987 42.192 11.136 40.5547 11.424 39.232C11.712 37.9093 11.9573 36.432 12.16 34.8H13.664ZM21.6823 43.44C21.6823 44.0587 21.7196 44.528 21.7943 44.848C21.8796 45.168 22.0236 45.4453 22.2263 45.68C22.0769 45.7973 21.8956 45.8987 21.6823 45.984C21.4689 46.0587 21.2716 46.096 21.0903 46.096C20.5996 46.096 20.3063 45.6587 20.2103 44.784C19.8903 45.2213 19.4796 45.5627 18.9783 45.808C18.4876 46.0427 17.9329 46.16 17.3143 46.16C16.5143 46.16 15.8689 45.952 15.3783 45.536C14.8983 45.12 14.6583 44.5653 14.6583 43.872C14.6583 41.9093 16.4929 40.8373 20.1623 40.656V40.032C20.1623 39.4133 20.0076 38.9547 19.6983 38.656C19.3889 38.3573 18.9089 38.208 18.2583 38.208C17.8316 38.208 17.4316 38.2933 17.0583 38.464C16.6849 38.6347 16.2583 38.9333 15.7783 39.36C15.7036 39.4133 15.6343 39.44 15.5703 39.44C15.4316 39.44 15.2823 39.3707 15.1223 39.232C14.9623 39.0827 14.8129 38.88 14.6743 38.624C15.1223 38.1227 15.6769 37.7333 16.3383 37.456C16.9996 37.1787 17.6876 37.04 18.4023 37.04C19.4263 37.04 20.2263 37.3067 20.8023 37.84C21.3889 38.3627 21.6823 39.0933 21.6823 40.032V43.44ZM17.6503 45.056C18.1409 45.056 18.5996 44.912 19.0263 44.624C19.4529 44.3253 19.8316 43.904 20.1623 43.36V41.648C17.5169 41.7653 16.1943 42.4747 16.1943 43.776C16.1943 44.192 16.3169 44.512 16.5623 44.736C16.8183 44.9493 17.1809 45.056 17.6503 45.056ZM27.931 37.088C28.7737 37.088 29.195 37.4027 29.195 38.032C29.195 38.288 29.1257 38.496 28.987 38.656C28.7097 38.5173 28.347 38.448 27.899 38.448C27.195 38.448 26.6403 38.7093 26.235 39.232C25.8403 39.744 25.643 40.4533 25.643 41.36V46H24.123V37.2H25.643V38.672C25.8777 38.192 26.1977 37.808 26.603 37.52C27.019 37.232 27.4617 37.088 27.931 37.088ZM37.9644 40.992C37.9644 41.2053 37.9484 41.4827 37.9164 41.824H31.7724C31.815 42.8373 32.0497 43.6267 32.4764 44.192C32.903 44.7467 33.4897 45.024 34.2364 45.024C34.7377 45.024 35.1537 44.9227 35.4844 44.72C35.8257 44.5173 36.1564 44.1653 36.4764 43.664C36.5617 43.5467 36.679 43.488 36.8284 43.488C37.0737 43.488 37.3937 43.632 37.7884 43.92C37.511 44.624 37.063 45.1733 36.4444 45.568C35.8257 45.9627 35.0897 46.16 34.2364 46.16C33.415 46.16 32.7004 45.9787 32.0924 45.616C31.495 45.2427 31.0364 44.7147 30.7164 44.032C30.3964 43.3387 30.2364 42.5227 30.2364 41.584C30.2364 40.1653 30.5937 39.056 31.3084 38.256C32.0337 37.4453 33.031 37.04 34.3004 37.04C35.463 37.04 36.3644 37.3867 37.0044 38.08C37.6444 38.7733 37.9644 39.744 37.9644 40.992ZM36.4124 40.8C36.4124 39.04 35.6924 38.16 34.2524 38.16C33.5377 38.16 32.9724 38.384 32.5564 38.832C32.1404 39.28 31.8897 39.936 31.8044 40.8H36.4124ZM44.4185 37.04C45.2825 37.04 45.9652 37.296 46.4665 37.808C46.9785 38.3093 47.2345 38.9973 47.2345 39.872V46H45.7305V40.048C45.7305 39.44 45.5865 38.9813 45.2985 38.672C45.0212 38.3627 44.6105 38.208 44.0665 38.208C43.6292 38.208 43.1652 38.3093 42.6745 38.512C42.1945 38.704 41.7412 38.976 41.3145 39.328V46H39.8105V33.344H41.3145V38.176C41.7518 37.824 42.2425 37.5467 42.7865 37.344C43.3305 37.1413 43.8745 37.04 44.4185 37.04ZM53.0726 46.16C51.814 46.16 50.8593 45.7707 50.2086 44.992C49.558 44.2133 49.2326 43.0773 49.2326 41.584C49.2326 40.0907 49.558 38.96 50.2086 38.192C50.8593 37.424 51.814 37.04 53.0726 37.04C54.3313 37.04 55.286 37.424 55.9366 38.192C56.598 38.96 56.9286 40.0907 56.9286 41.584C56.9286 43.0773 56.598 44.2133 55.9366 44.992C55.286 45.7707 54.3313 46.16 53.0726 46.16ZM53.0726 45.056C53.8726 45.056 54.454 44.7787 54.8166 44.224C55.19 43.6693 55.3766 42.7893 55.3766 41.584C55.3766 40.3893 55.19 39.52 54.8166 38.976C54.454 38.4213 53.8726 38.144 53.0726 38.144C52.2726 38.144 51.686 38.4213 51.3126 38.976C50.95 39.52 50.7686 40.3893 50.7686 41.584C50.7686 42.7893 50.9553 43.6693 51.3286 44.224C51.702 44.7787 52.2833 45.056 53.0726 45.056ZM65.9956 44.08C65.9956 44.7733 66.0756 45.36 66.2356 45.84C65.937 46 65.6063 46.08 65.2436 46.08C64.9876 46.08 64.801 45.9947 64.6836 45.824C64.577 45.6533 64.513 45.3387 64.4916 44.88C64.1823 45.2747 63.7716 45.5893 63.2596 45.824C62.7583 46.048 62.209 46.16 61.6116 46.16C60.6943 46.16 60.001 45.9147 59.5316 45.424C59.073 44.9227 58.8436 44.1813 58.8436 43.2V37.2H60.3636V43.088C60.3636 43.792 60.4863 44.304 60.7316 44.624C60.9876 44.9333 61.3983 45.088 61.9636 45.088C62.465 45.088 62.9343 44.96 63.3716 44.704C63.809 44.4373 64.177 44.064 64.4756 43.584V37.2H65.9956V44.08ZM71.3106 46.16C70.756 46.16 70.2226 46.08 69.7106 45.92C69.1986 45.76 68.7826 45.552 68.4626 45.296C68.1533 45.0293 67.9986 44.7413 67.9986 44.432C67.9986 44.24 68.0626 44.0747 68.1906 43.936C68.3293 43.7867 68.5053 43.696 68.7186 43.664C69.0493 44.144 69.4226 44.496 69.8386 44.72C70.2546 44.944 70.7666 45.056 71.3746 45.056C71.9826 45.056 72.4413 44.9227 72.7506 44.656C73.06 44.3787 73.2146 44.016 73.2146 43.568C73.2146 43.28 73.1186 43.0453 72.9266 42.864C72.7453 42.672 72.5106 42.5227 72.2226 42.416C71.9453 42.2987 71.5666 42.176 71.0866 42.048C70.4573 41.8773 69.9506 41.712 69.5666 41.552C69.1933 41.3813 68.868 41.136 68.5906 40.816C68.324 40.4853 68.1906 40.0533 68.1906 39.52C68.1906 38.9867 68.34 38.5333 68.6386 38.16C68.9373 37.7867 69.3213 37.5093 69.7906 37.328C70.26 37.136 70.7506 37.04 71.2626 37.04C71.9773 37.04 72.612 37.184 73.1666 37.472C73.732 37.7493 74.1693 38.1387 74.4786 38.64C74.3506 38.8213 74.212 38.9653 74.0626 39.072C73.9133 39.1787 73.7746 39.232 73.6466 39.232C73.4866 39.232 73.3426 39.1573 73.2146 39.008C72.7026 38.4107 72.0466 38.112 71.2466 38.112C70.756 38.112 70.3666 38.224 70.0786 38.448C69.7906 38.672 69.6466 39.0133 69.6466 39.472C69.6466 39.76 69.7373 39.9947 69.9186 40.176C70.1 40.3467 70.3293 40.4853 70.6066 40.592C70.884 40.688 71.2573 40.7947 71.7266 40.912C72.3666 41.0827 72.8786 41.248 73.2626 41.408C73.6466 41.568 73.9773 41.8187 74.2546 42.16C74.532 42.5013 74.6706 42.9547 74.6706 43.52C74.6706 44.3413 74.3666 44.9867 73.7586 45.456C73.1613 45.9253 72.3453 46.16 71.3106 46.16ZM83.7456 40.992C83.7456 41.2053 83.7296 41.4827 83.6976 41.824H77.5536C77.5963 42.8373 77.831 43.6267 78.2576 44.192C78.6843 44.7467 79.271 45.024 80.0176 45.024C80.519 45.024 80.935 44.9227 81.2656 44.72C81.607 44.5173 81.9376 44.1653 82.2576 43.664C82.343 43.5467 82.4603 43.488 82.6096 43.488C82.855 43.488 83.175 43.632 83.5696 43.92C83.2923 44.624 82.8443 45.1733 82.2256 45.568C81.607 45.9627 80.871 46.16 80.0176 46.16C79.1963 46.16 78.4816 45.9787 77.8736 45.616C77.2763 45.2427 76.8176 44.7147 76.4976 44.032C76.1776 43.3387 76.0176 42.5227 76.0176 41.584C76.0176 40.1653 76.375 39.056 77.0896 38.256C77.815 37.4453 78.8123 37.04 80.0816 37.04C81.2443 37.04 82.1456 37.3867 82.7856 38.08C83.4256 38.7733 83.7456 39.744 83.7456 40.992ZM82.1936 40.8C82.1936 39.04 81.4736 38.16 80.0336 38.16C79.319 38.16 78.7536 38.384 78.3376 38.832C77.9216 39.28 77.671 39.936 77.5856 40.8H82.1936ZM99.1408 46C99.0981 42.5547 98.8314 39.4667 98.3408 36.736C97.9461 37.7173 97.5781 38.7147 97.2368 39.728C96.9061 40.7307 96.4048 42.3787 95.7328 44.672H94.5328C93.9568 42.656 93.4874 41.104 93.1248 40.016C92.7621 38.9173 92.3674 37.84 91.9408 36.784C91.4714 39.472 91.1994 42.544 91.1248 46H89.5408C89.6368 41.744 90.0741 38.0107 90.8528 34.8H92.6288C93.2474 36.24 93.7328 37.456 94.0848 38.448C94.4474 39.4293 94.7941 40.5333 95.1248 41.76C95.4874 40.512 95.8501 39.392 96.2128 38.4C96.5754 37.408 97.0608 36.208 97.6688 34.8H99.4448C100.245 38.064 100.677 41.7973 100.741 46H99.1408ZM109.604 43.44C109.604 44.0587 109.641 44.528 109.716 44.848C109.801 45.168 109.945 45.4453 110.148 45.68C109.999 45.7973 109.817 45.8987 109.604 45.984C109.391 46.0587 109.193 46.096 109.012 46.096C108.521 46.096 108.228 45.6587 108.132 44.784C107.812 45.2213 107.401 45.5627 106.9 45.808C106.409 46.0427 105.855 46.16 105.236 46.16C104.436 46.16 103.791 45.952 103.3 45.536C102.82 45.12 102.58 44.5653 102.58 43.872C102.58 41.9093 104.415 40.8373 108.084 40.656V40.032C108.084 39.4133 107.929 38.9547 107.62 38.656C107.311 38.3573 106.831 38.208 106.18 38.208C105.753 38.208 105.353 38.2933 104.98 38.464C104.607 38.6347 104.18 38.9333 103.7 39.36C103.625 39.4133 103.556 39.44 103.492 39.44C103.353 39.44 103.204 39.3707 103.044 39.232C102.884 39.0827 102.735 38.88 102.596 38.624C103.044 38.1227 103.599 37.7333 104.26 37.456C104.921 37.1787 105.609 37.04 106.324 37.04C107.348 37.04 108.148 37.3067 108.724 37.84C109.311 38.3627 109.604 39.0933 109.604 40.032V43.44ZM105.572 45.056C106.063 45.056 106.521 44.912 106.948 44.624C107.375 44.3253 107.753 43.904 108.084 43.36V41.648C105.439 41.7653 104.116 42.4747 104.116 43.776C104.116 44.192 104.239 44.512 104.484 44.736C104.74 44.9493 105.103 45.056 105.572 45.056ZM119.229 43.904C119.229 44.5013 119.24 44.9227 119.261 45.168C119.293 45.4133 119.346 45.6373 119.421 45.84C119.037 46 118.637 46.08 118.221 46.08C118.018 46.08 117.88 45.9627 117.805 45.728C117.741 45.4827 117.709 45.0293 117.709 44.368V40.08C117.709 39.3973 117.586 38.912 117.341 38.624C117.106 38.3253 116.712 38.176 116.157 38.176C115.336 38.176 114.482 38.576 113.597 39.376V46H112.077V40.16C112.077 38.688 112.013 37.776 111.885 37.424C112.386 37.232 112.781 37.136 113.069 37.136C113.421 37.136 113.597 37.4453 113.597 38.064V38.224C114.109 37.808 114.589 37.5093 115.037 37.328C115.496 37.136 115.981 37.04 116.493 37.04C117.41 37.04 118.093 37.2907 118.541 37.792C119 38.2827 119.229 39.0347 119.229 40.048V43.904ZM128.339 43.44C128.339 44.0587 128.376 44.528 128.451 44.848C128.536 45.168 128.68 45.4453 128.883 45.68C128.733 45.7973 128.552 45.8987 128.339 45.984C128.125 46.0587 127.928 46.096 127.747 46.096C127.256 46.096 126.963 45.6587 126.867 44.784C126.547 45.2213 126.136 45.5627 125.635 45.808C125.144 46.0427 124.589 46.16 123.971 46.16C123.171 46.16 122.525 45.952 122.035 45.536C121.555 45.12 121.315 44.5653 121.315 43.872C121.315 41.9093 123.149 40.8373 126.819 40.656V40.032C126.819 39.4133 126.664 38.9547 126.355 38.656C126.045 38.3573 125.565 38.208 124.915 38.208C124.488 38.208 124.088 38.2933 123.715 38.464C123.341 38.6347 122.915 38.9333 122.435 39.36C122.36 39.4133 122.291 39.44 122.227 39.44C122.088 39.44 121.939 39.3707 121.779 39.232C121.619 39.0827 121.469 38.88 121.331 38.624C121.779 38.1227 122.333 37.7333 122.995 37.456C123.656 37.1787 124.344 37.04 125.059 37.04C126.083 37.04 126.883 37.3067 127.459 37.84C128.045 38.3627 128.339 39.0933 128.339 40.032V43.44ZM124.307 45.056C124.797 45.056 125.256 44.912 125.683 44.624C126.109 44.3253 126.488 43.904 126.819 43.36V41.648C124.173 41.7653 122.851 42.4747 122.851 43.776C122.851 44.192 122.973 44.512 123.219 44.736C123.475 44.9493 123.837 45.056 124.307 45.056ZM137.963 36.576C138.209 36.576 138.385 36.6507 138.491 36.8C138.609 36.9387 138.667 37.1733 138.667 37.504C138.667 37.664 138.662 37.7867 138.651 37.872C137.883 37.872 137.345 37.9733 137.035 38.176C137.441 38.6773 137.643 39.28 137.643 39.984C137.643 40.9973 137.334 41.7653 136.715 42.288C136.097 42.8 135.19 43.056 133.995 43.056C133.345 43.056 132.875 43.104 132.587 43.2C132.31 43.2853 132.171 43.4293 132.171 43.632C132.171 43.856 132.347 44.0213 132.699 44.128C133.062 44.224 133.654 44.272 134.475 44.272C135.702 44.272 136.646 44.48 137.307 44.896C137.979 45.312 138.315 45.8987 138.315 46.656C138.315 47.4773 137.953 48.1173 137.227 48.576C136.502 49.0347 135.478 49.264 134.155 49.264C132.886 49.264 131.91 49.0613 131.227 48.656C130.555 48.2613 130.219 47.6853 130.219 46.928C130.219 46.48 130.374 46.1013 130.683 45.792C131.003 45.472 131.457 45.248 132.043 45.12V45.072C131.691 44.9867 131.409 44.832 131.195 44.608C130.993 44.3733 130.891 44.1013 130.891 43.792C130.891 43.5253 130.998 43.2853 131.211 43.072C131.435 42.8587 131.734 42.704 132.107 42.608C131.627 42.352 131.249 42.016 130.971 41.6C130.705 41.1733 130.571 40.6987 130.571 40.176C130.571 39.152 130.886 38.3733 131.515 37.84C132.155 37.3067 133.083 37.04 134.299 37.04C135.003 37.04 135.627 37.184 136.171 37.472C136.427 37.1947 136.715 36.976 137.035 36.816C137.355 36.656 137.665 36.576 137.963 36.576ZM134.091 41.952C134.795 41.952 135.302 41.8027 135.611 41.504C135.921 41.2053 136.075 40.72 136.075 40.048C136.075 39.376 135.915 38.8853 135.595 38.576C135.286 38.2667 134.785 38.112 134.091 38.112C133.419 38.112 132.923 38.272 132.603 38.592C132.283 38.9013 132.123 39.3867 132.123 40.048C132.123 41.3173 132.779 41.952 134.091 41.952ZM134.219 45.424C132.598 45.424 131.787 45.8667 131.787 46.752C131.787 47.68 132.577 48.144 134.155 48.144C135.03 48.144 135.691 48.0267 136.139 47.792C136.587 47.5573 136.811 47.2107 136.811 46.752C136.811 46.2933 136.603 45.9573 136.187 45.744C135.782 45.5307 135.126 45.424 134.219 45.424ZM147.371 40.992C147.371 41.2053 147.355 41.4827 147.323 41.824H141.179C141.221 42.8373 141.456 43.6267 141.883 44.192C142.309 44.7467 142.896 45.024 143.643 45.024C144.144 45.024 144.56 44.9227 144.891 44.72C145.232 44.5173 145.563 44.1653 145.883 43.664C145.968 43.5467 146.085 43.488 146.235 43.488C146.48 43.488 146.8 43.632 147.195 43.92C146.917 44.624 146.469 45.1733 145.851 45.568C145.232 45.9627 144.496 46.16 143.643 46.16C142.821 46.16 142.107 45.9787 141.499 45.616C140.901 45.2427 140.443 44.7147 140.123 44.032C139.803 43.3387 139.643 42.5227 139.643 41.584C139.643 40.1653 140 39.056 140.715 38.256C141.44 37.4453 142.437 37.04 143.707 37.04C144.869 37.04 145.771 37.3867 146.411 38.08C147.051 38.7733 147.371 39.744 147.371 40.992ZM145.819 40.8C145.819 39.04 145.099 38.16 143.659 38.16C142.944 38.16 142.379 38.384 141.963 38.832C141.547 39.28 141.296 39.936 141.211 40.8H145.819ZM158.593 37.04C159.382 37.04 160.017 37.2853 160.497 37.776C160.977 38.2667 161.217 38.9173 161.217 39.728V46H159.681V39.776C159.681 39.1893 159.563 38.768 159.329 38.512C159.105 38.2453 158.731 38.112 158.209 38.112C157.419 38.112 156.689 38.48 156.017 39.216C156.027 39.2907 156.033 39.3973 156.033 39.536V46H154.529V39.616C154.529 39.136 154.406 38.768 154.161 38.512C153.915 38.2453 153.569 38.112 153.121 38.112C152.726 38.112 152.342 38.2133 151.969 38.416C151.606 38.608 151.233 38.912 150.849 39.328V46H149.329V40.24C149.329 38.6933 149.265 37.76 149.137 37.44C149.318 37.3547 149.505 37.2853 149.697 37.232C149.899 37.168 150.075 37.136 150.225 37.136C150.438 37.136 150.593 37.2213 150.689 37.392C150.785 37.552 150.838 37.8133 150.849 38.176C151.243 37.7813 151.654 37.4933 152.081 37.312C152.507 37.1307 152.993 37.04 153.537 37.04C154.027 37.04 154.465 37.152 154.849 37.376C155.233 37.5893 155.526 37.888 155.729 38.272C156.123 37.8453 156.55 37.536 157.009 37.344C157.478 37.1413 158.006 37.04 158.593 37.04ZM171.043 40.992C171.043 41.2053 171.027 41.4827 170.995 41.824H164.851C164.893 42.8373 165.128 43.6267 165.555 44.192C165.981 44.7467 166.568 45.024 167.315 45.024C167.816 45.024 168.232 44.9227 168.563 44.72C168.904 44.5173 169.235 44.1653 169.555 43.664C169.64 43.5467 169.757 43.488 169.907 43.488C170.152 43.488 170.472 43.632 170.867 43.92C170.589 44.624 170.141 45.1733 169.523 45.568C168.904 45.9627 168.168 46.16 167.315 46.16C166.493 46.16 165.779 45.9787 165.171 45.616C164.573 45.2427 164.115 44.7147 163.795 44.032C163.475 43.3387 163.315 42.5227 163.315 41.584C163.315 40.1653 163.672 39.056 164.387 38.256C165.112 37.4453 166.109 37.04 167.379 37.04C168.541 37.04 169.443 37.3867 170.083 38.08C170.723 38.7733 171.043 39.744 171.043 40.992ZM169.491 40.8C169.491 39.04 168.771 38.16 167.331 38.16C166.616 38.16 166.051 38.384 165.635 38.832C165.219 39.28 164.968 39.936 164.883 40.8H169.491ZM180.073 43.904C180.073 44.5013 180.083 44.9227 180.105 45.168C180.137 45.4133 180.19 45.6373 180.265 45.84C179.881 46 179.481 46.08 179.065 46.08C178.862 46.08 178.723 45.9627 178.649 45.728C178.585 45.4827 178.553 45.0293 178.553 44.368V40.08C178.553 39.3973 178.43 38.912 178.185 38.624C177.95 38.3253 177.555 38.176 177.001 38.176C176.179 38.176 175.326 38.576 174.441 39.376V46H172.921V40.16C172.921 38.688 172.857 37.776 172.729 37.424C173.23 37.232 173.625 37.136 173.913 37.136C174.265 37.136 174.441 37.4453 174.441 38.064V38.224C174.953 37.808 175.433 37.5093 175.881 37.328C176.339 37.136 176.825 37.04 177.337 37.04C178.254 37.04 178.937 37.2907 179.385 37.792C179.843 38.2827 180.073 39.0347 180.073 40.048V43.904ZM187.038 44.768C187.124 44.8107 187.193 44.8853 187.246 44.992C187.3 45.088 187.326 45.2 187.326 45.328C187.326 45.5413 187.246 45.696 187.086 45.792C186.926 45.9093 186.702 46 186.414 46.064C186.137 46.128 185.833 46.16 185.502 46.16C184.788 46.16 184.217 45.968 183.79 45.584C183.364 45.1893 183.15 44.6667 183.15 44.016V38.272H181.598V37.2H183.15V34.8H184.67V37.2H186.766V38.272H184.67V43.808C184.67 44.2347 184.756 44.5493 184.926 44.752C185.097 44.944 185.358 45.04 185.71 45.04C186.137 45.04 186.58 44.9493 187.038 44.768Z" fill="#FFB629"/>
</svg>
