<svg width="244" height="52" viewBox="0 0 244 52" fill="none" xmlns="http://www.w3.org/2000/svg">
<path d="M3.86 19C3.66 19 3.5 18.9467 3.38 18.84C3.27333 18.72 3.2 18.5733 3.16 18.4L0.78 5.58C0.78 5.54 0.773333 5.50667 0.76 5.48C0.76 5.45333 0.76 5.43333 0.76 5.42C0.76 5.3 0.8 5.2 0.88 5.12C0.973333 5.04 1.07333 5 1.18 5H2.94C3.27333 5 3.46 5.13333 3.5 5.4L5.16 14.46L6.96 8.6C7 8.49333 7.06667 8.38667 7.16 8.28C7.26667 8.16 7.42 8.1 7.62 8.1H8.7C8.91333 8.1 9.06667 8.16 9.16 8.28C9.25333 8.38667 9.31333 8.49333 9.34 8.6L11.16 14.44L12.82 5.4C12.86 5.13333 13.0467 5 13.38 5H15.14C15.2467 5 15.34 5.04 15.42 5.12C15.5 5.2 15.54 5.3 15.54 5.42C15.54 5.43333 15.54 5.45333 15.54 5.48C15.54 5.50667 15.5333 5.54 15.52 5.58L13.14 18.4C13.1133 18.5733 13.04 18.72 12.92 18.84C12.8 18.9467 12.64 19 12.44 19H11.1C10.9 19 10.74 18.9467 10.62 18.84C10.5133 18.7333 10.44 18.62 10.4 18.5L8.16 11.82L5.92 18.5C5.86667 18.62 5.78667 18.7333 5.68 18.84C5.57333 18.9467 5.41333 19 5.2 19H3.86ZM20.2384 19.2C19.5451 19.2 18.9184 19.0667 18.3584 18.8C17.7984 18.52 17.3518 18.1533 17.0184 17.7C16.6984 17.2333 16.5384 16.7133 16.5384 16.14C16.5384 15.2067 16.9118 14.4667 17.6584 13.92C18.4184 13.36 19.4184 12.9867 20.6584 12.8L23.3984 12.4V11.98C23.3984 11.42 23.2584 10.9867 22.9784 10.68C22.6984 10.3733 22.2184 10.22 21.5384 10.22C21.0584 10.22 20.6651 10.32 20.3584 10.52C20.0651 10.7067 19.8451 10.96 19.6984 11.28C19.5918 11.4533 19.4384 11.54 19.2384 11.54H17.6584C17.5118 11.54 17.3984 11.5 17.3184 11.42C17.2518 11.34 17.2184 11.2333 17.2184 11.1C17.2318 10.8867 17.3184 10.6267 17.4784 10.32C17.6384 10.0133 17.8918 9.72 18.2384 9.44C18.5851 9.14667 19.0318 8.9 19.5784 8.7C20.1251 8.5 20.7851 8.4 21.5584 8.4C22.3984 8.4 23.1051 8.50667 23.6784 8.72C24.2651 8.92 24.7318 9.19333 25.0784 9.54C25.4251 9.88667 25.6784 10.2933 25.8384 10.76C25.9984 11.2267 26.0784 11.72 26.0784 12.24V18.52C26.0784 18.6533 26.0318 18.7667 25.9384 18.86C25.8451 18.9533 25.7318 19 25.5984 19H23.9784C23.8318 19 23.7118 18.9533 23.6184 18.86C23.5384 18.7667 23.4984 18.6533 23.4984 18.52V17.74C23.3251 17.9933 23.0918 18.2333 22.7984 18.46C22.5051 18.6733 22.1451 18.8533 21.7184 19C21.3051 19.1333 20.8118 19.2 20.2384 19.2ZM20.9184 17.3C21.3851 17.3 21.8051 17.2 22.1784 17C22.5651 16.8 22.8651 16.4933 23.0784 16.08C23.3051 15.6533 23.4184 15.12 23.4184 14.48V14.06L21.4184 14.38C20.6318 14.5 20.0451 14.6933 19.6584 14.96C19.2718 15.2267 19.0784 15.5533 19.0784 15.94C19.0784 16.2333 19.1651 16.4867 19.3384 16.7C19.5251 16.9 19.7584 17.0533 20.0384 17.16C20.3184 17.2533 20.6118 17.3 20.9184 17.3ZM29.1242 19C28.9909 19 28.8776 18.9533 28.7842 18.86C28.6909 18.7667 28.6442 18.6533 28.6442 18.52V9.1C28.6442 8.95333 28.6909 8.83333 28.7842 8.74C28.8776 8.64667 28.9909 8.6 29.1242 8.6H30.7442C30.8776 8.6 30.9909 8.64667 31.0842 8.74C31.1909 8.83333 31.2442 8.95333 31.2442 9.1V9.92C31.5509 9.49333 31.9442 9.16667 32.4242 8.94C32.9176 8.71333 33.4842 8.6 34.1242 8.6H34.9442C35.0909 8.6 35.2042 8.64667 35.2842 8.74C35.3776 8.83333 35.4242 8.94667 35.4242 9.08V10.52C35.4242 10.6533 35.3776 10.7667 35.2842 10.86C35.2042 10.9533 35.0909 11 34.9442 11H33.3842C32.7442 11 32.2442 11.18 31.8842 11.54C31.5376 11.9 31.3642 12.3933 31.3642 13.02V18.52C31.3642 18.6533 31.3176 18.7667 31.2242 18.86C31.1309 18.9533 31.0109 19 30.8642 19H29.1242ZM41.3273 19.2C39.8473 19.2 38.674 18.7733 37.8073 17.92C36.9407 17.0667 36.474 15.8533 36.4073 14.28C36.394 14.1467 36.3873 13.98 36.3873 13.78C36.3873 13.5667 36.394 13.4 36.4073 13.28C36.4607 12.28 36.6873 11.4133 37.0873 10.68C37.5007 9.94667 38.0673 9.38667 38.7873 9C39.5073 8.6 40.354 8.4 41.3273 8.4C42.4073 8.4 43.314 8.62667 44.0473 9.08C44.7807 9.52 45.334 10.14 45.7073 10.94C46.0807 11.7267 46.2673 12.64 46.2673 13.68V14.1C46.2673 14.2333 46.2207 14.3467 46.1273 14.44C46.034 14.5333 45.914 14.58 45.7673 14.58H39.1273C39.1273 14.58 39.1273 14.6 39.1273 14.64C39.1273 14.68 39.1273 14.7133 39.1273 14.74C39.1407 15.2067 39.2273 15.64 39.3873 16.04C39.5607 16.4267 39.8073 16.74 40.1273 16.98C40.4607 17.22 40.854 17.34 41.3073 17.34C41.6807 17.34 41.994 17.2867 42.2473 17.18C42.5007 17.06 42.7073 16.9267 42.8673 16.78C43.0273 16.6333 43.1407 16.5133 43.2073 16.42C43.3273 16.26 43.4207 16.1667 43.4873 16.14C43.5673 16.1 43.6807 16.08 43.8273 16.08H45.5473C45.6807 16.08 45.7873 16.12 45.8673 16.2C45.9607 16.28 46.0007 16.38 45.9873 16.5C45.974 16.7133 45.8607 16.9733 45.6473 17.28C45.4473 17.5867 45.154 17.8867 44.7673 18.18C44.3807 18.4733 43.894 18.72 43.3073 18.92C42.734 19.1067 42.074 19.2 41.3273 19.2ZM39.1273 12.9H43.5473V12.84C43.5473 12.32 43.4607 11.8667 43.2873 11.48C43.114 11.0933 42.8607 10.7867 42.5273 10.56C42.194 10.3333 41.794 10.22 41.3273 10.22C40.8607 10.22 40.4607 10.3333 40.1273 10.56C39.794 10.7867 39.5407 11.0933 39.3673 11.48C39.2073 11.8667 39.1273 12.32 39.1273 12.84V12.9ZM48.8903 19C48.757 19 48.6436 18.9533 48.5503 18.86C48.457 18.7667 48.4103 18.6533 48.4103 18.52V5.28C48.4103 5.14667 48.457 5.03333 48.5503 4.94C48.6436 4.84667 48.757 4.8 48.8903 4.8H50.6703C50.817 4.8 50.9303 4.84667 51.0103 4.94C51.1036 5.03333 51.1503 5.14667 51.1503 5.28V9.84C51.5103 9.41333 51.9503 9.06667 52.4703 8.8C52.9903 8.53333 53.6303 8.4 54.3903 8.4C55.2036 8.4 55.9103 8.58667 56.5103 8.96C57.1236 9.32 57.597 9.83333 57.9303 10.5C58.2636 11.1667 58.4303 11.9667 58.4303 12.9V18.52C58.4303 18.6533 58.3836 18.7667 58.2903 18.86C58.197 18.9533 58.0836 19 57.9503 19H56.1503C56.017 19 55.9036 18.9533 55.8103 18.86C55.717 18.7667 55.6703 18.6533 55.6703 18.52V13.02C55.6703 12.2467 55.477 11.64 55.0903 11.2C54.717 10.76 54.1703 10.54 53.4503 10.54C52.757 10.54 52.197 10.76 51.7703 11.2C51.357 11.64 51.1503 12.2467 51.1503 13.02V18.52C51.1503 18.6533 51.1036 18.7667 51.0103 18.86C50.9303 18.9533 50.817 19 50.6703 19H48.8903ZM65.5684 19.2C64.5018 19.2 63.6018 19.0133 62.8684 18.64C62.1484 18.2667 61.5951 17.74 61.2084 17.06C60.8351 16.38 60.6218 15.5867 60.5684 14.68C60.5551 14.44 60.5484 14.1467 60.5484 13.8C60.5484 13.4533 60.5551 13.16 60.5684 12.92C60.6218 12 60.8418 11.2067 61.2284 10.54C61.6284 9.86 62.1884 9.33333 62.9084 8.96C63.6418 8.58667 64.5284 8.4 65.5684 8.4C66.6084 8.4 67.4884 8.58667 68.2084 8.96C68.9418 9.33333 69.5018 9.86 69.8884 10.54C70.2884 11.2067 70.5151 12 70.5684 12.92C70.5818 13.16 70.5884 13.4533 70.5884 13.8C70.5884 14.1467 70.5818 14.44 70.5684 14.68C70.5151 15.5867 70.2951 16.38 69.9084 17.06C69.5351 17.74 68.9818 18.2667 68.2484 18.64C67.5284 19.0133 66.6351 19.2 65.5684 19.2ZM65.5684 17.22C66.2751 17.22 66.8218 17 67.2084 16.56C67.5951 16.1067 67.8084 15.4467 67.8484 14.58C67.8618 14.38 67.8684 14.12 67.8684 13.8C67.8684 13.48 67.8618 13.22 67.8484 13.02C67.8084 12.1667 67.5951 11.5133 67.2084 11.06C66.8218 10.6067 66.2751 10.38 65.5684 10.38C64.8618 10.38 64.3151 10.6067 63.9284 11.06C63.5418 11.5133 63.3284 12.1667 63.2884 13.02C63.2751 13.22 63.2684 13.48 63.2684 13.8C63.2684 14.12 63.2751 14.38 63.2884 14.58C63.3284 15.4467 63.5418 16.1067 63.9284 16.56C64.3151 17 64.8618 17.22 65.5684 17.22ZM76.6644 19.2C75.851 19.2 75.1444 19.02 74.5444 18.66C73.9577 18.2867 73.5044 17.7667 73.1844 17.1C72.8644 16.42 72.7044 15.62 72.7044 14.7V9.08C72.7044 8.94667 72.751 8.83333 72.8444 8.74C72.9377 8.64667 73.051 8.6 73.1844 8.6H74.9444C75.091 8.6 75.2044 8.64667 75.2844 8.74C75.3777 8.83333 75.4244 8.94667 75.4244 9.08V14.58C75.4244 16.2333 76.151 17.06 77.6044 17.06C78.2977 17.06 78.8444 16.84 79.2444 16.4C79.6577 15.96 79.8644 15.3533 79.8644 14.58V9.08C79.8644 8.94667 79.911 8.83333 80.0044 8.74C80.0977 8.64667 80.211 8.6 80.3444 8.6H82.1044C82.2377 8.6 82.351 8.64667 82.4444 8.74C82.5377 8.83333 82.5844 8.94667 82.5844 9.08V18.52C82.5844 18.6533 82.5377 18.7667 82.4444 18.86C82.351 18.9533 82.2377 19 82.1044 19H80.4844C80.3377 19 80.2177 18.9533 80.1244 18.86C80.0444 18.7667 80.0044 18.6533 80.0044 18.52V17.7C79.6444 18.1667 79.1977 18.5333 78.6644 18.8C78.131 19.0667 77.4644 19.2 76.6644 19.2ZM89.1663 19.2C88.3663 19.2 87.6796 19.1067 87.1063 18.92C86.5463 18.7333 86.0863 18.5 85.7263 18.22C85.3663 17.94 85.0996 17.66 84.9263 17.38C84.7529 17.1 84.6596 16.8667 84.6463 16.68C84.6329 16.5333 84.6729 16.42 84.7663 16.34C84.8729 16.2467 84.9863 16.2 85.1063 16.2H86.6863C86.7396 16.2 86.7863 16.2067 86.8263 16.22C86.8663 16.2333 86.9196 16.2733 86.9863 16.34C87.1596 16.4867 87.3396 16.64 87.5263 16.8C87.7263 16.96 87.9596 17.1 88.2263 17.22C88.4929 17.3267 88.8263 17.38 89.2263 17.38C89.7463 17.38 90.1796 17.28 90.5263 17.08C90.8863 16.8667 91.0663 16.5667 91.0663 16.18C91.0663 15.9 90.9863 15.6733 90.8263 15.5C90.6796 15.3267 90.3996 15.1733 89.9863 15.04C89.5729 14.8933 88.9863 14.74 88.2263 14.58C87.4796 14.4067 86.8596 14.1867 86.3663 13.92C85.8729 13.6533 85.5063 13.32 85.2663 12.92C85.0263 12.52 84.9063 12.0533 84.9063 11.52C84.9063 11 85.0596 10.5067 85.3663 10.04C85.6863 9.56 86.1529 9.16667 86.7663 8.86C87.3929 8.55333 88.1663 8.4 89.0863 8.4C89.8063 8.4 90.4329 8.49333 90.9663 8.68C91.4996 8.85333 91.9396 9.07333 92.2863 9.34C92.6463 9.60667 92.9196 9.88 93.1063 10.16C93.2929 10.4267 93.3929 10.66 93.4063 10.86C93.4196 11.0067 93.3796 11.1267 93.2863 11.22C93.1929 11.3 93.0863 11.34 92.9663 11.34H91.4863C91.4196 11.34 91.3596 11.3267 91.3063 11.3C91.2529 11.2733 91.1996 11.24 91.1463 11.2C90.9996 11.0667 90.8396 10.9267 90.6663 10.78C90.4929 10.6333 90.2796 10.5067 90.0263 10.4C89.7863 10.28 89.4663 10.22 89.0663 10.22C88.5596 10.22 88.1729 10.3333 87.9063 10.56C87.6396 10.7733 87.5063 11.0467 87.5063 11.38C87.5063 11.6067 87.5663 11.8067 87.6863 11.98C87.8196 12.14 88.0796 12.2933 88.4663 12.44C88.8529 12.5867 89.4396 12.74 90.2263 12.9C91.1196 13.06 91.8263 13.3 92.3463 13.62C92.8796 13.9267 93.2529 14.2867 93.4663 14.7C93.6929 15.1 93.8063 15.5467 93.8063 16.04C93.8063 16.64 93.6263 17.18 93.2663 17.66C92.9196 18.14 92.3996 18.52 91.7063 18.8C91.0263 19.0667 90.1796 19.2 89.1663 19.2ZM100.351 19.2C98.8708 19.2 97.6974 18.7733 96.8308 17.92C95.9641 17.0667 95.4974 15.8533 95.4308 14.28C95.4174 14.1467 95.4108 13.98 95.4108 13.78C95.4108 13.5667 95.4174 13.4 95.4308 13.28C95.4841 12.28 95.7108 11.4133 96.1108 10.68C96.5241 9.94667 97.0908 9.38667 97.8108 9C98.5308 8.6 99.3774 8.4 100.351 8.4C101.431 8.4 102.337 8.62667 103.071 9.08C103.804 9.52 104.357 10.14 104.731 10.94C105.104 11.7267 105.291 12.64 105.291 13.68V14.1C105.291 14.2333 105.244 14.3467 105.151 14.44C105.057 14.5333 104.937 14.58 104.791 14.58H98.1508C98.1508 14.58 98.1508 14.6 98.1508 14.64C98.1508 14.68 98.1508 14.7133 98.1508 14.74C98.1641 15.2067 98.2508 15.64 98.4108 16.04C98.5841 16.4267 98.8308 16.74 99.1508 16.98C99.4841 17.22 99.8774 17.34 100.331 17.34C100.704 17.34 101.017 17.2867 101.271 17.18C101.524 17.06 101.731 16.9267 101.891 16.78C102.051 16.6333 102.164 16.5133 102.231 16.42C102.351 16.26 102.444 16.1667 102.511 16.14C102.591 16.1 102.704 16.08 102.851 16.08H104.571C104.704 16.08 104.811 16.12 104.891 16.2C104.984 16.28 105.024 16.38 105.011 16.5C104.997 16.7133 104.884 16.9733 104.671 17.28C104.471 17.5867 104.177 17.8867 103.791 18.18C103.404 18.4733 102.917 18.72 102.331 18.92C101.757 19.1067 101.097 19.2 100.351 19.2ZM98.1508 12.9H102.571V12.84C102.571 12.32 102.484 11.8667 102.311 11.48C102.137 11.0933 101.884 10.7867 101.551 10.56C101.217 10.3333 100.817 10.22 100.351 10.22C99.8841 10.22 99.4841 10.3333 99.1508 10.56C98.8174 10.7867 98.5641 11.0933 98.3908 11.48C98.2308 11.8667 98.1508 12.32 98.1508 12.84V12.9ZM116.524 19.2C115.551 19.2 114.697 19.04 113.964 18.72C113.231 18.3867 112.664 17.92 112.264 17.32C111.864 16.7067 111.664 15.9933 111.664 15.18C111.664 14.5933 111.784 14.0733 112.024 13.62C112.264 13.1533 112.591 12.74 113.004 12.38C113.431 12.0067 113.904 11.6667 114.424 11.36C113.851 10.76 113.444 10.2133 113.204 9.72C112.964 9.22667 112.844 8.72667 112.844 8.22C112.844 7.60667 113.004 7.04667 113.324 6.54C113.644 6.02 114.104 5.6 114.704 5.28C115.304 4.96 116.037 4.8 116.904 4.8C117.717 4.8 118.411 4.95333 118.984 5.26C119.571 5.56667 120.024 5.98 120.344 6.5C120.664 7.00667 120.824 7.56667 120.824 8.18C120.824 8.74 120.691 9.24 120.424 9.68C120.171 10.1067 119.824 10.4933 119.384 10.84C118.944 11.1867 118.451 11.5133 117.904 11.82L120.784 14.68C120.944 14.4133 121.124 14.0667 121.324 13.64C121.524 13.2 121.697 12.66 121.844 12.02C121.884 11.7933 122.024 11.68 122.264 11.68H123.724C123.844 11.68 123.937 11.72 124.004 11.8C124.084 11.8667 124.124 11.96 124.124 12.08C124.111 12.36 124.051 12.6667 123.944 13C123.851 13.3333 123.717 13.6867 123.544 14.06C123.384 14.4333 123.197 14.8 122.984 15.16C122.771 15.52 122.544 15.86 122.304 16.18L124.424 18.34C124.531 18.4333 124.584 18.5333 124.584 18.64C124.584 18.7467 124.551 18.8333 124.484 18.9C124.417 18.9667 124.324 19 124.204 19H122.284C122.151 19 122.044 18.98 121.964 18.94C121.884 18.9 121.811 18.8533 121.744 18.8L120.644 17.72C120.111 18.1867 119.504 18.5533 118.824 18.82C118.157 19.0733 117.391 19.2 116.524 19.2ZM116.524 17.14C116.991 17.14 117.444 17.0533 117.884 16.88C118.324 16.7067 118.731 16.4467 119.104 16.1L115.904 12.94C115.437 13.1933 115.031 13.4933 114.684 13.84C114.351 14.1867 114.184 14.6067 114.184 15.1C114.184 15.5267 114.291 15.8933 114.504 16.2C114.731 16.4933 115.024 16.7267 115.384 16.9C115.744 17.06 116.124 17.14 116.524 17.14ZM116.504 10.34C116.864 10.14 117.197 9.94 117.504 9.74C117.811 9.54 118.051 9.32 118.224 9.08C118.411 8.82667 118.504 8.54667 118.504 8.24C118.504 7.78667 118.351 7.42667 118.044 7.16C117.737 6.89333 117.351 6.76 116.884 6.76C116.457 6.76 116.077 6.89333 115.744 7.16C115.424 7.41333 115.264 7.77333 115.264 8.24C115.264 8.44 115.297 8.64 115.364 8.84C115.444 9.04 115.571 9.26 115.744 9.5C115.931 9.72667 116.184 10.0067 116.504 10.34ZM131.63 19C131.497 19 131.383 18.9533 131.29 18.86C131.197 18.7667 131.15 18.6533 131.15 18.52V5.5C131.15 5.35333 131.197 5.23333 131.29 5.14C131.383 5.04667 131.497 5 131.63 5H136.51C137.857 5 138.963 5.20667 139.83 5.62C140.71 6.03333 141.37 6.64667 141.81 7.46C142.263 8.27333 142.497 9.26667 142.51 10.44C142.537 11.0267 142.55 11.5467 142.55 12C142.55 12.4533 142.537 12.9667 142.51 13.54C142.483 14.78 142.257 15.8067 141.83 16.62C141.403 17.42 140.757 18.02 139.89 18.42C139.037 18.8067 137.943 19 136.61 19H131.63ZM133.93 16.7H136.51C137.257 16.7 137.863 16.5933 138.33 16.38C138.797 16.1667 139.137 15.8267 139.35 15.36C139.577 14.88 139.697 14.2533 139.71 13.48C139.723 13.08 139.73 12.7333 139.73 12.44C139.743 12.1333 139.743 11.8333 139.73 11.54C139.73 11.2333 139.723 10.8867 139.71 10.5C139.683 9.40667 139.41 8.6 138.89 8.08C138.37 7.56 137.543 7.3 136.41 7.3H133.93V16.7ZM145.452 19C145.319 19 145.206 18.9533 145.112 18.86C145.019 18.7667 144.972 18.6533 144.972 18.52V9.08C144.972 8.94667 145.019 8.83333 145.112 8.74C145.206 8.64667 145.319 8.6 145.452 8.6H147.112C147.259 8.6 147.372 8.64667 147.452 8.74C147.546 8.83333 147.592 8.94667 147.592 9.08V18.52C147.592 18.6533 147.546 18.7667 147.452 18.86C147.372 18.9533 147.259 19 147.112 19H145.452ZM145.372 6.88C145.226 6.88 145.106 6.84 145.012 6.76C144.932 6.66667 144.892 6.54667 144.892 6.4V4.96C144.892 4.82667 144.932 4.71333 145.012 4.62C145.106 4.52667 145.226 4.48 145.372 4.48H147.192C147.339 4.48 147.459 4.52667 147.552 4.62C147.646 4.71333 147.692 4.82667 147.692 4.96V6.4C147.692 6.54667 147.646 6.66667 147.552 6.76C147.459 6.84 147.339 6.88 147.192 6.88H145.372ZM154.42 19.2C153.62 19.2 152.933 19.1067 152.36 18.92C151.8 18.7333 151.34 18.5 150.98 18.22C150.62 17.94 150.353 17.66 150.18 17.38C150.007 17.1 149.913 16.8667 149.9 16.68C149.887 16.5333 149.927 16.42 150.02 16.34C150.127 16.2467 150.24 16.2 150.36 16.2H151.94C151.993 16.2 152.04 16.2067 152.08 16.22C152.12 16.2333 152.173 16.2733 152.24 16.34C152.413 16.4867 152.593 16.64 152.78 16.8C152.98 16.96 153.213 17.1 153.48 17.22C153.747 17.3267 154.08 17.38 154.48 17.38C155 17.38 155.433 17.28 155.78 17.08C156.14 16.8667 156.32 16.5667 156.32 16.18C156.32 15.9 156.24 15.6733 156.08 15.5C155.933 15.3267 155.653 15.1733 155.24 15.04C154.827 14.8933 154.24 14.74 153.48 14.58C152.733 14.4067 152.113 14.1867 151.62 13.92C151.127 13.6533 150.76 13.32 150.52 12.92C150.28 12.52 150.16 12.0533 150.16 11.52C150.16 11 150.313 10.5067 150.62 10.04C150.94 9.56 151.407 9.16667 152.02 8.86C152.647 8.55333 153.42 8.4 154.34 8.4C155.06 8.4 155.687 8.49333 156.22 8.68C156.753 8.85333 157.193 9.07333 157.54 9.34C157.9 9.60667 158.173 9.88 158.36 10.16C158.547 10.4267 158.647 10.66 158.66 10.86C158.673 11.0067 158.633 11.1267 158.54 11.22C158.447 11.3 158.34 11.34 158.22 11.34H156.74C156.673 11.34 156.613 11.3267 156.56 11.3C156.507 11.2733 156.453 11.24 156.4 11.2C156.253 11.0667 156.093 10.9267 155.92 10.78C155.747 10.6333 155.533 10.5067 155.28 10.4C155.04 10.28 154.72 10.22 154.32 10.22C153.813 10.22 153.427 10.3333 153.16 10.56C152.893 10.7733 152.76 11.0467 152.76 11.38C152.76 11.6067 152.82 11.8067 152.94 11.98C153.073 12.14 153.333 12.2933 153.72 12.44C154.107 12.5867 154.693 12.74 155.48 12.9C156.373 13.06 157.08 13.3 157.6 13.62C158.133 13.9267 158.507 14.2867 158.72 14.7C158.947 15.1 159.06 15.5467 159.06 16.04C159.06 16.64 158.88 17.18 158.52 17.66C158.173 18.14 157.653 18.52 156.96 18.8C156.28 19.0667 155.433 19.2 154.42 19.2ZM165.786 19C164.986 19 164.312 18.86 163.766 18.58C163.219 18.3 162.812 17.8867 162.546 17.34C162.279 16.78 162.146 16.0867 162.146 15.26V10.72H160.566C160.432 10.72 160.319 10.6733 160.226 10.58C160.132 10.4867 160.086 10.3733 160.086 10.24V9.08C160.086 8.94667 160.132 8.83333 160.226 8.74C160.319 8.64667 160.432 8.6 160.566 8.6H162.146V5.28C162.146 5.14667 162.186 5.03333 162.266 4.94C162.359 4.84667 162.479 4.8 162.626 4.8H164.246C164.379 4.8 164.492 4.84667 164.586 4.94C164.679 5.03333 164.726 5.14667 164.726 5.28V8.6H167.226C167.359 8.6 167.472 8.64667 167.566 8.74C167.659 8.83333 167.706 8.94667 167.706 9.08V10.24C167.706 10.3733 167.659 10.4867 167.566 10.58C167.472 10.6733 167.359 10.72 167.226 10.72H164.726V15.06C164.726 15.6067 164.819 16.0333 165.006 16.34C165.206 16.6467 165.546 16.8 166.026 16.8H167.406C167.539 16.8 167.652 16.8467 167.746 16.94C167.839 17.0333 167.886 17.1467 167.886 17.28V18.52C167.886 18.6533 167.839 18.7667 167.746 18.86C167.652 18.9533 167.539 19 167.406 19H165.786ZM170.14 19C170.007 19 169.893 18.9533 169.8 18.86C169.707 18.7667 169.66 18.6533 169.66 18.52V9.1C169.66 8.95333 169.707 8.83333 169.8 8.74C169.893 8.64667 170.007 8.6 170.14 8.6H171.76C171.893 8.6 172.007 8.64667 172.1 8.74C172.207 8.83333 172.26 8.95333 172.26 9.1V9.92C172.567 9.49333 172.96 9.16667 173.44 8.94C173.933 8.71333 174.5 8.6 175.14 8.6H175.96C176.107 8.6 176.22 8.64667 176.3 8.74C176.393 8.83333 176.44 8.94667 176.44 9.08V10.52C176.44 10.6533 176.393 10.7667 176.3 10.86C176.22 10.9533 176.107 11 175.96 11H174.4C173.76 11 173.26 11.18 172.9 11.54C172.553 11.9 172.38 12.3933 172.38 13.02V18.52C172.38 18.6533 172.333 18.7667 172.24 18.86C172.147 18.9533 172.027 19 171.88 19H170.14ZM178.48 19C178.346 19 178.233 18.9533 178.14 18.86C178.046 18.7667 178 18.6533 178 18.52V9.08C178 8.94667 178.046 8.83333 178.14 8.74C178.233 8.64667 178.346 8.6 178.48 8.6H180.14C180.286 8.6 180.4 8.64667 180.48 8.74C180.573 8.83333 180.62 8.94667 180.62 9.08V18.52C180.62 18.6533 180.573 18.7667 180.48 18.86C180.4 18.9533 180.286 19 180.14 19H178.48ZM178.4 6.88C178.253 6.88 178.133 6.84 178.04 6.76C177.96 6.66667 177.92 6.54667 177.92 6.4V4.96C177.92 4.82667 177.96 4.71333 178.04 4.62C178.133 4.52667 178.253 4.48 178.4 4.48H180.22C180.366 4.48 180.486 4.52667 180.58 4.62C180.673 4.71333 180.72 4.82667 180.72 4.96V6.4C180.72 6.54667 180.673 6.66667 180.58 6.76C180.486 6.84 180.366 6.88 180.22 6.88H178.4ZM189.033 19.2C188.26 19.2 187.613 19.0667 187.093 18.8C186.586 18.5333 186.166 18.1933 185.833 17.78V18.52C185.833 18.6533 185.786 18.7667 185.693 18.86C185.613 18.9533 185.5 19 185.353 19H183.773C183.64 19 183.526 18.9533 183.433 18.86C183.34 18.7667 183.293 18.6533 183.293 18.52V5.28C183.293 5.14667 183.34 5.03333 183.433 4.94C183.526 4.84667 183.64 4.8 183.773 4.8H185.473C185.62 4.8 185.733 4.84667 185.813 4.94C185.906 5.03333 185.953 5.14667 185.953 5.28V9.72C186.286 9.33333 186.7 9.02 187.193 8.78C187.7 8.52667 188.313 8.4 189.033 8.4C189.74 8.4 190.353 8.52 190.873 8.76C191.393 9 191.826 9.34 192.173 9.78C192.533 10.2067 192.806 10.7067 192.993 11.28C193.18 11.8533 193.28 12.4733 193.293 13.14C193.306 13.38 193.313 13.6 193.313 13.8C193.313 13.9867 193.306 14.2 193.293 14.44C193.266 15.1333 193.16 15.7733 192.973 16.36C192.786 16.9333 192.52 17.4333 192.173 17.86C191.826 18.2867 191.393 18.62 190.873 18.86C190.353 19.0867 189.74 19.2 189.033 19.2ZM188.293 17.06C188.866 17.06 189.313 16.94 189.633 16.7C189.953 16.4467 190.18 16.12 190.313 15.72C190.46 15.32 190.546 14.88 190.573 14.4C190.6 14 190.6 13.6 190.573 13.2C190.546 12.72 190.46 12.28 190.313 11.88C190.18 11.48 189.953 11.16 189.633 10.92C189.313 10.6667 188.866 10.54 188.293 10.54C187.76 10.54 187.326 10.66 186.993 10.9C186.66 11.14 186.406 11.4467 186.233 11.82C186.06 12.18 185.966 12.56 185.953 12.96C185.94 13.2 185.933 13.46 185.933 13.74C185.933 14.0067 185.94 14.26 185.953 14.5C185.98 14.9133 186.066 15.32 186.213 15.72C186.373 16.1067 186.62 16.4267 186.953 16.68C187.3 16.9333 187.746 17.06 188.293 17.06ZM199.399 19.2C198.585 19.2 197.879 19.02 197.279 18.66C196.692 18.2867 196.239 17.7667 195.919 17.1C195.599 16.42 195.439 15.62 195.439 14.7V9.08C195.439 8.94667 195.485 8.83333 195.579 8.74C195.672 8.64667 195.785 8.6 195.919 8.6H197.679C197.825 8.6 197.939 8.64667 198.019 8.74C198.112 8.83333 198.159 8.94667 198.159 9.08V14.58C198.159 16.2333 198.885 17.06 200.339 17.06C201.032 17.06 201.579 16.84 201.979 16.4C202.392 15.96 202.599 15.3533 202.599 14.58V9.08C202.599 8.94667 202.645 8.83333 202.739 8.74C202.832 8.64667 202.945 8.6 203.079 8.6H204.839C204.972 8.6 205.085 8.64667 205.179 8.74C205.272 8.83333 205.319 8.94667 205.319 9.08V18.52C205.319 18.6533 205.272 18.7667 205.179 18.86C205.085 18.9533 204.972 19 204.839 19H203.219C203.072 19 202.952 18.9533 202.859 18.86C202.779 18.7667 202.739 18.6533 202.739 18.52V17.7C202.379 18.1667 201.932 18.5333 201.399 18.8C200.865 19.0667 200.199 19.2 199.399 19.2ZM212.661 19C211.861 19 211.187 18.86 210.641 18.58C210.094 18.3 209.687 17.8867 209.421 17.34C209.154 16.78 209.021 16.0867 209.021 15.26V10.72H207.441C207.307 10.72 207.194 10.6733 207.101 10.58C207.007 10.4867 206.961 10.3733 206.961 10.24V9.08C206.961 8.94667 207.007 8.83333 207.101 8.74C207.194 8.64667 207.307 8.6 207.441 8.6H209.021V5.28C209.021 5.14667 209.061 5.03333 209.141 4.94C209.234 4.84667 209.354 4.8 209.501 4.8H211.121C211.254 4.8 211.367 4.84667 211.461 4.94C211.554 5.03333 211.601 5.14667 211.601 5.28V8.6H214.101C214.234 8.6 214.347 8.64667 214.441 8.74C214.534 8.83333 214.581 8.94667 214.581 9.08V10.24C214.581 10.3733 214.534 10.4867 214.441 10.58C214.347 10.6733 214.234 10.72 214.101 10.72H211.601V15.06C211.601 15.6067 211.694 16.0333 211.881 16.34C212.081 16.6467 212.421 16.8 212.901 16.8H214.281C214.414 16.8 214.527 16.8467 214.621 16.94C214.714 17.0333 214.761 17.1467 214.761 17.28V18.52C214.761 18.6533 214.714 18.7667 214.621 18.86C214.527 18.9533 214.414 19 214.281 19H212.661ZM217.015 19C216.882 19 216.768 18.9533 216.675 18.86C216.582 18.7667 216.535 18.6533 216.535 18.52V9.08C216.535 8.94667 216.582 8.83333 216.675 8.74C216.768 8.64667 216.882 8.6 217.015 8.6H218.675C218.822 8.6 218.935 8.64667 219.015 8.74C219.108 8.83333 219.155 8.94667 219.155 9.08V18.52C219.155 18.6533 219.108 18.7667 219.015 18.86C218.935 18.9533 218.822 19 218.675 19H217.015ZM216.935 6.88C216.788 6.88 216.668 6.84 216.575 6.76C216.495 6.66667 216.455 6.54667 216.455 6.4V4.96C216.455 4.82667 216.495 4.71333 216.575 4.62C216.668 4.52667 216.788 4.48 216.935 4.48H218.755C218.902 4.48 219.022 4.52667 219.115 4.62C219.208 4.71333 219.255 4.82667 219.255 4.96V6.4C219.255 6.54667 219.208 6.66667 219.115 6.76C219.022 6.84 218.902 6.88 218.755 6.88H216.935ZM226.467 19.2C225.4 19.2 224.5 19.0133 223.767 18.64C223.047 18.2667 222.494 17.74 222.107 17.06C221.734 16.38 221.52 15.5867 221.467 14.68C221.454 14.44 221.447 14.1467 221.447 13.8C221.447 13.4533 221.454 13.16 221.467 12.92C221.52 12 221.74 11.2067 222.127 10.54C222.527 9.86 223.087 9.33333 223.807 8.96C224.54 8.58667 225.427 8.4 226.467 8.4C227.507 8.4 228.387 8.58667 229.107 8.96C229.84 9.33333 230.4 9.86 230.787 10.54C231.187 11.2067 231.414 12 231.467 12.92C231.48 13.16 231.487 13.4533 231.487 13.8C231.487 14.1467 231.48 14.44 231.467 14.68C231.414 15.5867 231.194 16.38 230.807 17.06C230.434 17.74 229.88 18.2667 229.147 18.64C228.427 19.0133 227.534 19.2 226.467 19.2ZM226.467 17.22C227.174 17.22 227.72 17 228.107 16.56C228.494 16.1067 228.707 15.4467 228.747 14.58C228.76 14.38 228.767 14.12 228.767 13.8C228.767 13.48 228.76 13.22 228.747 13.02C228.707 12.1667 228.494 11.5133 228.107 11.06C227.72 10.6067 227.174 10.38 226.467 10.38C225.76 10.38 225.214 10.6067 224.827 11.06C224.44 11.5133 224.227 12.1667 224.187 13.02C224.174 13.22 224.167 13.48 224.167 13.8C224.167 14.12 224.174 14.38 224.187 14.58C224.227 15.4467 224.44 16.1067 224.827 16.56C225.214 17 225.76 17.22 226.467 17.22ZM234.183 19C234.049 19 233.936 18.9533 233.843 18.86C233.749 18.7667 233.703 18.6533 233.703 18.52V9.08C233.703 8.94667 233.749 8.83333 233.843 8.74C233.936 8.64667 234.049 8.6 234.183 8.6H235.823C235.956 8.6 236.069 8.64667 236.163 8.74C236.256 8.83333 236.303 8.94667 236.303 9.08V9.9C236.649 9.47333 237.089 9.12 237.623 8.84C238.169 8.54667 238.843 8.4 239.643 8.4C240.456 8.4 241.163 8.58667 241.763 8.96C242.363 9.32 242.823 9.83333 243.143 10.5C243.476 11.1667 243.643 11.9667 243.643 12.9V18.52C243.643 18.6533 243.596 18.7667 243.503 18.86C243.409 18.9533 243.296 19 243.163 19H241.403C241.269 19 241.156 18.9533 241.063 18.86C240.969 18.7667 240.923 18.6533 240.923 18.52V13.02C240.923 12.2467 240.729 11.64 240.343 11.2C239.969 10.76 239.423 10.54 238.703 10.54C238.009 10.54 237.456 10.76 237.043 11.2C236.629 11.64 236.423 12.2467 236.423 13.02V18.52C236.423 18.6533 236.376 18.7667 236.283 18.86C236.189 18.9533 236.076 19 235.943 19H234.183Z" fill="white"/>
<path d="M7.968 44.8V46H1.376V34.8H2.96V44.8H7.968ZM15.9791 43.44C15.9791 44.0587 16.0165 44.528 16.0911 44.848C16.1765 45.168 16.3205 45.4453 16.5231 45.68C16.3738 45.7973 16.1925 45.8987 15.9791 45.984C15.7658 46.0587 15.5685 46.096 15.3871 46.096C14.8965 46.096 14.6031 45.6587 14.5071 44.784C14.1871 45.2213 13.7765 45.5627 13.2751 45.808C12.7845 46.0427 12.2298 46.16 11.6111 46.16C10.8111 46.16 10.1658 45.952 9.67513 45.536C9.19513 45.12 8.95513 44.5653 8.95513 43.872C8.95513 41.9093 10.7898 40.8373 14.4591 40.656V40.032C14.4591 39.4133 14.3045 38.9547 13.9951 38.656C13.6858 38.3573 13.2058 38.208 12.5551 38.208C12.1285 38.208 11.7285 38.2933 11.3551 38.464C10.9818 38.6347 10.5551 38.9333 10.0751 39.36C10.0005 39.4133 9.93113 39.44 9.86713 39.44C9.72846 39.44 9.57913 39.3707 9.41913 39.232C9.25913 39.0827 9.10979 38.88 8.97113 38.624C9.41913 38.1227 9.97379 37.7333 10.6351 37.456C11.2965 37.1787 11.9845 37.04 12.6991 37.04C13.7231 37.04 14.5231 37.3067 15.0991 37.84C15.6858 38.3627 15.9791 39.0933 15.9791 40.032V43.44ZM11.9471 45.056C12.4378 45.056 12.8965 44.912 13.3231 44.624C13.7498 44.3253 14.1285 43.904 14.4591 43.36V41.648C11.8138 41.7653 10.4911 42.4747 10.4911 43.776C10.4911 44.192 10.6138 44.512 10.8591 44.736C11.1151 44.9493 11.4778 45.056 11.9471 45.056ZM22.2279 37.088C23.0705 37.088 23.4919 37.4027 23.4919 38.032C23.4919 38.288 23.4225 38.496 23.2839 38.656C23.0065 38.5173 22.6439 38.448 22.1959 38.448C21.4919 38.448 20.9372 38.7093 20.5319 39.232C20.1372 39.744 19.9399 40.4533 19.9399 41.36V46H18.4199V37.2H19.9399V38.672C20.1745 38.192 20.4945 37.808 20.8999 37.52C21.3159 37.232 21.7585 37.088 22.2279 37.088ZM32.2133 36.576C32.4586 36.576 32.6346 36.6507 32.7413 36.8C32.8586 36.9387 32.9173 37.1733 32.9173 37.504C32.9173 37.664 32.9119 37.7867 32.9013 37.872C32.1333 37.872 31.5946 37.9733 31.2853 38.176C31.6906 38.6773 31.8933 39.28 31.8933 39.984C31.8933 40.9973 31.5839 41.7653 30.9653 42.288C30.3466 42.8 29.4399 43.056 28.2453 43.056C27.5946 43.056 27.1253 43.104 26.8373 43.2C26.5599 43.2853 26.4213 43.4293 26.4213 43.632C26.4213 43.856 26.5973 44.0213 26.9493 44.128C27.3119 44.224 27.9039 44.272 28.7253 44.272C29.9519 44.272 30.8959 44.48 31.5573 44.896C32.2293 45.312 32.5653 45.8987 32.5653 46.656C32.5653 47.4773 32.2026 48.1173 31.4773 48.576C30.7519 49.0347 29.7279 49.264 28.4053 49.264C27.1359 49.264 26.1599 49.0613 25.4773 48.656C24.8053 48.2613 24.4693 47.6853 24.4693 46.928C24.4693 46.48 24.6239 46.1013 24.9333 45.792C25.2533 45.472 25.7066 45.248 26.2933 45.12V45.072C25.9413 44.9867 25.6586 44.832 25.4453 44.608C25.2426 44.3733 25.1413 44.1013 25.1413 43.792C25.1413 43.5253 25.2479 43.2853 25.4613 43.072C25.6853 42.8587 25.9839 42.704 26.3573 42.608C25.8773 42.352 25.4986 42.016 25.2213 41.6C24.9546 41.1733 24.8213 40.6987 24.8213 40.176C24.8213 39.152 25.1359 38.3733 25.7653 37.84C26.4053 37.3067 27.3333 37.04 28.5493 37.04C29.2533 37.04 29.8773 37.184 30.4213 37.472C30.6773 37.1947 30.9653 36.976 31.2853 36.816C31.6053 36.656 31.9146 36.576 32.2133 36.576ZM28.3413 41.952C29.0453 41.952 29.5519 41.8027 29.8613 41.504C30.1706 41.2053 30.3253 40.72 30.3253 40.048C30.3253 39.376 30.1653 38.8853 29.8453 38.576C29.5359 38.2667 29.0346 38.112 28.3413 38.112C27.6693 38.112 27.1733 38.272 26.8533 38.592C26.5333 38.9013 26.3733 39.3867 26.3733 40.048C26.3733 41.3173 27.0293 41.952 28.3413 41.952ZM28.4693 45.424C26.8479 45.424 26.0373 45.8667 26.0373 46.752C26.0373 47.68 26.8266 48.144 28.4053 48.144C29.2799 48.144 29.9413 48.0267 30.3893 47.792C30.8373 47.5573 31.0613 47.2107 31.0613 46.752C31.0613 46.2933 30.8533 45.9573 30.4373 45.744C30.0319 45.5307 29.3759 45.424 28.4693 45.424ZM41.6206 40.992C41.6206 41.2053 41.6046 41.4827 41.5726 41.824H35.4286C35.4713 42.8373 35.706 43.6267 36.1326 44.192C36.5593 44.7467 37.146 45.024 37.8926 45.024C38.394 45.024 38.81 44.9227 39.1406 44.72C39.482 44.5173 39.8126 44.1653 40.1326 43.664C40.218 43.5467 40.3353 43.488 40.4846 43.488C40.73 43.488 41.05 43.632 41.4446 43.92C41.1673 44.624 40.7193 45.1733 40.1006 45.568C39.482 45.9627 38.746 46.16 37.8926 46.16C37.0713 46.16 36.3566 45.9787 35.7486 45.616C35.1513 45.2427 34.6926 44.7147 34.3726 44.032C34.0526 43.3387 33.8926 42.5227 33.8926 41.584C33.8926 40.1653 34.25 39.056 34.9646 38.256C35.69 37.4453 36.6873 37.04 37.9566 37.04C39.1193 37.04 40.0206 37.3867 40.6606 38.08C41.3006 38.7733 41.6206 39.744 41.6206 40.992ZM40.0686 40.8C40.0686 39.04 39.3486 38.16 37.9086 38.16C37.194 38.16 36.6286 38.384 36.2126 38.832C35.7966 39.28 35.546 39.936 35.4606 40.8H40.0686ZM60.0078 34.8C59.7731 36.592 59.4584 38.3147 59.0638 39.968C58.6691 41.6213 58.0878 43.632 57.3198 46H55.5758C54.9251 43.888 54.4451 42.272 54.1358 41.152C53.8371 40.032 53.5864 38.944 53.3838 37.888C53.1384 39.0613 52.8558 40.2347 52.5358 41.408C52.2158 42.5813 51.7624 44.112 51.1758 46H49.4318C48.6638 43.7813 48.0664 41.824 47.6398 40.128C47.2131 38.432 46.8611 36.656 46.5838 34.8H48.1678C48.3704 36.4107 48.6264 37.8827 48.9358 39.216C49.2451 40.5493 49.7038 42.1973 50.3118 44.16C50.7384 42.8267 51.1171 41.5307 51.4478 40.272C51.7891 39.0133 52.2371 37.1893 52.7918 34.8H53.8958C54.7064 37.9573 55.2504 40.048 55.5278 41.072C55.8158 42.0853 56.1251 43.1093 56.4558 44.144C57.0424 42.192 57.4798 40.5547 57.7678 39.232C58.0558 37.9093 58.3011 36.432 58.5038 34.8H60.0078ZM68.026 43.44C68.026 44.0587 68.0633 44.528 68.138 44.848C68.2233 45.168 68.3673 45.4453 68.57 45.68C68.4207 45.7973 68.2393 45.8987 68.026 45.984C67.8127 46.0587 67.6153 46.096 67.434 46.096C66.9433 46.096 66.65 45.6587 66.554 44.784C66.234 45.2213 65.8233 45.5627 65.322 45.808C64.8313 46.0427 64.2767 46.16 63.658 46.16C62.858 46.16 62.2127 45.952 61.722 45.536C61.242 45.12 61.002 44.5653 61.002 43.872C61.002 41.9093 62.8367 40.8373 66.506 40.656V40.032C66.506 39.4133 66.3513 38.9547 66.042 38.656C65.7327 38.3573 65.2527 38.208 64.602 38.208C64.1753 38.208 63.7753 38.2933 63.402 38.464C63.0287 38.6347 62.602 38.9333 62.122 39.36C62.0473 39.4133 61.978 39.44 61.914 39.44C61.7753 39.44 61.626 39.3707 61.466 39.232C61.306 39.0827 61.1567 38.88 61.018 38.624C61.466 38.1227 62.0207 37.7333 62.682 37.456C63.3433 37.1787 64.0313 37.04 64.746 37.04C65.77 37.04 66.57 37.3067 67.146 37.84C67.7327 38.3627 68.026 39.0933 68.026 40.032V43.44ZM63.994 45.056C64.4847 45.056 64.9433 44.912 65.37 44.624C65.7967 44.3253 66.1753 43.904 66.506 43.36V41.648C63.8607 41.7653 62.538 42.4747 62.538 43.776C62.538 44.192 62.6607 44.512 62.906 44.736C63.162 44.9493 63.5247 45.056 63.994 45.056ZM74.2748 37.088C75.1174 37.088 75.5388 37.4027 75.5388 38.032C75.5388 38.288 75.4694 38.496 75.3308 38.656C75.0534 38.5173 74.6908 38.448 74.2428 38.448C73.5388 38.448 72.9841 38.7093 72.5788 39.232C72.1841 39.744 71.9868 40.4533 71.9868 41.36V46H70.4668V37.2H71.9868V38.672C72.2214 38.192 72.5414 37.808 72.9468 37.52C73.3628 37.232 73.8054 37.088 74.2748 37.088ZM84.3081 40.992C84.3081 41.2053 84.2921 41.4827 84.2601 41.824H78.1161C78.1588 42.8373 78.3935 43.6267 78.8201 44.192C79.2468 44.7467 79.8335 45.024 80.5801 45.024C81.0815 45.024 81.4975 44.9227 81.8281 44.72C82.1695 44.5173 82.5001 44.1653 82.8201 43.664C82.9055 43.5467 83.0228 43.488 83.1721 43.488C83.4175 43.488 83.7375 43.632 84.1321 43.92C83.8548 44.624 83.4068 45.1733 82.7881 45.568C82.1695 45.9627 81.4335 46.16 80.5801 46.16C79.7588 46.16 79.0441 45.9787 78.4361 45.616C77.8388 45.2427 77.3801 44.7147 77.0601 44.032C76.7401 43.3387 76.5801 42.5227 76.5801 41.584C76.5801 40.1653 76.9375 39.056 77.6521 38.256C78.3775 37.4453 79.3748 37.04 80.6441 37.04C81.8068 37.04 82.7081 37.3867 83.3481 38.08C83.9881 38.7733 84.3081 39.744 84.3081 40.992ZM82.7561 40.8C82.7561 39.04 82.0361 38.16 80.5961 38.16C79.8815 38.16 79.3161 38.384 78.9001 38.832C78.4841 39.28 78.2335 39.936 78.1481 40.8H82.7561ZM90.7623 37.04C91.6263 37.04 92.3089 37.296 92.8103 37.808C93.3223 38.3093 93.5783 38.9973 93.5783 39.872V46H92.0743V40.048C92.0743 39.44 91.9303 38.9813 91.6423 38.672C91.3649 38.3627 90.9543 38.208 90.4103 38.208C89.9729 38.208 89.5089 38.3093 89.0182 38.512C88.5383 38.704 88.0849 38.976 87.6583 39.328V46H86.1543V33.344H87.6583V38.176C88.0956 37.824 88.5863 37.5467 89.1302 37.344C89.6743 37.1413 90.2183 37.04 90.7623 37.04ZM99.4164 46.16C98.1577 46.16 97.203 45.7707 96.5524 44.992C95.9017 44.2133 95.5764 43.0773 95.5764 41.584C95.5764 40.0907 95.9017 38.96 96.5524 38.192C97.203 37.424 98.1577 37.04 99.4164 37.04C100.675 37.04 101.63 37.424 102.28 38.192C102.942 38.96 103.272 40.0907 103.272 41.584C103.272 43.0773 102.942 44.2133 102.28 44.992C101.63 45.7707 100.675 46.16 99.4164 46.16ZM99.4164 45.056C100.216 45.056 100.798 44.7787 101.16 44.224C101.534 43.6693 101.72 42.7893 101.72 41.584C101.72 40.3893 101.534 39.52 101.16 38.976C100.798 38.4213 100.216 38.144 99.4164 38.144C98.6164 38.144 98.0297 38.4213 97.6564 38.976C97.2937 39.52 97.1124 40.3893 97.1124 41.584C97.1124 42.7893 97.299 43.6693 97.6724 44.224C98.0457 44.7787 98.627 45.056 99.4164 45.056ZM112.339 44.08C112.339 44.7733 112.419 45.36 112.579 45.84C112.281 46 111.95 46.08 111.587 46.08C111.331 46.08 111.145 45.9947 111.027 45.824C110.921 45.6533 110.857 45.3387 110.835 44.88C110.526 45.2747 110.115 45.5893 109.603 45.824C109.102 46.048 108.553 46.16 107.955 46.16C107.038 46.16 106.345 45.9147 105.875 45.424C105.417 44.9227 105.187 44.1813 105.187 43.2V37.2H106.707V43.088C106.707 43.792 106.83 44.304 107.075 44.624C107.331 44.9333 107.742 45.088 108.307 45.088C108.809 45.088 109.278 44.96 109.715 44.704C110.153 44.4373 110.521 44.064 110.819 43.584V37.2H112.339V44.08ZM117.654 46.16C117.1 46.16 116.566 46.08 116.054 45.92C115.542 45.76 115.126 45.552 114.806 45.296C114.497 45.0293 114.342 44.7413 114.342 44.432C114.342 44.24 114.406 44.0747 114.534 43.936C114.673 43.7867 114.849 43.696 115.062 43.664C115.393 44.144 115.766 44.496 116.182 44.72C116.598 44.944 117.11 45.056 117.718 45.056C118.326 45.056 118.785 44.9227 119.094 44.656C119.404 44.3787 119.558 44.016 119.558 43.568C119.558 43.28 119.462 43.0453 119.27 42.864C119.089 42.672 118.854 42.5227 118.566 42.416C118.289 42.2987 117.91 42.176 117.43 42.048C116.801 41.8773 116.294 41.712 115.91 41.552C115.537 41.3813 115.212 41.136 114.934 40.816C114.668 40.4853 114.534 40.0533 114.534 39.52C114.534 38.9867 114.684 38.5333 114.982 38.16C115.281 37.7867 115.665 37.5093 116.134 37.328C116.604 37.136 117.094 37.04 117.606 37.04C118.321 37.04 118.956 37.184 119.51 37.472C120.076 37.7493 120.513 38.1387 120.822 38.64C120.694 38.8213 120.556 38.9653 120.406 39.072C120.257 39.1787 120.118 39.232 119.99 39.232C119.83 39.232 119.686 39.1573 119.558 39.008C119.046 38.4107 118.39 38.112 117.59 38.112C117.1 38.112 116.71 38.224 116.422 38.448C116.134 38.672 115.99 39.0133 115.99 39.472C115.99 39.76 116.081 39.9947 116.262 40.176C116.444 40.3467 116.673 40.4853 116.95 40.592C117.228 40.688 117.601 40.7947 118.07 40.912C118.71 41.0827 119.222 41.248 119.606 41.408C119.99 41.568 120.321 41.8187 120.598 42.16C120.876 42.5013 121.014 42.9547 121.014 43.52C121.014 44.3413 120.71 44.9867 120.102 45.456C119.505 45.9253 118.689 46.16 117.654 46.16ZM130.089 40.992C130.089 41.2053 130.073 41.4827 130.041 41.824H123.897C123.94 42.8373 124.175 43.6267 124.601 44.192C125.028 44.7467 125.615 45.024 126.361 45.024C126.863 45.024 127.279 44.9227 127.609 44.72C127.951 44.5173 128.281 44.1653 128.601 43.664C128.687 43.5467 128.804 43.488 128.953 43.488C129.199 43.488 129.519 43.632 129.913 43.92C129.636 44.624 129.188 45.1733 128.569 45.568C127.951 45.9627 127.215 46.16 126.361 46.16C125.54 46.16 124.825 45.9787 124.217 45.616C123.62 45.2427 123.161 44.7147 122.841 44.032C122.521 43.3387 122.361 42.5227 122.361 41.584C122.361 40.1653 122.719 39.056 123.433 38.256C124.159 37.4453 125.156 37.04 126.425 37.04C127.588 37.04 128.489 37.3867 129.129 38.08C129.769 38.7733 130.089 39.744 130.089 40.992ZM128.537 40.8C128.537 39.04 127.817 38.16 126.377 38.16C125.663 38.16 125.097 38.384 124.681 38.832C124.265 39.28 124.015 39.936 123.929 40.8H128.537Z" fill="#FFB629"/>
</svg>
