<svg width="208" height="52" viewBox="0 0 208 52" fill="none" xmlns="http://www.w3.org/2000/svg">
<path d="M2.04 19C1.90667 19 1.79333 18.9533 1.7 18.86C1.60667 18.7667 1.56 18.6533 1.56 18.52V5.48C1.56 5.34667 1.60667 5.23333 1.7 5.14C1.79333 5.04667 1.90667 5 2.04 5H3.9C4.03333 5 4.14667 5.04667 4.24 5.14C4.33333 5.23333 4.38 5.34667 4.38 5.48V16.62H10.72C10.8667 16.62 10.9867 16.6667 11.08 16.76C11.1733 16.8533 11.22 16.9733 11.22 17.12V18.52C11.22 18.6533 11.1733 18.7667 11.08 18.86C10.9867 18.9533 10.8667 19 10.72 19H2.04ZM13.4016 19C13.2682 19 13.1549 18.9533 13.0616 18.86C12.9682 18.7667 12.9216 18.6533 12.9216 18.52V9.08C12.9216 8.94667 12.9682 8.83333 13.0616 8.74C13.1549 8.64667 13.2682 8.6 13.4016 8.6H15.0616C15.2082 8.6 15.3216 8.64667 15.4016 8.74C15.4949 8.83333 15.5416 8.94667 15.5416 9.08V18.52C15.5416 18.6533 15.4949 18.7667 15.4016 18.86C15.3216 18.9533 15.2082 19 15.0616 19H13.4016ZM13.3216 6.88C13.1749 6.88 13.0549 6.84 12.9616 6.76C12.8816 6.66667 12.8416 6.54667 12.8416 6.4V4.96C12.8416 4.82667 12.8816 4.71333 12.9616 4.62C13.0549 4.52667 13.1749 4.48 13.3216 4.48H15.1416C15.2882 4.48 15.4082 4.52667 15.5016 4.62C15.5949 4.71333 15.6416 4.82667 15.6416 4.96V6.4C15.6416 6.54667 15.5949 6.66667 15.5016 6.76C15.4082 6.84 15.2882 6.88 15.1416 6.88H13.3216ZM25.615 22.8C25.4817 22.8 25.3683 22.7533 25.275 22.66C25.1817 22.5667 25.135 22.4533 25.135 22.32V17.78C24.815 18.2067 24.4017 18.5533 23.895 18.82C23.3883 19.0733 22.775 19.2 22.055 19.2C21.375 19.2 20.7683 19.08 20.235 18.84C19.715 18.6 19.275 18.2733 18.915 17.86C18.5683 17.4333 18.3017 16.94 18.115 16.38C17.9283 15.8067 17.8217 15.1867 17.795 14.52C17.7817 14.28 17.775 14.04 17.775 13.8C17.775 13.56 17.7817 13.3267 17.795 13.1C17.835 12.4067 17.9417 11.7733 18.115 11.2C18.3017 10.6267 18.5683 10.1333 18.915 9.72C19.275 9.29333 19.715 8.96667 20.235 8.74C20.7683 8.51333 21.375 8.4 22.055 8.4C22.8283 8.4 23.475 8.54 23.995 8.82C24.5283 9.1 24.9483 9.45333 25.255 9.88V9.08C25.255 8.94667 25.3017 8.83333 25.395 8.74C25.4883 8.64667 25.6017 8.6 25.735 8.6H27.335C27.4683 8.6 27.5817 8.64667 27.675 8.74C27.7683 8.83333 27.815 8.94667 27.815 9.08V22.32C27.815 22.4533 27.7683 22.5667 27.675 22.66C27.5817 22.7533 27.4683 22.8 27.335 22.8H25.615ZM22.815 17.06C23.3483 17.06 23.7817 16.94 24.115 16.7C24.4483 16.46 24.695 16.16 24.855 15.8C25.0283 15.4267 25.1217 15.04 25.135 14.64C25.1617 14.3867 25.175 14.1267 25.175 13.86C25.175 13.5933 25.1617 13.34 25.135 13.1C25.1217 12.6867 25.035 12.2867 24.875 11.9C24.715 11.5 24.4683 11.1733 24.135 10.92C23.8017 10.6667 23.3617 10.54 22.815 10.54C22.255 10.54 21.8083 10.6667 21.475 10.92C21.1417 11.16 20.9017 11.48 20.755 11.88C20.6217 12.28 20.5417 12.72 20.515 13.2C20.4883 13.6 20.4883 14 20.515 14.4C20.5417 14.88 20.6217 15.32 20.755 15.72C20.9017 16.12 21.1417 16.4467 21.475 16.7C21.8083 16.94 22.255 17.06 22.815 17.06ZM34.3402 19.2C33.5268 19.2 32.8202 19.02 32.2202 18.66C31.6335 18.2867 31.1802 17.7667 30.8602 17.1C30.5402 16.42 30.3802 15.62 30.3802 14.7V9.08C30.3802 8.94667 30.4268 8.83333 30.5202 8.74C30.6135 8.64667 30.7268 8.6 30.8602 8.6H32.6202C32.7668 8.6 32.8802 8.64667 32.9602 8.74C33.0535 8.83333 33.1002 8.94667 33.1002 9.08V14.58C33.1002 16.2333 33.8268 17.06 35.2802 17.06C35.9735 17.06 36.5202 16.84 36.9202 16.4C37.3335 15.96 37.5402 15.3533 37.5402 14.58V9.08C37.5402 8.94667 37.5868 8.83333 37.6802 8.74C37.7735 8.64667 37.8868 8.6 38.0202 8.6H39.7802C39.9135 8.6 40.0268 8.64667 40.1202 8.74C40.2135 8.83333 40.2602 8.94667 40.2602 9.08V18.52C40.2602 18.6533 40.2135 18.7667 40.1202 18.86C40.0268 18.9533 39.9135 19 39.7802 19H38.1602C38.0135 19 37.8935 18.9533 37.8002 18.86C37.7202 18.7667 37.6802 18.6533 37.6802 18.52V17.7C37.3202 18.1667 36.8735 18.5333 36.3402 18.8C35.8068 19.0667 35.1402 19.2 34.3402 19.2ZM43.382 19C43.2487 19 43.1354 18.9533 43.042 18.86C42.9487 18.7667 42.902 18.6533 42.902 18.52V9.08C42.902 8.94667 42.9487 8.83333 43.042 8.74C43.1354 8.64667 43.2487 8.6 43.382 8.6H45.042C45.1887 8.6 45.302 8.64667 45.382 8.74C45.4754 8.83333 45.522 8.94667 45.522 9.08V18.52C45.522 18.6533 45.4754 18.7667 45.382 18.86C45.302 18.9533 45.1887 19 45.042 19H43.382ZM43.302 6.88C43.1554 6.88 43.0354 6.84 42.942 6.76C42.862 6.66667 42.822 6.54667 42.822 6.4V4.96C42.822 4.82667 42.862 4.71333 42.942 4.62C43.0354 4.52667 43.1554 4.48 43.302 4.48H45.122C45.2687 4.48 45.3887 4.52667 45.482 4.62C45.5754 4.71333 45.622 4.82667 45.622 4.96V6.4C45.622 6.54667 45.5754 6.66667 45.482 6.76C45.3887 6.84 45.2687 6.88 45.122 6.88H43.302ZM52.0355 19.2C51.3421 19.2 50.7288 19.0867 50.1955 18.86C49.6755 18.62 49.2421 18.2867 48.8955 17.86C48.5488 17.4333 48.2821 16.9333 48.0955 16.36C47.9088 15.7733 47.8021 15.1333 47.7755 14.44C47.7621 14.2 47.7555 13.9867 47.7555 13.8C47.7555 13.6 47.7621 13.38 47.7755 13.14C47.8021 12.4733 47.9021 11.8533 48.0755 11.28C48.2621 10.7067 48.5288 10.2067 48.8755 9.78C49.2355 9.34 49.6755 9 50.1955 8.76C50.7288 8.52 51.3421 8.4 52.0355 8.4C52.7555 8.4 53.3621 8.52667 53.8555 8.78C54.3621 9.02 54.7821 9.33333 55.1155 9.72V5.28C55.1155 5.14667 55.1555 5.03333 55.2355 4.94C55.3288 4.84667 55.4488 4.8 55.5955 4.8H57.2955C57.4288 4.8 57.5421 4.84667 57.6355 4.94C57.7288 5.03333 57.7755 5.14667 57.7755 5.28V18.52C57.7755 18.6533 57.7288 18.7667 57.6355 18.86C57.5421 18.9533 57.4288 19 57.2955 19H55.7155C55.5688 19 55.4488 18.9533 55.3555 18.86C55.2755 18.7667 55.2355 18.6533 55.2355 18.52V17.78C54.9021 18.1933 54.4755 18.5333 53.9555 18.8C53.4488 19.0667 52.8088 19.2 52.0355 19.2ZM52.7755 17.06C53.3355 17.06 53.7821 16.9333 54.1155 16.68C54.4488 16.4267 54.6955 16.1067 54.8555 15.72C55.0155 15.32 55.1021 14.9133 55.1155 14.5C55.1288 14.26 55.1355 14.0067 55.1355 13.74C55.1355 13.46 55.1288 13.2 55.1155 12.96C55.1021 12.56 55.0088 12.18 54.8355 11.82C54.6621 11.4467 54.4088 11.14 54.0755 10.9C53.7421 10.66 53.3088 10.54 52.7755 10.54C52.2155 10.54 51.7688 10.6667 51.4355 10.92C51.1155 11.16 50.8821 11.48 50.7355 11.88C50.5888 12.28 50.5021 12.72 50.4755 13.2C50.4621 13.6 50.4621 14 50.4755 14.4C50.5021 14.88 50.5888 15.32 50.7355 15.72C50.8821 16.12 51.1155 16.4467 51.4355 16.7C51.7688 16.94 52.2155 17.06 52.7755 17.06ZM68.3231 19C68.1898 19 68.0765 18.9533 67.9831 18.86C67.8898 18.7667 67.8431 18.6533 67.8431 18.52V7.46H64.1431C64.0098 7.46 63.8965 7.41333 63.8031 7.32C63.7098 7.22667 63.6631 7.11333 63.6631 6.98V5.5C63.6631 5.35333 63.7098 5.23333 63.8031 5.14C63.8965 5.04667 64.0098 5 64.1431 5H74.3431C74.4898 5 74.6098 5.04667 74.7031 5.14C74.7965 5.23333 74.8431 5.35333 74.8431 5.5V6.98C74.8431 7.11333 74.7965 7.22667 74.7031 7.32C74.6098 7.41333 74.4898 7.46 74.3431 7.46H70.6631V18.52C70.6631 18.6533 70.6165 18.7667 70.5231 18.86C70.4298 18.9533 70.3098 19 70.1631 19H68.3231ZM75.7844 19C75.651 19 75.5377 18.9533 75.4444 18.86C75.351 18.7667 75.3044 18.6533 75.3044 18.52V9.1C75.3044 8.95333 75.351 8.83333 75.4444 8.74C75.5377 8.64667 75.651 8.6 75.7844 8.6H77.4044C77.5377 8.6 77.651 8.64667 77.7444 8.74C77.851 8.83333 77.9044 8.95333 77.9044 9.1V9.92C78.211 9.49333 78.6044 9.16667 79.0844 8.94C79.5777 8.71333 80.1444 8.6 80.7844 8.6H81.6044C81.751 8.6 81.8644 8.64667 81.9444 8.74C82.0377 8.83333 82.0844 8.94667 82.0844 9.08V10.52C82.0844 10.6533 82.0377 10.7667 81.9444 10.86C81.8644 10.9533 81.751 11 81.6044 11H80.0444C79.4044 11 78.9044 11.18 78.5444 11.54C78.1977 11.9 78.0244 12.3933 78.0244 13.02V18.52C78.0244 18.6533 77.9777 18.7667 77.8844 18.86C77.791 18.9533 77.671 19 77.5244 19H75.7844ZM86.508 19.2C85.8146 19.2 85.188 19.0667 84.628 18.8C84.068 18.52 83.6213 18.1533 83.288 17.7C82.968 17.2333 82.808 16.7133 82.808 16.14C82.808 15.2067 83.1813 14.4667 83.928 13.92C84.688 13.36 85.688 12.9867 86.928 12.8L89.668 12.4V11.98C89.668 11.42 89.528 10.9867 89.248 10.68C88.968 10.3733 88.488 10.22 87.808 10.22C87.328 10.22 86.9346 10.32 86.628 10.52C86.3346 10.7067 86.1146 10.96 85.968 11.28C85.8613 11.4533 85.708 11.54 85.508 11.54H83.928C83.7813 11.54 83.668 11.5 83.588 11.42C83.5213 11.34 83.488 11.2333 83.488 11.1C83.5013 10.8867 83.588 10.6267 83.748 10.32C83.908 10.0133 84.1613 9.72 84.508 9.44C84.8546 9.14667 85.3013 8.9 85.848 8.7C86.3946 8.5 87.0546 8.4 87.828 8.4C88.668 8.4 89.3746 8.50667 89.948 8.72C90.5346 8.92 91.0013 9.19333 91.348 9.54C91.6946 9.88667 91.948 10.2933 92.108 10.76C92.268 11.2267 92.348 11.72 92.348 12.24V18.52C92.348 18.6533 92.3013 18.7667 92.208 18.86C92.1146 18.9533 92.0013 19 91.868 19H90.248C90.1013 19 89.9813 18.9533 89.888 18.86C89.808 18.7667 89.768 18.6533 89.768 18.52V17.74C89.5946 17.9933 89.3613 18.2333 89.068 18.46C88.7746 18.6733 88.4146 18.8533 87.988 19C87.5746 19.1333 87.0813 19.2 86.508 19.2ZM87.188 17.3C87.6546 17.3 88.0746 17.2 88.448 17C88.8346 16.8 89.1346 16.4933 89.348 16.08C89.5746 15.6533 89.688 15.12 89.688 14.48V14.06L87.688 14.38C86.9013 14.5 86.3146 14.6933 85.928 14.96C85.5413 15.2267 85.348 15.5533 85.348 15.94C85.348 16.2333 85.4346 16.4867 85.608 16.7C85.7946 16.9 86.028 17.0533 86.308 17.16C86.588 17.2533 86.8813 17.3 87.188 17.3ZM95.3938 19C95.2604 19 95.1471 18.9533 95.0538 18.86C94.9604 18.7667 94.9137 18.6533 94.9137 18.52V9.08C94.9137 8.94667 94.9604 8.83333 95.0538 8.74C95.1471 8.64667 95.2604 8.6 95.3938 8.6H97.0338C97.1671 8.6 97.2804 8.64667 97.3738 8.74C97.4671 8.83333 97.5138 8.94667 97.5138 9.08V9.9C97.8604 9.47333 98.3004 9.12 98.8338 8.84C99.3804 8.54667 100.054 8.4 100.854 8.4C101.667 8.4 102.374 8.58667 102.974 8.96C103.574 9.32 104.034 9.83333 104.354 10.5C104.687 11.1667 104.854 11.9667 104.854 12.9V18.52C104.854 18.6533 104.807 18.7667 104.714 18.86C104.62 18.9533 104.507 19 104.374 19H102.614C102.48 19 102.367 18.9533 102.274 18.86C102.18 18.7667 102.134 18.6533 102.134 18.52V13.02C102.134 12.2467 101.94 11.64 101.554 11.2C101.18 10.76 100.634 10.54 99.9138 10.54C99.2204 10.54 98.6671 10.76 98.2538 11.2C97.8404 11.64 97.6338 12.2467 97.6338 13.02V18.52C97.6338 18.6533 97.5871 18.7667 97.4938 18.86C97.4004 18.9533 97.2871 19 97.1538 19H95.3938ZM111.334 19.2C110.534 19.2 109.848 19.1067 109.274 18.92C108.714 18.7333 108.254 18.5 107.894 18.22C107.534 17.94 107.268 17.66 107.094 17.38C106.921 17.1 106.828 16.8667 106.814 16.68C106.801 16.5333 106.841 16.42 106.934 16.34C107.041 16.2467 107.154 16.2 107.274 16.2H108.854C108.908 16.2 108.954 16.2067 108.994 16.22C109.034 16.2333 109.088 16.2733 109.154 16.34C109.328 16.4867 109.508 16.64 109.694 16.8C109.894 16.96 110.128 17.1 110.394 17.22C110.661 17.3267 110.994 17.38 111.394 17.38C111.914 17.38 112.348 17.28 112.694 17.08C113.054 16.8667 113.234 16.5667 113.234 16.18C113.234 15.9 113.154 15.6733 112.994 15.5C112.848 15.3267 112.568 15.1733 112.154 15.04C111.741 14.8933 111.154 14.74 110.394 14.58C109.648 14.4067 109.028 14.1867 108.534 13.92C108.041 13.6533 107.674 13.32 107.434 12.92C107.194 12.52 107.074 12.0533 107.074 11.52C107.074 11 107.228 10.5067 107.534 10.04C107.854 9.56 108.321 9.16667 108.934 8.86C109.561 8.55333 110.334 8.4 111.254 8.4C111.974 8.4 112.601 8.49333 113.134 8.68C113.668 8.85333 114.108 9.07333 114.454 9.34C114.814 9.60667 115.088 9.88 115.274 10.16C115.461 10.4267 115.561 10.66 115.574 10.86C115.588 11.0067 115.548 11.1267 115.454 11.22C115.361 11.3 115.254 11.34 115.134 11.34H113.654C113.588 11.34 113.528 11.3267 113.474 11.3C113.421 11.2733 113.368 11.24 113.314 11.2C113.168 11.0667 113.008 10.9267 112.834 10.78C112.661 10.6333 112.448 10.5067 112.194 10.4C111.954 10.28 111.634 10.22 111.234 10.22C110.728 10.22 110.341 10.3333 110.074 10.56C109.808 10.7733 109.674 11.0467 109.674 11.38C109.674 11.6067 109.734 11.8067 109.854 11.98C109.988 12.14 110.248 12.2933 110.634 12.44C111.021 12.5867 111.608 12.74 112.394 12.9C113.288 13.06 113.994 13.3 114.514 13.62C115.048 13.9267 115.421 14.2867 115.634 14.7C115.861 15.1 115.974 15.5467 115.974 16.04C115.974 16.64 115.794 17.18 115.434 17.66C115.088 18.14 114.568 18.52 113.874 18.8C113.194 19.0667 112.348 19.2 111.334 19.2ZM118.539 22.8C118.405 22.8 118.292 22.7533 118.199 22.66C118.105 22.5667 118.059 22.4533 118.059 22.32V9.08C118.059 8.94667 118.105 8.83333 118.199 8.74C118.292 8.64667 118.405 8.6 118.539 8.6H120.119C120.265 8.6 120.379 8.64667 120.459 8.74C120.552 8.83333 120.599 8.94667 120.599 9.08V9.88C120.919 9.45333 121.339 9.1 121.859 8.82C122.379 8.54 123.025 8.4 123.799 8.4C124.505 8.4 125.119 8.51333 125.639 8.74C126.159 8.96667 126.592 9.29333 126.939 9.72C127.285 10.1333 127.552 10.6267 127.739 11.2C127.925 11.7733 128.032 12.4067 128.059 13.1C128.072 13.3267 128.079 13.56 128.079 13.8C128.079 14.04 128.072 14.28 128.059 14.52C128.045 15.1867 127.945 15.8067 127.759 16.38C127.572 16.94 127.299 17.4333 126.939 17.86C126.592 18.2733 126.159 18.6 125.639 18.84C125.119 19.08 124.505 19.2 123.799 19.2C123.079 19.2 122.465 19.0733 121.959 18.82C121.452 18.5533 121.039 18.2067 120.719 17.78V22.32C120.719 22.4533 120.672 22.5667 120.579 22.66C120.499 22.7533 120.385 22.8 120.239 22.8H118.539ZM123.059 17.06C123.632 17.06 124.079 16.94 124.399 16.7C124.719 16.4467 124.945 16.12 125.079 15.72C125.225 15.32 125.312 14.88 125.339 14.4C125.365 14 125.365 13.6 125.339 13.2C125.312 12.72 125.225 12.28 125.079 11.88C124.945 11.48 124.719 11.16 124.399 10.92C124.079 10.6667 123.632 10.54 123.059 10.54C122.512 10.54 122.065 10.6667 121.719 10.92C121.385 11.1733 121.139 11.5 120.979 11.9C120.832 12.2867 120.745 12.6867 120.719 13.1C120.705 13.34 120.699 13.5933 120.699 13.86C120.699 14.1267 120.705 14.3867 120.719 14.64C120.732 15.04 120.825 15.4267 120.999 15.8C121.172 16.16 121.425 16.46 121.759 16.7C122.092 16.94 122.525 17.06 123.059 17.06ZM134.924 19.2C133.857 19.2 132.957 19.0133 132.224 18.64C131.504 18.2667 130.951 17.74 130.564 17.06C130.191 16.38 129.977 15.5867 129.924 14.68C129.911 14.44 129.904 14.1467 129.904 13.8C129.904 13.4533 129.911 13.16 129.924 12.92C129.977 12 130.197 11.2067 130.584 10.54C130.984 9.86 131.544 9.33333 132.264 8.96C132.997 8.58667 133.884 8.4 134.924 8.4C135.964 8.4 136.844 8.58667 137.564 8.96C138.297 9.33333 138.857 9.86 139.244 10.54C139.644 11.2067 139.871 12 139.924 12.92C139.937 13.16 139.944 13.4533 139.944 13.8C139.944 14.1467 139.937 14.44 139.924 14.68C139.871 15.5867 139.651 16.38 139.264 17.06C138.891 17.74 138.337 18.2667 137.604 18.64C136.884 19.0133 135.991 19.2 134.924 19.2ZM134.924 17.22C135.631 17.22 136.177 17 136.564 16.56C136.951 16.1067 137.164 15.4467 137.204 14.58C137.217 14.38 137.224 14.12 137.224 13.8C137.224 13.48 137.217 13.22 137.204 13.02C137.164 12.1667 136.951 11.5133 136.564 11.06C136.177 10.6067 135.631 10.38 134.924 10.38C134.217 10.38 133.671 10.6067 133.284 11.06C132.897 11.5133 132.684 12.1667 132.644 13.02C132.631 13.22 132.624 13.48 132.624 13.8C132.624 14.12 132.631 14.38 132.644 14.58C132.684 15.4467 132.897 16.1067 133.284 16.56C133.671 17 134.217 17.22 134.924 17.22ZM142.64 19C142.507 19 142.393 18.9533 142.3 18.86C142.207 18.7667 142.16 18.6533 142.16 18.52V9.1C142.16 8.95333 142.207 8.83333 142.3 8.74C142.393 8.64667 142.507 8.6 142.64 8.6H144.26C144.393 8.6 144.507 8.64667 144.6 8.74C144.707 8.83333 144.76 8.95333 144.76 9.1V9.92C145.067 9.49333 145.46 9.16667 145.94 8.94C146.433 8.71333 147 8.6 147.64 8.6H148.46C148.607 8.6 148.72 8.64667 148.8 8.74C148.893 8.83333 148.94 8.94667 148.94 9.08V10.52C148.94 10.6533 148.893 10.7667 148.8 10.86C148.72 10.9533 148.607 11 148.46 11H146.9C146.26 11 145.76 11.18 145.4 11.54C145.053 11.9 144.88 12.3933 144.88 13.02V18.52C144.88 18.6533 144.833 18.7667 144.74 18.86C144.647 18.9533 144.527 19 144.38 19H142.64ZM155.2 19C154.4 19 153.726 18.86 153.18 18.58C152.633 18.3 152.226 17.8867 151.96 17.34C151.693 16.78 151.56 16.0867 151.56 15.26V10.72H149.98C149.846 10.72 149.733 10.6733 149.64 10.58C149.546 10.4867 149.5 10.3733 149.5 10.24V9.08C149.5 8.94667 149.546 8.83333 149.64 8.74C149.733 8.64667 149.846 8.6 149.98 8.6H151.56V5.28C151.56 5.14667 151.6 5.03333 151.68 4.94C151.773 4.84667 151.893 4.8 152.04 4.8H153.66C153.793 4.8 153.906 4.84667 154 4.94C154.093 5.03333 154.14 5.14667 154.14 5.28V8.6H156.64C156.773 8.6 156.886 8.64667 156.98 8.74C157.073 8.83333 157.12 8.94667 157.12 9.08V10.24C157.12 10.3733 157.073 10.4867 156.98 10.58C156.886 10.6733 156.773 10.72 156.64 10.72H154.14V15.06C154.14 15.6067 154.233 16.0333 154.42 16.34C154.62 16.6467 154.96 16.8 155.44 16.8H156.82C156.953 16.8 157.066 16.8467 157.16 16.94C157.253 17.0333 157.3 17.1467 157.3 17.28V18.52C157.3 18.6533 157.253 18.7667 157.16 18.86C157.066 18.9533 156.953 19 156.82 19H155.2ZM162.094 19.2C161.401 19.2 160.774 19.0667 160.214 18.8C159.654 18.52 159.207 18.1533 158.874 17.7C158.554 17.2333 158.394 16.7133 158.394 16.14C158.394 15.2067 158.767 14.4667 159.514 13.92C160.274 13.36 161.274 12.9867 162.514 12.8L165.254 12.4V11.98C165.254 11.42 165.114 10.9867 164.834 10.68C164.554 10.3733 164.074 10.22 163.394 10.22C162.914 10.22 162.521 10.32 162.214 10.52C161.921 10.7067 161.701 10.96 161.554 11.28C161.447 11.4533 161.294 11.54 161.094 11.54H159.514C159.367 11.54 159.254 11.5 159.174 11.42C159.107 11.34 159.074 11.2333 159.074 11.1C159.087 10.8867 159.174 10.6267 159.334 10.32C159.494 10.0133 159.747 9.72 160.094 9.44C160.441 9.14667 160.887 8.9 161.434 8.7C161.981 8.5 162.641 8.4 163.414 8.4C164.254 8.4 164.961 8.50667 165.534 8.72C166.121 8.92 166.587 9.19333 166.934 9.54C167.281 9.88667 167.534 10.2933 167.694 10.76C167.854 11.2267 167.934 11.72 167.934 12.24V18.52C167.934 18.6533 167.887 18.7667 167.794 18.86C167.701 18.9533 167.587 19 167.454 19H165.834C165.687 19 165.567 18.9533 165.474 18.86C165.394 18.7667 165.354 18.6533 165.354 18.52V17.74C165.181 17.9933 164.947 18.2333 164.654 18.46C164.361 18.6733 164.001 18.8533 163.574 19C163.161 19.1333 162.667 19.2 162.094 19.2ZM162.774 17.3C163.241 17.3 163.661 17.2 164.034 17C164.421 16.8 164.721 16.4933 164.934 16.08C165.161 15.6533 165.274 15.12 165.274 14.48V14.06L163.274 14.38C162.487 14.5 161.901 14.6933 161.514 14.96C161.127 15.2267 160.934 15.5533 160.934 15.94C160.934 16.2333 161.021 16.4867 161.194 16.7C161.381 16.9 161.614 17.0533 161.894 17.16C162.174 17.2533 162.467 17.3 162.774 17.3ZM175.102 19C174.302 19 173.629 18.86 173.082 18.58C172.535 18.3 172.129 17.8867 171.862 17.34C171.595 16.78 171.462 16.0867 171.462 15.26V10.72H169.882C169.749 10.72 169.635 10.6733 169.542 10.58C169.449 10.4867 169.402 10.3733 169.402 10.24V9.08C169.402 8.94667 169.449 8.83333 169.542 8.74C169.635 8.64667 169.749 8.6 169.882 8.6H171.462V5.28C171.462 5.14667 171.502 5.03333 171.582 4.94C171.675 4.84667 171.795 4.8 171.942 4.8H173.562C173.695 4.8 173.809 4.84667 173.902 4.94C173.995 5.03333 174.042 5.14667 174.042 5.28V8.6H176.542C176.675 8.6 176.789 8.64667 176.882 8.74C176.975 8.83333 177.022 8.94667 177.022 9.08V10.24C177.022 10.3733 176.975 10.4867 176.882 10.58C176.789 10.6733 176.675 10.72 176.542 10.72H174.042V15.06C174.042 15.6067 174.135 16.0333 174.322 16.34C174.522 16.6467 174.862 16.8 175.342 16.8H176.722C176.855 16.8 176.969 16.8467 177.062 16.94C177.155 17.0333 177.202 17.1467 177.202 17.28V18.52C177.202 18.6533 177.155 18.7667 177.062 18.86C176.969 18.9533 176.855 19 176.722 19H175.102ZM179.456 19C179.323 19 179.21 18.9533 179.116 18.86C179.023 18.7667 178.976 18.6533 178.976 18.52V9.08C178.976 8.94667 179.023 8.83333 179.116 8.74C179.21 8.64667 179.323 8.6 179.456 8.6H181.116C181.263 8.6 181.376 8.64667 181.456 8.74C181.55 8.83333 181.596 8.94667 181.596 9.08V18.52C181.596 18.6533 181.55 18.7667 181.456 18.86C181.376 18.9533 181.263 19 181.116 19H179.456ZM179.376 6.88C179.23 6.88 179.11 6.84 179.016 6.76C178.936 6.66667 178.896 6.54667 178.896 6.4V4.96C178.896 4.82667 178.936 4.71333 179.016 4.62C179.11 4.52667 179.23 4.48 179.376 4.48H181.196C181.343 4.48 181.463 4.52667 181.556 4.62C181.65 4.71333 181.696 4.82667 181.696 4.96V6.4C181.696 6.54667 181.65 6.66667 181.556 6.76C181.463 6.84 181.343 6.88 181.196 6.88H179.376ZM188.908 19.2C187.842 19.2 186.942 19.0133 186.208 18.64C185.488 18.2667 184.935 17.74 184.548 17.06C184.175 16.38 183.962 15.5867 183.908 14.68C183.895 14.44 183.888 14.1467 183.888 13.8C183.888 13.4533 183.895 13.16 183.908 12.92C183.962 12 184.182 11.2067 184.568 10.54C184.968 9.86 185.528 9.33333 186.248 8.96C186.982 8.58667 187.868 8.4 188.908 8.4C189.948 8.4 190.828 8.58667 191.548 8.96C192.282 9.33333 192.842 9.86 193.228 10.54C193.628 11.2067 193.855 12 193.908 12.92C193.922 13.16 193.928 13.4533 193.928 13.8C193.928 14.1467 193.922 14.44 193.908 14.68C193.855 15.5867 193.635 16.38 193.248 17.06C192.875 17.74 192.322 18.2667 191.588 18.64C190.868 19.0133 189.975 19.2 188.908 19.2ZM188.908 17.22C189.615 17.22 190.162 17 190.548 16.56C190.935 16.1067 191.148 15.4467 191.188 14.58C191.202 14.38 191.208 14.12 191.208 13.8C191.208 13.48 191.202 13.22 191.188 13.02C191.148 12.1667 190.935 11.5133 190.548 11.06C190.162 10.6067 189.615 10.38 188.908 10.38C188.202 10.38 187.655 10.6067 187.268 11.06C186.882 11.5133 186.668 12.1667 186.628 13.02C186.615 13.22 186.608 13.48 186.608 13.8C186.608 14.12 186.615 14.38 186.628 14.58C186.668 15.4467 186.882 16.1067 187.268 16.56C187.655 17 188.202 17.22 188.908 17.22ZM196.624 19C196.491 19 196.378 18.9533 196.284 18.86C196.191 18.7667 196.144 18.6533 196.144 18.52V9.08C196.144 8.94667 196.191 8.83333 196.284 8.74C196.378 8.64667 196.491 8.6 196.624 8.6H198.264C198.398 8.6 198.511 8.64667 198.604 8.74C198.698 8.83333 198.744 8.94667 198.744 9.08V9.9C199.091 9.47333 199.531 9.12 200.064 8.84C200.611 8.54667 201.284 8.4 202.084 8.4C202.898 8.4 203.604 8.58667 204.204 8.96C204.804 9.32 205.264 9.83333 205.584 10.5C205.918 11.1667 206.084 11.9667 206.084 12.9V18.52C206.084 18.6533 206.038 18.7667 205.944 18.86C205.851 18.9533 205.738 19 205.604 19H203.844C203.711 19 203.598 18.9533 203.504 18.86C203.411 18.7667 203.364 18.6533 203.364 18.52V13.02C203.364 12.2467 203.171 11.64 202.784 11.2C202.411 10.76 201.864 10.54 201.144 10.54C200.451 10.54 199.898 10.76 199.484 11.2C199.071 11.64 198.864 12.2467 198.864 13.02V18.52C198.864 18.6533 198.818 18.7667 198.724 18.86C198.631 18.9533 198.518 19 198.384 19H196.624Z" fill="white"/>
<path d="M4.704 34.8C6.16533 34.8 7.26933 35.104 8.016 35.712C8.77333 36.32 9.152 37.216 9.152 38.4C9.152 39.6053 8.77333 40.5227 8.016 41.152C7.25867 41.7813 6.15467 42.096 4.704 42.096H2.912V46H1.328V34.8H4.704ZM4.656 40.816C5.66933 40.816 6.40533 40.624 6.864 40.24C7.32267 39.856 7.552 39.2427 7.552 38.4C7.552 37.568 7.32267 36.9653 6.864 36.592C6.40533 36.208 5.66933 36.016 4.656 36.016H2.912V40.816H4.656ZM14.8998 37.088C15.7424 37.088 16.1638 37.4027 16.1638 38.032C16.1638 38.288 16.0944 38.496 15.9558 38.656C15.6784 38.5173 15.3158 38.448 14.8678 38.448C14.1638 38.448 13.6091 38.7093 13.2038 39.232C12.8091 39.744 12.6118 40.4533 12.6118 41.36V46H11.0918V37.2H12.6118V38.672C12.8464 38.192 13.1664 37.808 13.5718 37.52C13.9878 37.232 14.4304 37.088 14.8998 37.088ZM24.9331 40.992C24.9331 41.2053 24.9171 41.4827 24.8851 41.824H18.7411C18.7838 42.8373 19.0185 43.6267 19.4451 44.192C19.8718 44.7467 20.4585 45.024 21.2051 45.024C21.7065 45.024 22.1225 44.9227 22.4531 44.72C22.7945 44.5173 23.1251 44.1653 23.4451 43.664C23.5305 43.5467 23.6478 43.488 23.7971 43.488C24.0425 43.488 24.3625 43.632 24.7571 43.92C24.4798 44.624 24.0318 45.1733 23.4131 45.568C22.7945 45.9627 22.0585 46.16 21.2051 46.16C20.3838 46.16 19.6691 45.9787 19.0611 45.616C18.4638 45.2427 18.0051 44.7147 17.6851 44.032C17.3651 43.3387 17.2051 42.5227 17.2051 41.584C17.2051 40.1653 17.5625 39.056 18.2771 38.256C19.0025 37.4453 19.9998 37.04 21.2691 37.04C22.4318 37.04 23.3331 37.3867 23.9731 38.08C24.6131 38.7733 24.9331 39.744 24.9331 40.992ZM23.3811 40.8C23.3811 39.04 22.6611 38.16 21.2211 38.16C20.5065 38.16 19.9411 38.384 19.5251 38.832C19.1091 39.28 18.8585 39.936 18.7731 40.8H23.3811ZM36.1553 37.04C36.9446 37.04 37.5793 37.2853 38.0593 37.776C38.5393 38.2667 38.7793 38.9173 38.7793 39.728V46H37.2433V39.776C37.2433 39.1893 37.1259 38.768 36.8913 38.512C36.6673 38.2453 36.2939 38.112 35.7713 38.112C34.9819 38.112 34.2513 38.48 33.5793 39.216C33.5899 39.2907 33.5953 39.3973 33.5953 39.536V46H32.0913V39.616C32.0913 39.136 31.9686 38.768 31.7233 38.512C31.4779 38.2453 31.1313 38.112 30.6833 38.112C30.2886 38.112 29.9046 38.2133 29.5312 38.416C29.1686 38.608 28.7953 38.912 28.4113 39.328V46H26.8913V40.24C26.8913 38.6933 26.8273 37.76 26.6993 37.44C26.8806 37.3547 27.0673 37.2853 27.2593 37.232C27.4619 37.168 27.6379 37.136 27.7873 37.136C28.0006 37.136 28.1553 37.2213 28.2513 37.392C28.3473 37.552 28.4006 37.8133 28.4113 38.176C28.8059 37.7813 29.2166 37.4933 29.6432 37.312C30.0699 37.1307 30.5553 37.04 31.0993 37.04C31.5899 37.04 32.0273 37.152 32.4113 37.376C32.7953 37.5893 33.0886 37.888 33.2913 38.272C33.6859 37.8453 34.1126 37.536 34.5712 37.344C35.0406 37.1413 35.5686 37.04 36.1553 37.04ZM41.677 37.2H43.181V46H41.677V37.2ZM42.349 35.584C41.7517 35.584 41.453 35.2853 41.453 34.688V34.512C41.453 33.9147 41.7517 33.616 42.349 33.616H42.509C43.1063 33.616 43.405 33.9147 43.405 34.512V34.688C43.405 35.2853 43.1063 35.584 42.509 35.584H42.349ZM53.2144 44.08C53.2144 44.7733 53.2944 45.36 53.4544 45.84C53.1557 46 52.825 46.08 52.4624 46.08C52.2064 46.08 52.0197 45.9947 51.9024 45.824C51.7957 45.6533 51.7317 45.3387 51.7104 44.88C51.401 45.2747 50.9904 45.5893 50.4784 45.824C49.977 46.048 49.4277 46.16 48.8304 46.16C47.913 46.16 47.2197 45.9147 46.7504 45.424C46.2917 44.9227 46.0624 44.1813 46.0624 43.2V37.2H47.5824V43.088C47.5824 43.792 47.705 44.304 47.9504 44.624C48.2064 44.9333 48.617 45.088 49.1824 45.088C49.6837 45.088 50.153 44.96 50.5904 44.704C51.0277 44.4373 51.3957 44.064 51.6944 43.584V37.2H53.2144V44.08ZM65.2334 37.04C66.0227 37.04 66.6574 37.2853 67.1374 37.776C67.6174 38.2667 67.8574 38.9173 67.8574 39.728V46H66.3214V39.776C66.3214 39.1893 66.204 38.768 65.9694 38.512C65.7454 38.2453 65.372 38.112 64.8494 38.112C64.06 38.112 63.3294 38.48 62.6574 39.216C62.668 39.2907 62.6734 39.3973 62.6734 39.536V46H61.1694V39.616C61.1694 39.136 61.0467 38.768 60.8014 38.512C60.556 38.2453 60.2094 38.112 59.7614 38.112C59.3667 38.112 58.9827 38.2133 58.6094 38.416C58.2467 38.608 57.8734 38.912 57.4894 39.328V46H55.9694V40.24C55.9694 38.6933 55.9054 37.76 55.7774 37.44C55.9587 37.3547 56.1454 37.2853 56.3374 37.232C56.54 37.168 56.716 37.136 56.8654 37.136C57.0787 37.136 57.2334 37.2213 57.3294 37.392C57.4254 37.552 57.4787 37.8133 57.4894 38.176C57.884 37.7813 58.2947 37.4933 58.7214 37.312C59.148 37.1307 59.6334 37.04 60.1774 37.04C60.668 37.04 61.1054 37.152 61.4894 37.376C61.8734 37.5893 62.1667 37.888 62.3694 38.272C62.764 37.8453 63.1907 37.536 63.6494 37.344C64.1187 37.1413 64.6467 37.04 65.2334 37.04ZM81.6321 34.8C81.6748 35.0133 81.6961 35.1787 81.6961 35.296C81.6961 35.5307 81.6428 35.712 81.5361 35.84C81.4295 35.968 81.2748 36.032 81.0721 36.032H78.3841V46H76.8161V36.032H73.5681V34.8H81.6321ZM89.651 43.44C89.651 44.0587 89.6883 44.528 89.763 44.848C89.8483 45.168 89.9923 45.4453 90.195 45.68C90.0457 45.7973 89.8643 45.8987 89.651 45.984C89.4377 46.0587 89.2403 46.096 89.059 46.096C88.5683 46.096 88.275 45.6587 88.179 44.784C87.859 45.2213 87.4483 45.5627 86.947 45.808C86.4563 46.0427 85.9017 46.16 85.283 46.16C84.483 46.16 83.8377 45.952 83.347 45.536C82.867 45.12 82.627 44.5653 82.627 43.872C82.627 41.9093 84.4617 40.8373 88.131 40.656V40.032C88.131 39.4133 87.9763 38.9547 87.667 38.656C87.3577 38.3573 86.8777 38.208 86.227 38.208C85.8003 38.208 85.4003 38.2933 85.027 38.464C84.6537 38.6347 84.227 38.9333 83.747 39.36C83.6723 39.4133 83.603 39.44 83.539 39.44C83.4003 39.44 83.251 39.3707 83.091 39.232C82.931 39.0827 82.7817 38.88 82.643 38.624C83.091 38.1227 83.6457 37.7333 84.307 37.456C84.9683 37.1787 85.6563 37.04 86.371 37.04C87.395 37.04 88.195 37.3067 88.771 37.84C89.3577 38.3627 89.651 39.0933 89.651 40.032V43.44ZM85.619 45.056C86.1097 45.056 86.5683 44.912 86.995 44.624C87.4217 44.3253 87.8003 43.904 88.131 43.36V41.648C85.4857 41.7653 84.163 42.4747 84.163 43.776C84.163 44.192 84.2857 44.512 84.531 44.736C84.787 44.9493 85.1497 45.056 85.619 45.056ZM99.2758 43.904C99.2758 44.5013 99.2864 44.9227 99.3078 45.168C99.3398 45.4133 99.3931 45.6373 99.4678 45.84C99.0838 46 98.6838 46.08 98.2678 46.08C98.0651 46.08 97.9264 45.9627 97.8518 45.728C97.7878 45.4827 97.7558 45.0293 97.7558 44.368V40.08C97.7558 39.3973 97.6331 38.912 97.3878 38.624C97.1531 38.3253 96.7584 38.176 96.2038 38.176C95.3824 38.176 94.5291 38.576 93.6438 39.376V46H92.1238V40.16C92.1238 38.688 92.0598 37.776 91.9318 37.424C92.4331 37.232 92.8278 37.136 93.1158 37.136C93.4678 37.136 93.6438 37.4453 93.6438 38.064V38.224C94.1558 37.808 94.6358 37.5093 95.0838 37.328C95.5424 37.136 96.0278 37.04 96.5398 37.04C97.4571 37.04 98.1398 37.2907 98.5878 37.792C99.0464 38.2827 99.2758 39.0347 99.2758 40.048V43.904ZM109.489 46C109.255 46 108.988 46.0107 108.689 46.032C108.455 46.0533 108.311 46.064 108.257 46.064C108.087 46.064 107.948 46.032 107.841 45.968C107.735 45.904 107.644 45.808 107.569 45.68L105.777 42.72C105.617 42.4533 105.404 42.2613 105.137 42.144C104.881 42.0267 104.535 41.9733 104.097 41.984L103.473 42.016V46H101.953V33.344H103.473V40.816L104.001 40.8C104.289 40.7893 104.513 40.736 104.673 40.64C104.844 40.544 105.004 40.3733 105.153 40.128L107.185 37.2H108.961L106.465 40.576C106.359 40.736 106.263 40.8693 106.177 40.976C106.092 41.072 105.98 41.1573 105.841 41.232C106.375 41.36 106.769 41.6373 107.025 42.064L109.489 46ZM118.214 40.992C118.214 41.2053 118.198 41.4827 118.166 41.824H112.022C112.065 42.8373 112.3 43.6267 112.726 44.192C113.153 44.7467 113.74 45.024 114.486 45.024C114.988 45.024 115.404 44.9227 115.734 44.72C116.076 44.5173 116.406 44.1653 116.726 43.664C116.812 43.5467 116.929 43.488 117.078 43.488C117.324 43.488 117.644 43.632 118.038 43.92C117.761 44.624 117.313 45.1733 116.694 45.568C116.076 45.9627 115.34 46.16 114.486 46.16C113.665 46.16 112.95 45.9787 112.342 45.616C111.745 45.2427 111.286 44.7147 110.966 44.032C110.646 43.3387 110.486 42.5227 110.486 41.584C110.486 40.1653 110.844 39.056 111.558 38.256C112.284 37.4453 113.281 37.04 114.55 37.04C115.713 37.04 116.614 37.3867 117.254 38.08C117.894 38.7733 118.214 39.744 118.214 40.992ZM116.662 40.8C116.662 39.04 115.942 38.16 114.502 38.16C113.788 38.16 113.222 38.384 112.806 38.832C112.39 39.28 112.14 39.936 112.054 40.8H116.662ZM123.869 37.088C124.711 37.088 125.133 37.4027 125.133 38.032C125.133 38.288 125.063 38.496 124.925 38.656C124.647 38.5173 124.285 38.448 123.837 38.448C123.133 38.448 122.578 38.7093 122.173 39.232C121.778 39.744 121.581 40.4533 121.581 41.36V46H120.061V37.2H121.581V38.672C121.815 38.192 122.135 37.808 122.541 37.52C122.957 37.232 123.399 37.088 123.869 37.088ZM129.342 46.16C128.787 46.16 128.254 46.08 127.742 45.92C127.23 45.76 126.814 45.552 126.494 45.296C126.185 45.0293 126.03 44.7413 126.03 44.432C126.03 44.24 126.094 44.0747 126.222 43.936C126.361 43.7867 126.537 43.696 126.75 43.664C127.081 44.144 127.454 44.496 127.87 44.72C128.286 44.944 128.798 45.056 129.406 45.056C130.014 45.056 130.473 44.9227 130.782 44.656C131.091 44.3787 131.246 44.016 131.246 43.568C131.246 43.28 131.15 43.0453 130.958 42.864C130.777 42.672 130.542 42.5227 130.254 42.416C129.977 42.2987 129.598 42.176 129.118 42.048C128.489 41.8773 127.982 41.712 127.598 41.552C127.225 41.3813 126.899 41.136 126.622 40.816C126.355 40.4853 126.222 40.0533 126.222 39.52C126.222 38.9867 126.371 38.5333 126.67 38.16C126.969 37.7867 127.353 37.5093 127.822 37.328C128.291 37.136 128.782 37.04 129.294 37.04C130.009 37.04 130.643 37.184 131.198 37.472C131.763 37.7493 132.201 38.1387 132.51 38.64C132.382 38.8213 132.243 38.9653 132.094 39.072C131.945 39.1787 131.806 39.232 131.678 39.232C131.518 39.232 131.374 39.1573 131.246 39.008C130.734 38.4107 130.078 38.112 129.278 38.112C128.787 38.112 128.398 38.224 128.11 38.448C127.822 38.672 127.678 39.0133 127.678 39.472C127.678 39.76 127.769 39.9947 127.95 40.176C128.131 40.3467 128.361 40.4853 128.638 40.592C128.915 40.688 129.289 40.7947 129.758 40.912C130.398 41.0827 130.91 41.248 131.294 41.408C131.678 41.568 132.009 41.8187 132.286 42.16C132.563 42.5013 132.702 42.9547 132.702 43.52C132.702 44.3413 132.398 44.9867 131.79 45.456C131.193 45.9253 130.377 46.16 129.342 46.16Z" fill="#FFB629"/>
</svg>
