<svg width="208" height="52" viewBox="0 0 208 52" fill="none" xmlns="http://www.w3.org/2000/svg">
<path d="M6.96 19.2C5.72 19.2 4.66667 18.9867 3.8 18.56C2.94667 18.12 2.29333 17.5 1.84 16.7C1.38667 15.8867 1.13333 14.9133 1.08 13.78C1.06667 13.2333 1.06 12.6467 1.06 12.02C1.06 11.3933 1.06667 10.7933 1.08 10.22C1.13333 9.1 1.38667 8.13333 1.84 7.32C2.30667 6.50667 2.96667 5.88667 3.82 5.46C4.68667 5.02 5.73333 4.8 6.96 4.8C7.86667 4.8 8.68 4.92 9.4 5.16C10.12 5.4 10.7333 5.73333 11.24 6.16C11.7467 6.57333 12.14 7.06 12.42 7.62C12.7 8.18 12.8467 8.78667 12.86 9.44C12.8733 9.56 12.8333 9.66 12.74 9.74C12.66 9.82 12.56 9.86 12.44 9.86H10.54C10.3933 9.86 10.2733 9.82667 10.18 9.76C10.0867 9.68 10.02 9.55333 9.98 9.38C9.76667 8.5 9.4 7.9 8.88 7.58C8.36 7.26 7.71333 7.1 6.94 7.1C6.04667 7.1 5.33333 7.35333 4.8 7.86C4.26667 8.35333 3.98 9.17333 3.94 10.32C3.9 11.4133 3.9 12.5333 3.94 13.68C3.98 14.8267 4.26667 15.6533 4.8 16.16C5.33333 16.6533 6.04667 16.9 6.94 16.9C7.71333 16.9 8.36 16.74 8.88 16.42C9.4 16.0867 9.76667 15.4867 9.98 14.62C10.02 14.4333 10.0867 14.3067 10.18 14.24C10.2733 14.1733 10.3933 14.14 10.54 14.14H12.44C12.56 14.14 12.66 14.18 12.74 14.26C12.8333 14.34 12.8733 14.44 12.86 14.56C12.8467 15.2133 12.7 15.82 12.42 16.38C12.14 16.94 11.7467 17.4333 11.24 17.86C10.7333 18.2733 10.12 18.6 9.4 18.84C8.68 19.08 7.86667 19.2 6.96 19.2ZM19.5919 19.2C18.5252 19.2 17.6252 19.0133 16.8919 18.64C16.1719 18.2667 15.6185 17.74 15.2319 17.06C14.8585 16.38 14.6452 15.5867 14.5919 14.68C14.5785 14.44 14.5719 14.1467 14.5719 13.8C14.5719 13.4533 14.5785 13.16 14.5919 12.92C14.6452 12 14.8652 11.2067 15.2519 10.54C15.6519 9.86 16.2119 9.33333 16.9319 8.96C17.6652 8.58667 18.5519 8.4 19.5919 8.4C20.6319 8.4 21.5119 8.58667 22.2319 8.96C22.9652 9.33333 23.5252 9.86 23.9119 10.54C24.3119 11.2067 24.5385 12 24.5919 12.92C24.6052 13.16 24.6119 13.4533 24.6119 13.8C24.6119 14.1467 24.6052 14.44 24.5919 14.68C24.5385 15.5867 24.3185 16.38 23.9319 17.06C23.5585 17.74 23.0052 18.2667 22.2719 18.64C21.5519 19.0133 20.6585 19.2 19.5919 19.2ZM19.5919 17.22C20.2985 17.22 20.8452 17 21.2319 16.56C21.6185 16.1067 21.8319 15.4467 21.8719 14.58C21.8852 14.38 21.8919 14.12 21.8919 13.8C21.8919 13.48 21.8852 13.22 21.8719 13.02C21.8319 12.1667 21.6185 11.5133 21.2319 11.06C20.8452 10.6067 20.2985 10.38 19.5919 10.38C18.8852 10.38 18.3385 10.6067 17.9519 11.06C17.5652 11.5133 17.3519 12.1667 17.3119 13.02C17.2985 13.22 17.2919 13.48 17.2919 13.8C17.2919 14.12 17.2985 14.38 17.3119 14.58C17.3519 15.4467 17.5652 16.1067 17.9519 16.56C18.3385 17 18.8852 17.22 19.5919 17.22ZM27.3078 19C27.1745 19 27.0611 18.9533 26.9678 18.86C26.8745 18.7667 26.8278 18.6533 26.8278 18.52V9.08C26.8278 8.94667 26.8745 8.83333 26.9678 8.74C27.0611 8.64667 27.1745 8.6 27.3078 8.6H28.9478C29.0811 8.6 29.1945 8.64667 29.2878 8.74C29.3811 8.83333 29.4278 8.94667 29.4278 9.08V9.9C29.7745 9.47333 30.2145 9.12 30.7478 8.84C31.2945 8.54667 31.9678 8.4 32.7678 8.4C33.5811 8.4 34.2878 8.58667 34.8878 8.96C35.4878 9.32 35.9478 9.83333 36.2678 10.5C36.6011 11.1667 36.7678 11.9667 36.7678 12.9V18.52C36.7678 18.6533 36.7211 18.7667 36.6278 18.86C36.5345 18.9533 36.4211 19 36.2878 19H34.5278C34.3945 19 34.2811 18.9533 34.1878 18.86C34.0945 18.7667 34.0478 18.6533 34.0478 18.52V13.02C34.0478 12.2467 33.8545 11.64 33.4678 11.2C33.0945 10.76 32.5478 10.54 31.8278 10.54C31.1345 10.54 30.5811 10.76 30.1678 11.2C29.7545 11.64 29.5478 12.2467 29.5478 13.02V18.52C29.5478 18.6533 29.5011 18.7667 29.4078 18.86C29.3145 18.9533 29.2011 19 29.0678 19H27.3078ZM43.8911 19C43.0911 19 42.4178 18.86 41.8711 18.58C41.3244 18.3 40.9178 17.8867 40.6511 17.34C40.3844 16.78 40.2511 16.0867 40.2511 15.26V10.72H38.6711C38.5378 10.72 38.4244 10.6733 38.3311 10.58C38.2378 10.4867 38.1911 10.3733 38.1911 10.24V9.08C38.1911 8.94667 38.2378 8.83333 38.3311 8.74C38.4244 8.64667 38.5378 8.6 38.6711 8.6H40.2511V5.28C40.2511 5.14667 40.2911 5.03333 40.3711 4.94C40.4644 4.84667 40.5844 4.8 40.7311 4.8H42.3511C42.4844 4.8 42.5978 4.84667 42.6911 4.94C42.7844 5.03333 42.8311 5.14667 42.8311 5.28V8.6H45.3311C45.4644 8.6 45.5778 8.64667 45.6711 8.74C45.7644 8.83333 45.8111 8.94667 45.8111 9.08V10.24C45.8111 10.3733 45.7644 10.4867 45.6711 10.58C45.5778 10.6733 45.4644 10.72 45.3311 10.72H42.8311V15.06C42.8311 15.6067 42.9244 16.0333 43.1111 16.34C43.3111 16.6467 43.6511 16.8 44.1311 16.8H45.5111C45.6444 16.8 45.7578 16.8467 45.8511 16.94C45.9444 17.0333 45.9911 17.1467 45.9911 17.28V18.52C45.9911 18.6533 45.9444 18.7667 45.8511 18.86C45.7578 18.9533 45.6444 19 45.5111 19H43.8911ZM48.2453 19C48.112 19 47.9986 18.9533 47.9053 18.86C47.812 18.7667 47.7653 18.6533 47.7653 18.52V9.1C47.7653 8.95333 47.812 8.83333 47.9053 8.74C47.9986 8.64667 48.112 8.6 48.2453 8.6H49.8653C49.9986 8.6 50.112 8.64667 50.2053 8.74C50.312 8.83333 50.3653 8.95333 50.3653 9.1V9.92C50.672 9.49333 51.0653 9.16667 51.5453 8.94C52.0386 8.71333 52.6053 8.6 53.2453 8.6H54.0653C54.212 8.6 54.3253 8.64667 54.4053 8.74C54.4986 8.83333 54.5453 8.94667 54.5453 9.08V10.52C54.5453 10.6533 54.4986 10.7667 54.4053 10.86C54.3253 10.9533 54.212 11 54.0653 11H52.5053C51.8653 11 51.3653 11.18 51.0053 11.54C50.6586 11.9 50.4853 12.3933 50.4853 13.02V18.52C50.4853 18.6533 50.4386 18.7667 50.3453 18.86C50.252 18.9533 50.132 19 49.9853 19H48.2453ZM58.9689 19.2C58.2756 19.2 57.6489 19.0667 57.0889 18.8C56.5289 18.52 56.0822 18.1533 55.7489 17.7C55.4289 17.2333 55.2689 16.7133 55.2689 16.14C55.2689 15.2067 55.6422 14.4667 56.3889 13.92C57.1489 13.36 58.1489 12.9867 59.3889 12.8L62.1289 12.4V11.98C62.1289 11.42 61.9889 10.9867 61.7089 10.68C61.4289 10.3733 60.9489 10.22 60.2689 10.22C59.7889 10.22 59.3956 10.32 59.0889 10.52C58.7956 10.7067 58.5756 10.96 58.4289 11.28C58.3222 11.4533 58.1689 11.54 57.9689 11.54H56.3889C56.2422 11.54 56.1289 11.5 56.0489 11.42C55.9822 11.34 55.9489 11.2333 55.9489 11.1C55.9622 10.8867 56.0489 10.6267 56.2089 10.32C56.3689 10.0133 56.6222 9.72 56.9689 9.44C57.3156 9.14667 57.7622 8.9 58.3089 8.7C58.8556 8.5 59.5156 8.4 60.2889 8.4C61.1289 8.4 61.8356 8.50667 62.4089 8.72C62.9956 8.92 63.4622 9.19333 63.8089 9.54C64.1556 9.88667 64.4089 10.2933 64.5689 10.76C64.7289 11.2267 64.8089 11.72 64.8089 12.24V18.52C64.8089 18.6533 64.7622 18.7667 64.6689 18.86C64.5756 18.9533 64.4622 19 64.3289 19H62.7089C62.5622 19 62.4422 18.9533 62.3489 18.86C62.2689 18.7667 62.2289 18.6533 62.2289 18.52V17.74C62.0556 17.9933 61.8222 18.2333 61.5289 18.46C61.2356 18.6733 60.8756 18.8533 60.4489 19C60.0356 19.1333 59.5422 19.2 58.9689 19.2ZM59.6489 17.3C60.1156 17.3 60.5356 17.2 60.9089 17C61.2956 16.8 61.5956 16.4933 61.8089 16.08C62.0356 15.6533 62.1489 15.12 62.1489 14.48V14.06L60.1489 14.38C59.3622 14.5 58.7756 14.6933 58.3889 14.96C58.0022 15.2267 57.8089 15.5533 57.8089 15.94C57.8089 16.2333 57.8956 16.4867 58.0689 16.7C58.2556 16.9 58.4889 17.0533 58.7689 17.16C59.0489 17.2533 59.3422 17.3 59.6489 17.3ZM71.8747 19.2C70.9147 19.2 70.068 19.02 69.3347 18.66C68.6147 18.3 68.048 17.78 67.6347 17.1C67.2347 16.4067 67.0147 15.5733 66.9747 14.6C66.9614 14.4 66.9547 14.14 66.9547 13.82C66.9547 13.4867 66.9614 13.2133 66.9747 13C67.0147 12.0267 67.2347 11.2 67.6347 10.52C68.048 9.82667 68.6147 9.3 69.3347 8.94C70.068 8.58 70.9147 8.4 71.8747 8.4C72.728 8.4 73.4547 8.52 74.0547 8.76C74.6547 9 75.148 9.3 75.5347 9.66C75.9214 10.02 76.208 10.4 76.3947 10.8C76.5947 11.1867 76.7014 11.54 76.7147 11.86C76.728 12.0067 76.6814 12.1267 76.5747 12.22C76.4814 12.3 76.368 12.34 76.2347 12.34H74.4747C74.3414 12.34 74.2347 12.3067 74.1547 12.24C74.088 12.1733 74.0214 12.0733 73.9547 11.94C73.7547 11.4067 73.488 11.0333 73.1547 10.82C72.8347 10.5933 72.4214 10.48 71.9147 10.48C71.248 10.48 70.7147 10.6933 70.3147 11.12C69.928 11.5333 69.7214 12.1933 69.6947 13.1C69.668 13.6067 69.668 14.0733 69.6947 14.5C69.7214 15.42 69.928 16.0867 70.3147 16.5C70.7147 16.9133 71.248 17.12 71.9147 17.12C72.4347 17.12 72.8547 17.0133 73.1747 16.8C73.4947 16.5733 73.7547 16.1933 73.9547 15.66C74.0214 15.5267 74.088 15.4267 74.1547 15.36C74.2347 15.2933 74.3414 15.26 74.4747 15.26H76.2347C76.368 15.26 76.4814 15.3067 76.5747 15.4C76.6814 15.48 76.728 15.5933 76.7147 15.74C76.7014 15.98 76.6347 16.2533 76.5147 16.56C76.408 16.8533 76.228 17.16 75.9747 17.48C75.7347 17.7867 75.428 18.0733 75.0547 18.34C74.6814 18.5933 74.228 18.8 73.6947 18.96C73.1747 19.12 72.568 19.2 71.8747 19.2ZM83.5005 19C82.7005 19 82.0271 18.86 81.4805 18.58C80.9338 18.3 80.5271 17.8867 80.2605 17.34C79.9938 16.78 79.8605 16.0867 79.8605 15.26V10.72H78.2805C78.1471 10.72 78.0338 10.6733 77.9405 10.58C77.8471 10.4867 77.8005 10.3733 77.8005 10.24V9.08C77.8005 8.94667 77.8471 8.83333 77.9405 8.74C78.0338 8.64667 78.1471 8.6 78.2805 8.6H79.8605V5.28C79.8605 5.14667 79.9005 5.03333 79.9805 4.94C80.0738 4.84667 80.1938 4.8 80.3405 4.8H81.9605C82.0938 4.8 82.2071 4.84667 82.3005 4.94C82.3938 5.03333 82.4405 5.14667 82.4405 5.28V8.6H84.9405C85.0738 8.6 85.1871 8.64667 85.2805 8.74C85.3738 8.83333 85.4205 8.94667 85.4205 9.08V10.24C85.4205 10.3733 85.3738 10.4867 85.2805 10.58C85.1871 10.6733 85.0738 10.72 84.9405 10.72H82.4405V15.06C82.4405 15.6067 82.5338 16.0333 82.7205 16.34C82.9205 16.6467 83.2605 16.8 83.7405 16.8H85.1205C85.2538 16.8 85.3671 16.8467 85.4605 16.94C85.5538 17.0333 85.6005 17.1467 85.6005 17.28V18.52C85.6005 18.6533 85.5538 18.7667 85.4605 18.86C85.3671 18.9533 85.2538 19 85.1205 19H83.5005ZM92.665 19C92.5317 19 92.4183 18.9533 92.325 18.86C92.2317 18.7667 92.185 18.6533 92.185 18.52V5.48C92.185 5.34667 92.2317 5.23333 92.325 5.14C92.4183 5.04667 92.5317 5 92.665 5H94.525C94.6583 5 94.7717 5.04667 94.865 5.14C94.9583 5.23333 95.005 5.34667 95.005 5.48V16.62H101.345C101.492 16.62 101.612 16.6667 101.705 16.76C101.798 16.8533 101.845 16.9733 101.845 17.12V18.52C101.845 18.6533 101.798 18.7667 101.705 18.86C101.612 18.9533 101.492 19 101.345 19H92.665ZM107.99 19.2C106.924 19.2 106.024 19.0133 105.29 18.64C104.57 18.2667 104.017 17.74 103.63 17.06C103.257 16.38 103.044 15.5867 102.99 14.68C102.977 14.44 102.97 14.1467 102.97 13.8C102.97 13.4533 102.977 13.16 102.99 12.92C103.044 12 103.264 11.2067 103.65 10.54C104.05 9.86 104.61 9.33333 105.33 8.96C106.064 8.58667 106.95 8.4 107.99 8.4C109.03 8.4 109.91 8.58667 110.63 8.96C111.364 9.33333 111.924 9.86 112.31 10.54C112.71 11.2067 112.937 12 112.99 12.92C113.004 13.16 113.01 13.4533 113.01 13.8C113.01 14.1467 113.004 14.44 112.99 14.68C112.937 15.5867 112.717 16.38 112.33 17.06C111.957 17.74 111.404 18.2667 110.67 18.64C109.95 19.0133 109.057 19.2 107.99 19.2ZM107.99 17.22C108.697 17.22 109.244 17 109.63 16.56C110.017 16.1067 110.23 15.4467 110.27 14.58C110.284 14.38 110.29 14.12 110.29 13.8C110.29 13.48 110.284 13.22 110.27 13.02C110.23 12.1667 110.017 11.5133 109.63 11.06C109.244 10.6067 108.697 10.38 107.99 10.38C107.284 10.38 106.737 10.6067 106.35 11.06C105.964 11.5133 105.75 12.1667 105.71 13.02C105.697 13.22 105.69 13.48 105.69 13.8C105.69 14.12 105.697 14.38 105.71 14.58C105.75 15.4467 105.964 16.1067 106.35 16.56C106.737 17 107.284 17.22 107.99 17.22ZM119.926 23.4C118.953 23.4 118.153 23.2733 117.526 23.02C116.9 22.7667 116.406 22.46 116.046 22.1C115.686 21.74 115.426 21.38 115.266 21.02C115.12 20.6733 115.04 20.4 115.026 20.2C115.013 20.0667 115.053 19.9467 115.146 19.84C115.253 19.7467 115.373 19.7 115.506 19.7H117.246C117.38 19.7 117.486 19.7267 117.566 19.78C117.646 19.8467 117.713 19.96 117.766 20.12C117.846 20.2933 117.953 20.48 118.086 20.68C118.22 20.88 118.42 21.0467 118.686 21.18C118.966 21.3267 119.346 21.4 119.826 21.4C120.333 21.4 120.76 21.3267 121.106 21.18C121.453 21.0333 121.713 20.7867 121.886 20.44C122.073 20.0933 122.166 19.6133 122.166 19V17.64C121.846 18.0267 121.433 18.34 120.926 18.58C120.433 18.82 119.82 18.94 119.086 18.94C118.366 18.94 117.746 18.8267 117.226 18.6C116.706 18.36 116.273 18.0333 115.926 17.62C115.58 17.1933 115.313 16.6933 115.126 16.12C114.953 15.5467 114.853 14.9133 114.826 14.22C114.813 13.86 114.813 13.5 114.826 13.14C114.853 12.4733 114.953 11.8533 115.126 11.28C115.3 10.7067 115.56 10.2067 115.906 9.78C116.266 9.34 116.706 9 117.226 8.76C117.746 8.52 118.366 8.4 119.086 8.4C119.846 8.4 120.486 8.54667 121.006 8.84C121.526 9.12 121.953 9.47333 122.286 9.9V9.1C122.286 8.95333 122.333 8.83333 122.426 8.74C122.52 8.64667 122.633 8.6 122.766 8.6H124.386C124.52 8.6 124.633 8.64667 124.726 8.74C124.82 8.83333 124.866 8.95333 124.866 9.1L124.886 18.74C124.886 19.7 124.706 20.5267 124.346 21.22C123.986 21.9133 123.44 22.4467 122.706 22.82C121.986 23.2067 121.06 23.4 119.926 23.4ZM119.826 16.82C120.373 16.82 120.813 16.7 121.146 16.46C121.48 16.22 121.726 15.9067 121.886 15.52C122.046 15.1333 122.14 14.74 122.166 14.34C122.18 14.1667 122.186 13.9467 122.186 13.68C122.186 13.4133 122.18 13.2 122.166 13.04C122.14 12.6267 122.046 12.2333 121.886 11.86C121.726 11.4733 121.48 11.16 121.146 10.92C120.813 10.6667 120.373 10.54 119.826 10.54C119.28 10.54 118.84 10.6667 118.506 10.92C118.173 11.16 117.933 11.48 117.786 11.88C117.653 12.28 117.573 12.72 117.546 13.2C117.52 13.52 117.52 13.8467 117.546 14.18C117.573 14.6467 117.653 15.0867 117.786 15.5C117.933 15.9 118.173 16.22 118.506 16.46C118.84 16.7 119.28 16.82 119.826 16.82ZM128.03 19C127.897 19 127.784 18.9533 127.69 18.86C127.597 18.7667 127.55 18.6533 127.55 18.52V9.08C127.55 8.94667 127.597 8.83333 127.69 8.74C127.784 8.64667 127.897 8.6 128.03 8.6H129.69C129.837 8.6 129.95 8.64667 130.03 8.74C130.124 8.83333 130.17 8.94667 130.17 9.08V18.52C130.17 18.6533 130.124 18.7667 130.03 18.86C129.95 18.9533 129.837 19 129.69 19H128.03ZM127.95 6.88C127.804 6.88 127.684 6.84 127.59 6.76C127.51 6.66667 127.47 6.54667 127.47 6.4V4.96C127.47 4.82667 127.51 4.71333 127.59 4.62C127.684 4.52667 127.804 4.48 127.95 4.48H129.77C129.917 4.48 130.037 4.52667 130.13 4.62C130.224 4.71333 130.27 4.82667 130.27 4.96V6.4C130.27 6.54667 130.224 6.66667 130.13 6.76C130.037 6.84 129.917 6.88 129.77 6.88H127.95ZM136.998 19.2C136.198 19.2 135.512 19.1067 134.938 18.92C134.378 18.7333 133.918 18.5 133.558 18.22C133.198 17.94 132.932 17.66 132.758 17.38C132.585 17.1 132.492 16.8667 132.478 16.68C132.465 16.5333 132.505 16.42 132.598 16.34C132.705 16.2467 132.818 16.2 132.938 16.2H134.518C134.572 16.2 134.618 16.2067 134.658 16.22C134.698 16.2333 134.752 16.2733 134.818 16.34C134.992 16.4867 135.172 16.64 135.358 16.8C135.558 16.96 135.792 17.1 136.058 17.22C136.325 17.3267 136.658 17.38 137.058 17.38C137.578 17.38 138.012 17.28 138.358 17.08C138.718 16.8667 138.898 16.5667 138.898 16.18C138.898 15.9 138.818 15.6733 138.658 15.5C138.512 15.3267 138.232 15.1733 137.818 15.04C137.405 14.8933 136.818 14.74 136.058 14.58C135.312 14.4067 134.692 14.1867 134.198 13.92C133.705 13.6533 133.338 13.32 133.098 12.92C132.858 12.52 132.738 12.0533 132.738 11.52C132.738 11 132.892 10.5067 133.198 10.04C133.518 9.56 133.985 9.16667 134.598 8.86C135.225 8.55333 135.998 8.4 136.918 8.4C137.638 8.4 138.265 8.49333 138.798 8.68C139.332 8.85333 139.772 9.07333 140.118 9.34C140.478 9.60667 140.752 9.88 140.938 10.16C141.125 10.4267 141.225 10.66 141.238 10.86C141.252 11.0067 141.212 11.1267 141.118 11.22C141.025 11.3 140.918 11.34 140.798 11.34H139.318C139.252 11.34 139.192 11.3267 139.138 11.3C139.085 11.2733 139.032 11.24 138.978 11.2C138.832 11.0667 138.672 10.9267 138.498 10.78C138.325 10.6333 138.112 10.5067 137.858 10.4C137.618 10.28 137.298 10.22 136.898 10.22C136.392 10.22 136.005 10.3333 135.738 10.56C135.472 10.7733 135.338 11.0467 135.338 11.38C135.338 11.6067 135.398 11.8067 135.518 11.98C135.652 12.14 135.912 12.2933 136.298 12.44C136.685 12.5867 137.272 12.74 138.058 12.9C138.952 13.06 139.658 13.3 140.178 13.62C140.712 13.9267 141.085 14.2867 141.298 14.7C141.525 15.1 141.638 15.5467 141.638 16.04C141.638 16.64 141.458 17.18 141.098 17.66C140.752 18.14 140.232 18.52 139.538 18.8C138.858 19.0667 138.012 19.2 136.998 19.2ZM148.364 19C147.564 19 146.89 18.86 146.344 18.58C145.797 18.3 145.39 17.8867 145.124 17.34C144.857 16.78 144.724 16.0867 144.724 15.26V10.72H143.144C143.01 10.72 142.897 10.6733 142.804 10.58C142.71 10.4867 142.664 10.3733 142.664 10.24V9.08C142.664 8.94667 142.71 8.83333 142.804 8.74C142.897 8.64667 143.01 8.6 143.144 8.6H144.724V5.28C144.724 5.14667 144.764 5.03333 144.844 4.94C144.937 4.84667 145.057 4.8 145.204 4.8H146.824C146.957 4.8 147.07 4.84667 147.164 4.94C147.257 5.03333 147.304 5.14667 147.304 5.28V8.6H149.804C149.937 8.6 150.05 8.64667 150.144 8.74C150.237 8.83333 150.284 8.94667 150.284 9.08V10.24C150.284 10.3733 150.237 10.4867 150.144 10.58C150.05 10.6733 149.937 10.72 149.804 10.72H147.304V15.06C147.304 15.6067 147.397 16.0333 147.584 16.34C147.784 16.6467 148.124 16.8 148.604 16.8H149.984C150.117 16.8 150.23 16.8467 150.324 16.94C150.417 17.0333 150.464 17.1467 150.464 17.28V18.52C150.464 18.6533 150.417 18.7667 150.324 18.86C150.23 18.9533 150.117 19 149.984 19H148.364ZM152.718 19C152.585 19 152.471 18.9533 152.378 18.86C152.285 18.7667 152.238 18.6533 152.238 18.52V9.08C152.238 8.94667 152.285 8.83333 152.378 8.74C152.471 8.64667 152.585 8.6 152.718 8.6H154.378C154.525 8.6 154.638 8.64667 154.718 8.74C154.811 8.83333 154.858 8.94667 154.858 9.08V18.52C154.858 18.6533 154.811 18.7667 154.718 18.86C154.638 18.9533 154.525 19 154.378 19H152.718ZM152.638 6.88C152.491 6.88 152.371 6.84 152.278 6.76C152.198 6.66667 152.158 6.54667 152.158 6.4V4.96C152.158 4.82667 152.198 4.71333 152.278 4.62C152.371 4.52667 152.491 4.48 152.638 4.48H154.458C154.605 4.48 154.725 4.52667 154.818 4.62C154.911 4.71333 154.958 4.82667 154.958 4.96V6.4C154.958 6.54667 154.911 6.66667 154.818 6.76C154.725 6.84 154.605 6.88 154.458 6.88H152.638ZM162.07 19.2C161.11 19.2 160.263 19.02 159.53 18.66C158.81 18.3 158.243 17.78 157.83 17.1C157.43 16.4067 157.21 15.5733 157.17 14.6C157.157 14.4 157.15 14.14 157.15 13.82C157.15 13.4867 157.157 13.2133 157.17 13C157.21 12.0267 157.43 11.2 157.83 10.52C158.243 9.82667 158.81 9.3 159.53 8.94C160.263 8.58 161.11 8.4 162.07 8.4C162.923 8.4 163.65 8.52 164.25 8.76C164.85 9 165.343 9.3 165.73 9.66C166.117 10.02 166.403 10.4 166.59 10.8C166.79 11.1867 166.897 11.54 166.91 11.86C166.923 12.0067 166.877 12.1267 166.77 12.22C166.677 12.3 166.563 12.34 166.43 12.34H164.67C164.537 12.34 164.43 12.3067 164.35 12.24C164.283 12.1733 164.217 12.0733 164.15 11.94C163.95 11.4067 163.683 11.0333 163.35 10.82C163.03 10.5933 162.617 10.48 162.11 10.48C161.443 10.48 160.91 10.6933 160.51 11.12C160.123 11.5333 159.917 12.1933 159.89 13.1C159.863 13.6067 159.863 14.0733 159.89 14.5C159.917 15.42 160.123 16.0867 160.51 16.5C160.91 16.9133 161.443 17.12 162.11 17.12C162.63 17.12 163.05 17.0133 163.37 16.8C163.69 16.5733 163.95 16.1933 164.15 15.66C164.217 15.5267 164.283 15.4267 164.35 15.36C164.43 15.2933 164.537 15.26 164.67 15.26H166.43C166.563 15.26 166.677 15.3067 166.77 15.4C166.877 15.48 166.923 15.5933 166.91 15.74C166.897 15.98 166.83 16.2533 166.71 16.56C166.603 16.8533 166.423 17.16 166.17 17.48C165.93 17.7867 165.623 18.0733 165.25 18.34C164.877 18.5933 164.423 18.8 163.89 18.96C163.37 19.12 162.763 19.2 162.07 19.2ZM172.936 19.2C172.136 19.2 171.449 19.1067 170.876 18.92C170.316 18.7333 169.856 18.5 169.496 18.22C169.136 17.94 168.869 17.66 168.696 17.38C168.522 17.1 168.429 16.8667 168.416 16.68C168.402 16.5333 168.442 16.42 168.536 16.34C168.642 16.2467 168.756 16.2 168.876 16.2H170.456C170.509 16.2 170.556 16.2067 170.596 16.22C170.636 16.2333 170.689 16.2733 170.756 16.34C170.929 16.4867 171.109 16.64 171.296 16.8C171.496 16.96 171.729 17.1 171.996 17.22C172.262 17.3267 172.596 17.38 172.996 17.38C173.516 17.38 173.949 17.28 174.296 17.08C174.656 16.8667 174.836 16.5667 174.836 16.18C174.836 15.9 174.756 15.6733 174.596 15.5C174.449 15.3267 174.169 15.1733 173.756 15.04C173.342 14.8933 172.756 14.74 171.996 14.58C171.249 14.4067 170.629 14.1867 170.136 13.92C169.642 13.6533 169.276 13.32 169.036 12.92C168.796 12.52 168.676 12.0533 168.676 11.52C168.676 11 168.829 10.5067 169.136 10.04C169.456 9.56 169.922 9.16667 170.536 8.86C171.162 8.55333 171.936 8.4 172.856 8.4C173.576 8.4 174.202 8.49333 174.736 8.68C175.269 8.85333 175.709 9.07333 176.056 9.34C176.416 9.60667 176.689 9.88 176.876 10.16C177.062 10.4267 177.162 10.66 177.176 10.86C177.189 11.0067 177.149 11.1267 177.056 11.22C176.962 11.3 176.856 11.34 176.736 11.34H175.256C175.189 11.34 175.129 11.3267 175.076 11.3C175.022 11.2733 174.969 11.24 174.916 11.2C174.769 11.0667 174.609 10.9267 174.436 10.78C174.262 10.6333 174.049 10.5067 173.796 10.4C173.556 10.28 173.236 10.22 172.836 10.22C172.329 10.22 171.942 10.3333 171.676 10.56C171.409 10.7733 171.276 11.0467 171.276 11.38C171.276 11.6067 171.336 11.8067 171.456 11.98C171.589 12.14 171.849 12.2933 172.236 12.44C172.622 12.5867 173.209 12.74 173.996 12.9C174.889 13.06 175.596 13.3 176.116 13.62C176.649 13.9267 177.022 14.2867 177.236 14.7C177.462 15.1 177.576 15.5467 177.576 16.04C177.576 16.64 177.396 17.18 177.036 17.66C176.689 18.14 176.169 18.52 175.476 18.8C174.796 19.0667 173.949 19.2 172.936 19.2Z" fill="white"/>
<path d="M9.52 45.904C9.41333 45.968 9.27467 46.0213 9.104 46.064C8.93333 46.1067 8.76267 46.128 8.592 46.128C8.34667 46.128 8.14933 46.0853 8 46C7.86133 45.9253 7.73867 45.792 7.632 45.6L6.032 42.624C5.79733 42.1867 5.52533 41.8827 5.216 41.712C4.90667 41.5413 4.47467 41.456 3.92 41.456H2.912V46H1.328V34.8H5.008C6.352 34.8 7.39733 35.0933 8.144 35.68C8.89067 36.2667 9.264 37.0827 9.264 38.128C9.264 38.8853 9.03467 39.5413 8.576 40.096C8.11733 40.64 7.49867 41.0187 6.72 41.232C7.02933 41.52 7.28 41.8453 7.472 42.208L9.52 45.904ZM4.912 40.224C5.79733 40.224 6.46933 40.048 6.928 39.696C7.39733 39.3333 7.632 38.8107 7.632 38.128C7.632 36.7307 6.74133 36.032 4.96 36.032H2.912V40.224H4.912ZM14.557 46.16C13.2983 46.16 12.3437 45.7707 11.693 44.992C11.0423 44.2133 10.717 43.0773 10.717 41.584C10.717 40.0907 11.0423 38.96 11.693 38.192C12.3437 37.424 13.2983 37.04 14.557 37.04C15.8157 37.04 16.7703 37.424 17.421 38.192C18.0823 38.96 18.413 40.0907 18.413 41.584C18.413 43.0773 18.0823 44.2133 17.421 44.992C16.7703 45.7707 15.8157 46.16 14.557 46.16ZM14.557 45.056C15.357 45.056 15.9383 44.7787 16.301 44.224C16.6743 43.6693 16.861 42.7893 16.861 41.584C16.861 40.3893 16.6743 39.52 16.301 38.976C15.9383 38.4213 15.357 38.144 14.557 38.144C13.757 38.144 13.1703 38.4213 12.797 38.976C12.4343 39.52 12.253 40.3893 12.253 41.584C12.253 42.7893 12.4397 43.6693 12.813 44.224C13.1863 44.7787 13.7677 45.056 14.557 45.056ZM26.776 43.44C26.776 44.0587 26.8133 44.528 26.888 44.848C26.9733 45.168 27.1173 45.4453 27.32 45.68C27.1707 45.7973 26.9893 45.8987 26.776 45.984C26.5627 46.0587 26.3653 46.096 26.184 46.096C25.6933 46.096 25.4 45.6587 25.304 44.784C24.984 45.2213 24.5733 45.5627 24.072 45.808C23.5813 46.0427 23.0267 46.16 22.408 46.16C21.608 46.16 20.9627 45.952 20.472 45.536C19.992 45.12 19.752 44.5653 19.752 43.872C19.752 41.9093 21.5867 40.8373 25.256 40.656V40.032C25.256 39.4133 25.1013 38.9547 24.792 38.656C24.4827 38.3573 24.0027 38.208 23.352 38.208C22.9253 38.208 22.5253 38.2933 22.152 38.464C21.7787 38.6347 21.352 38.9333 20.872 39.36C20.7973 39.4133 20.728 39.44 20.664 39.44C20.5253 39.44 20.376 39.3707 20.216 39.232C20.056 39.0827 19.9067 38.88 19.768 38.624C20.216 38.1227 20.7707 37.7333 21.432 37.456C22.0933 37.1787 22.7813 37.04 23.496 37.04C24.52 37.04 25.32 37.3067 25.896 37.84C26.4827 38.3627 26.776 39.0933 26.776 40.032V43.44ZM22.744 45.056C23.2347 45.056 23.6933 44.912 24.12 44.624C24.5467 44.3253 24.9253 43.904 25.256 43.36V41.648C22.6107 41.7653 21.288 42.4747 21.288 43.776C21.288 44.192 21.4107 44.512 21.656 44.736C21.912 44.9493 22.2747 45.056 22.744 45.056ZM36.2408 43.536C36.2408 44.56 36.3474 45.3067 36.5608 45.776C36.1768 45.9787 35.8034 46.08 35.4408 46.08C35.0888 46.08 34.8648 45.7173 34.7688 44.992C34.4488 45.3973 34.0861 45.696 33.6808 45.888C33.2754 46.0693 32.7901 46.16 32.2248 46.16C31.0834 46.16 30.1874 45.76 29.5368 44.96C28.8861 44.16 28.5608 43.0507 28.5608 41.632C28.5608 40.2027 28.9181 39.0827 29.6328 38.272C30.3474 37.4507 31.3341 37.04 32.5928 37.04C32.9554 37.04 33.3341 37.104 33.7288 37.232C34.1341 37.3493 34.4648 37.4987 34.7208 37.68V33.344H36.2408V43.536ZM32.4168 45.056C32.9074 45.056 33.3394 44.9493 33.7128 44.736C34.0861 44.512 34.4221 44.1707 34.7208 43.712V38.912C34.4968 38.6773 34.1928 38.4853 33.8088 38.336C33.4354 38.1867 33.0568 38.112 32.6727 38.112C31.8408 38.112 31.2008 38.416 30.7528 39.024C30.3154 39.6213 30.0968 40.4907 30.0968 41.632C30.0968 42.7627 30.2941 43.616 30.6888 44.192C31.0834 44.768 31.6594 45.056 32.4168 45.056ZM49.9603 34.8C50.0029 35.0133 50.0243 35.1787 50.0243 35.296C50.0243 35.5307 49.9709 35.712 49.8643 35.84C49.7576 35.968 49.6029 36.032 49.4003 36.032H46.7123V46H45.1443V36.032H41.8963V34.8H49.9603ZM55.2591 37.088C56.1018 37.088 56.5231 37.4027 56.5231 38.032C56.5231 38.288 56.4538 38.496 56.3151 38.656C56.0378 38.5173 55.6751 38.448 55.2271 38.448C54.5231 38.448 53.9685 38.7093 53.5631 39.232C53.1685 39.744 52.9711 40.4533 52.9711 41.36V46H51.4511V37.2H52.9711V38.672C53.2058 38.192 53.5258 37.808 53.9311 37.52C54.3471 37.232 54.7898 37.088 55.2591 37.088ZM64.5885 43.44C64.5885 44.0587 64.6258 44.528 64.7005 44.848C64.7858 45.168 64.9298 45.4453 65.1325 45.68C64.9832 45.7973 64.8018 45.8987 64.5885 45.984C64.3752 46.0587 64.1778 46.096 63.9965 46.096C63.5058 46.096 63.2125 45.6587 63.1165 44.784C62.7965 45.2213 62.3858 45.5627 61.8845 45.808C61.3938 46.0427 60.8392 46.16 60.2205 46.16C59.4205 46.16 58.7752 45.952 58.2845 45.536C57.8045 45.12 57.5645 44.5653 57.5645 43.872C57.5645 41.9093 59.3992 40.8373 63.0685 40.656V40.032C63.0685 39.4133 62.9138 38.9547 62.6045 38.656C62.2952 38.3573 61.8152 38.208 61.1645 38.208C60.7378 38.208 60.3378 38.2933 59.9645 38.464C59.5912 38.6347 59.1645 38.9333 58.6845 39.36C58.6098 39.4133 58.5405 39.44 58.4765 39.44C58.3378 39.44 58.1885 39.3707 58.0285 39.232C57.8685 39.0827 57.7192 38.88 57.5805 38.624C58.0285 38.1227 58.5832 37.7333 59.2445 37.456C59.9058 37.1787 60.5938 37.04 61.3085 37.04C62.3325 37.04 63.1325 37.3067 63.7085 37.84C64.2952 38.3627 64.5885 39.0933 64.5885 40.032V43.44ZM60.5565 45.056C61.0472 45.056 61.5058 44.912 61.9325 44.624C62.3592 44.3253 62.7378 43.904 63.0685 43.36V41.648C60.4232 41.7653 59.1005 42.4747 59.1005 43.776C59.1005 44.192 59.2232 44.512 59.4685 44.736C59.7245 44.9493 60.0872 45.056 60.5565 45.056ZM74.2133 43.904C74.2133 44.5013 74.2239 44.9227 74.2453 45.168C74.2773 45.4133 74.3306 45.6373 74.4053 45.84C74.0213 46 73.6213 46.08 73.2053 46.08C73.0026 46.08 72.8639 45.9627 72.7893 45.728C72.7253 45.4827 72.6933 45.0293 72.6933 44.368V40.08C72.6933 39.3973 72.5706 38.912 72.3253 38.624C72.0906 38.3253 71.6959 38.176 71.1413 38.176C70.3199 38.176 69.4666 38.576 68.5813 39.376V46H67.0613V40.16C67.0613 38.688 66.9973 37.776 66.8693 37.424C67.3706 37.232 67.7653 37.136 68.0533 37.136C68.4053 37.136 68.5813 37.4453 68.5813 38.064V38.224C69.0933 37.808 69.5733 37.5093 70.0213 37.328C70.4799 37.136 70.9653 37.04 71.4773 37.04C72.3946 37.04 73.0773 37.2907 73.5253 37.792C73.9839 38.2827 74.2133 39.0347 74.2133 40.048V43.904ZM79.4669 46.16C78.9122 46.16 78.3789 46.08 77.8669 45.92C77.3549 45.76 76.9389 45.552 76.6189 45.296C76.3095 45.0293 76.1549 44.7413 76.1549 44.432C76.1549 44.24 76.2189 44.0747 76.3469 43.936C76.4855 43.7867 76.6615 43.696 76.8749 43.664C77.2055 44.144 77.5789 44.496 77.9949 44.72C78.4109 44.944 78.9229 45.056 79.5309 45.056C80.1389 45.056 80.5975 44.9227 80.9069 44.656C81.2162 44.3787 81.3709 44.016 81.3709 43.568C81.3709 43.28 81.2749 43.0453 81.0829 42.864C80.9015 42.672 80.6669 42.5227 80.3789 42.416C80.1015 42.2987 79.7229 42.176 79.2429 42.048C78.6135 41.8773 78.1069 41.712 77.7229 41.552C77.3495 41.3813 77.0242 41.136 76.7469 40.816C76.4802 40.4853 76.3469 40.0533 76.3469 39.52C76.3469 38.9867 76.4962 38.5333 76.7949 38.16C77.0935 37.7867 77.4775 37.5093 77.9469 37.328C78.4162 37.136 78.9069 37.04 79.4189 37.04C80.1335 37.04 80.7682 37.184 81.3229 37.472C81.8882 37.7493 82.3255 38.1387 82.6349 38.64C82.5069 38.8213 82.3682 38.9653 82.2189 39.072C82.0695 39.1787 81.9309 39.232 81.8029 39.232C81.6429 39.232 81.4989 39.1573 81.3709 39.008C80.8589 38.4107 80.2029 38.112 79.4029 38.112C78.9122 38.112 78.5229 38.224 78.2349 38.448C77.9469 38.672 77.8029 39.0133 77.8029 39.472C77.8029 39.76 77.8935 39.9947 78.0749 40.176C78.2562 40.3467 78.4855 40.4853 78.7629 40.592C79.0402 40.688 79.4135 40.7947 79.8829 40.912C80.5229 41.0827 81.0349 41.248 81.4189 41.408C81.8029 41.568 82.1335 41.8187 82.4109 42.16C82.6882 42.5013 82.8269 42.9547 82.8269 43.52C82.8269 44.3413 82.5229 44.9867 81.9149 45.456C81.3175 45.9253 80.5015 46.16 79.4669 46.16ZM88.7979 37.04C89.9712 37.04 90.8672 37.424 91.4859 38.192C92.1045 38.96 92.4139 40.0747 92.4139 41.536C92.4139 42.464 92.2485 43.28 91.9179 43.984C91.5872 44.6773 91.1125 45.216 90.4939 45.6C89.8859 45.9733 89.1712 46.16 88.3499 46.16C87.6139 46.16 86.9152 46.032 86.2539 45.776V49.568H84.7339V40.32C84.7339 38.7733 84.6325 37.824 84.4299 37.472C84.6325 37.3653 84.8405 37.2853 85.0539 37.232C85.2672 37.168 85.4539 37.136 85.6139 37.136C85.9659 37.136 86.1739 37.4507 86.2379 38.08C86.9525 37.3867 87.8059 37.04 88.7979 37.04ZM88.2379 45.056C89.0699 45.056 89.7099 44.752 90.1579 44.144C90.6165 43.536 90.8459 42.6667 90.8459 41.536C90.8459 40.3947 90.6592 39.5467 90.2859 38.992C89.9232 38.4267 89.3685 38.144 88.6219 38.144C88.1845 38.144 87.7579 38.2453 87.3419 38.448C86.9259 38.6507 86.5632 38.928 86.2539 39.28V44.64C86.5312 44.768 86.8405 44.8693 87.1819 44.944C87.5339 45.0187 87.8859 45.056 88.2379 45.056ZM97.4164 46.16C96.1577 46.16 95.203 45.7707 94.5524 44.992C93.9017 44.2133 93.5764 43.0773 93.5764 41.584C93.5764 40.0907 93.9017 38.96 94.5524 38.192C95.203 37.424 96.1577 37.04 97.4164 37.04C98.675 37.04 99.6297 37.424 100.28 38.192C100.942 38.96 101.272 40.0907 101.272 41.584C101.272 43.0773 100.942 44.2133 100.28 44.992C99.6297 45.7707 98.675 46.16 97.4164 46.16ZM97.4164 45.056C98.2164 45.056 98.7977 44.7787 99.1604 44.224C99.5337 43.6693 99.7204 42.7893 99.7204 41.584C99.7204 40.3893 99.5337 39.52 99.1604 38.976C98.7977 38.4213 98.2164 38.144 97.4164 38.144C96.6164 38.144 96.0297 38.4213 95.6564 38.976C95.2937 39.52 95.1124 40.3893 95.1124 41.584C95.1124 42.7893 95.299 43.6693 95.6724 44.224C96.0457 44.7787 96.627 45.056 97.4164 45.056ZM106.915 37.088C107.758 37.088 108.179 37.4027 108.179 38.032C108.179 38.288 108.11 38.496 107.971 38.656C107.694 38.5173 107.331 38.448 106.883 38.448C106.179 38.448 105.625 38.7093 105.219 39.232C104.825 39.744 104.627 40.4533 104.627 41.36V46H103.107V37.2H104.627V38.672C104.862 38.192 105.182 37.808 105.587 37.52C106.003 37.232 106.446 37.088 106.915 37.088ZM114.101 44.768C114.186 44.8107 114.255 44.8853 114.309 44.992C114.362 45.088 114.389 45.2 114.389 45.328C114.389 45.5413 114.309 45.696 114.149 45.792C113.989 45.9093 113.765 46 113.477 46.064C113.199 46.128 112.895 46.16 112.565 46.16C111.85 46.16 111.279 45.968 110.853 45.584C110.426 45.1893 110.213 44.6667 110.213 44.016V38.272H108.661V37.2H110.213V34.8H111.733V37.2H113.829V38.272H111.733V43.808C111.733 44.2347 111.818 44.5493 111.989 44.752C112.159 44.944 112.421 45.04 112.773 45.04C113.199 45.04 113.642 44.9493 114.101 44.768ZM122.385 43.44C122.385 44.0587 122.423 44.528 122.497 44.848C122.583 45.168 122.727 45.4453 122.929 45.68C122.78 45.7973 122.599 45.8987 122.385 45.984C122.172 46.0587 121.975 46.096 121.793 46.096C121.303 46.096 121.009 45.6587 120.913 44.784C120.593 45.2213 120.183 45.5627 119.681 45.808C119.191 46.0427 118.636 46.16 118.017 46.16C117.217 46.16 116.572 45.952 116.081 45.536C115.601 45.12 115.361 44.5653 115.361 43.872C115.361 41.9093 117.196 40.8373 120.865 40.656V40.032C120.865 39.4133 120.711 38.9547 120.401 38.656C120.092 38.3573 119.612 38.208 118.961 38.208C118.535 38.208 118.135 38.2933 117.761 38.464C117.388 38.6347 116.961 38.9333 116.481 39.36C116.407 39.4133 116.337 39.44 116.273 39.44C116.135 39.44 115.985 39.3707 115.825 39.232C115.665 39.0827 115.516 38.88 115.377 38.624C115.825 38.1227 116.38 37.7333 117.041 37.456C117.703 37.1787 118.391 37.04 119.105 37.04C120.129 37.04 120.929 37.3067 121.505 37.84C122.092 38.3627 122.385 39.0933 122.385 40.032V43.44ZM118.353 45.056C118.844 45.056 119.303 44.912 119.729 44.624C120.156 44.3253 120.535 43.904 120.865 43.36V41.648C118.22 41.7653 116.897 42.4747 116.897 43.776C116.897 44.192 117.02 44.512 117.265 44.736C117.521 44.9493 117.884 45.056 118.353 45.056ZM129.21 44.768C129.295 44.8107 129.365 44.8853 129.418 44.992C129.471 45.088 129.498 45.2 129.498 45.328C129.498 45.5413 129.418 45.696 129.258 45.792C129.098 45.9093 128.874 46 128.586 46.064C128.309 46.128 128.005 46.16 127.674 46.16C126.959 46.16 126.389 45.968 125.962 45.584C125.535 45.1893 125.322 44.6667 125.322 44.016V38.272H123.77V37.2H125.322V34.8H126.842V37.2H128.938V38.272H126.842V43.808C126.842 44.2347 126.927 44.5493 127.098 44.752C127.269 44.944 127.53 45.04 127.882 45.04C128.309 45.04 128.751 44.9493 129.21 44.768ZM131.271 37.2H132.775V46H131.271V37.2ZM131.943 35.584C131.345 35.584 131.047 35.2853 131.047 34.688V34.512C131.047 33.9147 131.345 33.616 131.943 33.616H132.103C132.7 33.616 132.999 33.9147 132.999 34.512V34.688C132.999 35.2853 132.7 35.584 132.103 35.584H131.943ZM138.76 46.16C137.501 46.16 136.547 45.7707 135.896 44.992C135.245 44.2133 134.92 43.0773 134.92 41.584C134.92 40.0907 135.245 38.96 135.896 38.192C136.547 37.424 137.501 37.04 138.76 37.04C140.019 37.04 140.973 37.424 141.624 38.192C142.285 38.96 142.616 40.0907 142.616 41.584C142.616 43.0773 142.285 44.2133 141.624 44.992C140.973 45.7707 140.019 46.16 138.76 46.16ZM138.76 45.056C139.56 45.056 140.141 44.7787 140.504 44.224C140.877 43.6693 141.064 42.7893 141.064 41.584C141.064 40.3893 140.877 39.52 140.504 38.976C140.141 38.4213 139.56 38.144 138.76 38.144C137.96 38.144 137.373 38.4213 137 38.976C136.637 39.52 136.456 40.3893 136.456 41.584C136.456 42.7893 136.643 43.6693 137.016 44.224C137.389 44.7787 137.971 45.056 138.76 45.056ZM151.635 43.904C151.635 44.5013 151.646 44.9227 151.667 45.168C151.699 45.4133 151.752 45.6373 151.827 45.84C151.443 46 151.043 46.08 150.627 46.08C150.424 46.08 150.286 45.9627 150.211 45.728C150.147 45.4827 150.115 45.0293 150.115 44.368V40.08C150.115 39.3973 149.992 38.912 149.747 38.624C149.512 38.3253 149.118 38.176 148.563 38.176C147.742 38.176 146.888 38.576 146.003 39.376V46H144.483V40.16C144.483 38.688 144.419 37.776 144.291 37.424C144.792 37.232 145.187 37.136 145.475 37.136C145.827 37.136 146.003 37.4453 146.003 38.064V38.224C146.515 37.808 146.995 37.5093 147.443 37.328C147.902 37.136 148.387 37.04 148.899 37.04C149.816 37.04 150.499 37.2907 150.947 37.792C151.406 38.2827 151.635 39.0347 151.635 40.048V43.904Z" fill="#FFB629"/>
</svg>
