<svg width="56" height="58" viewBox="0 0 56 58" fill="none" xmlns="http://www.w3.org/2000/svg">
<path d="M38.6426 15.3928V5.42847H44.2394C47.0739 5.42847 49.6287 7.13788 50.71 9.75805L52.7504 14.702C52.8862 15.0311 52.6442 15.3928 52.2882 15.3928H38.6426Z" fill="#FFD550" stroke="#1C1F35" stroke-width="2"/>
<path d="M1 22.0361H38.6429" stroke="#1C1F35" stroke-width="2" stroke-linecap="round" stroke-linejoin="round"/>
<path d="M41.9641 39.7496C45.6329 39.7496 48.607 36.7755 48.607 33.1067C48.607 29.438 45.6329 26.4639 41.9641 26.4639C38.2954 26.4639 35.3213 29.438 35.3213 33.1067C35.3213 36.7755 38.2954 39.7496 41.9641 39.7496Z" stroke="#1C1F35" stroke-width="2" stroke-linecap="round" stroke-linejoin="round"/>
<path d="M13.179 39.7496C16.8477 39.7496 19.8218 36.7755 19.8218 33.1067C19.8218 29.438 16.8477 26.4639 13.179 26.4639C9.51024 26.4639 6.53613 29.438 6.53613 33.1067C6.53613 36.7755 9.51024 39.7496 13.179 39.7496Z" fill="#FFD550" stroke="#1C1F35" stroke-width="2" stroke-linecap="round" stroke-linejoin="round"/>
<path d="M35.3213 32H19.8213" stroke="#1C1F35" stroke-width="2" stroke-linecap="round" stroke-linejoin="round"/>
<path d="M6.48036 32H2.88214C2.38297 32 1.90424 31.7959 1.55127 31.4325C1.1983 31.0692 1 30.5764 1 30.0625V2.9375C1 2.42364 1.1983 1.93083 1.55127 1.56748C1.90424 1.20413 2.38297 1 2.88214 1H38.6429V26.9625" stroke="#1C1F35" stroke-width="2" stroke-linecap="round" stroke-linejoin="round"/>
<path d="M38.6426 15.3926H54.1426V30.1545C54.1426 30.6439 53.9385 31.1132 53.5751 31.4593C53.2117 31.8053 52.7189 31.9997 52.2051 31.9997H48.4685" stroke="#1C1F35" stroke-width="2" stroke-linecap="round" stroke-linejoin="round"/>
<path d="M5.42871 14.7017L5.42871 5.42847" stroke="#1C1F35" stroke-width="2" stroke-linecap="round" stroke-linejoin="round"/>
<path d="M25.3567 17.6074L34.6299 17.6074" stroke="#1C1F35" stroke-width="2" stroke-linecap="round" stroke-linejoin="round"/>
<path d="M25.3573 36.3215L28.6787 36.3215" stroke="#1C1F35" stroke-width="2" stroke-linecap="round" stroke-linejoin="round"/>
</svg>
