<svg width="151" height="20" viewBox="0 0 151 20" fill="none" xmlns="http://www.w3.org/2000/svg">
                    <path
                        d="M14.0759 2.03236C15.173 2.03551 16.2242 2.45628 17 3.20276C17.7757 3.94925 18.213 4.9608 18.2162 6.01648V13.9839C18.213 15.0396 17.7757 16.0511 17 16.7976C16.2242 17.5441 15.173 17.9649 14.0759 17.968H5.79618C4.69911 17.9649 3.6479 17.5441 2.87215 16.7976C2.0964 16.0511 1.65914 15.0396 1.65586 13.9839V6.01648C1.65914 4.9608 2.0964 3.94925 2.87215 3.20276C3.6479 2.45628 4.69911 2.03551 5.79618 2.03236H14.0759ZM14.0759 0.438965H5.79618C2.60821 0.438965 0 2.94878 0 6.01648V13.9839C0 17.0516 2.60821 19.5614 5.79618 19.5614H14.0759C17.2639 19.5614 19.8721 17.0516 19.8721 13.9839V6.01648C19.8721 2.94878 17.2639 0.438965 14.0759 0.438965Z"
                        fill="white" />
                    <path
                        d="M15.3177 6.01677C15.072 6.01677 14.8319 5.94668 14.6277 5.81535C14.4234 5.68403 14.2642 5.49737 14.1702 5.27898C14.0762 5.0606 14.0516 4.82029 14.0995 4.58846C14.1475 4.35662 14.2658 4.14366 14.4395 3.97652C14.6131 3.80937 14.8345 3.69555 15.0754 3.64943C15.3163 3.60331 15.566 3.62698 15.793 3.71744C16.0199 3.8079 16.2139 3.96108 16.3504 4.15763C16.4868 4.35417 16.5597 4.58524 16.5597 4.82162C16.56 4.97866 16.5282 5.13423 16.4659 5.27938C16.4036 5.42454 16.3121 5.55642 16.1967 5.66747C16.0813 5.77852 15.9442 5.86654 15.7934 5.92648C15.6425 5.98642 15.4809 6.01711 15.3177 6.01677ZM9.9358 6.81325C10.5909 6.81325 11.2313 7.00018 11.7759 7.3504C12.3206 7.70061 12.7452 8.19839 12.9958 8.78077C13.2465 9.36316 13.3121 10.004 13.1843 10.6223C13.0565 11.2405 12.7411 11.8084 12.2779 12.2542C11.8146 12.6999 11.2245 13.0035 10.582 13.1264C9.93948 13.2494 9.27351 13.1863 8.66829 12.9451C8.06307 12.7038 7.54578 12.2953 7.18184 11.7712C6.81789 11.2471 6.62364 10.6308 6.62364 10.0005C6.62458 9.15544 6.97384 8.34529 7.59478 7.74777C8.21573 7.15024 9.05765 6.81416 9.9358 6.81325ZM9.9358 5.21986C8.95322 5.21986 7.9927 5.50024 7.17571 6.02554C6.35873 6.55084 5.72196 7.29747 5.34594 8.17101C4.96993 9.04455 4.87154 10.0058 5.06323 10.9331C5.25493 11.8605 5.72809 12.7123 6.42288 13.3809C7.11767 14.0494 8.00289 14.5048 8.96659 14.6892C9.93029 14.8737 10.9292 14.779 11.837 14.4172C12.7448 14.0553 13.5207 13.4426 14.0666 12.6564C14.6125 11.8703 14.9038 10.946 14.9038 10.0005C14.9038 8.73257 14.3804 7.51661 13.4487 6.62007C12.517 5.72353 11.2534 5.21986 9.9358 5.21986Z"
                        fill="white" />
                    <path fill-rule="evenodd" clip-rule="evenodd"
                        d="M64.4065 10.0578C64.4065 4.74704 59.8092 0.440918 54.1393 0.440918C48.4694 0.440918 43.8721 4.74704 43.8721 10.0578C43.8721 14.8576 47.626 18.8362 52.535 19.5583V12.8385H49.9274V10.0578H52.535V7.93907C52.535 5.52927 54.0682 4.19708 56.4132 4.19708C57.5366 4.19708 58.7119 4.38512 58.7119 4.38512V6.75199H57.4165C56.1418 6.75199 55.7431 7.49301 55.7431 8.25463V10.0578H58.5904L58.1357 12.8385H55.7435V19.5592C60.6525 18.8375 64.4065 14.8589 64.4065 10.0578Z"
                        fill="white" />
                    <path
                        d="M107.576 4.1537C106.857 4.46592 106.096 4.67161 105.317 4.76428C106.135 4.28554 106.751 3.52498 107.048 2.62523C106.274 3.07722 105.429 3.39436 104.549 3.56306C104.179 3.17497 103.733 2.86624 103.239 2.65562C102.746 2.445 102.214 2.33691 101.677 2.3379C99.5041 2.3379 97.7453 4.06989 97.7453 6.20495C97.7438 6.50193 97.7778 6.79802 97.8468 7.08691C96.2883 7.0139 94.7623 6.61663 93.3663 5.92051C91.9703 5.22439 90.7351 4.24475 89.7397 3.04426C89.3905 3.63255 89.2058 4.30377 89.205 4.98777C89.205 6.32866 89.9051 7.51392 90.9622 8.20832C90.3359 8.19346 89.7224 8.02781 89.1738 7.72543V7.77332C89.1738 9.64898 90.5317 11.2094 92.3288 11.5646C91.9908 11.6546 91.6426 11.7002 91.2928 11.7002C91.0447 11.7007 90.7971 11.6766 90.5536 11.6284C91.0532 13.1648 92.5073 14.2823 94.2297 14.3142C92.8301 15.3921 91.1118 15.9746 89.3448 15.9704C89.0311 15.9699 88.7177 15.9512 88.4062 15.9145C90.2039 17.0615 92.2934 17.6682 94.4262 17.6624C101.669 17.6624 105.626 11.7681 105.626 6.65591C105.626 6.4883 105.622 6.32068 105.614 6.15706C106.382 5.61115 107.046 4.93274 107.576 4.1537Z"
                        fill="white" />
                    <path
                        d="M149.441 0.291016H133.235C132.35 0.291016 131.576 0.928181 131.576 1.80331V18.0454C131.576 18.9253 132.35 19.7094 133.235 19.7094H149.437C150.327 19.7094 150.995 18.9201 150.995 18.0454V1.80331C151 0.928181 150.327 0.291016 149.441 0.291016ZM137.595 16.4772H134.814V7.82777H137.595V16.4772ZM136.301 6.51269H136.281C135.39 6.51269 134.814 5.84996 134.814 5.02034C134.814 4.17555 135.406 3.52842 136.316 3.52842C137.226 3.52842 137.783 4.17079 137.803 5.02034C137.803 5.84996 137.226 6.51269 136.301 6.51269ZM147.762 16.4772H144.98V11.7478C144.98 10.6148 144.576 9.84069 143.569 9.84069C142.8 9.84069 142.345 10.3608 142.143 10.8675C142.067 11.0496 142.046 11.2975 142.046 11.5506V16.4772H139.265V7.82777H142.046V9.03145C142.451 8.45496 143.084 7.62535 144.555 7.62535C146.381 7.62535 147.763 8.82903 147.763 11.4241L147.762 16.4772Z"
                        fill="white" />
                </svg>