<svg width="126" height="17" viewBox="0 0 126 17" fill="none" xmlns="http://www.w3.org/2000/svg">
<path d="M11.7283 1.45093C12.6424 1.45356 13.5183 1.80415 14.1646 2.42613C14.811 3.04812 15.1753 3.89095 15.1781 4.77057V11.4091C15.1753 12.2887 14.811 13.1316 14.1646 13.7536C13.5183 14.3755 12.6424 14.7261 11.7283 14.7288H4.82947C3.91537 14.7261 3.03949 14.3755 2.39312 13.7536C1.74675 13.1316 1.38242 12.2887 1.37969 11.4091V4.77057C1.38242 3.89095 1.74675 3.04812 2.39312 2.42613C3.03949 1.80415 3.91537 1.45356 4.82947 1.45093H11.7283ZM11.7283 0.123291H4.82947C2.1732 0.123291 0 2.21451 0 4.77057V11.4091C0 13.9652 2.1732 16.0564 4.82947 16.0564H11.7283C14.3845 16.0564 16.5578 13.9652 16.5578 11.4091V4.77057C16.5578 2.21451 14.3845 0.123291 11.7283 0.123291Z" fill="#1C1F35"/>
<path d="M12.7634 4.77118C12.5587 4.77118 12.3586 4.71278 12.1884 4.60336C12.0182 4.49393 11.8856 4.33841 11.8073 4.15644C11.7289 3.97448 11.7085 3.77426 11.7484 3.58109C11.7883 3.38792 11.8869 3.21048 12.0316 3.07121C12.1763 2.93194 12.3607 2.8371 12.5615 2.79868C12.7622 2.76025 12.9703 2.77997 13.1594 2.85534C13.3485 2.93071 13.5101 3.05835 13.6238 3.22211C13.7375 3.38588 13.7982 3.57841 13.7982 3.77536C13.7985 3.90621 13.7719 4.03583 13.72 4.15678C13.6681 4.27772 13.5919 4.38761 13.4958 4.48014C13.3996 4.57267 13.2854 4.64601 13.1597 4.69595C13.034 4.7459 12.8993 4.77146 12.7634 4.77118ZM8.27909 5.43482C8.82491 5.43482 9.35848 5.59057 9.81232 5.88238C10.2662 6.17418 10.6199 6.58894 10.8288 7.07419C11.0376 7.55945 11.0923 8.09341 10.9858 8.60855C10.8793 9.12369 10.6165 9.59688 10.2305 9.96828C9.84457 10.3397 9.35283 10.5926 8.81749 10.6951C8.28215 10.7975 7.72726 10.7449 7.22298 10.544C6.7187 10.343 6.28769 10.0026 5.98444 9.56586C5.6812 9.12914 5.51934 8.6157 5.51934 8.09046C5.52012 7.38637 5.81113 6.71134 6.32852 6.21347C6.8459 5.71561 7.5474 5.43558 8.27909 5.43482ZM8.27909 4.10718C7.46038 4.10718 6.66007 4.3408 5.97934 4.77849C5.29861 5.21617 4.76805 5.83828 4.45475 6.56613C4.14144 7.29398 4.05947 8.09488 4.21919 8.86756C4.37891 9.64024 4.77315 10.35 5.35206 10.9071C5.93097 11.4641 6.66855 11.8435 7.47152 11.9972C8.2745 12.1509 9.1068 12.072 9.86318 11.7705C10.6196 11.469 11.2661 10.9585 11.7209 10.3035C12.1758 9.64841 12.4185 8.87828 12.4185 8.09046C12.4185 7.03403 11.9824 6.02087 11.2061 5.27386C10.4298 4.52685 9.37694 4.10718 8.27909 4.10718Z" fill="#1C1F35"/>
<path fill-rule="evenodd" clip-rule="evenodd" d="M53.6674 8.13793C53.6674 3.71293 49.8368 0.125 45.1126 0.125C40.3883 0.125 36.5578 3.71293 36.5578 8.13793C36.5578 12.1372 39.6856 15.4522 43.7759 16.0539V10.4549H41.6032V8.13793H43.7759V6.37258C43.7759 4.3647 45.0534 3.25469 47.0072 3.25469C47.9433 3.25469 48.9225 3.41137 48.9225 3.41137V5.38348H47.8432C46.7811 5.38348 46.4489 6.00091 46.4489 6.63551V8.13793H48.8213L48.4424 10.4549H46.4492V16.0546C50.5395 15.4533 53.6674 12.1383 53.6674 8.13793Z" fill="#1C1F35"/>
<path d="M89.6396 3.21852C89.0405 3.47867 88.4065 3.65006 87.7579 3.72728C88.4396 3.32838 88.9522 2.69467 89.1997 1.94498C88.5552 2.32159 87.8512 2.58583 87.118 2.7264C86.8092 2.40304 86.4379 2.14579 86.0265 1.9703C85.6152 1.79481 85.1724 1.70475 84.7251 1.70557C82.9143 1.70557 81.4488 3.1487 81.4488 4.92766C81.4475 5.17511 81.4759 5.42182 81.5333 5.66252C80.2348 5.60169 78.9633 5.27068 77.8002 4.69066C76.637 4.11064 75.6078 3.29439 74.7784 2.29413C74.4875 2.7843 74.3336 3.34357 74.3329 3.91348C74.3329 5.03074 74.9162 6.01832 75.797 6.5969C75.2751 6.58452 74.764 6.4465 74.3069 6.19455V6.23445C74.3069 7.79728 75.4383 9.09743 76.9357 9.39337C76.6541 9.46838 76.3639 9.50638 76.0725 9.50642C75.8657 9.50678 75.6594 9.48673 75.4566 9.44657C75.8729 10.7268 77.0844 11.6578 78.5196 11.6844C77.3534 12.5825 75.9216 13.0679 74.4493 13.0644C74.188 13.064 73.9269 13.0484 73.6674 13.0178C75.1651 13.9735 76.9062 14.4791 78.6833 14.4742C84.7181 14.4742 88.0151 9.56295 88.0151 5.30341C88.0151 5.16375 88.0114 5.02409 88.0048 4.88776C88.6447 4.4329 89.1983 3.86763 89.6396 3.21852Z" fill="#1C1F35"/>
<path d="M124.525 0H111.022C110.284 0 109.64 0.530896 109.64 1.26007V14.7932C109.64 15.5264 110.284 16.1797 111.022 16.1797H124.521C125.263 16.1797 125.819 15.522 125.819 14.7932V1.26007C125.824 0.530896 125.263 0 124.525 0ZM114.655 13.4866H112.337V6.27974H114.655V13.4866ZM113.576 5.184H113.56C112.818 5.184 112.337 4.6318 112.337 3.94055C112.337 3.23666 112.83 2.69746 113.589 2.69746C114.347 2.69746 114.811 3.23269 114.828 3.94055C114.828 4.6318 114.347 5.184 113.576 5.184ZM123.126 13.4866H120.808V9.54601C120.808 8.60196 120.471 7.95694 119.632 7.95694C118.992 7.95694 118.612 8.39032 118.444 8.81251C118.381 8.9642 118.364 9.17077 118.364 9.38169V13.4866H116.046V6.27974H118.364V7.28266C118.701 6.80233 119.228 6.11108 120.454 6.11108C121.976 6.11108 123.127 7.11401 123.127 9.27623L123.126 13.4866Z" fill="#1C1F35"/>
</svg>
